G04 #@! TF.GenerationSoftware,KiCad,Pcbnew,(5.1.5-0-10_14)*
G04 #@! TF.CreationDate,2020-08-04T00:57:44-05:00*
G04 #@! TF.ProjectId,TempHumSensWithESP01,54656d70-4875-46d5-9365-6e7357697468,rev?*
G04 #@! TF.SameCoordinates,Original*
G04 #@! TF.FileFunction,Soldermask,Top*
G04 #@! TF.FilePolarity,Negative*
%FSLAX46Y46*%
G04 Gerber Fmt 4.6, Leading zero omitted, Abs format (unit mm)*
G04 Created by KiCad (PCBNEW (5.1.5-0-10_14)) date 2020-08-04 00:57:44*
%MOMM*%
%LPD*%
G04 APERTURE LIST*
%ADD10C,0.100000*%
G04 APERTURE END LIST*
D10*
G36*
X173634239Y-81811467D02*
G01*
X173948282Y-81873934D01*
X174539926Y-82119001D01*
X174940073Y-82386371D01*
X175072391Y-82474783D01*
X175525217Y-82927609D01*
X175542600Y-82953625D01*
X175880999Y-83460074D01*
X176126066Y-84051718D01*
X176126066Y-84051719D01*
X176251000Y-84679803D01*
X176251000Y-85320197D01*
X176223390Y-85459000D01*
X176126066Y-85948282D01*
X175880999Y-86539926D01*
X175654662Y-86878663D01*
X175533595Y-87059853D01*
X175525216Y-87072392D01*
X175072392Y-87525216D01*
X174539926Y-87880999D01*
X173948282Y-88126066D01*
X173634239Y-88188533D01*
X173320197Y-88251000D01*
X172679803Y-88251000D01*
X172365761Y-88188533D01*
X172051718Y-88126066D01*
X171460074Y-87880999D01*
X170927608Y-87525216D01*
X170474784Y-87072392D01*
X170466406Y-87059853D01*
X170345338Y-86878663D01*
X170119001Y-86539926D01*
X169873934Y-85948282D01*
X169776610Y-85459000D01*
X169749000Y-85320197D01*
X169749000Y-84679803D01*
X169873934Y-84051719D01*
X169873934Y-84051718D01*
X170119001Y-83460074D01*
X170457400Y-82953625D01*
X170474783Y-82927609D01*
X170927609Y-82474783D01*
X171059927Y-82386371D01*
X171460074Y-82119001D01*
X172051718Y-81873934D01*
X172365761Y-81811467D01*
X172679803Y-81749000D01*
X173320197Y-81749000D01*
X173634239Y-81811467D01*
G37*
G36*
X130634239Y-81811467D02*
G01*
X130948282Y-81873934D01*
X131539926Y-82119001D01*
X131940073Y-82386371D01*
X132072391Y-82474783D01*
X132525217Y-82927609D01*
X132542600Y-82953625D01*
X132880999Y-83460074D01*
X133126066Y-84051718D01*
X133126066Y-84051719D01*
X133251000Y-84679803D01*
X133251000Y-85320197D01*
X133223390Y-85459000D01*
X133126066Y-85948282D01*
X132880999Y-86539926D01*
X132654662Y-86878663D01*
X132533595Y-87059853D01*
X132525216Y-87072392D01*
X132072392Y-87525216D01*
X131539926Y-87880999D01*
X130948282Y-88126066D01*
X130634239Y-88188533D01*
X130320197Y-88251000D01*
X129679803Y-88251000D01*
X129365761Y-88188533D01*
X129051718Y-88126066D01*
X128460074Y-87880999D01*
X127927608Y-87525216D01*
X127474784Y-87072392D01*
X127466406Y-87059853D01*
X127345338Y-86878663D01*
X127119001Y-86539926D01*
X126873934Y-85948282D01*
X126776610Y-85459000D01*
X126749000Y-85320197D01*
X126749000Y-84679803D01*
X126873934Y-84051719D01*
X126873934Y-84051718D01*
X127119001Y-83460074D01*
X127457400Y-82953625D01*
X127474783Y-82927609D01*
X127927609Y-82474783D01*
X128059927Y-82386371D01*
X128460074Y-82119001D01*
X129051718Y-81873934D01*
X129365761Y-81811467D01*
X129679803Y-81749000D01*
X130320197Y-81749000D01*
X130634239Y-81811467D01*
G37*
G36*
X148539468Y-86763565D02*
G01*
X148578138Y-86775296D01*
X148613777Y-86794346D01*
X148645017Y-86819983D01*
X148670654Y-86851223D01*
X148689704Y-86886862D01*
X148701435Y-86925532D01*
X148706000Y-86971888D01*
X148706000Y-87623112D01*
X148701435Y-87669468D01*
X148689704Y-87708138D01*
X148670654Y-87743777D01*
X148645017Y-87775017D01*
X148613777Y-87800654D01*
X148578138Y-87819704D01*
X148539468Y-87831435D01*
X148493112Y-87836000D01*
X147416888Y-87836000D01*
X147370532Y-87831435D01*
X147331862Y-87819704D01*
X147296223Y-87800654D01*
X147264983Y-87775017D01*
X147239346Y-87743777D01*
X147220296Y-87708138D01*
X147208565Y-87669468D01*
X147204000Y-87623112D01*
X147204000Y-86971888D01*
X147208565Y-86925532D01*
X147220296Y-86886862D01*
X147239346Y-86851223D01*
X147264983Y-86819983D01*
X147296223Y-86794346D01*
X147331862Y-86775296D01*
X147370532Y-86763565D01*
X147416888Y-86759000D01*
X148493112Y-86759000D01*
X148539468Y-86763565D01*
G37*
G36*
X154571000Y-87261000D02*
G01*
X152769000Y-87261000D01*
X152769000Y-85459000D01*
X154571000Y-85459000D01*
X154571000Y-87261000D01*
G37*
G36*
X144893512Y-85463927D02*
G01*
X145042812Y-85493624D01*
X145206784Y-85561544D01*
X145354354Y-85660147D01*
X145479853Y-85785646D01*
X145578456Y-85933216D01*
X145646376Y-86097188D01*
X145675987Y-86246056D01*
X145679435Y-86263388D01*
X145681000Y-86271259D01*
X145681000Y-86448741D01*
X145646376Y-86622812D01*
X145578456Y-86786784D01*
X145479853Y-86934354D01*
X145354354Y-87059853D01*
X145206784Y-87158456D01*
X145042812Y-87226376D01*
X144893512Y-87256073D01*
X144868742Y-87261000D01*
X144691258Y-87261000D01*
X144666488Y-87256073D01*
X144517188Y-87226376D01*
X144353216Y-87158456D01*
X144205646Y-87059853D01*
X144080147Y-86934354D01*
X143981544Y-86786784D01*
X143913624Y-86622812D01*
X143879000Y-86448741D01*
X143879000Y-86271259D01*
X143880566Y-86263388D01*
X143884013Y-86246056D01*
X143913624Y-86097188D01*
X143981544Y-85933216D01*
X144080147Y-85785646D01*
X144205646Y-85660147D01*
X144353216Y-85561544D01*
X144517188Y-85493624D01*
X144666488Y-85463927D01*
X144691258Y-85459000D01*
X144868742Y-85459000D01*
X144893512Y-85463927D01*
G37*
G36*
X142353512Y-85463927D02*
G01*
X142502812Y-85493624D01*
X142666784Y-85561544D01*
X142814354Y-85660147D01*
X142939853Y-85785646D01*
X143038456Y-85933216D01*
X143106376Y-86097188D01*
X143135987Y-86246056D01*
X143139435Y-86263388D01*
X143141000Y-86271259D01*
X143141000Y-86448741D01*
X143106376Y-86622812D01*
X143038456Y-86786784D01*
X142939853Y-86934354D01*
X142814354Y-87059853D01*
X142666784Y-87158456D01*
X142502812Y-87226376D01*
X142353512Y-87256073D01*
X142328742Y-87261000D01*
X142151258Y-87261000D01*
X142126488Y-87256073D01*
X141977188Y-87226376D01*
X141813216Y-87158456D01*
X141665646Y-87059853D01*
X141540147Y-86934354D01*
X141441544Y-86786784D01*
X141373624Y-86622812D01*
X141339000Y-86448741D01*
X141339000Y-86271259D01*
X141340566Y-86263388D01*
X141344013Y-86246056D01*
X141373624Y-86097188D01*
X141441544Y-85933216D01*
X141540147Y-85785646D01*
X141665646Y-85660147D01*
X141813216Y-85561544D01*
X141977188Y-85493624D01*
X142126488Y-85463927D01*
X142151258Y-85459000D01*
X142328742Y-85459000D01*
X142353512Y-85463927D01*
G37*
G36*
X139813512Y-85463927D02*
G01*
X139962812Y-85493624D01*
X140126784Y-85561544D01*
X140274354Y-85660147D01*
X140399853Y-85785646D01*
X140498456Y-85933216D01*
X140566376Y-86097188D01*
X140595987Y-86246056D01*
X140599435Y-86263388D01*
X140601000Y-86271259D01*
X140601000Y-86448741D01*
X140566376Y-86622812D01*
X140498456Y-86786784D01*
X140399853Y-86934354D01*
X140274354Y-87059853D01*
X140126784Y-87158456D01*
X139962812Y-87226376D01*
X139813512Y-87256073D01*
X139788742Y-87261000D01*
X139611258Y-87261000D01*
X139586488Y-87256073D01*
X139437188Y-87226376D01*
X139273216Y-87158456D01*
X139125646Y-87059853D01*
X139000147Y-86934354D01*
X138901544Y-86786784D01*
X138833624Y-86622812D01*
X138799000Y-86448741D01*
X138799000Y-86271259D01*
X138800566Y-86263388D01*
X138804013Y-86246056D01*
X138833624Y-86097188D01*
X138901544Y-85933216D01*
X139000147Y-85785646D01*
X139125646Y-85660147D01*
X139273216Y-85561544D01*
X139437188Y-85493624D01*
X139586488Y-85463927D01*
X139611258Y-85459000D01*
X139788742Y-85459000D01*
X139813512Y-85463927D01*
G37*
G36*
X137273512Y-85463927D02*
G01*
X137422812Y-85493624D01*
X137586784Y-85561544D01*
X137734354Y-85660147D01*
X137859853Y-85785646D01*
X137958456Y-85933216D01*
X138026376Y-86097188D01*
X138055987Y-86246056D01*
X138059435Y-86263388D01*
X138061000Y-86271259D01*
X138061000Y-86448741D01*
X138026376Y-86622812D01*
X137958456Y-86786784D01*
X137859853Y-86934354D01*
X137734354Y-87059853D01*
X137586784Y-87158456D01*
X137422812Y-87226376D01*
X137273512Y-87256073D01*
X137248742Y-87261000D01*
X137071258Y-87261000D01*
X137046488Y-87256073D01*
X136897188Y-87226376D01*
X136733216Y-87158456D01*
X136585646Y-87059853D01*
X136460147Y-86934354D01*
X136361544Y-86786784D01*
X136293624Y-86622812D01*
X136259000Y-86448741D01*
X136259000Y-86271259D01*
X136260566Y-86263388D01*
X136264013Y-86246056D01*
X136293624Y-86097188D01*
X136361544Y-85933216D01*
X136460147Y-85785646D01*
X136585646Y-85660147D01*
X136733216Y-85561544D01*
X136897188Y-85493624D01*
X137046488Y-85463927D01*
X137071258Y-85459000D01*
X137248742Y-85459000D01*
X137273512Y-85463927D01*
G37*
G36*
X156323512Y-85463927D02*
G01*
X156472812Y-85493624D01*
X156636784Y-85561544D01*
X156784354Y-85660147D01*
X156909853Y-85785646D01*
X157008456Y-85933216D01*
X157076376Y-86097188D01*
X157105987Y-86246056D01*
X157109435Y-86263388D01*
X157111000Y-86271259D01*
X157111000Y-86448741D01*
X157076376Y-86622812D01*
X157008456Y-86786784D01*
X156909853Y-86934354D01*
X156784354Y-87059853D01*
X156636784Y-87158456D01*
X156472812Y-87226376D01*
X156323512Y-87256073D01*
X156298742Y-87261000D01*
X156121258Y-87261000D01*
X156096488Y-87256073D01*
X155947188Y-87226376D01*
X155783216Y-87158456D01*
X155635646Y-87059853D01*
X155510147Y-86934354D01*
X155411544Y-86786784D01*
X155343624Y-86622812D01*
X155309000Y-86448741D01*
X155309000Y-86271259D01*
X155310566Y-86263388D01*
X155314013Y-86246056D01*
X155343624Y-86097188D01*
X155411544Y-85933216D01*
X155510147Y-85785646D01*
X155635646Y-85660147D01*
X155783216Y-85561544D01*
X155947188Y-85493624D01*
X156096488Y-85463927D01*
X156121258Y-85459000D01*
X156298742Y-85459000D01*
X156323512Y-85463927D01*
G37*
G36*
X166483512Y-85463927D02*
G01*
X166632812Y-85493624D01*
X166796784Y-85561544D01*
X166944354Y-85660147D01*
X167069853Y-85785646D01*
X167168456Y-85933216D01*
X167236376Y-86097188D01*
X167265987Y-86246056D01*
X167269435Y-86263388D01*
X167271000Y-86271259D01*
X167271000Y-86448741D01*
X167236376Y-86622812D01*
X167168456Y-86786784D01*
X167069853Y-86934354D01*
X166944354Y-87059853D01*
X166796784Y-87158456D01*
X166632812Y-87226376D01*
X166483512Y-87256073D01*
X166458742Y-87261000D01*
X166281258Y-87261000D01*
X166256488Y-87256073D01*
X166107188Y-87226376D01*
X165943216Y-87158456D01*
X165795646Y-87059853D01*
X165670147Y-86934354D01*
X165571544Y-86786784D01*
X165503624Y-86622812D01*
X165469000Y-86448741D01*
X165469000Y-86271259D01*
X165470566Y-86263388D01*
X165474013Y-86246056D01*
X165503624Y-86097188D01*
X165571544Y-85933216D01*
X165670147Y-85785646D01*
X165795646Y-85660147D01*
X165943216Y-85561544D01*
X166107188Y-85493624D01*
X166256488Y-85463927D01*
X166281258Y-85459000D01*
X166458742Y-85459000D01*
X166483512Y-85463927D01*
G37*
G36*
X163943512Y-85463927D02*
G01*
X164092812Y-85493624D01*
X164256784Y-85561544D01*
X164404354Y-85660147D01*
X164529853Y-85785646D01*
X164628456Y-85933216D01*
X164696376Y-86097188D01*
X164725987Y-86246056D01*
X164729435Y-86263388D01*
X164731000Y-86271259D01*
X164731000Y-86448741D01*
X164696376Y-86622812D01*
X164628456Y-86786784D01*
X164529853Y-86934354D01*
X164404354Y-87059853D01*
X164256784Y-87158456D01*
X164092812Y-87226376D01*
X163943512Y-87256073D01*
X163918742Y-87261000D01*
X163741258Y-87261000D01*
X163716488Y-87256073D01*
X163567188Y-87226376D01*
X163403216Y-87158456D01*
X163255646Y-87059853D01*
X163130147Y-86934354D01*
X163031544Y-86786784D01*
X162963624Y-86622812D01*
X162929000Y-86448741D01*
X162929000Y-86271259D01*
X162930566Y-86263388D01*
X162934013Y-86246056D01*
X162963624Y-86097188D01*
X163031544Y-85933216D01*
X163130147Y-85785646D01*
X163255646Y-85660147D01*
X163403216Y-85561544D01*
X163567188Y-85493624D01*
X163716488Y-85463927D01*
X163741258Y-85459000D01*
X163918742Y-85459000D01*
X163943512Y-85463927D01*
G37*
G36*
X161403512Y-85463927D02*
G01*
X161552812Y-85493624D01*
X161716784Y-85561544D01*
X161864354Y-85660147D01*
X161989853Y-85785646D01*
X162088456Y-85933216D01*
X162156376Y-86097188D01*
X162185987Y-86246056D01*
X162189435Y-86263388D01*
X162191000Y-86271259D01*
X162191000Y-86448741D01*
X162156376Y-86622812D01*
X162088456Y-86786784D01*
X161989853Y-86934354D01*
X161864354Y-87059853D01*
X161716784Y-87158456D01*
X161552812Y-87226376D01*
X161403512Y-87256073D01*
X161378742Y-87261000D01*
X161201258Y-87261000D01*
X161176488Y-87256073D01*
X161027188Y-87226376D01*
X160863216Y-87158456D01*
X160715646Y-87059853D01*
X160590147Y-86934354D01*
X160491544Y-86786784D01*
X160423624Y-86622812D01*
X160389000Y-86448741D01*
X160389000Y-86271259D01*
X160390566Y-86263388D01*
X160394013Y-86246056D01*
X160423624Y-86097188D01*
X160491544Y-85933216D01*
X160590147Y-85785646D01*
X160715646Y-85660147D01*
X160863216Y-85561544D01*
X161027188Y-85493624D01*
X161176488Y-85463927D01*
X161201258Y-85459000D01*
X161378742Y-85459000D01*
X161403512Y-85463927D01*
G37*
G36*
X158863512Y-85463927D02*
G01*
X159012812Y-85493624D01*
X159176784Y-85561544D01*
X159324354Y-85660147D01*
X159449853Y-85785646D01*
X159548456Y-85933216D01*
X159616376Y-86097188D01*
X159645987Y-86246056D01*
X159649435Y-86263388D01*
X159651000Y-86271259D01*
X159651000Y-86448741D01*
X159616376Y-86622812D01*
X159548456Y-86786784D01*
X159449853Y-86934354D01*
X159324354Y-87059853D01*
X159176784Y-87158456D01*
X159012812Y-87226376D01*
X158863512Y-87256073D01*
X158838742Y-87261000D01*
X158661258Y-87261000D01*
X158636488Y-87256073D01*
X158487188Y-87226376D01*
X158323216Y-87158456D01*
X158175646Y-87059853D01*
X158050147Y-86934354D01*
X157951544Y-86786784D01*
X157883624Y-86622812D01*
X157849000Y-86448741D01*
X157849000Y-86271259D01*
X157850566Y-86263388D01*
X157854013Y-86246056D01*
X157883624Y-86097188D01*
X157951544Y-85933216D01*
X158050147Y-85785646D01*
X158175646Y-85660147D01*
X158323216Y-85561544D01*
X158487188Y-85493624D01*
X158636488Y-85463927D01*
X158661258Y-85459000D01*
X158838742Y-85459000D01*
X158863512Y-85463927D01*
G37*
G36*
X148539468Y-84888565D02*
G01*
X148578138Y-84900296D01*
X148613777Y-84919346D01*
X148645017Y-84944983D01*
X148670654Y-84976223D01*
X148689704Y-85011862D01*
X148701435Y-85050532D01*
X148706000Y-85096888D01*
X148706000Y-85748112D01*
X148701435Y-85794468D01*
X148689704Y-85833138D01*
X148670654Y-85868777D01*
X148645017Y-85900017D01*
X148613777Y-85925654D01*
X148578138Y-85944704D01*
X148539468Y-85956435D01*
X148493112Y-85961000D01*
X147416888Y-85961000D01*
X147370532Y-85956435D01*
X147331862Y-85944704D01*
X147296223Y-85925654D01*
X147264983Y-85900017D01*
X147239346Y-85868777D01*
X147220296Y-85833138D01*
X147208565Y-85794468D01*
X147204000Y-85748112D01*
X147204000Y-85096888D01*
X147208565Y-85050532D01*
X147220296Y-85011862D01*
X147239346Y-84976223D01*
X147264983Y-84944983D01*
X147296223Y-84919346D01*
X147331862Y-84900296D01*
X147370532Y-84888565D01*
X147416888Y-84884000D01*
X148493112Y-84884000D01*
X148539468Y-84888565D01*
G37*
G36*
X142353512Y-82923927D02*
G01*
X142502812Y-82953624D01*
X142666784Y-83021544D01*
X142814354Y-83120147D01*
X142939853Y-83245646D01*
X143038456Y-83393216D01*
X143106376Y-83557188D01*
X143141000Y-83731259D01*
X143141000Y-83908741D01*
X143106376Y-84082812D01*
X143038456Y-84246784D01*
X142939853Y-84394354D01*
X142814354Y-84519853D01*
X142666784Y-84618456D01*
X142502812Y-84686376D01*
X142371454Y-84712504D01*
X142328742Y-84721000D01*
X142151258Y-84721000D01*
X142108546Y-84712504D01*
X141977188Y-84686376D01*
X141813216Y-84618456D01*
X141665646Y-84519853D01*
X141540147Y-84394354D01*
X141441544Y-84246784D01*
X141373624Y-84082812D01*
X141339000Y-83908741D01*
X141339000Y-83731259D01*
X141373624Y-83557188D01*
X141441544Y-83393216D01*
X141540147Y-83245646D01*
X141665646Y-83120147D01*
X141813216Y-83021544D01*
X141977188Y-82953624D01*
X142126488Y-82923927D01*
X142151258Y-82919000D01*
X142328742Y-82919000D01*
X142353512Y-82923927D01*
G37*
G36*
X139813512Y-82923927D02*
G01*
X139962812Y-82953624D01*
X140126784Y-83021544D01*
X140274354Y-83120147D01*
X140399853Y-83245646D01*
X140498456Y-83393216D01*
X140566376Y-83557188D01*
X140601000Y-83731259D01*
X140601000Y-83908741D01*
X140566376Y-84082812D01*
X140498456Y-84246784D01*
X140399853Y-84394354D01*
X140274354Y-84519853D01*
X140126784Y-84618456D01*
X139962812Y-84686376D01*
X139831454Y-84712504D01*
X139788742Y-84721000D01*
X139611258Y-84721000D01*
X139568546Y-84712504D01*
X139437188Y-84686376D01*
X139273216Y-84618456D01*
X139125646Y-84519853D01*
X139000147Y-84394354D01*
X138901544Y-84246784D01*
X138833624Y-84082812D01*
X138799000Y-83908741D01*
X138799000Y-83731259D01*
X138833624Y-83557188D01*
X138901544Y-83393216D01*
X139000147Y-83245646D01*
X139125646Y-83120147D01*
X139273216Y-83021544D01*
X139437188Y-82953624D01*
X139586488Y-82923927D01*
X139611258Y-82919000D01*
X139788742Y-82919000D01*
X139813512Y-82923927D01*
G37*
G36*
X138061000Y-84721000D02*
G01*
X136259000Y-84721000D01*
X136259000Y-82919000D01*
X138061000Y-82919000D01*
X138061000Y-84721000D01*
G37*
G36*
X144893512Y-82923927D02*
G01*
X145042812Y-82953624D01*
X145206784Y-83021544D01*
X145354354Y-83120147D01*
X145479853Y-83245646D01*
X145578456Y-83393216D01*
X145646376Y-83557188D01*
X145681000Y-83731259D01*
X145681000Y-83908741D01*
X145646376Y-84082812D01*
X145578456Y-84246784D01*
X145479853Y-84394354D01*
X145354354Y-84519853D01*
X145206784Y-84618456D01*
X145042812Y-84686376D01*
X144911454Y-84712504D01*
X144868742Y-84721000D01*
X144691258Y-84721000D01*
X144648546Y-84712504D01*
X144517188Y-84686376D01*
X144353216Y-84618456D01*
X144205646Y-84519853D01*
X144080147Y-84394354D01*
X143981544Y-84246784D01*
X143913624Y-84082812D01*
X143879000Y-83908741D01*
X143879000Y-83731259D01*
X143913624Y-83557188D01*
X143981544Y-83393216D01*
X144080147Y-83245646D01*
X144205646Y-83120147D01*
X144353216Y-83021544D01*
X144517188Y-82953624D01*
X144666488Y-82923927D01*
X144691258Y-82919000D01*
X144868742Y-82919000D01*
X144893512Y-82923927D01*
G37*
G36*
X160514999Y-82384737D02*
G01*
X160524608Y-82387652D01*
X160533472Y-82392390D01*
X160541237Y-82398763D01*
X160551448Y-82411206D01*
X160558378Y-82421575D01*
X160575705Y-82438902D01*
X160596080Y-82452515D01*
X160618720Y-82461891D01*
X160642753Y-82466671D01*
X160667257Y-82466670D01*
X160691290Y-82461888D01*
X160713929Y-82452510D01*
X160734302Y-82438895D01*
X160751629Y-82421568D01*
X160758558Y-82411198D01*
X160768763Y-82398763D01*
X160776528Y-82392390D01*
X160785392Y-82387652D01*
X160795001Y-82384737D01*
X160811140Y-82383148D01*
X161298861Y-82383148D01*
X161317199Y-82384954D01*
X161329450Y-82385556D01*
X161347869Y-82385556D01*
X161370149Y-82387750D01*
X161454233Y-82404476D01*
X161475660Y-82410976D01*
X161554858Y-82443780D01*
X161560303Y-82446691D01*
X161560309Y-82446693D01*
X161569169Y-82451429D01*
X161569173Y-82451432D01*
X161574614Y-82454340D01*
X161645899Y-82501971D01*
X161663204Y-82516172D01*
X161723828Y-82576796D01*
X161738029Y-82594101D01*
X161785660Y-82665386D01*
X161788568Y-82670827D01*
X161788571Y-82670831D01*
X161793307Y-82679691D01*
X161793309Y-82679697D01*
X161796220Y-82685142D01*
X161829024Y-82764340D01*
X161835524Y-82785767D01*
X161852250Y-82869851D01*
X161854444Y-82892131D01*
X161854444Y-82910550D01*
X161855046Y-82922801D01*
X161856852Y-82941139D01*
X161856852Y-83428862D01*
X161855046Y-83447199D01*
X161854444Y-83459450D01*
X161854444Y-83477869D01*
X161852250Y-83500149D01*
X161835524Y-83584233D01*
X161829024Y-83605660D01*
X161796220Y-83684858D01*
X161793309Y-83690303D01*
X161793307Y-83690309D01*
X161788571Y-83699169D01*
X161788568Y-83699173D01*
X161785660Y-83704614D01*
X161738029Y-83775899D01*
X161723828Y-83793204D01*
X161663204Y-83853828D01*
X161645899Y-83868029D01*
X161574614Y-83915660D01*
X161569173Y-83918568D01*
X161569169Y-83918571D01*
X161560309Y-83923307D01*
X161560303Y-83923309D01*
X161554858Y-83926220D01*
X161475660Y-83959024D01*
X161454233Y-83965524D01*
X161370149Y-83982250D01*
X161347869Y-83984444D01*
X161329450Y-83984444D01*
X161317199Y-83985046D01*
X161298862Y-83986852D01*
X160811140Y-83986852D01*
X160795001Y-83985263D01*
X160785392Y-83982348D01*
X160776528Y-83977610D01*
X160768763Y-83971237D01*
X160758552Y-83958794D01*
X160751622Y-83948425D01*
X160734295Y-83931098D01*
X160713920Y-83917485D01*
X160691280Y-83908109D01*
X160667247Y-83903329D01*
X160642743Y-83903330D01*
X160618710Y-83908112D01*
X160596071Y-83917490D01*
X160575698Y-83931105D01*
X160558371Y-83948432D01*
X160551442Y-83958802D01*
X160541237Y-83971237D01*
X160533472Y-83977610D01*
X160524608Y-83982348D01*
X160514999Y-83985263D01*
X160498860Y-83986852D01*
X160011138Y-83986852D01*
X159992801Y-83985046D01*
X159980550Y-83984444D01*
X159962131Y-83984444D01*
X159939851Y-83982250D01*
X159855767Y-83965524D01*
X159834340Y-83959024D01*
X159755142Y-83926220D01*
X159749697Y-83923309D01*
X159749691Y-83923307D01*
X159740831Y-83918571D01*
X159740827Y-83918568D01*
X159735386Y-83915660D01*
X159664101Y-83868029D01*
X159646796Y-83853828D01*
X159586172Y-83793204D01*
X159571971Y-83775899D01*
X159524340Y-83704614D01*
X159521432Y-83699173D01*
X159521429Y-83699169D01*
X159516693Y-83690309D01*
X159516691Y-83690303D01*
X159513780Y-83684858D01*
X159480976Y-83605660D01*
X159474476Y-83584233D01*
X159457750Y-83500149D01*
X159455556Y-83477869D01*
X159455556Y-83459450D01*
X159454954Y-83447199D01*
X159453148Y-83428862D01*
X159453148Y-82941139D01*
X159454954Y-82922801D01*
X159455556Y-82910550D01*
X159455556Y-82892131D01*
X159457750Y-82869851D01*
X159474476Y-82785767D01*
X159480976Y-82764340D01*
X159513780Y-82685142D01*
X159516691Y-82679697D01*
X159516693Y-82679691D01*
X159521429Y-82670831D01*
X159521432Y-82670827D01*
X159524340Y-82665386D01*
X159571971Y-82594101D01*
X159586172Y-82576796D01*
X159646796Y-82516172D01*
X159664101Y-82501971D01*
X159735386Y-82454340D01*
X159740827Y-82451432D01*
X159740831Y-82451429D01*
X159749691Y-82446693D01*
X159749697Y-82446691D01*
X159755142Y-82443780D01*
X159834340Y-82410976D01*
X159855767Y-82404476D01*
X159939851Y-82387750D01*
X159962131Y-82385556D01*
X159980550Y-82385556D01*
X159992801Y-82384954D01*
X160011139Y-82383148D01*
X160498860Y-82383148D01*
X160514999Y-82384737D01*
G37*
G36*
X166409468Y-82438565D02*
G01*
X166448138Y-82450296D01*
X166483777Y-82469346D01*
X166515017Y-82494983D01*
X166540654Y-82526223D01*
X166559704Y-82561862D01*
X166571435Y-82600532D01*
X166576000Y-82646888D01*
X166576000Y-83723112D01*
X166571435Y-83769468D01*
X166559704Y-83808138D01*
X166540654Y-83843777D01*
X166515017Y-83875017D01*
X166483777Y-83900654D01*
X166448138Y-83919704D01*
X166409468Y-83931435D01*
X166363112Y-83936000D01*
X165711888Y-83936000D01*
X165665532Y-83931435D01*
X165626862Y-83919704D01*
X165591223Y-83900654D01*
X165559983Y-83875017D01*
X165534346Y-83843777D01*
X165515296Y-83808138D01*
X165503565Y-83769468D01*
X165499000Y-83723112D01*
X165499000Y-82646888D01*
X165503565Y-82600532D01*
X165515296Y-82561862D01*
X165534346Y-82526223D01*
X165559983Y-82494983D01*
X165591223Y-82469346D01*
X165626862Y-82450296D01*
X165665532Y-82438565D01*
X165711888Y-82434000D01*
X166363112Y-82434000D01*
X166409468Y-82438565D01*
G37*
G36*
X164534468Y-82438565D02*
G01*
X164573138Y-82450296D01*
X164608777Y-82469346D01*
X164640017Y-82494983D01*
X164665654Y-82526223D01*
X164684704Y-82561862D01*
X164696435Y-82600532D01*
X164701000Y-82646888D01*
X164701000Y-83723112D01*
X164696435Y-83769468D01*
X164684704Y-83808138D01*
X164665654Y-83843777D01*
X164640017Y-83875017D01*
X164608777Y-83900654D01*
X164573138Y-83919704D01*
X164534468Y-83931435D01*
X164488112Y-83936000D01*
X163836888Y-83936000D01*
X163790532Y-83931435D01*
X163751862Y-83919704D01*
X163716223Y-83900654D01*
X163684983Y-83875017D01*
X163659346Y-83843777D01*
X163640296Y-83808138D01*
X163628565Y-83769468D01*
X163624000Y-83723112D01*
X163624000Y-82646888D01*
X163628565Y-82600532D01*
X163640296Y-82561862D01*
X163659346Y-82526223D01*
X163684983Y-82494983D01*
X163716223Y-82469346D01*
X163751862Y-82450296D01*
X163790532Y-82438565D01*
X163836888Y-82434000D01*
X164488112Y-82434000D01*
X164534468Y-82438565D01*
G37*
G36*
X147148674Y-79898465D02*
G01*
X147186367Y-79909899D01*
X147221103Y-79928466D01*
X147251548Y-79953452D01*
X147276534Y-79983897D01*
X147295101Y-80018633D01*
X147306535Y-80056326D01*
X147311000Y-80101661D01*
X147311000Y-81188339D01*
X147306535Y-81233674D01*
X147295101Y-81271367D01*
X147276534Y-81306103D01*
X147251548Y-81336548D01*
X147221103Y-81361534D01*
X147186367Y-81380101D01*
X147148674Y-81391535D01*
X147103339Y-81396000D01*
X146266661Y-81396000D01*
X146221326Y-81391535D01*
X146183633Y-81380101D01*
X146148897Y-81361534D01*
X146118452Y-81336548D01*
X146093466Y-81306103D01*
X146074899Y-81271367D01*
X146063465Y-81233674D01*
X146059000Y-81188339D01*
X146059000Y-80101661D01*
X146063465Y-80056326D01*
X146074899Y-80018633D01*
X146093466Y-79983897D01*
X146118452Y-79953452D01*
X146148897Y-79928466D01*
X146183633Y-79909899D01*
X146221326Y-79898465D01*
X146266661Y-79894000D01*
X147103339Y-79894000D01*
X147148674Y-79898465D01*
G37*
G36*
X145098674Y-79898465D02*
G01*
X145136367Y-79909899D01*
X145171103Y-79928466D01*
X145201548Y-79953452D01*
X145226534Y-79983897D01*
X145245101Y-80018633D01*
X145256535Y-80056326D01*
X145261000Y-80101661D01*
X145261000Y-81188339D01*
X145256535Y-81233674D01*
X145245101Y-81271367D01*
X145226534Y-81306103D01*
X145201548Y-81336548D01*
X145171103Y-81361534D01*
X145136367Y-81380101D01*
X145098674Y-81391535D01*
X145053339Y-81396000D01*
X144216661Y-81396000D01*
X144171326Y-81391535D01*
X144133633Y-81380101D01*
X144098897Y-81361534D01*
X144068452Y-81336548D01*
X144043466Y-81306103D01*
X144024899Y-81271367D01*
X144013465Y-81233674D01*
X144009000Y-81188339D01*
X144009000Y-80101661D01*
X144013465Y-80056326D01*
X144024899Y-80018633D01*
X144043466Y-79983897D01*
X144068452Y-79953452D01*
X144098897Y-79928466D01*
X144133633Y-79909899D01*
X144171326Y-79898465D01*
X144216661Y-79894000D01*
X145053339Y-79894000D01*
X145098674Y-79898465D01*
G37*
G36*
X152294999Y-79209737D02*
G01*
X152309528Y-79214145D01*
X152322711Y-79219606D01*
X152346745Y-79224388D01*
X152371249Y-79224389D01*
X152395282Y-79219609D01*
X152417921Y-79210232D01*
X152419765Y-79209000D01*
X153651050Y-79209000D01*
X153663164Y-79215475D01*
X153686613Y-79222588D01*
X153710999Y-79224990D01*
X153735385Y-79222588D01*
X153758834Y-79215475D01*
X153763746Y-79213152D01*
X153775001Y-79209737D01*
X153791140Y-79208148D01*
X154328861Y-79208148D01*
X154347199Y-79209954D01*
X154359450Y-79210556D01*
X154377869Y-79210556D01*
X154400149Y-79212750D01*
X154484233Y-79229476D01*
X154505660Y-79235976D01*
X154584858Y-79268780D01*
X154590303Y-79271691D01*
X154590309Y-79271693D01*
X154599169Y-79276429D01*
X154599173Y-79276432D01*
X154604614Y-79279340D01*
X154675899Y-79326971D01*
X154693204Y-79341172D01*
X154753828Y-79401796D01*
X154768029Y-79419101D01*
X154815660Y-79490386D01*
X154818568Y-79495827D01*
X154818571Y-79495831D01*
X154823307Y-79504691D01*
X154823309Y-79504697D01*
X154826220Y-79510142D01*
X154859024Y-79589340D01*
X154865524Y-79610767D01*
X154882250Y-79694851D01*
X154884444Y-79717131D01*
X154884444Y-79735550D01*
X154885046Y-79747801D01*
X154886852Y-79766139D01*
X154886852Y-80253862D01*
X154885046Y-80272199D01*
X154884444Y-80284450D01*
X154884444Y-80302869D01*
X154882250Y-80325149D01*
X154865524Y-80409233D01*
X154859024Y-80430660D01*
X154826220Y-80509858D01*
X154823309Y-80515303D01*
X154823307Y-80515309D01*
X154818571Y-80524169D01*
X154818568Y-80524173D01*
X154815660Y-80529614D01*
X154768029Y-80600899D01*
X154753828Y-80618204D01*
X154693204Y-80678828D01*
X154675899Y-80693029D01*
X154604614Y-80740660D01*
X154599173Y-80743568D01*
X154599169Y-80743571D01*
X154590309Y-80748307D01*
X154590303Y-80748309D01*
X154584858Y-80751220D01*
X154505660Y-80784024D01*
X154484233Y-80790524D01*
X154400149Y-80807250D01*
X154377869Y-80809444D01*
X154359450Y-80809444D01*
X154347199Y-80810046D01*
X154328862Y-80811852D01*
X153791140Y-80811852D01*
X153775001Y-80810263D01*
X153760472Y-80805855D01*
X153747289Y-80800394D01*
X153723255Y-80795612D01*
X153698751Y-80795611D01*
X153674718Y-80800391D01*
X153652079Y-80809768D01*
X153650235Y-80811000D01*
X152418950Y-80811000D01*
X152406836Y-80804525D01*
X152383387Y-80797412D01*
X152359001Y-80795010D01*
X152334615Y-80797412D01*
X152311166Y-80804525D01*
X152306254Y-80806848D01*
X152294999Y-80810263D01*
X152278860Y-80811852D01*
X151741138Y-80811852D01*
X151722801Y-80810046D01*
X151710550Y-80809444D01*
X151692131Y-80809444D01*
X151669851Y-80807250D01*
X151585767Y-80790524D01*
X151564340Y-80784024D01*
X151485142Y-80751220D01*
X151479697Y-80748309D01*
X151479691Y-80748307D01*
X151470831Y-80743571D01*
X151470827Y-80743568D01*
X151465386Y-80740660D01*
X151394101Y-80693029D01*
X151376796Y-80678828D01*
X151316172Y-80618204D01*
X151301971Y-80600899D01*
X151254340Y-80529614D01*
X151251432Y-80524173D01*
X151251429Y-80524169D01*
X151246693Y-80515309D01*
X151246691Y-80515303D01*
X151243780Y-80509858D01*
X151210976Y-80430660D01*
X151204476Y-80409233D01*
X151187750Y-80325149D01*
X151185556Y-80302869D01*
X151185556Y-80284450D01*
X151184954Y-80272199D01*
X151183148Y-80253862D01*
X151183148Y-79766139D01*
X151184954Y-79747801D01*
X151185556Y-79735550D01*
X151185556Y-79717131D01*
X151187750Y-79694851D01*
X151204476Y-79610767D01*
X151210976Y-79589340D01*
X151243780Y-79510142D01*
X151246691Y-79504697D01*
X151246693Y-79504691D01*
X151251429Y-79495831D01*
X151251432Y-79495827D01*
X151254340Y-79490386D01*
X151301971Y-79419101D01*
X151316172Y-79401796D01*
X151376796Y-79341172D01*
X151394101Y-79326971D01*
X151465386Y-79279340D01*
X151470827Y-79276432D01*
X151470831Y-79276429D01*
X151479691Y-79271693D01*
X151479697Y-79271691D01*
X151485142Y-79268780D01*
X151564340Y-79235976D01*
X151585767Y-79229476D01*
X151669851Y-79212750D01*
X151692131Y-79210556D01*
X151710550Y-79210556D01*
X151722801Y-79209954D01*
X151741139Y-79208148D01*
X152278860Y-79208148D01*
X152294999Y-79209737D01*
G37*
G36*
X139875256Y-75891298D02*
G01*
X139981579Y-75912447D01*
X140282042Y-76036903D01*
X140552451Y-76217585D01*
X140782415Y-76447549D01*
X140963097Y-76717958D01*
X141087553Y-77018421D01*
X141151000Y-77337391D01*
X141151000Y-77662609D01*
X141087553Y-77981579D01*
X140963097Y-78282042D01*
X140782415Y-78552451D01*
X140552451Y-78782415D01*
X140282042Y-78963097D01*
X140282041Y-78963098D01*
X140282040Y-78963098D01*
X140194037Y-78999550D01*
X139981579Y-79087553D01*
X139875256Y-79108702D01*
X139662611Y-79151000D01*
X139337389Y-79151000D01*
X139124744Y-79108702D01*
X139018421Y-79087553D01*
X138805963Y-78999550D01*
X138717960Y-78963098D01*
X138717959Y-78963098D01*
X138717958Y-78963097D01*
X138447549Y-78782415D01*
X138217585Y-78552451D01*
X138036903Y-78282042D01*
X137912447Y-77981579D01*
X137849000Y-77662609D01*
X137849000Y-77337391D01*
X137912447Y-77018421D01*
X138036903Y-76717958D01*
X138217585Y-76447549D01*
X138447549Y-76217585D01*
X138717958Y-76036903D01*
X139018421Y-75912447D01*
X139124744Y-75891298D01*
X139337389Y-75849000D01*
X139662611Y-75849000D01*
X139875256Y-75891298D01*
G37*
G36*
X134126366Y-75415695D02*
G01*
X134283460Y-75463349D01*
X134428231Y-75540731D01*
X134555128Y-75644872D01*
X134659269Y-75771769D01*
X134736651Y-75916540D01*
X134784305Y-76073634D01*
X134801000Y-76243140D01*
X134801000Y-78156860D01*
X134784305Y-78326366D01*
X134736651Y-78483460D01*
X134659269Y-78628231D01*
X134555128Y-78755128D01*
X134428231Y-78859269D01*
X134283460Y-78936651D01*
X134126366Y-78984305D01*
X133956860Y-79001000D01*
X132043140Y-79001000D01*
X131873634Y-78984305D01*
X131716540Y-78936651D01*
X131571769Y-78859269D01*
X131444872Y-78755128D01*
X131340731Y-78628231D01*
X131263349Y-78483460D01*
X131215695Y-78326366D01*
X131199000Y-78156860D01*
X131199000Y-76243140D01*
X131215695Y-76073634D01*
X131263349Y-75916540D01*
X131340731Y-75771769D01*
X131444872Y-75644872D01*
X131571769Y-75540731D01*
X131716540Y-75463349D01*
X131873634Y-75415695D01*
X132043140Y-75399000D01*
X133956860Y-75399000D01*
X134126366Y-75415695D01*
G37*
G36*
X147148674Y-76088465D02*
G01*
X147186367Y-76099899D01*
X147221103Y-76118466D01*
X147251548Y-76143452D01*
X147276534Y-76173897D01*
X147295101Y-76208633D01*
X147306535Y-76246326D01*
X147311000Y-76291661D01*
X147311000Y-77378339D01*
X147306535Y-77423674D01*
X147295101Y-77461367D01*
X147276534Y-77496103D01*
X147251548Y-77526548D01*
X147221103Y-77551534D01*
X147186367Y-77570101D01*
X147148674Y-77581535D01*
X147103339Y-77586000D01*
X146266661Y-77586000D01*
X146221326Y-77581535D01*
X146183633Y-77570101D01*
X146148897Y-77551534D01*
X146118452Y-77526548D01*
X146093466Y-77496103D01*
X146074899Y-77461367D01*
X146063465Y-77423674D01*
X146059000Y-77378339D01*
X146059000Y-76291661D01*
X146063465Y-76246326D01*
X146074899Y-76208633D01*
X146093466Y-76173897D01*
X146118452Y-76143452D01*
X146148897Y-76118466D01*
X146183633Y-76099899D01*
X146221326Y-76088465D01*
X146266661Y-76084000D01*
X147103339Y-76084000D01*
X147148674Y-76088465D01*
G37*
G36*
X145098674Y-76088465D02*
G01*
X145136367Y-76099899D01*
X145171103Y-76118466D01*
X145201548Y-76143452D01*
X145226534Y-76173897D01*
X145245101Y-76208633D01*
X145256535Y-76246326D01*
X145261000Y-76291661D01*
X145261000Y-77378339D01*
X145256535Y-77423674D01*
X145245101Y-77461367D01*
X145226534Y-77496103D01*
X145201548Y-77526548D01*
X145171103Y-77551534D01*
X145136367Y-77570101D01*
X145098674Y-77581535D01*
X145053339Y-77586000D01*
X144216661Y-77586000D01*
X144171326Y-77581535D01*
X144133633Y-77570101D01*
X144098897Y-77551534D01*
X144068452Y-77526548D01*
X144043466Y-77496103D01*
X144024899Y-77461367D01*
X144013465Y-77423674D01*
X144009000Y-77378339D01*
X144009000Y-76291661D01*
X144013465Y-76246326D01*
X144024899Y-76208633D01*
X144043466Y-76173897D01*
X144068452Y-76143452D01*
X144098897Y-76118466D01*
X144133633Y-76099899D01*
X144171326Y-76088465D01*
X144216661Y-76084000D01*
X145053339Y-76084000D01*
X145098674Y-76088465D01*
G37*
G36*
X175401000Y-77401000D02*
G01*
X173599000Y-77401000D01*
X173599000Y-75599000D01*
X175401000Y-75599000D01*
X175401000Y-77401000D01*
G37*
G36*
X152294999Y-73494737D02*
G01*
X152309528Y-73499145D01*
X152322711Y-73504606D01*
X152346745Y-73509388D01*
X152371249Y-73509389D01*
X152395282Y-73504609D01*
X152417921Y-73495232D01*
X152419765Y-73494000D01*
X153651050Y-73494000D01*
X153663164Y-73500475D01*
X153686613Y-73507588D01*
X153710999Y-73509990D01*
X153735385Y-73507588D01*
X153758834Y-73500475D01*
X153763746Y-73498152D01*
X153775001Y-73494737D01*
X153791140Y-73493148D01*
X154328861Y-73493148D01*
X154347199Y-73494954D01*
X154359450Y-73495556D01*
X154377869Y-73495556D01*
X154400149Y-73497750D01*
X154484233Y-73514476D01*
X154505660Y-73520976D01*
X154584858Y-73553780D01*
X154590303Y-73556691D01*
X154590309Y-73556693D01*
X154599169Y-73561429D01*
X154599173Y-73561432D01*
X154604614Y-73564340D01*
X154675899Y-73611971D01*
X154693204Y-73626172D01*
X154753828Y-73686796D01*
X154768029Y-73704101D01*
X154815660Y-73775386D01*
X154818568Y-73780827D01*
X154818571Y-73780831D01*
X154823307Y-73789691D01*
X154823309Y-73789697D01*
X154826220Y-73795142D01*
X154859024Y-73874340D01*
X154865524Y-73895767D01*
X154882250Y-73979851D01*
X154884444Y-74002131D01*
X154884444Y-74020550D01*
X154885046Y-74032801D01*
X154886852Y-74051139D01*
X154886852Y-74538862D01*
X154885046Y-74557199D01*
X154884444Y-74569450D01*
X154884444Y-74587869D01*
X154882250Y-74610149D01*
X154865524Y-74694233D01*
X154859024Y-74715660D01*
X154826220Y-74794858D01*
X154823309Y-74800303D01*
X154823307Y-74800309D01*
X154818571Y-74809169D01*
X154818568Y-74809173D01*
X154815660Y-74814614D01*
X154768029Y-74885899D01*
X154753828Y-74903204D01*
X154693204Y-74963828D01*
X154675899Y-74978029D01*
X154604614Y-75025660D01*
X154599173Y-75028568D01*
X154599169Y-75028571D01*
X154590309Y-75033307D01*
X154590303Y-75033309D01*
X154584858Y-75036220D01*
X154505660Y-75069024D01*
X154484233Y-75075524D01*
X154400149Y-75092250D01*
X154377869Y-75094444D01*
X154359450Y-75094444D01*
X154347199Y-75095046D01*
X154328862Y-75096852D01*
X153791140Y-75096852D01*
X153775001Y-75095263D01*
X153760472Y-75090855D01*
X153747289Y-75085394D01*
X153723255Y-75080612D01*
X153698751Y-75080611D01*
X153674718Y-75085391D01*
X153652079Y-75094768D01*
X153650235Y-75096000D01*
X152418950Y-75096000D01*
X152406836Y-75089525D01*
X152383387Y-75082412D01*
X152359001Y-75080010D01*
X152334615Y-75082412D01*
X152311166Y-75089525D01*
X152306254Y-75091848D01*
X152294999Y-75095263D01*
X152278860Y-75096852D01*
X151741138Y-75096852D01*
X151722801Y-75095046D01*
X151710550Y-75094444D01*
X151692131Y-75094444D01*
X151669851Y-75092250D01*
X151585767Y-75075524D01*
X151564340Y-75069024D01*
X151485142Y-75036220D01*
X151479697Y-75033309D01*
X151479691Y-75033307D01*
X151470831Y-75028571D01*
X151470827Y-75028568D01*
X151465386Y-75025660D01*
X151394101Y-74978029D01*
X151376796Y-74963828D01*
X151316172Y-74903204D01*
X151301971Y-74885899D01*
X151254340Y-74814614D01*
X151251432Y-74809173D01*
X151251429Y-74809169D01*
X151246693Y-74800309D01*
X151246691Y-74800303D01*
X151243780Y-74794858D01*
X151210976Y-74715660D01*
X151204476Y-74694233D01*
X151187750Y-74610149D01*
X151185556Y-74587869D01*
X151185556Y-74569450D01*
X151184954Y-74557199D01*
X151183148Y-74538862D01*
X151183148Y-74051139D01*
X151184954Y-74032801D01*
X151185556Y-74020550D01*
X151185556Y-74002131D01*
X151187750Y-73979851D01*
X151204476Y-73895767D01*
X151210976Y-73874340D01*
X151243780Y-73795142D01*
X151246691Y-73789697D01*
X151246693Y-73789691D01*
X151251429Y-73780831D01*
X151251432Y-73780827D01*
X151254340Y-73775386D01*
X151301971Y-73704101D01*
X151316172Y-73686796D01*
X151376796Y-73626172D01*
X151394101Y-73611971D01*
X151465386Y-73564340D01*
X151470827Y-73561432D01*
X151470831Y-73561429D01*
X151479691Y-73556693D01*
X151479697Y-73556691D01*
X151485142Y-73553780D01*
X151564340Y-73520976D01*
X151585767Y-73514476D01*
X151669851Y-73497750D01*
X151692131Y-73495556D01*
X151710550Y-73495556D01*
X151722801Y-73494954D01*
X151741139Y-73493148D01*
X152278860Y-73493148D01*
X152294999Y-73494737D01*
G37*
G36*
X174599666Y-73061173D02*
G01*
X174762812Y-73093624D01*
X174926784Y-73161544D01*
X175074354Y-73260147D01*
X175199853Y-73385646D01*
X175298456Y-73533216D01*
X175366376Y-73697188D01*
X175401000Y-73871259D01*
X175401000Y-74048741D01*
X175366376Y-74222812D01*
X175298456Y-74386784D01*
X175199853Y-74534354D01*
X175074354Y-74659853D01*
X174926784Y-74758456D01*
X174762812Y-74826376D01*
X174613512Y-74856073D01*
X174588742Y-74861000D01*
X174411258Y-74861000D01*
X174386488Y-74856073D01*
X174237188Y-74826376D01*
X174073216Y-74758456D01*
X173925646Y-74659853D01*
X173800147Y-74534354D01*
X173701544Y-74386784D01*
X173633624Y-74222812D01*
X173599000Y-74048741D01*
X173599000Y-73871259D01*
X173633624Y-73697188D01*
X173701544Y-73533216D01*
X173800147Y-73385646D01*
X173925646Y-73260147D01*
X174073216Y-73161544D01*
X174237188Y-73093624D01*
X174400334Y-73061173D01*
X174411258Y-73059000D01*
X174588742Y-73059000D01*
X174599666Y-73061173D01*
G37*
G36*
X141748000Y-74668000D02*
G01*
X140446000Y-74668000D01*
X140446000Y-73666000D01*
X141748000Y-73666000D01*
X141748000Y-74668000D01*
G37*
G36*
X130976979Y-70713293D02*
G01*
X131110625Y-70753834D01*
X131233784Y-70819664D01*
X131341740Y-70908260D01*
X131430336Y-71016216D01*
X131496166Y-71139375D01*
X131536707Y-71273021D01*
X131551000Y-71418140D01*
X131551000Y-73581860D01*
X131536707Y-73726979D01*
X131496166Y-73860625D01*
X131430336Y-73983784D01*
X131341740Y-74091740D01*
X131233784Y-74180336D01*
X131110625Y-74246166D01*
X130976979Y-74286707D01*
X130831860Y-74301000D01*
X129168140Y-74301000D01*
X129023021Y-74286707D01*
X128889375Y-74246166D01*
X128766216Y-74180336D01*
X128658260Y-74091740D01*
X128569664Y-73983784D01*
X128503834Y-73860625D01*
X128463293Y-73726979D01*
X128449000Y-73581860D01*
X128449000Y-71418140D01*
X128463293Y-71273021D01*
X128503834Y-71139375D01*
X128569664Y-71016216D01*
X128658260Y-70908260D01*
X128766216Y-70819664D01*
X128889375Y-70753834D01*
X129023021Y-70713293D01*
X129168140Y-70699000D01*
X130831860Y-70699000D01*
X130976979Y-70713293D01*
G37*
G36*
X137801000Y-74301000D02*
G01*
X134199000Y-74301000D01*
X134199000Y-70699000D01*
X137801000Y-70699000D01*
X137801000Y-74301000D01*
G37*
G36*
X171403674Y-72793465D02*
G01*
X171441367Y-72804899D01*
X171476103Y-72823466D01*
X171506548Y-72848452D01*
X171531534Y-72878897D01*
X171550101Y-72913633D01*
X171561535Y-72951326D01*
X171566000Y-72996661D01*
X171566000Y-73833339D01*
X171561535Y-73878674D01*
X171550101Y-73916367D01*
X171531534Y-73951103D01*
X171506548Y-73981548D01*
X171476103Y-74006534D01*
X171441367Y-74025101D01*
X171403674Y-74036535D01*
X171358339Y-74041000D01*
X170271661Y-74041000D01*
X170226326Y-74036535D01*
X170188633Y-74025101D01*
X170153897Y-74006534D01*
X170123452Y-73981548D01*
X170098466Y-73951103D01*
X170079899Y-73916367D01*
X170068465Y-73878674D01*
X170064000Y-73833339D01*
X170064000Y-72996661D01*
X170068465Y-72951326D01*
X170079899Y-72913633D01*
X170098466Y-72878897D01*
X170123452Y-72848452D01*
X170153897Y-72823466D01*
X170188633Y-72804899D01*
X170226326Y-72793465D01*
X170271661Y-72789000D01*
X171358339Y-72789000D01*
X171403674Y-72793465D01*
G37*
G36*
X167593674Y-72793465D02*
G01*
X167631367Y-72804899D01*
X167666103Y-72823466D01*
X167696548Y-72848452D01*
X167721534Y-72878897D01*
X167740101Y-72913633D01*
X167751535Y-72951326D01*
X167756000Y-72996661D01*
X167756000Y-73833339D01*
X167751535Y-73878674D01*
X167740101Y-73916367D01*
X167721534Y-73951103D01*
X167696548Y-73981548D01*
X167666103Y-74006534D01*
X167631367Y-74025101D01*
X167593674Y-74036535D01*
X167548339Y-74041000D01*
X166461661Y-74041000D01*
X166416326Y-74036535D01*
X166378633Y-74025101D01*
X166343897Y-74006534D01*
X166313452Y-73981548D01*
X166288466Y-73951103D01*
X166269899Y-73916367D01*
X166258465Y-73878674D01*
X166254000Y-73833339D01*
X166254000Y-72996661D01*
X166258465Y-72951326D01*
X166269899Y-72913633D01*
X166288466Y-72878897D01*
X166313452Y-72848452D01*
X166343897Y-72823466D01*
X166378633Y-72804899D01*
X166416326Y-72793465D01*
X166461661Y-72789000D01*
X167548339Y-72789000D01*
X167593674Y-72793465D01*
G37*
G36*
X145094468Y-72278565D02*
G01*
X145133138Y-72290296D01*
X145168777Y-72309346D01*
X145200017Y-72334983D01*
X145225654Y-72366223D01*
X145244704Y-72401862D01*
X145256435Y-72440532D01*
X145261000Y-72486888D01*
X145261000Y-73563112D01*
X145256435Y-73609468D01*
X145244704Y-73648138D01*
X145225654Y-73683777D01*
X145200017Y-73715017D01*
X145168777Y-73740654D01*
X145133138Y-73759704D01*
X145094468Y-73771435D01*
X145048112Y-73776000D01*
X144396888Y-73776000D01*
X144350532Y-73771435D01*
X144311862Y-73759704D01*
X144276223Y-73740654D01*
X144244983Y-73715017D01*
X144219346Y-73683777D01*
X144200296Y-73648138D01*
X144188565Y-73609468D01*
X144184000Y-73563112D01*
X144184000Y-72486888D01*
X144188565Y-72440532D01*
X144200296Y-72401862D01*
X144219346Y-72366223D01*
X144244983Y-72334983D01*
X144276223Y-72309346D01*
X144311862Y-72290296D01*
X144350532Y-72278565D01*
X144396888Y-72274000D01*
X145048112Y-72274000D01*
X145094468Y-72278565D01*
G37*
G36*
X146969468Y-72278565D02*
G01*
X147008138Y-72290296D01*
X147043777Y-72309346D01*
X147075017Y-72334983D01*
X147100654Y-72366223D01*
X147119704Y-72401862D01*
X147131435Y-72440532D01*
X147136000Y-72486888D01*
X147136000Y-73563112D01*
X147131435Y-73609468D01*
X147119704Y-73648138D01*
X147100654Y-73683777D01*
X147075017Y-73715017D01*
X147043777Y-73740654D01*
X147008138Y-73759704D01*
X146969468Y-73771435D01*
X146923112Y-73776000D01*
X146271888Y-73776000D01*
X146225532Y-73771435D01*
X146186862Y-73759704D01*
X146151223Y-73740654D01*
X146119983Y-73715017D01*
X146094346Y-73683777D01*
X146075296Y-73648138D01*
X146063565Y-73609468D01*
X146059000Y-73563112D01*
X146059000Y-72486888D01*
X146063565Y-72440532D01*
X146075296Y-72401862D01*
X146094346Y-72366223D01*
X146119983Y-72334983D01*
X146151223Y-72309346D01*
X146186862Y-72290296D01*
X146225532Y-72278565D01*
X146271888Y-72274000D01*
X146923112Y-72274000D01*
X146969468Y-72278565D01*
G37*
G36*
X174613512Y-70523927D02*
G01*
X174762812Y-70553624D01*
X174926784Y-70621544D01*
X175074354Y-70720147D01*
X175199853Y-70845646D01*
X175298456Y-70993216D01*
X175366376Y-71157188D01*
X175389416Y-71273021D01*
X175399399Y-71323207D01*
X175401000Y-71331259D01*
X175401000Y-71508741D01*
X175366376Y-71682812D01*
X175298456Y-71846784D01*
X175199853Y-71994354D01*
X175074354Y-72119853D01*
X174926784Y-72218456D01*
X174762812Y-72286376D01*
X174613512Y-72316073D01*
X174588742Y-72321000D01*
X174411258Y-72321000D01*
X174386488Y-72316073D01*
X174237188Y-72286376D01*
X174073216Y-72218456D01*
X173925646Y-72119853D01*
X173800147Y-71994354D01*
X173701544Y-71846784D01*
X173633624Y-71682812D01*
X173599000Y-71508741D01*
X173599000Y-71331259D01*
X173600602Y-71323207D01*
X173610584Y-71273021D01*
X173633624Y-71157188D01*
X173701544Y-70993216D01*
X173800147Y-70845646D01*
X173925646Y-70720147D01*
X174073216Y-70621544D01*
X174237188Y-70553624D01*
X174386488Y-70523927D01*
X174411258Y-70519000D01*
X174588742Y-70519000D01*
X174613512Y-70523927D01*
G37*
G36*
X171403674Y-70743465D02*
G01*
X171441367Y-70754899D01*
X171476103Y-70773466D01*
X171506548Y-70798452D01*
X171531534Y-70828897D01*
X171550101Y-70863633D01*
X171561535Y-70901326D01*
X171566000Y-70946661D01*
X171566000Y-71783339D01*
X171561535Y-71828674D01*
X171550101Y-71866367D01*
X171531534Y-71901103D01*
X171506548Y-71931548D01*
X171476103Y-71956534D01*
X171441367Y-71975101D01*
X171403674Y-71986535D01*
X171358339Y-71991000D01*
X170271661Y-71991000D01*
X170226326Y-71986535D01*
X170188633Y-71975101D01*
X170153897Y-71956534D01*
X170123452Y-71931548D01*
X170098466Y-71901103D01*
X170079899Y-71866367D01*
X170068465Y-71828674D01*
X170064000Y-71783339D01*
X170064000Y-70946661D01*
X170068465Y-70901326D01*
X170079899Y-70863633D01*
X170098466Y-70828897D01*
X170123452Y-70798452D01*
X170153897Y-70773466D01*
X170188633Y-70754899D01*
X170226326Y-70743465D01*
X170271661Y-70739000D01*
X171358339Y-70739000D01*
X171403674Y-70743465D01*
G37*
G36*
X167593674Y-70743465D02*
G01*
X167631367Y-70754899D01*
X167666103Y-70773466D01*
X167696548Y-70798452D01*
X167721534Y-70828897D01*
X167740101Y-70863633D01*
X167751535Y-70901326D01*
X167756000Y-70946661D01*
X167756000Y-71783339D01*
X167751535Y-71828674D01*
X167740101Y-71866367D01*
X167721534Y-71901103D01*
X167696548Y-71931548D01*
X167666103Y-71956534D01*
X167631367Y-71975101D01*
X167593674Y-71986535D01*
X167548339Y-71991000D01*
X166461661Y-71991000D01*
X166416326Y-71986535D01*
X166378633Y-71975101D01*
X166343897Y-71956534D01*
X166313452Y-71931548D01*
X166288466Y-71901103D01*
X166269899Y-71866367D01*
X166258465Y-71828674D01*
X166254000Y-71783339D01*
X166254000Y-70946661D01*
X166258465Y-70901326D01*
X166269899Y-70863633D01*
X166288466Y-70828897D01*
X166313452Y-70798452D01*
X166343897Y-70773466D01*
X166378633Y-70754899D01*
X166416326Y-70743465D01*
X166461661Y-70739000D01*
X167548339Y-70739000D01*
X167593674Y-70743465D01*
G37*
G36*
X141748000Y-71368000D02*
G01*
X140446000Y-71368000D01*
X140446000Y-70366000D01*
X141748000Y-70366000D01*
X141748000Y-71368000D01*
G37*
G36*
X174601702Y-67981578D02*
G01*
X174762812Y-68013624D01*
X174926784Y-68081544D01*
X175074354Y-68180147D01*
X175199853Y-68305646D01*
X175298456Y-68453216D01*
X175366376Y-68617188D01*
X175401000Y-68791259D01*
X175401000Y-68968741D01*
X175366376Y-69142812D01*
X175298456Y-69306784D01*
X175199853Y-69454354D01*
X175074354Y-69579853D01*
X174926784Y-69678456D01*
X174762812Y-69746376D01*
X174613512Y-69776073D01*
X174588742Y-69781000D01*
X174411258Y-69781000D01*
X174386488Y-69776073D01*
X174237188Y-69746376D01*
X174073216Y-69678456D01*
X173925646Y-69579853D01*
X173800147Y-69454354D01*
X173701544Y-69306784D01*
X173633624Y-69142812D01*
X173599000Y-68968741D01*
X173599000Y-68791259D01*
X173633624Y-68617188D01*
X173701544Y-68453216D01*
X173800147Y-68305646D01*
X173925646Y-68180147D01*
X174073216Y-68081544D01*
X174237188Y-68013624D01*
X174398298Y-67981578D01*
X174411258Y-67979000D01*
X174588742Y-67979000D01*
X174601702Y-67981578D01*
G37*
G36*
X139875256Y-65891298D02*
G01*
X139981579Y-65912447D01*
X140282042Y-66036903D01*
X140552451Y-66217585D01*
X140782415Y-66447549D01*
X140963097Y-66717958D01*
X141087553Y-67018421D01*
X141151000Y-67337391D01*
X141151000Y-67662609D01*
X141087553Y-67981579D01*
X140963097Y-68282042D01*
X140782415Y-68552451D01*
X140552451Y-68782415D01*
X140282042Y-68963097D01*
X140282041Y-68963098D01*
X140282040Y-68963098D01*
X140268414Y-68968742D01*
X139981579Y-69087553D01*
X139875256Y-69108702D01*
X139662611Y-69151000D01*
X139337389Y-69151000D01*
X139124744Y-69108702D01*
X139018421Y-69087553D01*
X138731586Y-68968742D01*
X138717960Y-68963098D01*
X138717959Y-68963098D01*
X138717958Y-68963097D01*
X138447549Y-68782415D01*
X138217585Y-68552451D01*
X138036903Y-68282042D01*
X137912447Y-67981579D01*
X137849000Y-67662609D01*
X137849000Y-67337391D01*
X137912447Y-67018421D01*
X138036903Y-66717958D01*
X138217585Y-66447549D01*
X138447549Y-66217585D01*
X138717958Y-66036903D01*
X139018421Y-65912447D01*
X139124744Y-65891298D01*
X139337389Y-65849000D01*
X139662611Y-65849000D01*
X139875256Y-65891298D01*
G37*
G36*
X130923512Y-64508927D02*
G01*
X131072812Y-64538624D01*
X131236784Y-64606544D01*
X131384354Y-64705147D01*
X131509853Y-64830646D01*
X131608456Y-64978216D01*
X131676376Y-65142188D01*
X131711000Y-65316259D01*
X131711000Y-65493741D01*
X131676376Y-65667812D01*
X131608456Y-65831784D01*
X131509853Y-65979354D01*
X131384354Y-66104853D01*
X131236784Y-66203456D01*
X131072812Y-66271376D01*
X130923512Y-66301073D01*
X130898742Y-66306000D01*
X130721258Y-66306000D01*
X130696488Y-66301073D01*
X130547188Y-66271376D01*
X130383216Y-66203456D01*
X130235646Y-66104853D01*
X130110147Y-65979354D01*
X130011544Y-65831784D01*
X129943624Y-65667812D01*
X129909000Y-65493741D01*
X129909000Y-65316259D01*
X129943624Y-65142188D01*
X130011544Y-64978216D01*
X130110147Y-64830646D01*
X130235646Y-64705147D01*
X130383216Y-64606544D01*
X130547188Y-64538624D01*
X130696488Y-64508927D01*
X130721258Y-64504000D01*
X130898742Y-64504000D01*
X130923512Y-64508927D01*
G37*
G36*
X129171000Y-66306000D02*
G01*
X127369000Y-66306000D01*
X127369000Y-64504000D01*
X129171000Y-64504000D01*
X129171000Y-66306000D01*
G37*
G36*
X144214468Y-63388565D02*
G01*
X144253138Y-63400296D01*
X144288777Y-63419346D01*
X144320017Y-63444983D01*
X144345654Y-63476223D01*
X144364704Y-63511862D01*
X144376435Y-63550532D01*
X144381000Y-63596888D01*
X144381000Y-64673112D01*
X144376435Y-64719468D01*
X144364704Y-64758138D01*
X144345654Y-64793777D01*
X144320017Y-64825017D01*
X144288777Y-64850654D01*
X144253138Y-64869704D01*
X144214468Y-64881435D01*
X144168112Y-64886000D01*
X143516888Y-64886000D01*
X143470532Y-64881435D01*
X143431862Y-64869704D01*
X143396223Y-64850654D01*
X143364983Y-64825017D01*
X143339346Y-64793777D01*
X143320296Y-64758138D01*
X143308565Y-64719468D01*
X143304000Y-64673112D01*
X143304000Y-63596888D01*
X143308565Y-63550532D01*
X143320296Y-63511862D01*
X143339346Y-63476223D01*
X143364983Y-63444983D01*
X143396223Y-63419346D01*
X143431862Y-63400296D01*
X143470532Y-63388565D01*
X143516888Y-63384000D01*
X144168112Y-63384000D01*
X144214468Y-63388565D01*
G37*
G36*
X146089468Y-63388565D02*
G01*
X146128138Y-63400296D01*
X146163777Y-63419346D01*
X146195017Y-63444983D01*
X146220654Y-63476223D01*
X146239704Y-63511862D01*
X146251435Y-63550532D01*
X146256000Y-63596888D01*
X146256000Y-64673112D01*
X146251435Y-64719468D01*
X146239704Y-64758138D01*
X146220654Y-64793777D01*
X146195017Y-64825017D01*
X146163777Y-64850654D01*
X146128138Y-64869704D01*
X146089468Y-64881435D01*
X146043112Y-64886000D01*
X145391888Y-64886000D01*
X145345532Y-64881435D01*
X145306862Y-64869704D01*
X145271223Y-64850654D01*
X145239983Y-64825017D01*
X145214346Y-64793777D01*
X145195296Y-64758138D01*
X145183565Y-64719468D01*
X145179000Y-64673112D01*
X145179000Y-63596888D01*
X145183565Y-63550532D01*
X145195296Y-63511862D01*
X145214346Y-63476223D01*
X145239983Y-63444983D01*
X145271223Y-63419346D01*
X145306862Y-63400296D01*
X145345532Y-63388565D01*
X145391888Y-63384000D01*
X146043112Y-63384000D01*
X146089468Y-63388565D01*
G37*
G36*
X135930997Y-62653051D02*
G01*
X135964652Y-62663261D01*
X135995665Y-62679838D01*
X136022851Y-62702149D01*
X136045162Y-62729335D01*
X136061739Y-62760348D01*
X136071949Y-62794003D01*
X136076000Y-62835138D01*
X136076000Y-64164862D01*
X136071949Y-64205997D01*
X136061739Y-64239652D01*
X136045162Y-64270665D01*
X136022851Y-64297851D01*
X135995665Y-64320162D01*
X135964652Y-64336739D01*
X135930997Y-64346949D01*
X135889862Y-64351000D01*
X133560138Y-64351000D01*
X133519003Y-64346949D01*
X133485348Y-64336739D01*
X133454335Y-64320162D01*
X133427149Y-64297851D01*
X133404838Y-64270665D01*
X133388261Y-64239652D01*
X133378051Y-64205997D01*
X133374000Y-64164862D01*
X133374000Y-62835138D01*
X133378051Y-62794003D01*
X133388261Y-62760348D01*
X133404838Y-62729335D01*
X133427149Y-62702149D01*
X133454335Y-62679838D01*
X133485348Y-62663261D01*
X133519003Y-62653051D01*
X133560138Y-62649000D01*
X135889862Y-62649000D01*
X135930997Y-62653051D01*
G37*
G36*
X139530997Y-62653051D02*
G01*
X139564652Y-62663261D01*
X139595665Y-62679838D01*
X139622851Y-62702149D01*
X139645162Y-62729335D01*
X139661739Y-62760348D01*
X139671949Y-62794003D01*
X139676000Y-62835138D01*
X139676000Y-64164862D01*
X139671949Y-64205997D01*
X139661739Y-64239652D01*
X139645162Y-64270665D01*
X139622851Y-64297851D01*
X139595665Y-64320162D01*
X139564652Y-64336739D01*
X139530997Y-64346949D01*
X139489862Y-64351000D01*
X137160138Y-64351000D01*
X137119003Y-64346949D01*
X137085348Y-64336739D01*
X137054335Y-64320162D01*
X137027149Y-64297851D01*
X137004838Y-64270665D01*
X136988261Y-64239652D01*
X136978051Y-64205997D01*
X136974000Y-64164862D01*
X136974000Y-62835138D01*
X136978051Y-62794003D01*
X136988261Y-62760348D01*
X137004838Y-62729335D01*
X137027149Y-62702149D01*
X137054335Y-62679838D01*
X137085348Y-62663261D01*
X137119003Y-62653051D01*
X137160138Y-62649000D01*
X139489862Y-62649000D01*
X139530997Y-62653051D01*
G37*
G36*
X130634239Y-56811467D02*
G01*
X130948282Y-56873934D01*
X131539926Y-57119001D01*
X131829523Y-57312504D01*
X132055433Y-57463452D01*
X132072392Y-57474784D01*
X132525216Y-57927608D01*
X132880999Y-58460074D01*
X133126066Y-59051718D01*
X133126066Y-59051719D01*
X133251000Y-59679803D01*
X133251000Y-60320197D01*
X133199050Y-60581367D01*
X133126066Y-60948282D01*
X132880999Y-61539926D01*
X132525216Y-62072392D01*
X132072392Y-62525216D01*
X131539926Y-62880999D01*
X130948282Y-63126066D01*
X130634239Y-63188533D01*
X130320197Y-63251000D01*
X129679803Y-63251000D01*
X129365761Y-63188533D01*
X129051718Y-63126066D01*
X128460074Y-62880999D01*
X127927608Y-62525216D01*
X127474784Y-62072392D01*
X127119001Y-61539926D01*
X126873934Y-60948282D01*
X126800950Y-60581367D01*
X126749000Y-60320197D01*
X126749000Y-59679803D01*
X126873934Y-59051719D01*
X126873934Y-59051718D01*
X127119001Y-58460074D01*
X127474784Y-57927608D01*
X127927608Y-57474784D01*
X127944568Y-57463452D01*
X128170477Y-57312504D01*
X128460074Y-57119001D01*
X129051718Y-56873934D01*
X129365761Y-56811467D01*
X129679803Y-56749000D01*
X130320197Y-56749000D01*
X130634239Y-56811467D01*
G37*
G36*
X173634239Y-56811467D02*
G01*
X173948282Y-56873934D01*
X174539926Y-57119001D01*
X174829523Y-57312504D01*
X175055433Y-57463452D01*
X175072392Y-57474784D01*
X175525216Y-57927608D01*
X175880999Y-58460074D01*
X176126066Y-59051718D01*
X176126066Y-59051719D01*
X176251000Y-59679803D01*
X176251000Y-60320197D01*
X176199050Y-60581367D01*
X176126066Y-60948282D01*
X175880999Y-61539926D01*
X175525216Y-62072392D01*
X175072392Y-62525216D01*
X174539926Y-62880999D01*
X173948282Y-63126066D01*
X173634239Y-63188533D01*
X173320197Y-63251000D01*
X172679803Y-63251000D01*
X172365761Y-63188533D01*
X172051718Y-63126066D01*
X171460074Y-62880999D01*
X170927608Y-62525216D01*
X170474784Y-62072392D01*
X170119001Y-61539926D01*
X169873934Y-60948282D01*
X169800950Y-60581367D01*
X169749000Y-60320197D01*
X169749000Y-59679803D01*
X169873934Y-59051719D01*
X169873934Y-59051718D01*
X170119001Y-58460074D01*
X170474784Y-57927608D01*
X170927608Y-57474784D01*
X170944568Y-57463452D01*
X171170477Y-57312504D01*
X171460074Y-57119001D01*
X172051718Y-56873934D01*
X172365761Y-56811467D01*
X172679803Y-56749000D01*
X173320197Y-56749000D01*
X173634239Y-56811467D01*
G37*
G36*
X166756000Y-62622000D02*
G01*
X165654000Y-62622000D01*
X165654000Y-61620000D01*
X166756000Y-61620000D01*
X166756000Y-62622000D01*
G37*
G36*
X168356000Y-62622000D02*
G01*
X167254000Y-62622000D01*
X167254000Y-61620000D01*
X168356000Y-61620000D01*
X168356000Y-62622000D01*
G37*
G36*
X163276000Y-62622000D02*
G01*
X162174000Y-62622000D01*
X162174000Y-61620000D01*
X163276000Y-61620000D01*
X163276000Y-62622000D01*
G37*
G36*
X161676000Y-62622000D02*
G01*
X160574000Y-62622000D01*
X160574000Y-61620000D01*
X161676000Y-61620000D01*
X161676000Y-62622000D01*
G37*
G36*
X146106000Y-60736000D02*
G01*
X143454000Y-60736000D01*
X143454000Y-59574000D01*
X146106000Y-59574000D01*
X146106000Y-60736000D01*
G37*
G36*
X140288674Y-59458465D02*
G01*
X140326367Y-59469899D01*
X140361103Y-59488466D01*
X140391548Y-59513452D01*
X140416534Y-59543897D01*
X140435101Y-59578633D01*
X140446535Y-59616326D01*
X140451000Y-59661661D01*
X140451000Y-60498339D01*
X140446535Y-60543674D01*
X140435101Y-60581367D01*
X140416534Y-60616103D01*
X140391548Y-60646548D01*
X140361103Y-60671534D01*
X140326367Y-60690101D01*
X140288674Y-60701535D01*
X140243339Y-60706000D01*
X139156661Y-60706000D01*
X139111326Y-60701535D01*
X139073633Y-60690101D01*
X139038897Y-60671534D01*
X139008452Y-60646548D01*
X138983466Y-60616103D01*
X138964899Y-60581367D01*
X138953465Y-60543674D01*
X138949000Y-60498339D01*
X138949000Y-59661661D01*
X138953465Y-59616326D01*
X138964899Y-59578633D01*
X138983466Y-59543897D01*
X139008452Y-59513452D01*
X139038897Y-59488466D01*
X139073633Y-59469899D01*
X139111326Y-59458465D01*
X139156661Y-59454000D01*
X140243339Y-59454000D01*
X140288674Y-59458465D01*
G37*
G36*
X154258674Y-59458465D02*
G01*
X154296367Y-59469899D01*
X154331103Y-59488466D01*
X154361548Y-59513452D01*
X154386534Y-59543897D01*
X154405101Y-59578633D01*
X154416535Y-59616326D01*
X154421000Y-59661661D01*
X154421000Y-60498339D01*
X154416535Y-60543674D01*
X154405101Y-60581367D01*
X154386534Y-60616103D01*
X154361548Y-60646548D01*
X154331103Y-60671534D01*
X154296367Y-60690101D01*
X154258674Y-60701535D01*
X154213339Y-60706000D01*
X153126661Y-60706000D01*
X153081326Y-60701535D01*
X153043633Y-60690101D01*
X153008897Y-60671534D01*
X152978452Y-60646548D01*
X152953466Y-60616103D01*
X152934899Y-60581367D01*
X152923465Y-60543674D01*
X152919000Y-60498339D01*
X152919000Y-59661661D01*
X152923465Y-59616326D01*
X152934899Y-59578633D01*
X152953466Y-59543897D01*
X152978452Y-59513452D01*
X153008897Y-59488466D01*
X153043633Y-59469899D01*
X153081326Y-59458465D01*
X153126661Y-59454000D01*
X154213339Y-59454000D01*
X154258674Y-59458465D01*
G37*
G36*
X136474468Y-59458565D02*
G01*
X136513138Y-59470296D01*
X136548777Y-59489346D01*
X136580017Y-59514983D01*
X136605654Y-59546223D01*
X136624704Y-59581862D01*
X136636435Y-59620532D01*
X136641000Y-59666888D01*
X136641000Y-60318112D01*
X136636435Y-60364468D01*
X136624704Y-60403138D01*
X136605654Y-60438777D01*
X136580017Y-60470017D01*
X136548777Y-60495654D01*
X136513138Y-60514704D01*
X136474468Y-60526435D01*
X136428112Y-60531000D01*
X135351888Y-60531000D01*
X135305532Y-60526435D01*
X135266862Y-60514704D01*
X135231223Y-60495654D01*
X135199983Y-60470017D01*
X135174346Y-60438777D01*
X135155296Y-60403138D01*
X135143565Y-60364468D01*
X135139000Y-60318112D01*
X135139000Y-59666888D01*
X135143565Y-59620532D01*
X135155296Y-59581862D01*
X135174346Y-59546223D01*
X135199983Y-59514983D01*
X135231223Y-59489346D01*
X135266862Y-59470296D01*
X135305532Y-59458565D01*
X135351888Y-59454000D01*
X136428112Y-59454000D01*
X136474468Y-59458565D01*
G37*
G36*
X150444468Y-59458565D02*
G01*
X150483138Y-59470296D01*
X150518777Y-59489346D01*
X150550017Y-59514983D01*
X150575654Y-59546223D01*
X150594704Y-59581862D01*
X150606435Y-59620532D01*
X150611000Y-59666888D01*
X150611000Y-60318112D01*
X150606435Y-60364468D01*
X150594704Y-60403138D01*
X150575654Y-60438777D01*
X150550017Y-60470017D01*
X150518777Y-60495654D01*
X150483138Y-60514704D01*
X150444468Y-60526435D01*
X150398112Y-60531000D01*
X149321888Y-60531000D01*
X149275532Y-60526435D01*
X149236862Y-60514704D01*
X149201223Y-60495654D01*
X149169983Y-60470017D01*
X149144346Y-60438777D01*
X149125296Y-60403138D01*
X149113565Y-60364468D01*
X149109000Y-60318112D01*
X149109000Y-59666888D01*
X149113565Y-59620532D01*
X149125296Y-59581862D01*
X149144346Y-59546223D01*
X149169983Y-59514983D01*
X149201223Y-59489346D01*
X149236862Y-59470296D01*
X149275532Y-59458565D01*
X149321888Y-59454000D01*
X150398112Y-59454000D01*
X150444468Y-59458565D01*
G37*
G36*
X158064468Y-59458565D02*
G01*
X158103138Y-59470296D01*
X158138777Y-59489346D01*
X158170017Y-59514983D01*
X158195654Y-59546223D01*
X158214704Y-59581862D01*
X158226435Y-59620532D01*
X158231000Y-59666888D01*
X158231000Y-60318112D01*
X158226435Y-60364468D01*
X158214704Y-60403138D01*
X158195654Y-60438777D01*
X158170017Y-60470017D01*
X158138777Y-60495654D01*
X158103138Y-60514704D01*
X158064468Y-60526435D01*
X158018112Y-60531000D01*
X156941888Y-60531000D01*
X156895532Y-60526435D01*
X156856862Y-60514704D01*
X156821223Y-60495654D01*
X156789983Y-60470017D01*
X156764346Y-60438777D01*
X156745296Y-60403138D01*
X156733565Y-60364468D01*
X156729000Y-60318112D01*
X156729000Y-59666888D01*
X156733565Y-59620532D01*
X156745296Y-59581862D01*
X156764346Y-59546223D01*
X156789983Y-59514983D01*
X156821223Y-59489346D01*
X156856862Y-59470296D01*
X156895532Y-59458565D01*
X156941888Y-59454000D01*
X158018112Y-59454000D01*
X158064468Y-59458565D01*
G37*
G36*
X136474468Y-57583565D02*
G01*
X136513138Y-57595296D01*
X136548777Y-57614346D01*
X136580017Y-57639983D01*
X136605654Y-57671223D01*
X136624704Y-57706862D01*
X136636435Y-57745532D01*
X136641000Y-57791888D01*
X136641000Y-58443112D01*
X136636435Y-58489468D01*
X136624704Y-58528138D01*
X136605654Y-58563777D01*
X136580017Y-58595017D01*
X136548777Y-58620654D01*
X136513138Y-58639704D01*
X136474468Y-58651435D01*
X136428112Y-58656000D01*
X135351888Y-58656000D01*
X135305532Y-58651435D01*
X135266862Y-58639704D01*
X135231223Y-58620654D01*
X135199983Y-58595017D01*
X135174346Y-58563777D01*
X135155296Y-58528138D01*
X135143565Y-58489468D01*
X135139000Y-58443112D01*
X135139000Y-57791888D01*
X135143565Y-57745532D01*
X135155296Y-57706862D01*
X135174346Y-57671223D01*
X135199983Y-57639983D01*
X135231223Y-57614346D01*
X135266862Y-57595296D01*
X135305532Y-57583565D01*
X135351888Y-57579000D01*
X136428112Y-57579000D01*
X136474468Y-57583565D01*
G37*
G36*
X140288674Y-57408465D02*
G01*
X140326367Y-57419899D01*
X140361103Y-57438466D01*
X140391548Y-57463452D01*
X140416534Y-57493897D01*
X140435101Y-57528633D01*
X140446535Y-57566326D01*
X140451000Y-57611661D01*
X140451000Y-58448339D01*
X140446535Y-58493674D01*
X140435101Y-58531367D01*
X140416534Y-58566103D01*
X140391548Y-58596548D01*
X140361103Y-58621534D01*
X140326367Y-58640101D01*
X140288674Y-58651535D01*
X140243339Y-58656000D01*
X139156661Y-58656000D01*
X139111326Y-58651535D01*
X139073633Y-58640101D01*
X139038897Y-58621534D01*
X139008452Y-58596548D01*
X138983466Y-58566103D01*
X138964899Y-58531367D01*
X138953465Y-58493674D01*
X138949000Y-58448339D01*
X138949000Y-57611661D01*
X138953465Y-57566326D01*
X138964899Y-57528633D01*
X138983466Y-57493897D01*
X139008452Y-57463452D01*
X139038897Y-57438466D01*
X139073633Y-57419899D01*
X139111326Y-57408465D01*
X139156661Y-57404000D01*
X140243339Y-57404000D01*
X140288674Y-57408465D01*
G37*
G36*
X150444468Y-57583565D02*
G01*
X150483138Y-57595296D01*
X150518777Y-57614346D01*
X150550017Y-57639983D01*
X150575654Y-57671223D01*
X150594704Y-57706862D01*
X150606435Y-57745532D01*
X150611000Y-57791888D01*
X150611000Y-58443112D01*
X150606435Y-58489468D01*
X150594704Y-58528138D01*
X150575654Y-58563777D01*
X150550017Y-58595017D01*
X150518777Y-58620654D01*
X150483138Y-58639704D01*
X150444468Y-58651435D01*
X150398112Y-58656000D01*
X149321888Y-58656000D01*
X149275532Y-58651435D01*
X149236862Y-58639704D01*
X149201223Y-58620654D01*
X149169983Y-58595017D01*
X149144346Y-58563777D01*
X149125296Y-58528138D01*
X149113565Y-58489468D01*
X149109000Y-58443112D01*
X149109000Y-57791888D01*
X149113565Y-57745532D01*
X149125296Y-57706862D01*
X149144346Y-57671223D01*
X149169983Y-57639983D01*
X149201223Y-57614346D01*
X149236862Y-57595296D01*
X149275532Y-57583565D01*
X149321888Y-57579000D01*
X150398112Y-57579000D01*
X150444468Y-57583565D01*
G37*
G36*
X154258674Y-57408465D02*
G01*
X154296367Y-57419899D01*
X154331103Y-57438466D01*
X154361548Y-57463452D01*
X154386534Y-57493897D01*
X154405101Y-57528633D01*
X154416535Y-57566326D01*
X154421000Y-57611661D01*
X154421000Y-58448339D01*
X154416535Y-58493674D01*
X154405101Y-58531367D01*
X154386534Y-58566103D01*
X154361548Y-58596548D01*
X154331103Y-58621534D01*
X154296367Y-58640101D01*
X154258674Y-58651535D01*
X154213339Y-58656000D01*
X153126661Y-58656000D01*
X153081326Y-58651535D01*
X153043633Y-58640101D01*
X153008897Y-58621534D01*
X152978452Y-58596548D01*
X152953466Y-58566103D01*
X152934899Y-58531367D01*
X152923465Y-58493674D01*
X152919000Y-58448339D01*
X152919000Y-57611661D01*
X152923465Y-57566326D01*
X152934899Y-57528633D01*
X152953466Y-57493897D01*
X152978452Y-57463452D01*
X153008897Y-57438466D01*
X153043633Y-57419899D01*
X153081326Y-57408465D01*
X153126661Y-57404000D01*
X154213339Y-57404000D01*
X154258674Y-57408465D01*
G37*
G36*
X158064468Y-57583565D02*
G01*
X158103138Y-57595296D01*
X158138777Y-57614346D01*
X158170017Y-57639983D01*
X158195654Y-57671223D01*
X158214704Y-57706862D01*
X158226435Y-57745532D01*
X158231000Y-57791888D01*
X158231000Y-58443112D01*
X158226435Y-58489468D01*
X158214704Y-58528138D01*
X158195654Y-58563777D01*
X158170017Y-58595017D01*
X158138777Y-58620654D01*
X158103138Y-58639704D01*
X158064468Y-58651435D01*
X158018112Y-58656000D01*
X156941888Y-58656000D01*
X156895532Y-58651435D01*
X156856862Y-58639704D01*
X156821223Y-58620654D01*
X156789983Y-58595017D01*
X156764346Y-58563777D01*
X156745296Y-58528138D01*
X156733565Y-58489468D01*
X156729000Y-58443112D01*
X156729000Y-57791888D01*
X156733565Y-57745532D01*
X156745296Y-57706862D01*
X156764346Y-57671223D01*
X156789983Y-57639983D01*
X156821223Y-57614346D01*
X156856862Y-57595296D01*
X156895532Y-57583565D01*
X156941888Y-57579000D01*
X158018112Y-57579000D01*
X158064468Y-57583565D01*
G37*
G36*
X144206000Y-58536000D02*
G01*
X143454000Y-58536000D01*
X143454000Y-57374000D01*
X144206000Y-57374000D01*
X144206000Y-58536000D01*
G37*
G36*
X146106000Y-58536000D02*
G01*
X145354000Y-58536000D01*
X145354000Y-57374000D01*
X146106000Y-57374000D01*
X146106000Y-58536000D01*
G37*
G36*
X166756000Y-58522000D02*
G01*
X165654000Y-58522000D01*
X165654000Y-57520000D01*
X166756000Y-57520000D01*
X166756000Y-58522000D01*
G37*
G36*
X163276000Y-58522000D02*
G01*
X162174000Y-58522000D01*
X162174000Y-57520000D01*
X163276000Y-57520000D01*
X163276000Y-58522000D01*
G37*
G36*
X161676000Y-58522000D02*
G01*
X160574000Y-58522000D01*
X160574000Y-57520000D01*
X161676000Y-57520000D01*
X161676000Y-58522000D01*
G37*
G36*
X168356000Y-58522000D02*
G01*
X167254000Y-58522000D01*
X167254000Y-57520000D01*
X168356000Y-57520000D01*
X168356000Y-58522000D01*
G37*
M02*
