G04 #@! TF.GenerationSoftware,KiCad,Pcbnew,(5.1.5-0-10_14)*
G04 #@! TF.CreationDate,2020-08-04T00:57:44-05:00*
G04 #@! TF.ProjectId,TempHumSensWithESP01,54656d70-4875-46d5-9365-6e7357697468,rev?*
G04 #@! TF.SameCoordinates,Original*
G04 #@! TF.FileFunction,Copper,L2,Bot*
G04 #@! TF.FilePolarity,Positive*
%FSLAX46Y46*%
G04 Gerber Fmt 4.6, Leading zero omitted, Abs format (unit mm)*
G04 Created by KiCad (PCBNEW (5.1.5-0-10_14)) date 2020-08-04 00:57:44*
%MOMM*%
%LPD*%
G04 APERTURE LIST*
%ADD10O,1.700000X1.700000*%
%ADD11R,1.700000X1.700000*%
%ADD12C,0.800000*%
%ADD13C,6.400000*%
%ADD14R,0.700000X1.600000*%
%ADD15R,0.600000X0.400000*%
%ADD16C,0.100000*%
%ADD17R,0.350000X0.500000*%
%ADD18R,3.500000X3.500000*%
%ADD19C,0.900000*%
%ADD20C,0.350000*%
%ADD21C,0.250000*%
%ADD22C,0.254000*%
G04 APERTURE END LIST*
D10*
X130810000Y-65405000D03*
D11*
X128270000Y-65405000D03*
D12*
X174697056Y-83302944D03*
X173000000Y-82600000D03*
X171302944Y-83302944D03*
X170600000Y-85000000D03*
X171302944Y-86697056D03*
X173000000Y-87400000D03*
X174697056Y-86697056D03*
X175400000Y-85000000D03*
D13*
X173000000Y-85000000D03*
D12*
X131697056Y-83302944D03*
X130000000Y-82600000D03*
X128302944Y-83302944D03*
X127600000Y-85000000D03*
X128302944Y-86697056D03*
X130000000Y-87400000D03*
X131697056Y-86697056D03*
X132400000Y-85000000D03*
D13*
X130000000Y-85000000D03*
D12*
X174697056Y-58302944D03*
X173000000Y-57600000D03*
X171302944Y-58302944D03*
X170600000Y-60000000D03*
X171302944Y-61697056D03*
X173000000Y-62400000D03*
X174697056Y-61697056D03*
X175400000Y-60000000D03*
D13*
X173000000Y-60000000D03*
D12*
X131697056Y-58302944D03*
X130000000Y-57600000D03*
X128302944Y-58302944D03*
X127600000Y-60000000D03*
X128302944Y-61697056D03*
X130000000Y-62400000D03*
X131697056Y-61697056D03*
X132400000Y-60000000D03*
D13*
X130000000Y-60000000D03*
D14*
X160000000Y-72500000D03*
D15*
X160950000Y-72975000D03*
X159050000Y-72025000D03*
X159050000Y-72975000D03*
X160950000Y-72025000D03*
G04 #@! TA.AperFunction,SMDPad,CuDef*
D16*
G36*
X159330142Y-75301174D02*
G01*
X159353803Y-75304684D01*
X159377007Y-75310496D01*
X159399529Y-75318554D01*
X159421153Y-75328782D01*
X159441670Y-75341079D01*
X159460883Y-75355329D01*
X159478607Y-75371393D01*
X159494671Y-75389117D01*
X159508921Y-75408330D01*
X159521218Y-75428847D01*
X159531446Y-75450471D01*
X159539504Y-75472993D01*
X159545316Y-75496197D01*
X159548826Y-75519858D01*
X159550000Y-75543750D01*
X159550000Y-76456250D01*
X159548826Y-76480142D01*
X159545316Y-76503803D01*
X159539504Y-76527007D01*
X159531446Y-76549529D01*
X159521218Y-76571153D01*
X159508921Y-76591670D01*
X159494671Y-76610883D01*
X159478607Y-76628607D01*
X159460883Y-76644671D01*
X159441670Y-76658921D01*
X159421153Y-76671218D01*
X159399529Y-76681446D01*
X159377007Y-76689504D01*
X159353803Y-76695316D01*
X159330142Y-76698826D01*
X159306250Y-76700000D01*
X158818750Y-76700000D01*
X158794858Y-76698826D01*
X158771197Y-76695316D01*
X158747993Y-76689504D01*
X158725471Y-76681446D01*
X158703847Y-76671218D01*
X158683330Y-76658921D01*
X158664117Y-76644671D01*
X158646393Y-76628607D01*
X158630329Y-76610883D01*
X158616079Y-76591670D01*
X158603782Y-76571153D01*
X158593554Y-76549529D01*
X158585496Y-76527007D01*
X158579684Y-76503803D01*
X158576174Y-76480142D01*
X158575000Y-76456250D01*
X158575000Y-75543750D01*
X158576174Y-75519858D01*
X158579684Y-75496197D01*
X158585496Y-75472993D01*
X158593554Y-75450471D01*
X158603782Y-75428847D01*
X158616079Y-75408330D01*
X158630329Y-75389117D01*
X158646393Y-75371393D01*
X158664117Y-75355329D01*
X158683330Y-75341079D01*
X158703847Y-75328782D01*
X158725471Y-75318554D01*
X158747993Y-75310496D01*
X158771197Y-75304684D01*
X158794858Y-75301174D01*
X158818750Y-75300000D01*
X159306250Y-75300000D01*
X159330142Y-75301174D01*
G37*
G04 #@! TD.AperFunction*
G04 #@! TA.AperFunction,SMDPad,CuDef*
G36*
X161205142Y-75301174D02*
G01*
X161228803Y-75304684D01*
X161252007Y-75310496D01*
X161274529Y-75318554D01*
X161296153Y-75328782D01*
X161316670Y-75341079D01*
X161335883Y-75355329D01*
X161353607Y-75371393D01*
X161369671Y-75389117D01*
X161383921Y-75408330D01*
X161396218Y-75428847D01*
X161406446Y-75450471D01*
X161414504Y-75472993D01*
X161420316Y-75496197D01*
X161423826Y-75519858D01*
X161425000Y-75543750D01*
X161425000Y-76456250D01*
X161423826Y-76480142D01*
X161420316Y-76503803D01*
X161414504Y-76527007D01*
X161406446Y-76549529D01*
X161396218Y-76571153D01*
X161383921Y-76591670D01*
X161369671Y-76610883D01*
X161353607Y-76628607D01*
X161335883Y-76644671D01*
X161316670Y-76658921D01*
X161296153Y-76671218D01*
X161274529Y-76681446D01*
X161252007Y-76689504D01*
X161228803Y-76695316D01*
X161205142Y-76698826D01*
X161181250Y-76700000D01*
X160693750Y-76700000D01*
X160669858Y-76698826D01*
X160646197Y-76695316D01*
X160622993Y-76689504D01*
X160600471Y-76681446D01*
X160578847Y-76671218D01*
X160558330Y-76658921D01*
X160539117Y-76644671D01*
X160521393Y-76628607D01*
X160505329Y-76610883D01*
X160491079Y-76591670D01*
X160478782Y-76571153D01*
X160468554Y-76549529D01*
X160460496Y-76527007D01*
X160454684Y-76503803D01*
X160451174Y-76480142D01*
X160450000Y-76456250D01*
X160450000Y-75543750D01*
X160451174Y-75519858D01*
X160454684Y-75496197D01*
X160460496Y-75472993D01*
X160468554Y-75450471D01*
X160478782Y-75428847D01*
X160491079Y-75408330D01*
X160505329Y-75389117D01*
X160521393Y-75371393D01*
X160539117Y-75355329D01*
X160558330Y-75341079D01*
X160578847Y-75328782D01*
X160600471Y-75318554D01*
X160622993Y-75310496D01*
X160646197Y-75304684D01*
X160669858Y-75301174D01*
X160693750Y-75300000D01*
X161181250Y-75300000D01*
X161205142Y-75301174D01*
G37*
G04 #@! TD.AperFunction*
D17*
X164025000Y-71475000D03*
X164675000Y-71475000D03*
X165325000Y-71475000D03*
X165975000Y-71475000D03*
X165975000Y-73525000D03*
X165325000Y-73525000D03*
X164675000Y-73525000D03*
X164025000Y-73525000D03*
D11*
X174500000Y-76500000D03*
D10*
X174500000Y-73960000D03*
X174500000Y-71420000D03*
X174500000Y-68880000D03*
X166370000Y-86360000D03*
X163830000Y-86360000D03*
X161290000Y-86360000D03*
X158750000Y-86360000D03*
X156210000Y-86360000D03*
D11*
X153670000Y-86360000D03*
D10*
X144780000Y-86360000D03*
X144780000Y-83820000D03*
X142240000Y-86360000D03*
X142240000Y-83820000D03*
X139700000Y-86360000D03*
X139700000Y-83820000D03*
X137160000Y-86360000D03*
D11*
X137160000Y-83820000D03*
G04 #@! TA.AperFunction,ComponentPad*
D16*
G36*
X133960765Y-75454213D02*
G01*
X134045704Y-75466813D01*
X134128999Y-75487677D01*
X134209848Y-75516605D01*
X134287472Y-75553319D01*
X134361124Y-75597464D01*
X134430094Y-75648616D01*
X134493718Y-75706282D01*
X134551384Y-75769906D01*
X134602536Y-75838876D01*
X134646681Y-75912528D01*
X134683395Y-75990152D01*
X134712323Y-76071001D01*
X134733187Y-76154296D01*
X134745787Y-76239235D01*
X134750000Y-76325000D01*
X134750000Y-78075000D01*
X134745787Y-78160765D01*
X134733187Y-78245704D01*
X134712323Y-78328999D01*
X134683395Y-78409848D01*
X134646681Y-78487472D01*
X134602536Y-78561124D01*
X134551384Y-78630094D01*
X134493718Y-78693718D01*
X134430094Y-78751384D01*
X134361124Y-78802536D01*
X134287472Y-78846681D01*
X134209848Y-78883395D01*
X134128999Y-78912323D01*
X134045704Y-78933187D01*
X133960765Y-78945787D01*
X133875000Y-78950000D01*
X132125000Y-78950000D01*
X132039235Y-78945787D01*
X131954296Y-78933187D01*
X131871001Y-78912323D01*
X131790152Y-78883395D01*
X131712528Y-78846681D01*
X131638876Y-78802536D01*
X131569906Y-78751384D01*
X131506282Y-78693718D01*
X131448616Y-78630094D01*
X131397464Y-78561124D01*
X131353319Y-78487472D01*
X131316605Y-78409848D01*
X131287677Y-78328999D01*
X131266813Y-78245704D01*
X131254213Y-78160765D01*
X131250000Y-78075000D01*
X131250000Y-76325000D01*
X131254213Y-76239235D01*
X131266813Y-76154296D01*
X131287677Y-76071001D01*
X131316605Y-75990152D01*
X131353319Y-75912528D01*
X131397464Y-75838876D01*
X131448616Y-75769906D01*
X131506282Y-75706282D01*
X131569906Y-75648616D01*
X131638876Y-75597464D01*
X131712528Y-75553319D01*
X131790152Y-75516605D01*
X131871001Y-75487677D01*
X131954296Y-75466813D01*
X132039235Y-75454213D01*
X132125000Y-75450000D01*
X133875000Y-75450000D01*
X133960765Y-75454213D01*
G37*
G04 #@! TD.AperFunction*
G04 #@! TA.AperFunction,ComponentPad*
G36*
X130823513Y-70753611D02*
G01*
X130896318Y-70764411D01*
X130967714Y-70782295D01*
X131037013Y-70807090D01*
X131103548Y-70838559D01*
X131166678Y-70876398D01*
X131225795Y-70920242D01*
X131280330Y-70969670D01*
X131329758Y-71024205D01*
X131373602Y-71083322D01*
X131411441Y-71146452D01*
X131442910Y-71212987D01*
X131467705Y-71282286D01*
X131485589Y-71353682D01*
X131496389Y-71426487D01*
X131500000Y-71500000D01*
X131500000Y-73500000D01*
X131496389Y-73573513D01*
X131485589Y-73646318D01*
X131467705Y-73717714D01*
X131442910Y-73787013D01*
X131411441Y-73853548D01*
X131373602Y-73916678D01*
X131329758Y-73975795D01*
X131280330Y-74030330D01*
X131225795Y-74079758D01*
X131166678Y-74123602D01*
X131103548Y-74161441D01*
X131037013Y-74192910D01*
X130967714Y-74217705D01*
X130896318Y-74235589D01*
X130823513Y-74246389D01*
X130750000Y-74250000D01*
X129250000Y-74250000D01*
X129176487Y-74246389D01*
X129103682Y-74235589D01*
X129032286Y-74217705D01*
X128962987Y-74192910D01*
X128896452Y-74161441D01*
X128833322Y-74123602D01*
X128774205Y-74079758D01*
X128719670Y-74030330D01*
X128670242Y-73975795D01*
X128626398Y-73916678D01*
X128588559Y-73853548D01*
X128557090Y-73787013D01*
X128532295Y-73717714D01*
X128514411Y-73646318D01*
X128503611Y-73573513D01*
X128500000Y-73500000D01*
X128500000Y-71500000D01*
X128503611Y-71426487D01*
X128514411Y-71353682D01*
X128532295Y-71282286D01*
X128557090Y-71212987D01*
X128588559Y-71146452D01*
X128626398Y-71083322D01*
X128670242Y-71024205D01*
X128719670Y-70969670D01*
X128774205Y-70920242D01*
X128833322Y-70876398D01*
X128896452Y-70838559D01*
X128962987Y-70807090D01*
X129032286Y-70782295D01*
X129103682Y-70764411D01*
X129176487Y-70753611D01*
X129250000Y-70750000D01*
X130750000Y-70750000D01*
X130823513Y-70753611D01*
G37*
G04 #@! TD.AperFunction*
D18*
X136000000Y-72500000D03*
G04 #@! TA.AperFunction,SMDPad,CuDef*
D16*
G36*
X166205142Y-75301174D02*
G01*
X166228803Y-75304684D01*
X166252007Y-75310496D01*
X166274529Y-75318554D01*
X166296153Y-75328782D01*
X166316670Y-75341079D01*
X166335883Y-75355329D01*
X166353607Y-75371393D01*
X166369671Y-75389117D01*
X166383921Y-75408330D01*
X166396218Y-75428847D01*
X166406446Y-75450471D01*
X166414504Y-75472993D01*
X166420316Y-75496197D01*
X166423826Y-75519858D01*
X166425000Y-75543750D01*
X166425000Y-76456250D01*
X166423826Y-76480142D01*
X166420316Y-76503803D01*
X166414504Y-76527007D01*
X166406446Y-76549529D01*
X166396218Y-76571153D01*
X166383921Y-76591670D01*
X166369671Y-76610883D01*
X166353607Y-76628607D01*
X166335883Y-76644671D01*
X166316670Y-76658921D01*
X166296153Y-76671218D01*
X166274529Y-76681446D01*
X166252007Y-76689504D01*
X166228803Y-76695316D01*
X166205142Y-76698826D01*
X166181250Y-76700000D01*
X165693750Y-76700000D01*
X165669858Y-76698826D01*
X165646197Y-76695316D01*
X165622993Y-76689504D01*
X165600471Y-76681446D01*
X165578847Y-76671218D01*
X165558330Y-76658921D01*
X165539117Y-76644671D01*
X165521393Y-76628607D01*
X165505329Y-76610883D01*
X165491079Y-76591670D01*
X165478782Y-76571153D01*
X165468554Y-76549529D01*
X165460496Y-76527007D01*
X165454684Y-76503803D01*
X165451174Y-76480142D01*
X165450000Y-76456250D01*
X165450000Y-75543750D01*
X165451174Y-75519858D01*
X165454684Y-75496197D01*
X165460496Y-75472993D01*
X165468554Y-75450471D01*
X165478782Y-75428847D01*
X165491079Y-75408330D01*
X165505329Y-75389117D01*
X165521393Y-75371393D01*
X165539117Y-75355329D01*
X165558330Y-75341079D01*
X165578847Y-75328782D01*
X165600471Y-75318554D01*
X165622993Y-75310496D01*
X165646197Y-75304684D01*
X165669858Y-75301174D01*
X165693750Y-75300000D01*
X166181250Y-75300000D01*
X166205142Y-75301174D01*
G37*
G04 #@! TD.AperFunction*
G04 #@! TA.AperFunction,SMDPad,CuDef*
G36*
X164330142Y-75301174D02*
G01*
X164353803Y-75304684D01*
X164377007Y-75310496D01*
X164399529Y-75318554D01*
X164421153Y-75328782D01*
X164441670Y-75341079D01*
X164460883Y-75355329D01*
X164478607Y-75371393D01*
X164494671Y-75389117D01*
X164508921Y-75408330D01*
X164521218Y-75428847D01*
X164531446Y-75450471D01*
X164539504Y-75472993D01*
X164545316Y-75496197D01*
X164548826Y-75519858D01*
X164550000Y-75543750D01*
X164550000Y-76456250D01*
X164548826Y-76480142D01*
X164545316Y-76503803D01*
X164539504Y-76527007D01*
X164531446Y-76549529D01*
X164521218Y-76571153D01*
X164508921Y-76591670D01*
X164494671Y-76610883D01*
X164478607Y-76628607D01*
X164460883Y-76644671D01*
X164441670Y-76658921D01*
X164421153Y-76671218D01*
X164399529Y-76681446D01*
X164377007Y-76689504D01*
X164353803Y-76695316D01*
X164330142Y-76698826D01*
X164306250Y-76700000D01*
X163818750Y-76700000D01*
X163794858Y-76698826D01*
X163771197Y-76695316D01*
X163747993Y-76689504D01*
X163725471Y-76681446D01*
X163703847Y-76671218D01*
X163683330Y-76658921D01*
X163664117Y-76644671D01*
X163646393Y-76628607D01*
X163630329Y-76610883D01*
X163616079Y-76591670D01*
X163603782Y-76571153D01*
X163593554Y-76549529D01*
X163585496Y-76527007D01*
X163579684Y-76503803D01*
X163576174Y-76480142D01*
X163575000Y-76456250D01*
X163575000Y-75543750D01*
X163576174Y-75519858D01*
X163579684Y-75496197D01*
X163585496Y-75472993D01*
X163593554Y-75450471D01*
X163603782Y-75428847D01*
X163616079Y-75408330D01*
X163630329Y-75389117D01*
X163646393Y-75371393D01*
X163664117Y-75355329D01*
X163683330Y-75341079D01*
X163703847Y-75328782D01*
X163725471Y-75318554D01*
X163747993Y-75310496D01*
X163771197Y-75304684D01*
X163794858Y-75301174D01*
X163818750Y-75300000D01*
X164306250Y-75300000D01*
X164330142Y-75301174D01*
G37*
G04 #@! TD.AperFunction*
G04 #@! TA.AperFunction,SMDPad,CuDef*
G36*
X164330142Y-68301174D02*
G01*
X164353803Y-68304684D01*
X164377007Y-68310496D01*
X164399529Y-68318554D01*
X164421153Y-68328782D01*
X164441670Y-68341079D01*
X164460883Y-68355329D01*
X164478607Y-68371393D01*
X164494671Y-68389117D01*
X164508921Y-68408330D01*
X164521218Y-68428847D01*
X164531446Y-68450471D01*
X164539504Y-68472993D01*
X164545316Y-68496197D01*
X164548826Y-68519858D01*
X164550000Y-68543750D01*
X164550000Y-69456250D01*
X164548826Y-69480142D01*
X164545316Y-69503803D01*
X164539504Y-69527007D01*
X164531446Y-69549529D01*
X164521218Y-69571153D01*
X164508921Y-69591670D01*
X164494671Y-69610883D01*
X164478607Y-69628607D01*
X164460883Y-69644671D01*
X164441670Y-69658921D01*
X164421153Y-69671218D01*
X164399529Y-69681446D01*
X164377007Y-69689504D01*
X164353803Y-69695316D01*
X164330142Y-69698826D01*
X164306250Y-69700000D01*
X163818750Y-69700000D01*
X163794858Y-69698826D01*
X163771197Y-69695316D01*
X163747993Y-69689504D01*
X163725471Y-69681446D01*
X163703847Y-69671218D01*
X163683330Y-69658921D01*
X163664117Y-69644671D01*
X163646393Y-69628607D01*
X163630329Y-69610883D01*
X163616079Y-69591670D01*
X163603782Y-69571153D01*
X163593554Y-69549529D01*
X163585496Y-69527007D01*
X163579684Y-69503803D01*
X163576174Y-69480142D01*
X163575000Y-69456250D01*
X163575000Y-68543750D01*
X163576174Y-68519858D01*
X163579684Y-68496197D01*
X163585496Y-68472993D01*
X163593554Y-68450471D01*
X163603782Y-68428847D01*
X163616079Y-68408330D01*
X163630329Y-68389117D01*
X163646393Y-68371393D01*
X163664117Y-68355329D01*
X163683330Y-68341079D01*
X163703847Y-68328782D01*
X163725471Y-68318554D01*
X163747993Y-68310496D01*
X163771197Y-68304684D01*
X163794858Y-68301174D01*
X163818750Y-68300000D01*
X164306250Y-68300000D01*
X164330142Y-68301174D01*
G37*
G04 #@! TD.AperFunction*
G04 #@! TA.AperFunction,SMDPad,CuDef*
G36*
X166205142Y-68301174D02*
G01*
X166228803Y-68304684D01*
X166252007Y-68310496D01*
X166274529Y-68318554D01*
X166296153Y-68328782D01*
X166316670Y-68341079D01*
X166335883Y-68355329D01*
X166353607Y-68371393D01*
X166369671Y-68389117D01*
X166383921Y-68408330D01*
X166396218Y-68428847D01*
X166406446Y-68450471D01*
X166414504Y-68472993D01*
X166420316Y-68496197D01*
X166423826Y-68519858D01*
X166425000Y-68543750D01*
X166425000Y-69456250D01*
X166423826Y-69480142D01*
X166420316Y-69503803D01*
X166414504Y-69527007D01*
X166406446Y-69549529D01*
X166396218Y-69571153D01*
X166383921Y-69591670D01*
X166369671Y-69610883D01*
X166353607Y-69628607D01*
X166335883Y-69644671D01*
X166316670Y-69658921D01*
X166296153Y-69671218D01*
X166274529Y-69681446D01*
X166252007Y-69689504D01*
X166228803Y-69695316D01*
X166205142Y-69698826D01*
X166181250Y-69700000D01*
X165693750Y-69700000D01*
X165669858Y-69698826D01*
X165646197Y-69695316D01*
X165622993Y-69689504D01*
X165600471Y-69681446D01*
X165578847Y-69671218D01*
X165558330Y-69658921D01*
X165539117Y-69644671D01*
X165521393Y-69628607D01*
X165505329Y-69610883D01*
X165491079Y-69591670D01*
X165478782Y-69571153D01*
X165468554Y-69549529D01*
X165460496Y-69527007D01*
X165454684Y-69503803D01*
X165451174Y-69480142D01*
X165450000Y-69456250D01*
X165450000Y-68543750D01*
X165451174Y-68519858D01*
X165454684Y-68496197D01*
X165460496Y-68472993D01*
X165468554Y-68450471D01*
X165478782Y-68428847D01*
X165491079Y-68408330D01*
X165505329Y-68389117D01*
X165521393Y-68371393D01*
X165539117Y-68355329D01*
X165558330Y-68341079D01*
X165578847Y-68328782D01*
X165600471Y-68318554D01*
X165622993Y-68310496D01*
X165646197Y-68304684D01*
X165669858Y-68301174D01*
X165693750Y-68300000D01*
X166181250Y-68300000D01*
X166205142Y-68301174D01*
G37*
G04 #@! TD.AperFunction*
D12*
X154305000Y-74295000D03*
D19*
X164719000Y-74549000D03*
X168529000Y-74549000D03*
D12*
X154305000Y-70485000D03*
X154305000Y-62230000D03*
X149225000Y-84455000D03*
D19*
X142240000Y-64135000D03*
X154335000Y-80010000D03*
X163068000Y-69596000D03*
D12*
X150876000Y-62230000D03*
X161125000Y-61125000D03*
X164020500Y-70485000D03*
X163957000Y-72517000D03*
X163068000Y-74549000D03*
D20*
X165975000Y-69037500D02*
X165937500Y-69000000D01*
X165975000Y-71475000D02*
X165975000Y-69037500D01*
X165325000Y-73943000D02*
X164719000Y-74549000D01*
X165325000Y-73525000D02*
X165325000Y-73943000D01*
X164719000Y-75343500D02*
X164062500Y-76000000D01*
X164719000Y-74549000D02*
X164719000Y-75343500D01*
X160950000Y-75987500D02*
X160937500Y-76000000D01*
X160950000Y-72975000D02*
X160950000Y-75987500D01*
X160937500Y-76000000D02*
X164062500Y-76000000D01*
X168529000Y-73912604D02*
X168529000Y-74549000D01*
X168529000Y-73504000D02*
X168529000Y-73912604D01*
X166500000Y-71475000D02*
X168529000Y-73504000D01*
X165975000Y-71475000D02*
X166500000Y-71475000D01*
X154335000Y-80010000D02*
X154305000Y-80010000D01*
X154305000Y-80010000D02*
X154305000Y-78105000D01*
X142240000Y-66040000D02*
X142240000Y-64135000D01*
X154305000Y-78105000D02*
X142240000Y-66040000D01*
X165325000Y-72075000D02*
X165325000Y-71475000D01*
X165325000Y-72275000D02*
X165325000Y-72075000D01*
X164675000Y-72925000D02*
X165325000Y-72275000D01*
X164675000Y-73525000D02*
X164675000Y-72925000D01*
X165975000Y-72925000D02*
X165325000Y-72275000D01*
X165975000Y-73525000D02*
X165975000Y-72925000D01*
X165975000Y-75962500D02*
X165937500Y-76000000D01*
X165975000Y-73525000D02*
X165975000Y-75962500D01*
X165325000Y-70262500D02*
X164062500Y-69000000D01*
X165325000Y-71475000D02*
X165325000Y-70262500D01*
X159050000Y-75987500D02*
X159062500Y-76000000D01*
X159050000Y-72975000D02*
X159050000Y-75987500D01*
X159062500Y-76000000D02*
X160278500Y-77216000D01*
X164721500Y-77216000D02*
X165937500Y-76000000D01*
X160278500Y-77216000D02*
X164721500Y-77216000D01*
X165991500Y-75946000D02*
X165937500Y-76000000D01*
X163664000Y-69000000D02*
X163068000Y-69596000D01*
X164062500Y-69000000D02*
X163664000Y-69000000D01*
D21*
X151981000Y-61125000D02*
X150876000Y-62230000D01*
X161125000Y-61125000D02*
X151981000Y-61125000D01*
X161290000Y-85157919D02*
X158682081Y-82550000D01*
X146050000Y-82550000D02*
X144780000Y-83820000D01*
X158682081Y-82550000D02*
X146050000Y-82550000D01*
X161290000Y-86360000D02*
X161290000Y-85157919D01*
X159250001Y-71374999D02*
X161417999Y-71374999D01*
X159050000Y-71575000D02*
X159250001Y-71374999D01*
X159050000Y-72025000D02*
X159050000Y-71575000D01*
X161518000Y-71475000D02*
X164025000Y-71475000D01*
X161417999Y-71374999D02*
X161518000Y-71475000D01*
X164020500Y-70485000D02*
X164020500Y-71470500D01*
X164020500Y-71470500D02*
X164025000Y-71475000D01*
X144145000Y-81915000D02*
X142240000Y-83820000D01*
X170815000Y-78740000D02*
X167640000Y-81915000D01*
X167640000Y-81915000D02*
X144145000Y-81915000D01*
X170815000Y-74549000D02*
X170815000Y-78740000D01*
X172720000Y-72644000D02*
X170815000Y-74549000D01*
X175768000Y-72009000D02*
X175133000Y-72644000D01*
X175133000Y-72644000D02*
X172720000Y-72644000D01*
X175768000Y-70148000D02*
X175768000Y-72009000D01*
X174500000Y-68880000D02*
X175768000Y-70148000D01*
X164675000Y-71799000D02*
X163957000Y-72517000D01*
X164675000Y-71475000D02*
X164675000Y-71799000D01*
X163465000Y-72025000D02*
X163957000Y-72517000D01*
X160950000Y-72025000D02*
X163465000Y-72025000D01*
X173055000Y-71420000D02*
X174500000Y-71420000D01*
X170180000Y-74295000D02*
X173055000Y-71420000D01*
X170180000Y-78105000D02*
X170180000Y-74295000D01*
X167005000Y-81280000D02*
X170180000Y-78105000D01*
X142240000Y-81280000D02*
X167005000Y-81280000D01*
X139700000Y-83820000D02*
X142240000Y-81280000D01*
X137160000Y-86360000D02*
X138430000Y-85090000D01*
X138430000Y-85090000D02*
X145415000Y-85090000D01*
X145415000Y-85090000D02*
X147320000Y-83185000D01*
X147320000Y-83185000D02*
X157480000Y-83185000D01*
X157480000Y-83185000D02*
X160020000Y-85725000D01*
X160020000Y-85725000D02*
X160020000Y-86995000D01*
X160020000Y-86995000D02*
X160655000Y-87630000D01*
X162560000Y-87630000D02*
X163830000Y-86360000D01*
X160655000Y-87630000D02*
X162560000Y-87630000D01*
X164025000Y-73592000D02*
X163068000Y-74549000D01*
X164025000Y-73525000D02*
X164025000Y-73592000D01*
D22*
G36*
X173725555Y-56232221D02*
G01*
X174424940Y-56437398D01*
X175072904Y-56771120D01*
X175646074Y-57221353D01*
X176123762Y-57771839D01*
X176488742Y-58402730D01*
X176727836Y-59091248D01*
X176835790Y-59835790D01*
X176840001Y-60008104D01*
X176840000Y-84968591D01*
X176767779Y-85725555D01*
X176562602Y-86424940D01*
X176228878Y-87072906D01*
X175778650Y-87646072D01*
X175228159Y-88123763D01*
X174597270Y-88488741D01*
X173908752Y-88727836D01*
X173164210Y-88835790D01*
X172991937Y-88840000D01*
X130031409Y-88840000D01*
X129274445Y-88767779D01*
X128575060Y-88562602D01*
X127927094Y-88228878D01*
X127353928Y-87778650D01*
X126876237Y-87228159D01*
X126511259Y-86597270D01*
X126272164Y-85908752D01*
X126164210Y-85164210D01*
X126160000Y-84991937D01*
X126160000Y-84670000D01*
X135671928Y-84670000D01*
X135684188Y-84794482D01*
X135720498Y-84914180D01*
X135779463Y-85024494D01*
X135858815Y-85121185D01*
X135955506Y-85200537D01*
X136065820Y-85259502D01*
X136138380Y-85281513D01*
X136006525Y-85413368D01*
X135844010Y-85656589D01*
X135732068Y-85926842D01*
X135675000Y-86213740D01*
X135675000Y-86506260D01*
X135732068Y-86793158D01*
X135844010Y-87063411D01*
X136006525Y-87306632D01*
X136213368Y-87513475D01*
X136456589Y-87675990D01*
X136726842Y-87787932D01*
X137013740Y-87845000D01*
X137306260Y-87845000D01*
X137593158Y-87787932D01*
X137863411Y-87675990D01*
X138106632Y-87513475D01*
X138313475Y-87306632D01*
X138430000Y-87132240D01*
X138546525Y-87306632D01*
X138753368Y-87513475D01*
X138996589Y-87675990D01*
X139266842Y-87787932D01*
X139553740Y-87845000D01*
X139846260Y-87845000D01*
X140133158Y-87787932D01*
X140403411Y-87675990D01*
X140646632Y-87513475D01*
X140853475Y-87306632D01*
X140970000Y-87132240D01*
X141086525Y-87306632D01*
X141293368Y-87513475D01*
X141536589Y-87675990D01*
X141806842Y-87787932D01*
X142093740Y-87845000D01*
X142386260Y-87845000D01*
X142673158Y-87787932D01*
X142943411Y-87675990D01*
X143186632Y-87513475D01*
X143393475Y-87306632D01*
X143510000Y-87132240D01*
X143626525Y-87306632D01*
X143833368Y-87513475D01*
X144076589Y-87675990D01*
X144346842Y-87787932D01*
X144633740Y-87845000D01*
X144926260Y-87845000D01*
X145213158Y-87787932D01*
X145483411Y-87675990D01*
X145726632Y-87513475D01*
X145933475Y-87306632D01*
X145998042Y-87210000D01*
X152181928Y-87210000D01*
X152194188Y-87334482D01*
X152230498Y-87454180D01*
X152289463Y-87564494D01*
X152368815Y-87661185D01*
X152465506Y-87740537D01*
X152575820Y-87799502D01*
X152695518Y-87835812D01*
X152820000Y-87848072D01*
X153384250Y-87845000D01*
X153543000Y-87686250D01*
X153543000Y-86487000D01*
X152343750Y-86487000D01*
X152185000Y-86645750D01*
X152181928Y-87210000D01*
X145998042Y-87210000D01*
X146095990Y-87063411D01*
X146207932Y-86793158D01*
X146265000Y-86506260D01*
X146265000Y-86213740D01*
X146207932Y-85926842D01*
X146095990Y-85656589D01*
X146026785Y-85553016D01*
X146069801Y-85510000D01*
X152181928Y-85510000D01*
X152185000Y-86074250D01*
X152343750Y-86233000D01*
X153543000Y-86233000D01*
X153543000Y-85033750D01*
X153384250Y-84875000D01*
X152820000Y-84871928D01*
X152695518Y-84884188D01*
X152575820Y-84920498D01*
X152465506Y-84979463D01*
X152368815Y-85058815D01*
X152289463Y-85155506D01*
X152230498Y-85265820D01*
X152194188Y-85385518D01*
X152181928Y-85510000D01*
X146069801Y-85510000D01*
X147634802Y-83945000D01*
X157165199Y-83945000D01*
X158200469Y-84980271D01*
X158046589Y-85044010D01*
X157803368Y-85206525D01*
X157596525Y-85413368D01*
X157480000Y-85587760D01*
X157363475Y-85413368D01*
X157156632Y-85206525D01*
X156913411Y-85044010D01*
X156643158Y-84932068D01*
X156356260Y-84875000D01*
X156063740Y-84875000D01*
X155776842Y-84932068D01*
X155506589Y-85044010D01*
X155263368Y-85206525D01*
X155131513Y-85338380D01*
X155109502Y-85265820D01*
X155050537Y-85155506D01*
X154971185Y-85058815D01*
X154874494Y-84979463D01*
X154764180Y-84920498D01*
X154644482Y-84884188D01*
X154520000Y-84871928D01*
X153955750Y-84875000D01*
X153797000Y-85033750D01*
X153797000Y-86233000D01*
X153817000Y-86233000D01*
X153817000Y-86487000D01*
X153797000Y-86487000D01*
X153797000Y-87686250D01*
X153955750Y-87845000D01*
X154520000Y-87848072D01*
X154644482Y-87835812D01*
X154764180Y-87799502D01*
X154874494Y-87740537D01*
X154971185Y-87661185D01*
X155050537Y-87564494D01*
X155109502Y-87454180D01*
X155131513Y-87381620D01*
X155263368Y-87513475D01*
X155506589Y-87675990D01*
X155776842Y-87787932D01*
X156063740Y-87845000D01*
X156356260Y-87845000D01*
X156643158Y-87787932D01*
X156913411Y-87675990D01*
X157156632Y-87513475D01*
X157363475Y-87306632D01*
X157480000Y-87132240D01*
X157596525Y-87306632D01*
X157803368Y-87513475D01*
X158046589Y-87675990D01*
X158316842Y-87787932D01*
X158603740Y-87845000D01*
X158896260Y-87845000D01*
X159183158Y-87787932D01*
X159453411Y-87675990D01*
X159556984Y-87606785D01*
X160091200Y-88141002D01*
X160114999Y-88170001D01*
X160143997Y-88193799D01*
X160230724Y-88264974D01*
X160362753Y-88335546D01*
X160506014Y-88379003D01*
X160655000Y-88393677D01*
X160692333Y-88390000D01*
X162522678Y-88390000D01*
X162560000Y-88393676D01*
X162597322Y-88390000D01*
X162597333Y-88390000D01*
X162708986Y-88379003D01*
X162852247Y-88335546D01*
X162984276Y-88264974D01*
X163100001Y-88170001D01*
X163123804Y-88140997D01*
X163463592Y-87801209D01*
X163683740Y-87845000D01*
X163976260Y-87845000D01*
X164263158Y-87787932D01*
X164533411Y-87675990D01*
X164776632Y-87513475D01*
X164983475Y-87306632D01*
X165100000Y-87132240D01*
X165216525Y-87306632D01*
X165423368Y-87513475D01*
X165666589Y-87675990D01*
X165936842Y-87787932D01*
X166223740Y-87845000D01*
X166516260Y-87845000D01*
X166803158Y-87787932D01*
X167073411Y-87675990D01*
X167316632Y-87513475D01*
X167523475Y-87306632D01*
X167685990Y-87063411D01*
X167797932Y-86793158D01*
X167855000Y-86506260D01*
X167855000Y-86213740D01*
X167797932Y-85926842D01*
X167685990Y-85656589D01*
X167523475Y-85413368D01*
X167316632Y-85206525D01*
X167073411Y-85044010D01*
X166803158Y-84932068D01*
X166516260Y-84875000D01*
X166223740Y-84875000D01*
X165936842Y-84932068D01*
X165666589Y-85044010D01*
X165423368Y-85206525D01*
X165216525Y-85413368D01*
X165100000Y-85587760D01*
X164983475Y-85413368D01*
X164776632Y-85206525D01*
X164533411Y-85044010D01*
X164263158Y-84932068D01*
X163976260Y-84875000D01*
X163683740Y-84875000D01*
X163396842Y-84932068D01*
X163126589Y-85044010D01*
X162883368Y-85206525D01*
X162676525Y-85413368D01*
X162560000Y-85587760D01*
X162443475Y-85413368D01*
X162236632Y-85206525D01*
X162045913Y-85079091D01*
X162039003Y-85008933D01*
X161995546Y-84865672D01*
X161924974Y-84733643D01*
X161872744Y-84670000D01*
X161853799Y-84646915D01*
X161853795Y-84646911D01*
X161830001Y-84617918D01*
X161801008Y-84594124D01*
X159881883Y-82675000D01*
X167602678Y-82675000D01*
X167640000Y-82678676D01*
X167677322Y-82675000D01*
X167677333Y-82675000D01*
X167788986Y-82664003D01*
X167932247Y-82620546D01*
X168064276Y-82549974D01*
X168180001Y-82455001D01*
X168203804Y-82425997D01*
X171326003Y-79303799D01*
X171355001Y-79280001D01*
X171388943Y-79238643D01*
X171449974Y-79164277D01*
X171520546Y-79032247D01*
X171536469Y-78979754D01*
X171564003Y-78888986D01*
X171575000Y-78777333D01*
X171575000Y-78777324D01*
X171578676Y-78740001D01*
X171575000Y-78702678D01*
X171575000Y-77604606D01*
X171589803Y-77589803D01*
X171605597Y-77570557D01*
X171617333Y-77548601D01*
X171624560Y-77524776D01*
X171627000Y-77500000D01*
X171627000Y-77350000D01*
X173011928Y-77350000D01*
X173024188Y-77474482D01*
X173060498Y-77594180D01*
X173119463Y-77704494D01*
X173198815Y-77801185D01*
X173295506Y-77880537D01*
X173405820Y-77939502D01*
X173525518Y-77975812D01*
X173650000Y-77988072D01*
X174214250Y-77985000D01*
X174373000Y-77826250D01*
X174373000Y-76627000D01*
X174627000Y-76627000D01*
X174627000Y-77826250D01*
X174785750Y-77985000D01*
X175350000Y-77988072D01*
X175474482Y-77975812D01*
X175594180Y-77939502D01*
X175704494Y-77880537D01*
X175801185Y-77801185D01*
X175880537Y-77704494D01*
X175939502Y-77594180D01*
X175975812Y-77474482D01*
X175988072Y-77350000D01*
X175985000Y-76785750D01*
X175826250Y-76627000D01*
X174627000Y-76627000D01*
X174373000Y-76627000D01*
X173173750Y-76627000D01*
X173015000Y-76785750D01*
X173011928Y-77350000D01*
X171627000Y-77350000D01*
X171627000Y-74811801D01*
X173034802Y-73404000D01*
X173122951Y-73404000D01*
X173072068Y-73526842D01*
X173015000Y-73813740D01*
X173015000Y-74106260D01*
X173072068Y-74393158D01*
X173184010Y-74663411D01*
X173346525Y-74906632D01*
X173478380Y-75038487D01*
X173405820Y-75060498D01*
X173295506Y-75119463D01*
X173198815Y-75198815D01*
X173119463Y-75295506D01*
X173060498Y-75405820D01*
X173024188Y-75525518D01*
X173011928Y-75650000D01*
X173015000Y-76214250D01*
X173173750Y-76373000D01*
X174373000Y-76373000D01*
X174373000Y-76353000D01*
X174627000Y-76353000D01*
X174627000Y-76373000D01*
X175826250Y-76373000D01*
X175985000Y-76214250D01*
X175988072Y-75650000D01*
X175975812Y-75525518D01*
X175939502Y-75405820D01*
X175880537Y-75295506D01*
X175801185Y-75198815D01*
X175704494Y-75119463D01*
X175594180Y-75060498D01*
X175521620Y-75038487D01*
X175653475Y-74906632D01*
X175815990Y-74663411D01*
X175927932Y-74393158D01*
X175985000Y-74106260D01*
X175985000Y-73813740D01*
X175927932Y-73526842D01*
X175815990Y-73256589D01*
X175727559Y-73124242D01*
X176279002Y-72572800D01*
X176308001Y-72549001D01*
X176402974Y-72433276D01*
X176473546Y-72301247D01*
X176517003Y-72157986D01*
X176528000Y-72046333D01*
X176531677Y-72009000D01*
X176528000Y-71971667D01*
X176528000Y-70185325D01*
X176531676Y-70148000D01*
X176528000Y-70110675D01*
X176528000Y-70110667D01*
X176517003Y-69999014D01*
X176473546Y-69855753D01*
X176402974Y-69723724D01*
X176308001Y-69607999D01*
X176279004Y-69584202D01*
X175941210Y-69246408D01*
X175985000Y-69026260D01*
X175985000Y-68733740D01*
X175927932Y-68446842D01*
X175815990Y-68176589D01*
X175653475Y-67933368D01*
X175446632Y-67726525D01*
X175203411Y-67564010D01*
X174933158Y-67452068D01*
X174646260Y-67395000D01*
X174353740Y-67395000D01*
X174066842Y-67452068D01*
X173796589Y-67564010D01*
X173553368Y-67726525D01*
X173346525Y-67933368D01*
X173184010Y-68176589D01*
X173072068Y-68446842D01*
X173015000Y-68733740D01*
X173015000Y-69026260D01*
X173072068Y-69313158D01*
X173184010Y-69583411D01*
X173346525Y-69826632D01*
X173553368Y-70033475D01*
X173727760Y-70150000D01*
X173553368Y-70266525D01*
X173346525Y-70473368D01*
X173221822Y-70660000D01*
X173092322Y-70660000D01*
X173055000Y-70656324D01*
X173017677Y-70660000D01*
X173017667Y-70660000D01*
X172906014Y-70670997D01*
X172773075Y-70711323D01*
X172762753Y-70714454D01*
X172630723Y-70785026D01*
X172566142Y-70838027D01*
X172514999Y-70879999D01*
X172491201Y-70908997D01*
X171627000Y-71773198D01*
X171627000Y-67500000D01*
X171624560Y-67475224D01*
X171617333Y-67451399D01*
X171605597Y-67429443D01*
X171589803Y-67410197D01*
X169589803Y-65410197D01*
X169570557Y-65394403D01*
X169548601Y-65382667D01*
X169524776Y-65375440D01*
X169500000Y-65373000D01*
X167368837Y-65373000D01*
X167064405Y-65343150D01*
X167064402Y-65343150D01*
X167032419Y-65340000D01*
X158467581Y-65340000D01*
X158438627Y-65342852D01*
X158426219Y-65342765D01*
X158417047Y-65343665D01*
X158137946Y-65373000D01*
X158000000Y-65373000D01*
X157975224Y-65375440D01*
X157951399Y-65382667D01*
X157929443Y-65394403D01*
X157913764Y-65407270D01*
X157911498Y-65407702D01*
X157902677Y-65410366D01*
X157529802Y-65525790D01*
X157474647Y-65548975D01*
X157419194Y-65571379D01*
X157411062Y-65575704D01*
X157411057Y-65575706D01*
X157411053Y-65575709D01*
X157067702Y-65761357D01*
X157018101Y-65794813D01*
X156968054Y-65827563D01*
X156960913Y-65833387D01*
X156660158Y-66082194D01*
X156618019Y-66124629D01*
X156575269Y-66166492D01*
X156569396Y-66173593D01*
X156322695Y-66476077D01*
X156289598Y-66525893D01*
X156255795Y-66575259D01*
X156251413Y-66583365D01*
X156068163Y-66928007D01*
X156045368Y-66983313D01*
X156021802Y-67038296D01*
X156019077Y-67047099D01*
X155906259Y-67420770D01*
X155894639Y-67479458D01*
X155882203Y-67537961D01*
X155881240Y-67547126D01*
X155843150Y-67935595D01*
X155843150Y-67935608D01*
X155840001Y-67967581D01*
X155840000Y-77032418D01*
X155842852Y-77061372D01*
X155842765Y-77073781D01*
X155843665Y-77082952D01*
X155884466Y-77471145D01*
X155896487Y-77529708D01*
X155907702Y-77588501D01*
X155910366Y-77597323D01*
X156025790Y-77970198D01*
X156048975Y-78025353D01*
X156071379Y-78080806D01*
X156075706Y-78088943D01*
X156261357Y-78432298D01*
X156294780Y-78481849D01*
X156327562Y-78531946D01*
X156333387Y-78539087D01*
X156582194Y-78839841D01*
X156624629Y-78881981D01*
X156666492Y-78924730D01*
X156673592Y-78930604D01*
X156976077Y-79177305D01*
X157025904Y-79210409D01*
X157075259Y-79244204D01*
X157083365Y-79248587D01*
X157428007Y-79431837D01*
X157483311Y-79454631D01*
X157538295Y-79478198D01*
X157547098Y-79480923D01*
X157911635Y-79590983D01*
X157929443Y-79605597D01*
X157951399Y-79617333D01*
X157975224Y-79624560D01*
X158000000Y-79627000D01*
X158131163Y-79627000D01*
X158435595Y-79656850D01*
X158435598Y-79656850D01*
X158467581Y-79660000D01*
X167032419Y-79660000D01*
X167061373Y-79657148D01*
X167073781Y-79657235D01*
X167082952Y-79656335D01*
X167362054Y-79627000D01*
X167583199Y-79627000D01*
X166690199Y-80520000D01*
X155298147Y-80520000D01*
X155378304Y-80326483D01*
X155420000Y-80116863D01*
X155420000Y-79903137D01*
X155378304Y-79693517D01*
X155296515Y-79496060D01*
X155177775Y-79318353D01*
X155115000Y-79255578D01*
X155115000Y-78144788D01*
X155118919Y-78105000D01*
X155115000Y-78065209D01*
X155103280Y-77946212D01*
X155060628Y-77805608D01*
X155056963Y-77793526D01*
X154981749Y-77652811D01*
X154953812Y-77618770D01*
X154880528Y-77529472D01*
X154849618Y-77504105D01*
X143050000Y-65704488D01*
X143050000Y-64859422D01*
X143082775Y-64826647D01*
X143201515Y-64648940D01*
X143283304Y-64451483D01*
X143325000Y-64241863D01*
X143325000Y-64028137D01*
X143283304Y-63818517D01*
X143201515Y-63621060D01*
X143082775Y-63443353D01*
X142931647Y-63292225D01*
X142753940Y-63173485D01*
X142556483Y-63091696D01*
X142346863Y-63050000D01*
X142133137Y-63050000D01*
X141923517Y-63091696D01*
X141726060Y-63173485D01*
X141548353Y-63292225D01*
X141397225Y-63443353D01*
X141278485Y-63621060D01*
X141196696Y-63818517D01*
X141155000Y-64028137D01*
X141155000Y-64241863D01*
X141196696Y-64451483D01*
X141278485Y-64648940D01*
X141397225Y-64826647D01*
X141430001Y-64859423D01*
X141430000Y-66000211D01*
X141426081Y-66040000D01*
X141430000Y-66079788D01*
X141430000Y-66079790D01*
X141441720Y-66198787D01*
X141488037Y-66351472D01*
X141513960Y-66399971D01*
X141563251Y-66492189D01*
X141593729Y-66529326D01*
X141664472Y-66615528D01*
X141695388Y-66640900D01*
X153495001Y-78440514D01*
X153495000Y-79315578D01*
X153492225Y-79318353D01*
X153373485Y-79496060D01*
X153291696Y-79693517D01*
X153250000Y-79903137D01*
X153250000Y-80116863D01*
X153291696Y-80326483D01*
X153371853Y-80520000D01*
X142277322Y-80520000D01*
X142239999Y-80516324D01*
X142202676Y-80520000D01*
X142202667Y-80520000D01*
X142091014Y-80530997D01*
X141947753Y-80574454D01*
X141815724Y-80645026D01*
X141815722Y-80645027D01*
X141815723Y-80645027D01*
X141728996Y-80716201D01*
X141728992Y-80716205D01*
X141699999Y-80739999D01*
X141676205Y-80768992D01*
X140066408Y-82378790D01*
X139846260Y-82335000D01*
X139553740Y-82335000D01*
X139266842Y-82392068D01*
X138996589Y-82504010D01*
X138753368Y-82666525D01*
X138621513Y-82798380D01*
X138599502Y-82725820D01*
X138540537Y-82615506D01*
X138461185Y-82518815D01*
X138364494Y-82439463D01*
X138254180Y-82380498D01*
X138134482Y-82344188D01*
X138010000Y-82331928D01*
X137445750Y-82335000D01*
X137287000Y-82493750D01*
X137287000Y-83693000D01*
X137307000Y-83693000D01*
X137307000Y-83947000D01*
X137287000Y-83947000D01*
X137287000Y-83967000D01*
X137033000Y-83967000D01*
X137033000Y-83947000D01*
X135833750Y-83947000D01*
X135675000Y-84105750D01*
X135671928Y-84670000D01*
X126160000Y-84670000D01*
X126160000Y-82970000D01*
X135671928Y-82970000D01*
X135675000Y-83534250D01*
X135833750Y-83693000D01*
X137033000Y-83693000D01*
X137033000Y-82493750D01*
X136874250Y-82335000D01*
X136310000Y-82331928D01*
X136185518Y-82344188D01*
X136065820Y-82380498D01*
X135955506Y-82439463D01*
X135858815Y-82518815D01*
X135779463Y-82615506D01*
X135720498Y-82725820D01*
X135684188Y-82845518D01*
X135671928Y-82970000D01*
X126160000Y-82970000D01*
X126160000Y-78950000D01*
X130611928Y-78950000D01*
X130624188Y-79074482D01*
X130660498Y-79194180D01*
X130719463Y-79304494D01*
X130798815Y-79401185D01*
X130895506Y-79480537D01*
X131005820Y-79539502D01*
X131125518Y-79575812D01*
X131250000Y-79588072D01*
X132714250Y-79585000D01*
X132873000Y-79426250D01*
X132873000Y-77327000D01*
X133127000Y-77327000D01*
X133127000Y-79426250D01*
X133285750Y-79585000D01*
X134750000Y-79588072D01*
X134874482Y-79575812D01*
X134994180Y-79539502D01*
X135104494Y-79480537D01*
X135201185Y-79401185D01*
X135280537Y-79304494D01*
X135339502Y-79194180D01*
X135375812Y-79074482D01*
X135388072Y-78950000D01*
X135385000Y-77485750D01*
X135226250Y-77327000D01*
X133127000Y-77327000D01*
X132873000Y-77327000D01*
X130773750Y-77327000D01*
X130615000Y-77485750D01*
X130611928Y-78950000D01*
X126160000Y-78950000D01*
X126160000Y-77279872D01*
X137265000Y-77279872D01*
X137265000Y-77720128D01*
X137350890Y-78151925D01*
X137519369Y-78558669D01*
X137763962Y-78924729D01*
X138075271Y-79236038D01*
X138441331Y-79480631D01*
X138848075Y-79649110D01*
X139279872Y-79735000D01*
X139720128Y-79735000D01*
X140151925Y-79649110D01*
X140558669Y-79480631D01*
X140924729Y-79236038D01*
X141236038Y-78924729D01*
X141480631Y-78558669D01*
X141649110Y-78151925D01*
X141735000Y-77720128D01*
X141735000Y-77279872D01*
X141649110Y-76848075D01*
X141480631Y-76441331D01*
X141236038Y-76075271D01*
X140924729Y-75763962D01*
X140558669Y-75519369D01*
X140151925Y-75350890D01*
X139720128Y-75265000D01*
X139279872Y-75265000D01*
X138848075Y-75350890D01*
X138441331Y-75519369D01*
X138075271Y-75763962D01*
X137763962Y-76075271D01*
X137519369Y-76441331D01*
X137350890Y-76848075D01*
X137265000Y-77279872D01*
X126160000Y-77279872D01*
X126160000Y-74250000D01*
X127861928Y-74250000D01*
X127874188Y-74374482D01*
X127910498Y-74494180D01*
X127969463Y-74604494D01*
X128048815Y-74701185D01*
X128145506Y-74780537D01*
X128255820Y-74839502D01*
X128375518Y-74875812D01*
X128500000Y-74888072D01*
X129714250Y-74885000D01*
X129873000Y-74726250D01*
X129873000Y-72627000D01*
X130127000Y-72627000D01*
X130127000Y-74726250D01*
X130285750Y-74885000D01*
X130956805Y-74886698D01*
X130895506Y-74919463D01*
X130798815Y-74998815D01*
X130719463Y-75095506D01*
X130660498Y-75205820D01*
X130624188Y-75325518D01*
X130611928Y-75450000D01*
X130615000Y-76914250D01*
X130773750Y-77073000D01*
X132873000Y-77073000D01*
X132873000Y-74973750D01*
X133127000Y-74973750D01*
X133127000Y-77073000D01*
X135226250Y-77073000D01*
X135385000Y-76914250D01*
X135388072Y-75450000D01*
X135375812Y-75325518D01*
X135339502Y-75205820D01*
X135280537Y-75095506D01*
X135201185Y-74998815D01*
X135104494Y-74919463D01*
X135045767Y-74888072D01*
X137750000Y-74888072D01*
X137874482Y-74875812D01*
X137994180Y-74839502D01*
X138104494Y-74780537D01*
X138201185Y-74701185D01*
X138280537Y-74604494D01*
X138339502Y-74494180D01*
X138375812Y-74374482D01*
X138388072Y-74250000D01*
X138388072Y-70750000D01*
X138375812Y-70625518D01*
X138339502Y-70505820D01*
X138280537Y-70395506D01*
X138201185Y-70298815D01*
X138104494Y-70219463D01*
X137994180Y-70160498D01*
X137874482Y-70124188D01*
X137750000Y-70111928D01*
X134250000Y-70111928D01*
X134125518Y-70124188D01*
X134005820Y-70160498D01*
X133895506Y-70219463D01*
X133798815Y-70298815D01*
X133719463Y-70395506D01*
X133660498Y-70505820D01*
X133624188Y-70625518D01*
X133611928Y-70750000D01*
X133611928Y-74250000D01*
X133624188Y-74374482D01*
X133660498Y-74494180D01*
X133719463Y-74604494D01*
X133798815Y-74701185D01*
X133895506Y-74780537D01*
X133957345Y-74813591D01*
X133285750Y-74815000D01*
X133127000Y-74973750D01*
X132873000Y-74973750D01*
X132714250Y-74815000D01*
X131793633Y-74813069D01*
X131854494Y-74780537D01*
X131951185Y-74701185D01*
X132030537Y-74604494D01*
X132089502Y-74494180D01*
X132125812Y-74374482D01*
X132138072Y-74250000D01*
X132135000Y-72785750D01*
X131976250Y-72627000D01*
X130127000Y-72627000D01*
X129873000Y-72627000D01*
X128023750Y-72627000D01*
X127865000Y-72785750D01*
X127861928Y-74250000D01*
X126160000Y-74250000D01*
X126160000Y-70750000D01*
X127861928Y-70750000D01*
X127865000Y-72214250D01*
X128023750Y-72373000D01*
X129873000Y-72373000D01*
X129873000Y-70273750D01*
X130127000Y-70273750D01*
X130127000Y-72373000D01*
X131976250Y-72373000D01*
X132135000Y-72214250D01*
X132138072Y-70750000D01*
X132125812Y-70625518D01*
X132089502Y-70505820D01*
X132030537Y-70395506D01*
X131951185Y-70298815D01*
X131854494Y-70219463D01*
X131744180Y-70160498D01*
X131624482Y-70124188D01*
X131500000Y-70111928D01*
X130285750Y-70115000D01*
X130127000Y-70273750D01*
X129873000Y-70273750D01*
X129714250Y-70115000D01*
X128500000Y-70111928D01*
X128375518Y-70124188D01*
X128255820Y-70160498D01*
X128145506Y-70219463D01*
X128048815Y-70298815D01*
X127969463Y-70395506D01*
X127910498Y-70505820D01*
X127874188Y-70625518D01*
X127861928Y-70750000D01*
X126160000Y-70750000D01*
X126160000Y-67279872D01*
X137265000Y-67279872D01*
X137265000Y-67720128D01*
X137350890Y-68151925D01*
X137519369Y-68558669D01*
X137763962Y-68924729D01*
X138075271Y-69236038D01*
X138441331Y-69480631D01*
X138848075Y-69649110D01*
X139279872Y-69735000D01*
X139720128Y-69735000D01*
X140151925Y-69649110D01*
X140558669Y-69480631D01*
X140924729Y-69236038D01*
X141236038Y-68924729D01*
X141480631Y-68558669D01*
X141649110Y-68151925D01*
X141735000Y-67720128D01*
X141735000Y-67279872D01*
X141649110Y-66848075D01*
X141480631Y-66441331D01*
X141236038Y-66075271D01*
X140924729Y-65763962D01*
X140558669Y-65519369D01*
X140151925Y-65350890D01*
X139720128Y-65265000D01*
X139279872Y-65265000D01*
X138848075Y-65350890D01*
X138441331Y-65519369D01*
X138075271Y-65763962D01*
X137763962Y-66075271D01*
X137519369Y-66441331D01*
X137350890Y-66848075D01*
X137265000Y-67279872D01*
X126160000Y-67279872D01*
X126160000Y-66255000D01*
X126781928Y-66255000D01*
X126794188Y-66379482D01*
X126830498Y-66499180D01*
X126889463Y-66609494D01*
X126968815Y-66706185D01*
X127065506Y-66785537D01*
X127175820Y-66844502D01*
X127295518Y-66880812D01*
X127420000Y-66893072D01*
X127984250Y-66890000D01*
X128143000Y-66731250D01*
X128143000Y-65532000D01*
X126943750Y-65532000D01*
X126785000Y-65690750D01*
X126781928Y-66255000D01*
X126160000Y-66255000D01*
X126160000Y-64555000D01*
X126781928Y-64555000D01*
X126785000Y-65119250D01*
X126943750Y-65278000D01*
X128143000Y-65278000D01*
X128143000Y-64078750D01*
X128397000Y-64078750D01*
X128397000Y-65278000D01*
X128417000Y-65278000D01*
X128417000Y-65532000D01*
X128397000Y-65532000D01*
X128397000Y-66731250D01*
X128555750Y-66890000D01*
X129120000Y-66893072D01*
X129244482Y-66880812D01*
X129364180Y-66844502D01*
X129474494Y-66785537D01*
X129571185Y-66706185D01*
X129650537Y-66609494D01*
X129709502Y-66499180D01*
X129731513Y-66426620D01*
X129863368Y-66558475D01*
X130106589Y-66720990D01*
X130376842Y-66832932D01*
X130663740Y-66890000D01*
X130956260Y-66890000D01*
X131243158Y-66832932D01*
X131513411Y-66720990D01*
X131756632Y-66558475D01*
X131963475Y-66351632D01*
X132125990Y-66108411D01*
X132237932Y-65838158D01*
X132295000Y-65551260D01*
X132295000Y-65258740D01*
X132237932Y-64971842D01*
X132125990Y-64701589D01*
X131963475Y-64458368D01*
X131756632Y-64251525D01*
X131513411Y-64089010D01*
X131243158Y-63977068D01*
X130956260Y-63920000D01*
X130663740Y-63920000D01*
X130376842Y-63977068D01*
X130106589Y-64089010D01*
X129863368Y-64251525D01*
X129731513Y-64383380D01*
X129709502Y-64310820D01*
X129650537Y-64200506D01*
X129571185Y-64103815D01*
X129474494Y-64024463D01*
X129364180Y-63965498D01*
X129244482Y-63929188D01*
X129120000Y-63916928D01*
X128555750Y-63920000D01*
X128397000Y-64078750D01*
X128143000Y-64078750D01*
X127984250Y-63920000D01*
X127420000Y-63916928D01*
X127295518Y-63929188D01*
X127175820Y-63965498D01*
X127065506Y-64024463D01*
X126968815Y-64103815D01*
X126889463Y-64200506D01*
X126830498Y-64310820D01*
X126794188Y-64430518D01*
X126781928Y-64555000D01*
X126160000Y-64555000D01*
X126160000Y-62128061D01*
X149841000Y-62128061D01*
X149841000Y-62331939D01*
X149880774Y-62531898D01*
X149958795Y-62720256D01*
X150072063Y-62889774D01*
X150216226Y-63033937D01*
X150385744Y-63147205D01*
X150574102Y-63225226D01*
X150774061Y-63265000D01*
X150977939Y-63265000D01*
X151177898Y-63225226D01*
X151366256Y-63147205D01*
X151535774Y-63033937D01*
X151679937Y-62889774D01*
X151793205Y-62720256D01*
X151871226Y-62531898D01*
X151911000Y-62331939D01*
X151911000Y-62269801D01*
X152295802Y-61885000D01*
X160421289Y-61885000D01*
X160465226Y-61928937D01*
X160634744Y-62042205D01*
X160823102Y-62120226D01*
X161023061Y-62160000D01*
X161226939Y-62160000D01*
X161426898Y-62120226D01*
X161615256Y-62042205D01*
X161784774Y-61928937D01*
X161928937Y-61784774D01*
X162042205Y-61615256D01*
X162120226Y-61426898D01*
X162160000Y-61226939D01*
X162160000Y-61023061D01*
X162120226Y-60823102D01*
X162042205Y-60634744D01*
X161928937Y-60465226D01*
X161784774Y-60321063D01*
X161615256Y-60207795D01*
X161426898Y-60129774D01*
X161226939Y-60090000D01*
X161023061Y-60090000D01*
X160823102Y-60129774D01*
X160634744Y-60207795D01*
X160465226Y-60321063D01*
X160421289Y-60365000D01*
X152018322Y-60365000D01*
X151981000Y-60361324D01*
X151943677Y-60365000D01*
X151943667Y-60365000D01*
X151832014Y-60375997D01*
X151688753Y-60419454D01*
X151556723Y-60490026D01*
X151546415Y-60498486D01*
X151440999Y-60584999D01*
X151417201Y-60613997D01*
X150836199Y-61195000D01*
X150774061Y-61195000D01*
X150574102Y-61234774D01*
X150385744Y-61312795D01*
X150216226Y-61426063D01*
X150072063Y-61570226D01*
X149958795Y-61739744D01*
X149880774Y-61928102D01*
X149841000Y-62128061D01*
X126160000Y-62128061D01*
X126160000Y-60031409D01*
X126232221Y-59274445D01*
X126437398Y-58575060D01*
X126771120Y-57927096D01*
X127221353Y-57353926D01*
X127771839Y-56876238D01*
X128402730Y-56511258D01*
X129091248Y-56272164D01*
X129835790Y-56164210D01*
X130008063Y-56160000D01*
X172968591Y-56160000D01*
X173725555Y-56232221D01*
G37*
X173725555Y-56232221D02*
X174424940Y-56437398D01*
X175072904Y-56771120D01*
X175646074Y-57221353D01*
X176123762Y-57771839D01*
X176488742Y-58402730D01*
X176727836Y-59091248D01*
X176835790Y-59835790D01*
X176840001Y-60008104D01*
X176840000Y-84968591D01*
X176767779Y-85725555D01*
X176562602Y-86424940D01*
X176228878Y-87072906D01*
X175778650Y-87646072D01*
X175228159Y-88123763D01*
X174597270Y-88488741D01*
X173908752Y-88727836D01*
X173164210Y-88835790D01*
X172991937Y-88840000D01*
X130031409Y-88840000D01*
X129274445Y-88767779D01*
X128575060Y-88562602D01*
X127927094Y-88228878D01*
X127353928Y-87778650D01*
X126876237Y-87228159D01*
X126511259Y-86597270D01*
X126272164Y-85908752D01*
X126164210Y-85164210D01*
X126160000Y-84991937D01*
X126160000Y-84670000D01*
X135671928Y-84670000D01*
X135684188Y-84794482D01*
X135720498Y-84914180D01*
X135779463Y-85024494D01*
X135858815Y-85121185D01*
X135955506Y-85200537D01*
X136065820Y-85259502D01*
X136138380Y-85281513D01*
X136006525Y-85413368D01*
X135844010Y-85656589D01*
X135732068Y-85926842D01*
X135675000Y-86213740D01*
X135675000Y-86506260D01*
X135732068Y-86793158D01*
X135844010Y-87063411D01*
X136006525Y-87306632D01*
X136213368Y-87513475D01*
X136456589Y-87675990D01*
X136726842Y-87787932D01*
X137013740Y-87845000D01*
X137306260Y-87845000D01*
X137593158Y-87787932D01*
X137863411Y-87675990D01*
X138106632Y-87513475D01*
X138313475Y-87306632D01*
X138430000Y-87132240D01*
X138546525Y-87306632D01*
X138753368Y-87513475D01*
X138996589Y-87675990D01*
X139266842Y-87787932D01*
X139553740Y-87845000D01*
X139846260Y-87845000D01*
X140133158Y-87787932D01*
X140403411Y-87675990D01*
X140646632Y-87513475D01*
X140853475Y-87306632D01*
X140970000Y-87132240D01*
X141086525Y-87306632D01*
X141293368Y-87513475D01*
X141536589Y-87675990D01*
X141806842Y-87787932D01*
X142093740Y-87845000D01*
X142386260Y-87845000D01*
X142673158Y-87787932D01*
X142943411Y-87675990D01*
X143186632Y-87513475D01*
X143393475Y-87306632D01*
X143510000Y-87132240D01*
X143626525Y-87306632D01*
X143833368Y-87513475D01*
X144076589Y-87675990D01*
X144346842Y-87787932D01*
X144633740Y-87845000D01*
X144926260Y-87845000D01*
X145213158Y-87787932D01*
X145483411Y-87675990D01*
X145726632Y-87513475D01*
X145933475Y-87306632D01*
X145998042Y-87210000D01*
X152181928Y-87210000D01*
X152194188Y-87334482D01*
X152230498Y-87454180D01*
X152289463Y-87564494D01*
X152368815Y-87661185D01*
X152465506Y-87740537D01*
X152575820Y-87799502D01*
X152695518Y-87835812D01*
X152820000Y-87848072D01*
X153384250Y-87845000D01*
X153543000Y-87686250D01*
X153543000Y-86487000D01*
X152343750Y-86487000D01*
X152185000Y-86645750D01*
X152181928Y-87210000D01*
X145998042Y-87210000D01*
X146095990Y-87063411D01*
X146207932Y-86793158D01*
X146265000Y-86506260D01*
X146265000Y-86213740D01*
X146207932Y-85926842D01*
X146095990Y-85656589D01*
X146026785Y-85553016D01*
X146069801Y-85510000D01*
X152181928Y-85510000D01*
X152185000Y-86074250D01*
X152343750Y-86233000D01*
X153543000Y-86233000D01*
X153543000Y-85033750D01*
X153384250Y-84875000D01*
X152820000Y-84871928D01*
X152695518Y-84884188D01*
X152575820Y-84920498D01*
X152465506Y-84979463D01*
X152368815Y-85058815D01*
X152289463Y-85155506D01*
X152230498Y-85265820D01*
X152194188Y-85385518D01*
X152181928Y-85510000D01*
X146069801Y-85510000D01*
X147634802Y-83945000D01*
X157165199Y-83945000D01*
X158200469Y-84980271D01*
X158046589Y-85044010D01*
X157803368Y-85206525D01*
X157596525Y-85413368D01*
X157480000Y-85587760D01*
X157363475Y-85413368D01*
X157156632Y-85206525D01*
X156913411Y-85044010D01*
X156643158Y-84932068D01*
X156356260Y-84875000D01*
X156063740Y-84875000D01*
X155776842Y-84932068D01*
X155506589Y-85044010D01*
X155263368Y-85206525D01*
X155131513Y-85338380D01*
X155109502Y-85265820D01*
X155050537Y-85155506D01*
X154971185Y-85058815D01*
X154874494Y-84979463D01*
X154764180Y-84920498D01*
X154644482Y-84884188D01*
X154520000Y-84871928D01*
X153955750Y-84875000D01*
X153797000Y-85033750D01*
X153797000Y-86233000D01*
X153817000Y-86233000D01*
X153817000Y-86487000D01*
X153797000Y-86487000D01*
X153797000Y-87686250D01*
X153955750Y-87845000D01*
X154520000Y-87848072D01*
X154644482Y-87835812D01*
X154764180Y-87799502D01*
X154874494Y-87740537D01*
X154971185Y-87661185D01*
X155050537Y-87564494D01*
X155109502Y-87454180D01*
X155131513Y-87381620D01*
X155263368Y-87513475D01*
X155506589Y-87675990D01*
X155776842Y-87787932D01*
X156063740Y-87845000D01*
X156356260Y-87845000D01*
X156643158Y-87787932D01*
X156913411Y-87675990D01*
X157156632Y-87513475D01*
X157363475Y-87306632D01*
X157480000Y-87132240D01*
X157596525Y-87306632D01*
X157803368Y-87513475D01*
X158046589Y-87675990D01*
X158316842Y-87787932D01*
X158603740Y-87845000D01*
X158896260Y-87845000D01*
X159183158Y-87787932D01*
X159453411Y-87675990D01*
X159556984Y-87606785D01*
X160091200Y-88141002D01*
X160114999Y-88170001D01*
X160143997Y-88193799D01*
X160230724Y-88264974D01*
X160362753Y-88335546D01*
X160506014Y-88379003D01*
X160655000Y-88393677D01*
X160692333Y-88390000D01*
X162522678Y-88390000D01*
X162560000Y-88393676D01*
X162597322Y-88390000D01*
X162597333Y-88390000D01*
X162708986Y-88379003D01*
X162852247Y-88335546D01*
X162984276Y-88264974D01*
X163100001Y-88170001D01*
X163123804Y-88140997D01*
X163463592Y-87801209D01*
X163683740Y-87845000D01*
X163976260Y-87845000D01*
X164263158Y-87787932D01*
X164533411Y-87675990D01*
X164776632Y-87513475D01*
X164983475Y-87306632D01*
X165100000Y-87132240D01*
X165216525Y-87306632D01*
X165423368Y-87513475D01*
X165666589Y-87675990D01*
X165936842Y-87787932D01*
X166223740Y-87845000D01*
X166516260Y-87845000D01*
X166803158Y-87787932D01*
X167073411Y-87675990D01*
X167316632Y-87513475D01*
X167523475Y-87306632D01*
X167685990Y-87063411D01*
X167797932Y-86793158D01*
X167855000Y-86506260D01*
X167855000Y-86213740D01*
X167797932Y-85926842D01*
X167685990Y-85656589D01*
X167523475Y-85413368D01*
X167316632Y-85206525D01*
X167073411Y-85044010D01*
X166803158Y-84932068D01*
X166516260Y-84875000D01*
X166223740Y-84875000D01*
X165936842Y-84932068D01*
X165666589Y-85044010D01*
X165423368Y-85206525D01*
X165216525Y-85413368D01*
X165100000Y-85587760D01*
X164983475Y-85413368D01*
X164776632Y-85206525D01*
X164533411Y-85044010D01*
X164263158Y-84932068D01*
X163976260Y-84875000D01*
X163683740Y-84875000D01*
X163396842Y-84932068D01*
X163126589Y-85044010D01*
X162883368Y-85206525D01*
X162676525Y-85413368D01*
X162560000Y-85587760D01*
X162443475Y-85413368D01*
X162236632Y-85206525D01*
X162045913Y-85079091D01*
X162039003Y-85008933D01*
X161995546Y-84865672D01*
X161924974Y-84733643D01*
X161872744Y-84670000D01*
X161853799Y-84646915D01*
X161853795Y-84646911D01*
X161830001Y-84617918D01*
X161801008Y-84594124D01*
X159881883Y-82675000D01*
X167602678Y-82675000D01*
X167640000Y-82678676D01*
X167677322Y-82675000D01*
X167677333Y-82675000D01*
X167788986Y-82664003D01*
X167932247Y-82620546D01*
X168064276Y-82549974D01*
X168180001Y-82455001D01*
X168203804Y-82425997D01*
X171326003Y-79303799D01*
X171355001Y-79280001D01*
X171388943Y-79238643D01*
X171449974Y-79164277D01*
X171520546Y-79032247D01*
X171536469Y-78979754D01*
X171564003Y-78888986D01*
X171575000Y-78777333D01*
X171575000Y-78777324D01*
X171578676Y-78740001D01*
X171575000Y-78702678D01*
X171575000Y-77604606D01*
X171589803Y-77589803D01*
X171605597Y-77570557D01*
X171617333Y-77548601D01*
X171624560Y-77524776D01*
X171627000Y-77500000D01*
X171627000Y-77350000D01*
X173011928Y-77350000D01*
X173024188Y-77474482D01*
X173060498Y-77594180D01*
X173119463Y-77704494D01*
X173198815Y-77801185D01*
X173295506Y-77880537D01*
X173405820Y-77939502D01*
X173525518Y-77975812D01*
X173650000Y-77988072D01*
X174214250Y-77985000D01*
X174373000Y-77826250D01*
X174373000Y-76627000D01*
X174627000Y-76627000D01*
X174627000Y-77826250D01*
X174785750Y-77985000D01*
X175350000Y-77988072D01*
X175474482Y-77975812D01*
X175594180Y-77939502D01*
X175704494Y-77880537D01*
X175801185Y-77801185D01*
X175880537Y-77704494D01*
X175939502Y-77594180D01*
X175975812Y-77474482D01*
X175988072Y-77350000D01*
X175985000Y-76785750D01*
X175826250Y-76627000D01*
X174627000Y-76627000D01*
X174373000Y-76627000D01*
X173173750Y-76627000D01*
X173015000Y-76785750D01*
X173011928Y-77350000D01*
X171627000Y-77350000D01*
X171627000Y-74811801D01*
X173034802Y-73404000D01*
X173122951Y-73404000D01*
X173072068Y-73526842D01*
X173015000Y-73813740D01*
X173015000Y-74106260D01*
X173072068Y-74393158D01*
X173184010Y-74663411D01*
X173346525Y-74906632D01*
X173478380Y-75038487D01*
X173405820Y-75060498D01*
X173295506Y-75119463D01*
X173198815Y-75198815D01*
X173119463Y-75295506D01*
X173060498Y-75405820D01*
X173024188Y-75525518D01*
X173011928Y-75650000D01*
X173015000Y-76214250D01*
X173173750Y-76373000D01*
X174373000Y-76373000D01*
X174373000Y-76353000D01*
X174627000Y-76353000D01*
X174627000Y-76373000D01*
X175826250Y-76373000D01*
X175985000Y-76214250D01*
X175988072Y-75650000D01*
X175975812Y-75525518D01*
X175939502Y-75405820D01*
X175880537Y-75295506D01*
X175801185Y-75198815D01*
X175704494Y-75119463D01*
X175594180Y-75060498D01*
X175521620Y-75038487D01*
X175653475Y-74906632D01*
X175815990Y-74663411D01*
X175927932Y-74393158D01*
X175985000Y-74106260D01*
X175985000Y-73813740D01*
X175927932Y-73526842D01*
X175815990Y-73256589D01*
X175727559Y-73124242D01*
X176279002Y-72572800D01*
X176308001Y-72549001D01*
X176402974Y-72433276D01*
X176473546Y-72301247D01*
X176517003Y-72157986D01*
X176528000Y-72046333D01*
X176531677Y-72009000D01*
X176528000Y-71971667D01*
X176528000Y-70185325D01*
X176531676Y-70148000D01*
X176528000Y-70110675D01*
X176528000Y-70110667D01*
X176517003Y-69999014D01*
X176473546Y-69855753D01*
X176402974Y-69723724D01*
X176308001Y-69607999D01*
X176279004Y-69584202D01*
X175941210Y-69246408D01*
X175985000Y-69026260D01*
X175985000Y-68733740D01*
X175927932Y-68446842D01*
X175815990Y-68176589D01*
X175653475Y-67933368D01*
X175446632Y-67726525D01*
X175203411Y-67564010D01*
X174933158Y-67452068D01*
X174646260Y-67395000D01*
X174353740Y-67395000D01*
X174066842Y-67452068D01*
X173796589Y-67564010D01*
X173553368Y-67726525D01*
X173346525Y-67933368D01*
X173184010Y-68176589D01*
X173072068Y-68446842D01*
X173015000Y-68733740D01*
X173015000Y-69026260D01*
X173072068Y-69313158D01*
X173184010Y-69583411D01*
X173346525Y-69826632D01*
X173553368Y-70033475D01*
X173727760Y-70150000D01*
X173553368Y-70266525D01*
X173346525Y-70473368D01*
X173221822Y-70660000D01*
X173092322Y-70660000D01*
X173055000Y-70656324D01*
X173017677Y-70660000D01*
X173017667Y-70660000D01*
X172906014Y-70670997D01*
X172773075Y-70711323D01*
X172762753Y-70714454D01*
X172630723Y-70785026D01*
X172566142Y-70838027D01*
X172514999Y-70879999D01*
X172491201Y-70908997D01*
X171627000Y-71773198D01*
X171627000Y-67500000D01*
X171624560Y-67475224D01*
X171617333Y-67451399D01*
X171605597Y-67429443D01*
X171589803Y-67410197D01*
X169589803Y-65410197D01*
X169570557Y-65394403D01*
X169548601Y-65382667D01*
X169524776Y-65375440D01*
X169500000Y-65373000D01*
X167368837Y-65373000D01*
X167064405Y-65343150D01*
X167064402Y-65343150D01*
X167032419Y-65340000D01*
X158467581Y-65340000D01*
X158438627Y-65342852D01*
X158426219Y-65342765D01*
X158417047Y-65343665D01*
X158137946Y-65373000D01*
X158000000Y-65373000D01*
X157975224Y-65375440D01*
X157951399Y-65382667D01*
X157929443Y-65394403D01*
X157913764Y-65407270D01*
X157911498Y-65407702D01*
X157902677Y-65410366D01*
X157529802Y-65525790D01*
X157474647Y-65548975D01*
X157419194Y-65571379D01*
X157411062Y-65575704D01*
X157411057Y-65575706D01*
X157411053Y-65575709D01*
X157067702Y-65761357D01*
X157018101Y-65794813D01*
X156968054Y-65827563D01*
X156960913Y-65833387D01*
X156660158Y-66082194D01*
X156618019Y-66124629D01*
X156575269Y-66166492D01*
X156569396Y-66173593D01*
X156322695Y-66476077D01*
X156289598Y-66525893D01*
X156255795Y-66575259D01*
X156251413Y-66583365D01*
X156068163Y-66928007D01*
X156045368Y-66983313D01*
X156021802Y-67038296D01*
X156019077Y-67047099D01*
X155906259Y-67420770D01*
X155894639Y-67479458D01*
X155882203Y-67537961D01*
X155881240Y-67547126D01*
X155843150Y-67935595D01*
X155843150Y-67935608D01*
X155840001Y-67967581D01*
X155840000Y-77032418D01*
X155842852Y-77061372D01*
X155842765Y-77073781D01*
X155843665Y-77082952D01*
X155884466Y-77471145D01*
X155896487Y-77529708D01*
X155907702Y-77588501D01*
X155910366Y-77597323D01*
X156025790Y-77970198D01*
X156048975Y-78025353D01*
X156071379Y-78080806D01*
X156075706Y-78088943D01*
X156261357Y-78432298D01*
X156294780Y-78481849D01*
X156327562Y-78531946D01*
X156333387Y-78539087D01*
X156582194Y-78839841D01*
X156624629Y-78881981D01*
X156666492Y-78924730D01*
X156673592Y-78930604D01*
X156976077Y-79177305D01*
X157025904Y-79210409D01*
X157075259Y-79244204D01*
X157083365Y-79248587D01*
X157428007Y-79431837D01*
X157483311Y-79454631D01*
X157538295Y-79478198D01*
X157547098Y-79480923D01*
X157911635Y-79590983D01*
X157929443Y-79605597D01*
X157951399Y-79617333D01*
X157975224Y-79624560D01*
X158000000Y-79627000D01*
X158131163Y-79627000D01*
X158435595Y-79656850D01*
X158435598Y-79656850D01*
X158467581Y-79660000D01*
X167032419Y-79660000D01*
X167061373Y-79657148D01*
X167073781Y-79657235D01*
X167082952Y-79656335D01*
X167362054Y-79627000D01*
X167583199Y-79627000D01*
X166690199Y-80520000D01*
X155298147Y-80520000D01*
X155378304Y-80326483D01*
X155420000Y-80116863D01*
X155420000Y-79903137D01*
X155378304Y-79693517D01*
X155296515Y-79496060D01*
X155177775Y-79318353D01*
X155115000Y-79255578D01*
X155115000Y-78144788D01*
X155118919Y-78105000D01*
X155115000Y-78065209D01*
X155103280Y-77946212D01*
X155060628Y-77805608D01*
X155056963Y-77793526D01*
X154981749Y-77652811D01*
X154953812Y-77618770D01*
X154880528Y-77529472D01*
X154849618Y-77504105D01*
X143050000Y-65704488D01*
X143050000Y-64859422D01*
X143082775Y-64826647D01*
X143201515Y-64648940D01*
X143283304Y-64451483D01*
X143325000Y-64241863D01*
X143325000Y-64028137D01*
X143283304Y-63818517D01*
X143201515Y-63621060D01*
X143082775Y-63443353D01*
X142931647Y-63292225D01*
X142753940Y-63173485D01*
X142556483Y-63091696D01*
X142346863Y-63050000D01*
X142133137Y-63050000D01*
X141923517Y-63091696D01*
X141726060Y-63173485D01*
X141548353Y-63292225D01*
X141397225Y-63443353D01*
X141278485Y-63621060D01*
X141196696Y-63818517D01*
X141155000Y-64028137D01*
X141155000Y-64241863D01*
X141196696Y-64451483D01*
X141278485Y-64648940D01*
X141397225Y-64826647D01*
X141430001Y-64859423D01*
X141430000Y-66000211D01*
X141426081Y-66040000D01*
X141430000Y-66079788D01*
X141430000Y-66079790D01*
X141441720Y-66198787D01*
X141488037Y-66351472D01*
X141513960Y-66399971D01*
X141563251Y-66492189D01*
X141593729Y-66529326D01*
X141664472Y-66615528D01*
X141695388Y-66640900D01*
X153495001Y-78440514D01*
X153495000Y-79315578D01*
X153492225Y-79318353D01*
X153373485Y-79496060D01*
X153291696Y-79693517D01*
X153250000Y-79903137D01*
X153250000Y-80116863D01*
X153291696Y-80326483D01*
X153371853Y-80520000D01*
X142277322Y-80520000D01*
X142239999Y-80516324D01*
X142202676Y-80520000D01*
X142202667Y-80520000D01*
X142091014Y-80530997D01*
X141947753Y-80574454D01*
X141815724Y-80645026D01*
X141815722Y-80645027D01*
X141815723Y-80645027D01*
X141728996Y-80716201D01*
X141728992Y-80716205D01*
X141699999Y-80739999D01*
X141676205Y-80768992D01*
X140066408Y-82378790D01*
X139846260Y-82335000D01*
X139553740Y-82335000D01*
X139266842Y-82392068D01*
X138996589Y-82504010D01*
X138753368Y-82666525D01*
X138621513Y-82798380D01*
X138599502Y-82725820D01*
X138540537Y-82615506D01*
X138461185Y-82518815D01*
X138364494Y-82439463D01*
X138254180Y-82380498D01*
X138134482Y-82344188D01*
X138010000Y-82331928D01*
X137445750Y-82335000D01*
X137287000Y-82493750D01*
X137287000Y-83693000D01*
X137307000Y-83693000D01*
X137307000Y-83947000D01*
X137287000Y-83947000D01*
X137287000Y-83967000D01*
X137033000Y-83967000D01*
X137033000Y-83947000D01*
X135833750Y-83947000D01*
X135675000Y-84105750D01*
X135671928Y-84670000D01*
X126160000Y-84670000D01*
X126160000Y-82970000D01*
X135671928Y-82970000D01*
X135675000Y-83534250D01*
X135833750Y-83693000D01*
X137033000Y-83693000D01*
X137033000Y-82493750D01*
X136874250Y-82335000D01*
X136310000Y-82331928D01*
X136185518Y-82344188D01*
X136065820Y-82380498D01*
X135955506Y-82439463D01*
X135858815Y-82518815D01*
X135779463Y-82615506D01*
X135720498Y-82725820D01*
X135684188Y-82845518D01*
X135671928Y-82970000D01*
X126160000Y-82970000D01*
X126160000Y-78950000D01*
X130611928Y-78950000D01*
X130624188Y-79074482D01*
X130660498Y-79194180D01*
X130719463Y-79304494D01*
X130798815Y-79401185D01*
X130895506Y-79480537D01*
X131005820Y-79539502D01*
X131125518Y-79575812D01*
X131250000Y-79588072D01*
X132714250Y-79585000D01*
X132873000Y-79426250D01*
X132873000Y-77327000D01*
X133127000Y-77327000D01*
X133127000Y-79426250D01*
X133285750Y-79585000D01*
X134750000Y-79588072D01*
X134874482Y-79575812D01*
X134994180Y-79539502D01*
X135104494Y-79480537D01*
X135201185Y-79401185D01*
X135280537Y-79304494D01*
X135339502Y-79194180D01*
X135375812Y-79074482D01*
X135388072Y-78950000D01*
X135385000Y-77485750D01*
X135226250Y-77327000D01*
X133127000Y-77327000D01*
X132873000Y-77327000D01*
X130773750Y-77327000D01*
X130615000Y-77485750D01*
X130611928Y-78950000D01*
X126160000Y-78950000D01*
X126160000Y-77279872D01*
X137265000Y-77279872D01*
X137265000Y-77720128D01*
X137350890Y-78151925D01*
X137519369Y-78558669D01*
X137763962Y-78924729D01*
X138075271Y-79236038D01*
X138441331Y-79480631D01*
X138848075Y-79649110D01*
X139279872Y-79735000D01*
X139720128Y-79735000D01*
X140151925Y-79649110D01*
X140558669Y-79480631D01*
X140924729Y-79236038D01*
X141236038Y-78924729D01*
X141480631Y-78558669D01*
X141649110Y-78151925D01*
X141735000Y-77720128D01*
X141735000Y-77279872D01*
X141649110Y-76848075D01*
X141480631Y-76441331D01*
X141236038Y-76075271D01*
X140924729Y-75763962D01*
X140558669Y-75519369D01*
X140151925Y-75350890D01*
X139720128Y-75265000D01*
X139279872Y-75265000D01*
X138848075Y-75350890D01*
X138441331Y-75519369D01*
X138075271Y-75763962D01*
X137763962Y-76075271D01*
X137519369Y-76441331D01*
X137350890Y-76848075D01*
X137265000Y-77279872D01*
X126160000Y-77279872D01*
X126160000Y-74250000D01*
X127861928Y-74250000D01*
X127874188Y-74374482D01*
X127910498Y-74494180D01*
X127969463Y-74604494D01*
X128048815Y-74701185D01*
X128145506Y-74780537D01*
X128255820Y-74839502D01*
X128375518Y-74875812D01*
X128500000Y-74888072D01*
X129714250Y-74885000D01*
X129873000Y-74726250D01*
X129873000Y-72627000D01*
X130127000Y-72627000D01*
X130127000Y-74726250D01*
X130285750Y-74885000D01*
X130956805Y-74886698D01*
X130895506Y-74919463D01*
X130798815Y-74998815D01*
X130719463Y-75095506D01*
X130660498Y-75205820D01*
X130624188Y-75325518D01*
X130611928Y-75450000D01*
X130615000Y-76914250D01*
X130773750Y-77073000D01*
X132873000Y-77073000D01*
X132873000Y-74973750D01*
X133127000Y-74973750D01*
X133127000Y-77073000D01*
X135226250Y-77073000D01*
X135385000Y-76914250D01*
X135388072Y-75450000D01*
X135375812Y-75325518D01*
X135339502Y-75205820D01*
X135280537Y-75095506D01*
X135201185Y-74998815D01*
X135104494Y-74919463D01*
X135045767Y-74888072D01*
X137750000Y-74888072D01*
X137874482Y-74875812D01*
X137994180Y-74839502D01*
X138104494Y-74780537D01*
X138201185Y-74701185D01*
X138280537Y-74604494D01*
X138339502Y-74494180D01*
X138375812Y-74374482D01*
X138388072Y-74250000D01*
X138388072Y-70750000D01*
X138375812Y-70625518D01*
X138339502Y-70505820D01*
X138280537Y-70395506D01*
X138201185Y-70298815D01*
X138104494Y-70219463D01*
X137994180Y-70160498D01*
X137874482Y-70124188D01*
X137750000Y-70111928D01*
X134250000Y-70111928D01*
X134125518Y-70124188D01*
X134005820Y-70160498D01*
X133895506Y-70219463D01*
X133798815Y-70298815D01*
X133719463Y-70395506D01*
X133660498Y-70505820D01*
X133624188Y-70625518D01*
X133611928Y-70750000D01*
X133611928Y-74250000D01*
X133624188Y-74374482D01*
X133660498Y-74494180D01*
X133719463Y-74604494D01*
X133798815Y-74701185D01*
X133895506Y-74780537D01*
X133957345Y-74813591D01*
X133285750Y-74815000D01*
X133127000Y-74973750D01*
X132873000Y-74973750D01*
X132714250Y-74815000D01*
X131793633Y-74813069D01*
X131854494Y-74780537D01*
X131951185Y-74701185D01*
X132030537Y-74604494D01*
X132089502Y-74494180D01*
X132125812Y-74374482D01*
X132138072Y-74250000D01*
X132135000Y-72785750D01*
X131976250Y-72627000D01*
X130127000Y-72627000D01*
X129873000Y-72627000D01*
X128023750Y-72627000D01*
X127865000Y-72785750D01*
X127861928Y-74250000D01*
X126160000Y-74250000D01*
X126160000Y-70750000D01*
X127861928Y-70750000D01*
X127865000Y-72214250D01*
X128023750Y-72373000D01*
X129873000Y-72373000D01*
X129873000Y-70273750D01*
X130127000Y-70273750D01*
X130127000Y-72373000D01*
X131976250Y-72373000D01*
X132135000Y-72214250D01*
X132138072Y-70750000D01*
X132125812Y-70625518D01*
X132089502Y-70505820D01*
X132030537Y-70395506D01*
X131951185Y-70298815D01*
X131854494Y-70219463D01*
X131744180Y-70160498D01*
X131624482Y-70124188D01*
X131500000Y-70111928D01*
X130285750Y-70115000D01*
X130127000Y-70273750D01*
X129873000Y-70273750D01*
X129714250Y-70115000D01*
X128500000Y-70111928D01*
X128375518Y-70124188D01*
X128255820Y-70160498D01*
X128145506Y-70219463D01*
X128048815Y-70298815D01*
X127969463Y-70395506D01*
X127910498Y-70505820D01*
X127874188Y-70625518D01*
X127861928Y-70750000D01*
X126160000Y-70750000D01*
X126160000Y-67279872D01*
X137265000Y-67279872D01*
X137265000Y-67720128D01*
X137350890Y-68151925D01*
X137519369Y-68558669D01*
X137763962Y-68924729D01*
X138075271Y-69236038D01*
X138441331Y-69480631D01*
X138848075Y-69649110D01*
X139279872Y-69735000D01*
X139720128Y-69735000D01*
X140151925Y-69649110D01*
X140558669Y-69480631D01*
X140924729Y-69236038D01*
X141236038Y-68924729D01*
X141480631Y-68558669D01*
X141649110Y-68151925D01*
X141735000Y-67720128D01*
X141735000Y-67279872D01*
X141649110Y-66848075D01*
X141480631Y-66441331D01*
X141236038Y-66075271D01*
X140924729Y-65763962D01*
X140558669Y-65519369D01*
X140151925Y-65350890D01*
X139720128Y-65265000D01*
X139279872Y-65265000D01*
X138848075Y-65350890D01*
X138441331Y-65519369D01*
X138075271Y-65763962D01*
X137763962Y-66075271D01*
X137519369Y-66441331D01*
X137350890Y-66848075D01*
X137265000Y-67279872D01*
X126160000Y-67279872D01*
X126160000Y-66255000D01*
X126781928Y-66255000D01*
X126794188Y-66379482D01*
X126830498Y-66499180D01*
X126889463Y-66609494D01*
X126968815Y-66706185D01*
X127065506Y-66785537D01*
X127175820Y-66844502D01*
X127295518Y-66880812D01*
X127420000Y-66893072D01*
X127984250Y-66890000D01*
X128143000Y-66731250D01*
X128143000Y-65532000D01*
X126943750Y-65532000D01*
X126785000Y-65690750D01*
X126781928Y-66255000D01*
X126160000Y-66255000D01*
X126160000Y-64555000D01*
X126781928Y-64555000D01*
X126785000Y-65119250D01*
X126943750Y-65278000D01*
X128143000Y-65278000D01*
X128143000Y-64078750D01*
X128397000Y-64078750D01*
X128397000Y-65278000D01*
X128417000Y-65278000D01*
X128417000Y-65532000D01*
X128397000Y-65532000D01*
X128397000Y-66731250D01*
X128555750Y-66890000D01*
X129120000Y-66893072D01*
X129244482Y-66880812D01*
X129364180Y-66844502D01*
X129474494Y-66785537D01*
X129571185Y-66706185D01*
X129650537Y-66609494D01*
X129709502Y-66499180D01*
X129731513Y-66426620D01*
X129863368Y-66558475D01*
X130106589Y-66720990D01*
X130376842Y-66832932D01*
X130663740Y-66890000D01*
X130956260Y-66890000D01*
X131243158Y-66832932D01*
X131513411Y-66720990D01*
X131756632Y-66558475D01*
X131963475Y-66351632D01*
X132125990Y-66108411D01*
X132237932Y-65838158D01*
X132295000Y-65551260D01*
X132295000Y-65258740D01*
X132237932Y-64971842D01*
X132125990Y-64701589D01*
X131963475Y-64458368D01*
X131756632Y-64251525D01*
X131513411Y-64089010D01*
X131243158Y-63977068D01*
X130956260Y-63920000D01*
X130663740Y-63920000D01*
X130376842Y-63977068D01*
X130106589Y-64089010D01*
X129863368Y-64251525D01*
X129731513Y-64383380D01*
X129709502Y-64310820D01*
X129650537Y-64200506D01*
X129571185Y-64103815D01*
X129474494Y-64024463D01*
X129364180Y-63965498D01*
X129244482Y-63929188D01*
X129120000Y-63916928D01*
X128555750Y-63920000D01*
X128397000Y-64078750D01*
X128143000Y-64078750D01*
X127984250Y-63920000D01*
X127420000Y-63916928D01*
X127295518Y-63929188D01*
X127175820Y-63965498D01*
X127065506Y-64024463D01*
X126968815Y-64103815D01*
X126889463Y-64200506D01*
X126830498Y-64310820D01*
X126794188Y-64430518D01*
X126781928Y-64555000D01*
X126160000Y-64555000D01*
X126160000Y-62128061D01*
X149841000Y-62128061D01*
X149841000Y-62331939D01*
X149880774Y-62531898D01*
X149958795Y-62720256D01*
X150072063Y-62889774D01*
X150216226Y-63033937D01*
X150385744Y-63147205D01*
X150574102Y-63225226D01*
X150774061Y-63265000D01*
X150977939Y-63265000D01*
X151177898Y-63225226D01*
X151366256Y-63147205D01*
X151535774Y-63033937D01*
X151679937Y-62889774D01*
X151793205Y-62720256D01*
X151871226Y-62531898D01*
X151911000Y-62331939D01*
X151911000Y-62269801D01*
X152295802Y-61885000D01*
X160421289Y-61885000D01*
X160465226Y-61928937D01*
X160634744Y-62042205D01*
X160823102Y-62120226D01*
X161023061Y-62160000D01*
X161226939Y-62160000D01*
X161426898Y-62120226D01*
X161615256Y-62042205D01*
X161784774Y-61928937D01*
X161928937Y-61784774D01*
X162042205Y-61615256D01*
X162120226Y-61426898D01*
X162160000Y-61226939D01*
X162160000Y-61023061D01*
X162120226Y-60823102D01*
X162042205Y-60634744D01*
X161928937Y-60465226D01*
X161784774Y-60321063D01*
X161615256Y-60207795D01*
X161426898Y-60129774D01*
X161226939Y-60090000D01*
X161023061Y-60090000D01*
X160823102Y-60129774D01*
X160634744Y-60207795D01*
X160465226Y-60321063D01*
X160421289Y-60365000D01*
X152018322Y-60365000D01*
X151981000Y-60361324D01*
X151943677Y-60365000D01*
X151943667Y-60365000D01*
X151832014Y-60375997D01*
X151688753Y-60419454D01*
X151556723Y-60490026D01*
X151546415Y-60498486D01*
X151440999Y-60584999D01*
X151417201Y-60613997D01*
X150836199Y-61195000D01*
X150774061Y-61195000D01*
X150574102Y-61234774D01*
X150385744Y-61312795D01*
X150216226Y-61426063D01*
X150072063Y-61570226D01*
X149958795Y-61739744D01*
X149880774Y-61928102D01*
X149841000Y-62128061D01*
X126160000Y-62128061D01*
X126160000Y-60031409D01*
X126232221Y-59274445D01*
X126437398Y-58575060D01*
X126771120Y-57927096D01*
X127221353Y-57353926D01*
X127771839Y-56876238D01*
X128402730Y-56511258D01*
X129091248Y-56272164D01*
X129835790Y-56164210D01*
X130008063Y-56160000D01*
X172968591Y-56160000D01*
X173725555Y-56232221D01*
M02*
