G04 #@! TF.GenerationSoftware,KiCad,Pcbnew,(5.1.6-0-10_14)*
G04 #@! TF.CreationDate,2020-11-11T00:58:41-06:00*
G04 #@! TF.ProjectId,TempHumSensWithESP01,54656d70-4875-46d5-9365-6e7357697468,rev?*
G04 #@! TF.SameCoordinates,Original*
G04 #@! TF.FileFunction,Copper,L1,Top*
G04 #@! TF.FilePolarity,Positive*
%FSLAX46Y46*%
G04 Gerber Fmt 4.6, Leading zero omitted, Abs format (unit mm)*
G04 Created by KiCad (PCBNEW (5.1.6-0-10_14)) date 2020-11-11 00:58:41*
%MOMM*%
%LPD*%
G01*
G04 APERTURE LIST*
G04 #@! TA.AperFunction,EtchedComponent*
%ADD10C,0.100000*%
G04 #@! TD*
G04 #@! TA.AperFunction,SMDPad,CuDef*
%ADD11R,1.000000X0.900000*%
G04 #@! TD*
G04 #@! TA.AperFunction,ComponentPad*
%ADD12O,1.700000X1.700000*%
G04 #@! TD*
G04 #@! TA.AperFunction,ComponentPad*
%ADD13R,1.700000X1.700000*%
G04 #@! TD*
G04 #@! TA.AperFunction,ComponentPad*
%ADD14C,0.800000*%
G04 #@! TD*
G04 #@! TA.AperFunction,ComponentPad*
%ADD15C,6.400000*%
G04 #@! TD*
G04 #@! TA.AperFunction,SMDPad,CuDef*
%ADD16R,0.650000X1.060000*%
G04 #@! TD*
G04 #@! TA.AperFunction,SMDPad,CuDef*
%ADD17C,0.100000*%
G04 #@! TD*
G04 #@! TA.AperFunction,SMDPad,CuDef*
%ADD18R,1.000000X1.500000*%
G04 #@! TD*
G04 #@! TA.AperFunction,ComponentPad*
%ADD19R,3.500000X3.500000*%
G04 #@! TD*
G04 #@! TA.AperFunction,SMDPad,CuDef*
%ADD20R,1.200000X0.900000*%
G04 #@! TD*
G04 #@! TA.AperFunction,ViaPad*
%ADD21C,0.800000*%
G04 #@! TD*
G04 #@! TA.AperFunction,ViaPad*
%ADD22C,0.900000*%
G04 #@! TD*
G04 #@! TA.AperFunction,Conductor*
%ADD23C,0.350000*%
G04 #@! TD*
G04 #@! TA.AperFunction,Conductor*
%ADD24C,1.000000*%
G04 #@! TD*
G04 #@! TA.AperFunction,Conductor*
%ADD25C,0.250000*%
G04 #@! TD*
G04 #@! TA.AperFunction,Conductor*
%ADD26C,0.254000*%
G04 #@! TD*
G04 APERTURE END LIST*
D10*
G36*
X153935000Y-74595000D02*
G01*
X153435000Y-74595000D01*
X153435000Y-73995000D01*
X153935000Y-73995000D01*
X153935000Y-74595000D01*
G37*
G04 #@! TA.AperFunction,SMDPad,CuDef*
G36*
G01*
X146110000Y-81095001D02*
X146110000Y-80194999D01*
G75*
G02*
X146359999Y-79945000I249999J0D01*
G01*
X147010001Y-79945000D01*
G75*
G02*
X147260000Y-80194999I0J-249999D01*
G01*
X147260000Y-81095001D01*
G75*
G02*
X147010001Y-81345000I-249999J0D01*
G01*
X146359999Y-81345000D01*
G75*
G02*
X146110000Y-81095001I0J249999D01*
G01*
G37*
G04 #@! TD.AperFunction*
G04 #@! TA.AperFunction,SMDPad,CuDef*
G36*
G01*
X144060000Y-81095001D02*
X144060000Y-80194999D01*
G75*
G02*
X144309999Y-79945000I249999J0D01*
G01*
X144960001Y-79945000D01*
G75*
G02*
X145210000Y-80194999I0J-249999D01*
G01*
X145210000Y-81095001D01*
G75*
G02*
X144960001Y-81345000I-249999J0D01*
G01*
X144309999Y-81345000D01*
G75*
G02*
X144060000Y-81095001I0J249999D01*
G01*
G37*
G04 #@! TD.AperFunction*
G04 #@! TA.AperFunction,SMDPad,CuDef*
G36*
G01*
X136025000Y-62950000D02*
X136025000Y-64050000D01*
G75*
G02*
X135775000Y-64300000I-250000J0D01*
G01*
X133675000Y-64300000D01*
G75*
G02*
X133425000Y-64050000I0J250000D01*
G01*
X133425000Y-62950000D01*
G75*
G02*
X133675000Y-62700000I250000J0D01*
G01*
X135775000Y-62700000D01*
G75*
G02*
X136025000Y-62950000I0J-250000D01*
G01*
G37*
G04 #@! TD.AperFunction*
G04 #@! TA.AperFunction,SMDPad,CuDef*
G36*
G01*
X139625000Y-62950000D02*
X139625000Y-64050000D01*
G75*
G02*
X139375000Y-64300000I-250000J0D01*
G01*
X137275000Y-64300000D01*
G75*
G02*
X137025000Y-64050000I0J250000D01*
G01*
X137025000Y-62950000D01*
G75*
G02*
X137275000Y-62700000I250000J0D01*
G01*
X139375000Y-62700000D01*
G75*
G02*
X139625000Y-62950000I0J-250000D01*
G01*
G37*
G04 #@! TD.AperFunction*
G04 #@! TA.AperFunction,SMDPad,CuDef*
G36*
G01*
X147498750Y-86810000D02*
X148411250Y-86810000D01*
G75*
G02*
X148655000Y-87053750I0J-243750D01*
G01*
X148655000Y-87541250D01*
G75*
G02*
X148411250Y-87785000I-243750J0D01*
G01*
X147498750Y-87785000D01*
G75*
G02*
X147255000Y-87541250I0J243750D01*
G01*
X147255000Y-87053750D01*
G75*
G02*
X147498750Y-86810000I243750J0D01*
G01*
G37*
G04 #@! TD.AperFunction*
G04 #@! TA.AperFunction,SMDPad,CuDef*
G36*
G01*
X147498750Y-84935000D02*
X148411250Y-84935000D01*
G75*
G02*
X148655000Y-85178750I0J-243750D01*
G01*
X148655000Y-85666250D01*
G75*
G02*
X148411250Y-85910000I-243750J0D01*
G01*
X147498750Y-85910000D01*
G75*
G02*
X147255000Y-85666250I0J243750D01*
G01*
X147255000Y-85178750D01*
G75*
G02*
X147498750Y-84935000I243750J0D01*
G01*
G37*
G04 #@! TD.AperFunction*
D11*
X166205000Y-62121000D03*
X167805000Y-62121000D03*
X166205000Y-58021000D03*
X167805000Y-58021000D03*
D12*
X130810000Y-65405000D03*
D13*
X128270000Y-65405000D03*
D14*
X174697056Y-83302944D03*
X173000000Y-82600000D03*
X171302944Y-83302944D03*
X170600000Y-85000000D03*
X171302944Y-86697056D03*
X173000000Y-87400000D03*
X174697056Y-86697056D03*
X175400000Y-85000000D03*
D15*
X173000000Y-85000000D03*
D14*
X131697056Y-83302944D03*
X130000000Y-82600000D03*
X128302944Y-83302944D03*
X127600000Y-85000000D03*
X128302944Y-86697056D03*
X130000000Y-87400000D03*
X131697056Y-86697056D03*
X132400000Y-85000000D03*
D15*
X130000000Y-85000000D03*
D14*
X174697056Y-58302944D03*
X173000000Y-57600000D03*
X171302944Y-58302944D03*
X170600000Y-60000000D03*
X171302944Y-61697056D03*
X173000000Y-62400000D03*
X174697056Y-61697056D03*
X175400000Y-60000000D03*
D15*
X173000000Y-60000000D03*
D14*
X131697056Y-58302944D03*
X130000000Y-57600000D03*
X128302944Y-58302944D03*
X127600000Y-60000000D03*
X128302944Y-61697056D03*
X130000000Y-62400000D03*
X131697056Y-61697056D03*
X132400000Y-60000000D03*
D15*
X130000000Y-60000000D03*
G04 #@! TA.AperFunction,SMDPad,CuDef*
G36*
G01*
X157023750Y-59505000D02*
X157936250Y-59505000D01*
G75*
G02*
X158180000Y-59748750I0J-243750D01*
G01*
X158180000Y-60236250D01*
G75*
G02*
X157936250Y-60480000I-243750J0D01*
G01*
X157023750Y-60480000D01*
G75*
G02*
X156780000Y-60236250I0J243750D01*
G01*
X156780000Y-59748750D01*
G75*
G02*
X157023750Y-59505000I243750J0D01*
G01*
G37*
G04 #@! TD.AperFunction*
G04 #@! TA.AperFunction,SMDPad,CuDef*
G36*
G01*
X157023750Y-57630000D02*
X157936250Y-57630000D01*
G75*
G02*
X158180000Y-57873750I0J-243750D01*
G01*
X158180000Y-58361250D01*
G75*
G02*
X157936250Y-58605000I-243750J0D01*
G01*
X157023750Y-58605000D01*
G75*
G02*
X156780000Y-58361250I0J243750D01*
G01*
X156780000Y-57873750D01*
G75*
G02*
X157023750Y-57630000I243750J0D01*
G01*
G37*
G04 #@! TD.AperFunction*
G04 #@! TA.AperFunction,SMDPad,CuDef*
G36*
G01*
X135433750Y-59505000D02*
X136346250Y-59505000D01*
G75*
G02*
X136590000Y-59748750I0J-243750D01*
G01*
X136590000Y-60236250D01*
G75*
G02*
X136346250Y-60480000I-243750J0D01*
G01*
X135433750Y-60480000D01*
G75*
G02*
X135190000Y-60236250I0J243750D01*
G01*
X135190000Y-59748750D01*
G75*
G02*
X135433750Y-59505000I243750J0D01*
G01*
G37*
G04 #@! TD.AperFunction*
G04 #@! TA.AperFunction,SMDPad,CuDef*
G36*
G01*
X135433750Y-57630000D02*
X136346250Y-57630000D01*
G75*
G02*
X136590000Y-57873750I0J-243750D01*
G01*
X136590000Y-58361250D01*
G75*
G02*
X136346250Y-58605000I-243750J0D01*
G01*
X135433750Y-58605000D01*
G75*
G02*
X135190000Y-58361250I0J243750D01*
G01*
X135190000Y-57873750D01*
G75*
G02*
X135433750Y-57630000I243750J0D01*
G01*
G37*
G04 #@! TD.AperFunction*
D16*
X143830000Y-57955000D03*
X145730000Y-57955000D03*
X145730000Y-60155000D03*
X144780000Y-60155000D03*
X143830000Y-60155000D03*
D11*
X162725000Y-58021000D03*
X161125000Y-58021000D03*
X162725000Y-62121000D03*
X161125000Y-62121000D03*
G04 #@! TA.AperFunction,SMDPad,CuDef*
G36*
G01*
X167455001Y-71940000D02*
X166554999Y-71940000D01*
G75*
G02*
X166305000Y-71690001I0J249999D01*
G01*
X166305000Y-71039999D01*
G75*
G02*
X166554999Y-70790000I249999J0D01*
G01*
X167455001Y-70790000D01*
G75*
G02*
X167705000Y-71039999I0J-249999D01*
G01*
X167705000Y-71690001D01*
G75*
G02*
X167455001Y-71940000I-249999J0D01*
G01*
G37*
G04 #@! TD.AperFunction*
G04 #@! TA.AperFunction,SMDPad,CuDef*
G36*
G01*
X167455001Y-73990000D02*
X166554999Y-73990000D01*
G75*
G02*
X166305000Y-73740001I0J249999D01*
G01*
X166305000Y-73089999D01*
G75*
G02*
X166554999Y-72840000I249999J0D01*
G01*
X167455001Y-72840000D01*
G75*
G02*
X167705000Y-73089999I0J-249999D01*
G01*
X167705000Y-73740001D01*
G75*
G02*
X167455001Y-73990000I-249999J0D01*
G01*
G37*
G04 #@! TD.AperFunction*
G04 #@! TA.AperFunction,SMDPad,CuDef*
G36*
G01*
X171265001Y-71940000D02*
X170364999Y-71940000D01*
G75*
G02*
X170115000Y-71690001I0J249999D01*
G01*
X170115000Y-71039999D01*
G75*
G02*
X170364999Y-70790000I249999J0D01*
G01*
X171265001Y-70790000D01*
G75*
G02*
X171515000Y-71039999I0J-249999D01*
G01*
X171515000Y-71690001D01*
G75*
G02*
X171265001Y-71940000I-249999J0D01*
G01*
G37*
G04 #@! TD.AperFunction*
G04 #@! TA.AperFunction,SMDPad,CuDef*
G36*
G01*
X171265001Y-73990000D02*
X170364999Y-73990000D01*
G75*
G02*
X170115000Y-73740001I0J249999D01*
G01*
X170115000Y-73089999D01*
G75*
G02*
X170364999Y-72840000I249999J0D01*
G01*
X171265001Y-72840000D01*
G75*
G02*
X171515000Y-73089999I0J-249999D01*
G01*
X171515000Y-73740001D01*
G75*
G02*
X171265001Y-73990000I-249999J0D01*
G01*
G37*
G04 #@! TD.AperFunction*
G04 #@! TA.AperFunction,SMDPad,CuDef*
G36*
G01*
X144060000Y-73475001D02*
X144060000Y-72574999D01*
G75*
G02*
X144309999Y-72325000I249999J0D01*
G01*
X144960001Y-72325000D01*
G75*
G02*
X145210000Y-72574999I0J-249999D01*
G01*
X145210000Y-73475001D01*
G75*
G02*
X144960001Y-73725000I-249999J0D01*
G01*
X144309999Y-73725000D01*
G75*
G02*
X144060000Y-73475001I0J249999D01*
G01*
G37*
G04 #@! TD.AperFunction*
G04 #@! TA.AperFunction,SMDPad,CuDef*
G36*
G01*
X146110000Y-73475001D02*
X146110000Y-72574999D01*
G75*
G02*
X146359999Y-72325000I249999J0D01*
G01*
X147010001Y-72325000D01*
G75*
G02*
X147260000Y-72574999I0J-249999D01*
G01*
X147260000Y-73475001D01*
G75*
G02*
X147010001Y-73725000I-249999J0D01*
G01*
X146359999Y-73725000D01*
G75*
G02*
X146110000Y-73475001I0J249999D01*
G01*
G37*
G04 #@! TD.AperFunction*
G04 #@! TA.AperFunction,SMDPad,CuDef*
G36*
G01*
X146110000Y-77285001D02*
X146110000Y-76384999D01*
G75*
G02*
X146359999Y-76135000I249999J0D01*
G01*
X147010001Y-76135000D01*
G75*
G02*
X147260000Y-76384999I0J-249999D01*
G01*
X147260000Y-77285001D01*
G75*
G02*
X147010001Y-77535000I-249999J0D01*
G01*
X146359999Y-77535000D01*
G75*
G02*
X146110000Y-77285001I0J249999D01*
G01*
G37*
G04 #@! TD.AperFunction*
G04 #@! TA.AperFunction,SMDPad,CuDef*
G36*
G01*
X144060000Y-77285001D02*
X144060000Y-76384999D01*
G75*
G02*
X144309999Y-76135000I249999J0D01*
G01*
X144960001Y-76135000D01*
G75*
G02*
X145210000Y-76384999I0J-249999D01*
G01*
X145210000Y-77285001D01*
G75*
G02*
X144960001Y-77535000I-249999J0D01*
G01*
X144309999Y-77535000D01*
G75*
G02*
X144060000Y-77285001I0J249999D01*
G01*
G37*
G04 #@! TD.AperFunction*
G04 #@! TA.AperFunction,SMDPad,CuDef*
G36*
G01*
X154120001Y-58605000D02*
X153219999Y-58605000D01*
G75*
G02*
X152970000Y-58355001I0J249999D01*
G01*
X152970000Y-57704999D01*
G75*
G02*
X153219999Y-57455000I249999J0D01*
G01*
X154120001Y-57455000D01*
G75*
G02*
X154370000Y-57704999I0J-249999D01*
G01*
X154370000Y-58355001D01*
G75*
G02*
X154120001Y-58605000I-249999J0D01*
G01*
G37*
G04 #@! TD.AperFunction*
G04 #@! TA.AperFunction,SMDPad,CuDef*
G36*
G01*
X154120001Y-60655000D02*
X153219999Y-60655000D01*
G75*
G02*
X152970000Y-60405001I0J249999D01*
G01*
X152970000Y-59754999D01*
G75*
G02*
X153219999Y-59505000I249999J0D01*
G01*
X154120001Y-59505000D01*
G75*
G02*
X154370000Y-59754999I0J-249999D01*
G01*
X154370000Y-60405001D01*
G75*
G02*
X154120001Y-60655000I-249999J0D01*
G01*
G37*
G04 #@! TD.AperFunction*
G04 #@! TA.AperFunction,SMDPad,CuDef*
G36*
G01*
X140150001Y-58605000D02*
X139249999Y-58605000D01*
G75*
G02*
X139000000Y-58355001I0J249999D01*
G01*
X139000000Y-57704999D01*
G75*
G02*
X139249999Y-57455000I249999J0D01*
G01*
X140150001Y-57455000D01*
G75*
G02*
X140400000Y-57704999I0J-249999D01*
G01*
X140400000Y-58355001D01*
G75*
G02*
X140150001Y-58605000I-249999J0D01*
G01*
G37*
G04 #@! TD.AperFunction*
G04 #@! TA.AperFunction,SMDPad,CuDef*
G36*
G01*
X140150001Y-60655000D02*
X139249999Y-60655000D01*
G75*
G02*
X139000000Y-60405001I0J249999D01*
G01*
X139000000Y-59754999D01*
G75*
G02*
X139249999Y-59505000I249999J0D01*
G01*
X140150001Y-59505000D01*
G75*
G02*
X140400000Y-59754999I0J-249999D01*
G01*
X140400000Y-60405001D01*
G75*
G02*
X140150001Y-60655000I-249999J0D01*
G01*
G37*
G04 #@! TD.AperFunction*
G04 #@! TA.AperFunction,SMDPad,CuDef*
D17*
G36*
X151735000Y-75044398D02*
G01*
X151710466Y-75044398D01*
X151661635Y-75039588D01*
X151613510Y-75030016D01*
X151566555Y-75015772D01*
X151521222Y-74996995D01*
X151477949Y-74973864D01*
X151437150Y-74946604D01*
X151399221Y-74915476D01*
X151364524Y-74880779D01*
X151333396Y-74842850D01*
X151306136Y-74802051D01*
X151283005Y-74758778D01*
X151264228Y-74713445D01*
X151249984Y-74666490D01*
X151240412Y-74618365D01*
X151235602Y-74569534D01*
X151235602Y-74545000D01*
X151235000Y-74545000D01*
X151235000Y-74045000D01*
X151235602Y-74045000D01*
X151235602Y-74020466D01*
X151240412Y-73971635D01*
X151249984Y-73923510D01*
X151264228Y-73876555D01*
X151283005Y-73831222D01*
X151306136Y-73787949D01*
X151333396Y-73747150D01*
X151364524Y-73709221D01*
X151399221Y-73674524D01*
X151437150Y-73643396D01*
X151477949Y-73616136D01*
X151521222Y-73593005D01*
X151566555Y-73574228D01*
X151613510Y-73559984D01*
X151661635Y-73550412D01*
X151710466Y-73545602D01*
X151735000Y-73545602D01*
X151735000Y-73545000D01*
X152285000Y-73545000D01*
X152285000Y-75045000D01*
X151735000Y-75045000D01*
X151735000Y-75044398D01*
G37*
G04 #@! TD.AperFunction*
D18*
X153035000Y-74295000D03*
G04 #@! TA.AperFunction,SMDPad,CuDef*
D17*
G36*
X153785000Y-73545000D02*
G01*
X154335000Y-73545000D01*
X154335000Y-73545602D01*
X154359534Y-73545602D01*
X154408365Y-73550412D01*
X154456490Y-73559984D01*
X154503445Y-73574228D01*
X154548778Y-73593005D01*
X154592051Y-73616136D01*
X154632850Y-73643396D01*
X154670779Y-73674524D01*
X154705476Y-73709221D01*
X154736604Y-73747150D01*
X154763864Y-73787949D01*
X154786995Y-73831222D01*
X154805772Y-73876555D01*
X154820016Y-73923510D01*
X154829588Y-73971635D01*
X154834398Y-74020466D01*
X154834398Y-74045000D01*
X154835000Y-74045000D01*
X154835000Y-74545000D01*
X154834398Y-74545000D01*
X154834398Y-74569534D01*
X154829588Y-74618365D01*
X154820016Y-74666490D01*
X154805772Y-74713445D01*
X154786995Y-74758778D01*
X154763864Y-74802051D01*
X154736604Y-74842850D01*
X154705476Y-74880779D01*
X154670779Y-74915476D01*
X154632850Y-74946604D01*
X154592051Y-74973864D01*
X154548778Y-74996995D01*
X154503445Y-75015772D01*
X154456490Y-75030016D01*
X154408365Y-75039588D01*
X154359534Y-75044398D01*
X154335000Y-75044398D01*
X154335000Y-75045000D01*
X153785000Y-75045000D01*
X153785000Y-73545000D01*
G37*
G04 #@! TD.AperFunction*
G04 #@! TA.AperFunction,SMDPad,CuDef*
G36*
X160805000Y-82435000D02*
G01*
X161305000Y-82435000D01*
X161305000Y-82435602D01*
X161329534Y-82435602D01*
X161378365Y-82440412D01*
X161426490Y-82449984D01*
X161473445Y-82464228D01*
X161518778Y-82483005D01*
X161562051Y-82506136D01*
X161602850Y-82533396D01*
X161640779Y-82564524D01*
X161675476Y-82599221D01*
X161706604Y-82637150D01*
X161733864Y-82677949D01*
X161756995Y-82721222D01*
X161775772Y-82766555D01*
X161790016Y-82813510D01*
X161799588Y-82861635D01*
X161804398Y-82910466D01*
X161804398Y-82935000D01*
X161805000Y-82935000D01*
X161805000Y-83435000D01*
X161804398Y-83435000D01*
X161804398Y-83459534D01*
X161799588Y-83508365D01*
X161790016Y-83556490D01*
X161775772Y-83603445D01*
X161756995Y-83648778D01*
X161733864Y-83692051D01*
X161706604Y-83732850D01*
X161675476Y-83770779D01*
X161640779Y-83805476D01*
X161602850Y-83836604D01*
X161562051Y-83863864D01*
X161518778Y-83886995D01*
X161473445Y-83905772D01*
X161426490Y-83920016D01*
X161378365Y-83929588D01*
X161329534Y-83934398D01*
X161305000Y-83934398D01*
X161305000Y-83935000D01*
X160805000Y-83935000D01*
X160805000Y-82435000D01*
G37*
G04 #@! TD.AperFunction*
G04 #@! TA.AperFunction,SMDPad,CuDef*
G36*
X160005000Y-83934398D02*
G01*
X159980466Y-83934398D01*
X159931635Y-83929588D01*
X159883510Y-83920016D01*
X159836555Y-83905772D01*
X159791222Y-83886995D01*
X159747949Y-83863864D01*
X159707150Y-83836604D01*
X159669221Y-83805476D01*
X159634524Y-83770779D01*
X159603396Y-83732850D01*
X159576136Y-83692051D01*
X159553005Y-83648778D01*
X159534228Y-83603445D01*
X159519984Y-83556490D01*
X159510412Y-83508365D01*
X159505602Y-83459534D01*
X159505602Y-83435000D01*
X159505000Y-83435000D01*
X159505000Y-82935000D01*
X159505602Y-82935000D01*
X159505602Y-82910466D01*
X159510412Y-82861635D01*
X159519984Y-82813510D01*
X159534228Y-82766555D01*
X159553005Y-82721222D01*
X159576136Y-82677949D01*
X159603396Y-82637150D01*
X159634524Y-82599221D01*
X159669221Y-82564524D01*
X159707150Y-82533396D01*
X159747949Y-82506136D01*
X159791222Y-82483005D01*
X159836555Y-82464228D01*
X159883510Y-82449984D01*
X159931635Y-82440412D01*
X159980466Y-82435602D01*
X160005000Y-82435602D01*
X160005000Y-82435000D01*
X160505000Y-82435000D01*
X160505000Y-83935000D01*
X160005000Y-83935000D01*
X160005000Y-83934398D01*
G37*
G04 #@! TD.AperFunction*
D18*
X153035000Y-80010000D03*
G04 #@! TA.AperFunction,SMDPad,CuDef*
D17*
G36*
X151735000Y-80759398D02*
G01*
X151710466Y-80759398D01*
X151661635Y-80754588D01*
X151613510Y-80745016D01*
X151566555Y-80730772D01*
X151521222Y-80711995D01*
X151477949Y-80688864D01*
X151437150Y-80661604D01*
X151399221Y-80630476D01*
X151364524Y-80595779D01*
X151333396Y-80557850D01*
X151306136Y-80517051D01*
X151283005Y-80473778D01*
X151264228Y-80428445D01*
X151249984Y-80381490D01*
X151240412Y-80333365D01*
X151235602Y-80284534D01*
X151235602Y-80260000D01*
X151235000Y-80260000D01*
X151235000Y-79760000D01*
X151235602Y-79760000D01*
X151235602Y-79735466D01*
X151240412Y-79686635D01*
X151249984Y-79638510D01*
X151264228Y-79591555D01*
X151283005Y-79546222D01*
X151306136Y-79502949D01*
X151333396Y-79462150D01*
X151364524Y-79424221D01*
X151399221Y-79389524D01*
X151437150Y-79358396D01*
X151477949Y-79331136D01*
X151521222Y-79308005D01*
X151566555Y-79289228D01*
X151613510Y-79274984D01*
X151661635Y-79265412D01*
X151710466Y-79260602D01*
X151735000Y-79260602D01*
X151735000Y-79260000D01*
X152285000Y-79260000D01*
X152285000Y-80760000D01*
X151735000Y-80760000D01*
X151735000Y-80759398D01*
G37*
G04 #@! TD.AperFunction*
G04 #@! TA.AperFunction,SMDPad,CuDef*
G36*
X153785000Y-79260000D02*
G01*
X154335000Y-79260000D01*
X154335000Y-79260602D01*
X154359534Y-79260602D01*
X154408365Y-79265412D01*
X154456490Y-79274984D01*
X154503445Y-79289228D01*
X154548778Y-79308005D01*
X154592051Y-79331136D01*
X154632850Y-79358396D01*
X154670779Y-79389524D01*
X154705476Y-79424221D01*
X154736604Y-79462150D01*
X154763864Y-79502949D01*
X154786995Y-79546222D01*
X154805772Y-79591555D01*
X154820016Y-79638510D01*
X154829588Y-79686635D01*
X154834398Y-79735466D01*
X154834398Y-79760000D01*
X154835000Y-79760000D01*
X154835000Y-80260000D01*
X154834398Y-80260000D01*
X154834398Y-80284534D01*
X154829588Y-80333365D01*
X154820016Y-80381490D01*
X154805772Y-80428445D01*
X154786995Y-80473778D01*
X154763864Y-80517051D01*
X154736604Y-80557850D01*
X154705476Y-80595779D01*
X154670779Y-80630476D01*
X154632850Y-80661604D01*
X154592051Y-80688864D01*
X154548778Y-80711995D01*
X154503445Y-80730772D01*
X154456490Y-80745016D01*
X154408365Y-80754588D01*
X154359534Y-80759398D01*
X154335000Y-80759398D01*
X154335000Y-80760000D01*
X153785000Y-80760000D01*
X153785000Y-79260000D01*
G37*
G04 #@! TD.AperFunction*
D13*
X174500000Y-76500000D03*
D12*
X174500000Y-73960000D03*
X174500000Y-71420000D03*
X174500000Y-68880000D03*
X166370000Y-86360000D03*
X163830000Y-86360000D03*
X161290000Y-86360000D03*
X158750000Y-86360000D03*
X156210000Y-86360000D03*
D13*
X153670000Y-86360000D03*
D12*
X144780000Y-86360000D03*
X144780000Y-83820000D03*
X142240000Y-86360000D03*
X142240000Y-83820000D03*
X139700000Y-86360000D03*
X139700000Y-83820000D03*
X137160000Y-86360000D03*
D13*
X137160000Y-83820000D03*
G04 #@! TA.AperFunction,ComponentPad*
G36*
G01*
X131250000Y-78075000D02*
X131250000Y-76325000D01*
G75*
G02*
X132125000Y-75450000I875000J0D01*
G01*
X133875000Y-75450000D01*
G75*
G02*
X134750000Y-76325000I0J-875000D01*
G01*
X134750000Y-78075000D01*
G75*
G02*
X133875000Y-78950000I-875000J0D01*
G01*
X132125000Y-78950000D01*
G75*
G02*
X131250000Y-78075000I0J875000D01*
G01*
G37*
G04 #@! TD.AperFunction*
G04 #@! TA.AperFunction,ComponentPad*
G36*
G01*
X128500000Y-73500000D02*
X128500000Y-71500000D01*
G75*
G02*
X129250000Y-70750000I750000J0D01*
G01*
X130750000Y-70750000D01*
G75*
G02*
X131500000Y-71500000I0J-750000D01*
G01*
X131500000Y-73500000D01*
G75*
G02*
X130750000Y-74250000I-750000J0D01*
G01*
X129250000Y-74250000D01*
G75*
G02*
X128500000Y-73500000I0J750000D01*
G01*
G37*
G04 #@! TD.AperFunction*
D19*
X136000000Y-72500000D03*
D20*
X141097000Y-70867000D03*
X141097000Y-74167000D03*
G04 #@! TA.AperFunction,SMDPad,CuDef*
G36*
G01*
X165550000Y-83641250D02*
X165550000Y-82728750D01*
G75*
G02*
X165793750Y-82485000I243750J0D01*
G01*
X166281250Y-82485000D01*
G75*
G02*
X166525000Y-82728750I0J-243750D01*
G01*
X166525000Y-83641250D01*
G75*
G02*
X166281250Y-83885000I-243750J0D01*
G01*
X165793750Y-83885000D01*
G75*
G02*
X165550000Y-83641250I0J243750D01*
G01*
G37*
G04 #@! TD.AperFunction*
G04 #@! TA.AperFunction,SMDPad,CuDef*
G36*
G01*
X163675000Y-83641250D02*
X163675000Y-82728750D01*
G75*
G02*
X163918750Y-82485000I243750J0D01*
G01*
X164406250Y-82485000D01*
G75*
G02*
X164650000Y-82728750I0J-243750D01*
G01*
X164650000Y-83641250D01*
G75*
G02*
X164406250Y-83885000I-243750J0D01*
G01*
X163918750Y-83885000D01*
G75*
G02*
X163675000Y-83641250I0J243750D01*
G01*
G37*
G04 #@! TD.AperFunction*
G04 #@! TA.AperFunction,SMDPad,CuDef*
G36*
G01*
X148775000Y-63678750D02*
X148775000Y-64591250D01*
G75*
G02*
X148531250Y-64835000I-243750J0D01*
G01*
X148043750Y-64835000D01*
G75*
G02*
X147800000Y-64591250I0J243750D01*
G01*
X147800000Y-63678750D01*
G75*
G02*
X148043750Y-63435000I243750J0D01*
G01*
X148531250Y-63435000D01*
G75*
G02*
X148775000Y-63678750I0J-243750D01*
G01*
G37*
G04 #@! TD.AperFunction*
G04 #@! TA.AperFunction,SMDPad,CuDef*
G36*
G01*
X150650000Y-63678750D02*
X150650000Y-64591250D01*
G75*
G02*
X150406250Y-64835000I-243750J0D01*
G01*
X149918750Y-64835000D01*
G75*
G02*
X149675000Y-64591250I0J243750D01*
G01*
X149675000Y-63678750D01*
G75*
G02*
X149918750Y-63435000I243750J0D01*
G01*
X150406250Y-63435000D01*
G75*
G02*
X150650000Y-63678750I0J-243750D01*
G01*
G37*
G04 #@! TD.AperFunction*
G04 #@! TA.AperFunction,SMDPad,CuDef*
G36*
G01*
X149403750Y-59505000D02*
X150316250Y-59505000D01*
G75*
G02*
X150560000Y-59748750I0J-243750D01*
G01*
X150560000Y-60236250D01*
G75*
G02*
X150316250Y-60480000I-243750J0D01*
G01*
X149403750Y-60480000D01*
G75*
G02*
X149160000Y-60236250I0J243750D01*
G01*
X149160000Y-59748750D01*
G75*
G02*
X149403750Y-59505000I243750J0D01*
G01*
G37*
G04 #@! TD.AperFunction*
G04 #@! TA.AperFunction,SMDPad,CuDef*
G36*
G01*
X149403750Y-57630000D02*
X150316250Y-57630000D01*
G75*
G02*
X150560000Y-57873750I0J-243750D01*
G01*
X150560000Y-58361250D01*
G75*
G02*
X150316250Y-58605000I-243750J0D01*
G01*
X149403750Y-58605000D01*
G75*
G02*
X149160000Y-58361250I0J243750D01*
G01*
X149160000Y-57873750D01*
G75*
G02*
X149403750Y-57630000I243750J0D01*
G01*
G37*
G04 #@! TD.AperFunction*
G04 #@! TA.AperFunction,SMDPad,CuDef*
G36*
G01*
X145230000Y-64591250D02*
X145230000Y-63678750D01*
G75*
G02*
X145473750Y-63435000I243750J0D01*
G01*
X145961250Y-63435000D01*
G75*
G02*
X146205000Y-63678750I0J-243750D01*
G01*
X146205000Y-64591250D01*
G75*
G02*
X145961250Y-64835000I-243750J0D01*
G01*
X145473750Y-64835000D01*
G75*
G02*
X145230000Y-64591250I0J243750D01*
G01*
G37*
G04 #@! TD.AperFunction*
G04 #@! TA.AperFunction,SMDPad,CuDef*
G36*
G01*
X143355000Y-64591250D02*
X143355000Y-63678750D01*
G75*
G02*
X143598750Y-63435000I243750J0D01*
G01*
X144086250Y-63435000D01*
G75*
G02*
X144330000Y-63678750I0J-243750D01*
G01*
X144330000Y-64591250D01*
G75*
G02*
X144086250Y-64835000I-243750J0D01*
G01*
X143598750Y-64835000D01*
G75*
G02*
X143355000Y-64591250I0J243750D01*
G01*
G37*
G04 #@! TD.AperFunction*
D21*
X154305000Y-74295000D03*
D22*
X164719000Y-74549000D03*
X168529000Y-74549000D03*
D21*
X154305000Y-70485000D03*
X154305000Y-62230000D03*
X149225000Y-78740000D03*
X150495000Y-69850000D03*
D22*
X142240000Y-64135000D03*
X154335000Y-80010000D03*
X163068000Y-69596000D03*
D21*
X161125000Y-61125000D03*
X150495000Y-62865000D03*
X164020500Y-70485000D03*
X163957000Y-72517000D03*
X163068000Y-74549000D03*
D23*
X145717500Y-61972500D02*
X145717500Y-64135000D01*
X144780000Y-61035000D02*
X145717500Y-61972500D01*
X144780000Y-60155000D02*
X144780000Y-61035000D01*
X172549000Y-74549000D02*
X174500000Y-76500000D01*
X164719000Y-74549000D02*
X168529000Y-74549000D01*
X168529000Y-74549000D02*
X172549000Y-74549000D01*
X143830000Y-59275000D02*
X144050000Y-59055000D01*
X143830000Y-60155000D02*
X143830000Y-59275000D01*
X145730000Y-59275000D02*
X145730000Y-60155000D01*
X145510000Y-59055000D02*
X145730000Y-59275000D01*
X144050000Y-59055000D02*
X145510000Y-59055000D01*
D24*
X143842500Y-68121500D02*
X143842500Y-64135000D01*
X141097000Y-70867000D02*
X143842500Y-68121500D01*
D23*
X143830000Y-57955000D02*
X143830000Y-57719000D01*
X143830000Y-57719000D02*
X144653000Y-56896000D01*
X144653000Y-56896000D02*
X146304000Y-56896000D01*
X147525500Y-58117500D02*
X149860000Y-58117500D01*
X146304000Y-56896000D02*
X147525500Y-58117500D01*
X151822500Y-60080000D02*
X149860000Y-58117500D01*
X153670000Y-60080000D02*
X151822500Y-60080000D01*
X151735000Y-60167500D02*
X151822500Y-60080000D01*
X167005000Y-73415000D02*
X170815000Y-73415000D01*
X174500000Y-73960000D02*
X173020000Y-73960000D01*
X172475000Y-73415000D02*
X170815000Y-73415000D01*
X173020000Y-73960000D02*
X172475000Y-73415000D01*
X153806000Y-60080000D02*
X153670000Y-60080000D01*
X170180000Y-66040000D02*
X167767000Y-63627000D01*
X170180000Y-68580000D02*
X170180000Y-66040000D01*
X169164000Y-69596000D02*
X170180000Y-68580000D01*
X167005000Y-73415000D02*
X163585000Y-73415000D01*
X167767000Y-63627000D02*
X157353000Y-63627000D01*
X157353000Y-63627000D02*
X153806000Y-60080000D01*
X163585000Y-73415000D02*
X163068000Y-72898000D01*
X163068000Y-69596000D02*
X163068000Y-72898000D01*
X163068000Y-69596000D02*
X169164000Y-69596000D01*
X151735000Y-74295000D02*
X151735000Y-60167500D01*
X151735000Y-74295000D02*
X151735000Y-80010000D01*
X151735000Y-81642500D02*
X147955000Y-85422500D01*
X151735000Y-80010000D02*
X151735000Y-81642500D01*
X147955000Y-85422500D02*
X146685000Y-84152500D01*
X146685000Y-84152500D02*
X146685000Y-80645000D01*
X145717500Y-85422500D02*
X144780000Y-86360000D01*
X147955000Y-85422500D02*
X145717500Y-85422500D01*
X146685000Y-80645000D02*
X146685000Y-76835000D01*
X146685000Y-76835000D02*
X146685000Y-73025000D01*
D25*
X157480000Y-86995000D02*
X157480000Y-85090000D01*
X145415000Y-87630000D02*
X143510000Y-87630000D01*
X143510000Y-87630000D02*
X142240000Y-86360000D01*
X157480000Y-85090000D02*
X155575000Y-83185000D01*
X157480000Y-86995000D02*
X158115000Y-87630000D01*
X158115000Y-87630000D02*
X159385000Y-87630000D01*
X160005000Y-87010000D02*
X160005000Y-83185000D01*
X159385000Y-87630000D02*
X160005000Y-87010000D01*
X161125000Y-62121000D02*
X161125000Y-61125000D01*
X161125000Y-61125000D02*
X161125000Y-58021000D01*
X145415000Y-87630000D02*
X146685000Y-86360000D01*
X146685000Y-86360000D02*
X148590000Y-86360000D01*
X151765000Y-83185000D02*
X148590000Y-86360000D01*
X155575000Y-83185000D02*
X151765000Y-83185000D01*
X150162500Y-63197500D02*
X150495000Y-62865000D01*
X150162500Y-64135000D02*
X150162500Y-63197500D01*
X144635000Y-78885000D02*
X144635000Y-76835000D01*
X143510000Y-80010000D02*
X144635000Y-78885000D01*
X143510000Y-85090000D02*
X143510000Y-80010000D01*
X142240000Y-86360000D02*
X143510000Y-85090000D01*
X150162500Y-64135000D02*
X150162500Y-67769500D01*
X150162500Y-67769500D02*
X145669000Y-72263000D01*
X145669000Y-75801000D02*
X144635000Y-76835000D01*
X145669000Y-72263000D02*
X145669000Y-75801000D01*
D24*
X130810000Y-67310000D02*
X136000000Y-72500000D01*
X130810000Y-65405000D02*
X130810000Y-67310000D01*
X139430000Y-72500000D02*
X141097000Y-74167000D01*
X136000000Y-72500000D02*
X139430000Y-72500000D01*
D25*
X137737500Y-59992500D02*
X139700000Y-58030000D01*
X135890000Y-59992500D02*
X137737500Y-59992500D01*
X155632500Y-59992500D02*
X153670000Y-58030000D01*
X157480000Y-59992500D02*
X155632500Y-59992500D01*
X144780000Y-80790000D02*
X144635000Y-80645000D01*
X144780000Y-83820000D02*
X144780000Y-80790000D01*
X167805000Y-62185000D02*
X167805000Y-62121000D01*
X174500000Y-68880000D02*
X167805000Y-62185000D01*
X167805000Y-58021000D02*
X167805000Y-62121000D01*
X167005000Y-71365000D02*
X168665000Y-71365000D01*
X168665000Y-71365000D02*
X170180000Y-69850000D01*
X173530000Y-69850000D02*
X174500000Y-68880000D01*
X170180000Y-69850000D02*
X173530000Y-69850000D01*
X164900500Y-71365000D02*
X164020500Y-70485000D01*
X167005000Y-71365000D02*
X164900500Y-71365000D01*
X139700000Y-86360000D02*
X140970000Y-85090000D01*
X140970000Y-83350998D02*
X142875000Y-81445998D01*
X140970000Y-85090000D02*
X140970000Y-83350998D01*
X142875000Y-81445998D02*
X142875000Y-79756000D01*
X142875000Y-79756000D02*
X143510000Y-79121000D01*
X143510000Y-79121000D02*
X143510000Y-76073000D01*
X144635000Y-74948000D02*
X144635000Y-73025000D01*
X143510000Y-76073000D02*
X144635000Y-74948000D01*
X170870000Y-71420000D02*
X170815000Y-71365000D01*
X174500000Y-71420000D02*
X170870000Y-71420000D01*
X170815000Y-71365000D02*
X169554000Y-71365000D01*
X169554000Y-71365000D02*
X168529000Y-72390000D01*
X168529000Y-72390000D02*
X166243000Y-72390000D01*
X166116000Y-72517000D02*
X163957000Y-72517000D01*
X166243000Y-72390000D02*
X166116000Y-72517000D01*
X163068000Y-74549000D02*
X163957000Y-75438000D01*
X168529000Y-79756000D02*
X157353000Y-79756000D01*
X153035000Y-73295000D02*
X153432000Y-72898000D01*
X153035000Y-74295000D02*
X153035000Y-73295000D01*
X153432000Y-72898000D02*
X154813000Y-72898000D01*
X154813000Y-72898000D02*
X155829000Y-73914000D01*
X155829000Y-78232000D02*
X157353000Y-79756000D01*
X155829000Y-73914000D02*
X155829000Y-78232000D01*
X163957000Y-75438000D02*
X169291000Y-75438000D01*
X170180000Y-78105000D02*
X168529000Y-79756000D01*
X170180000Y-76327000D02*
X170180000Y-78105000D01*
X169291000Y-75438000D02*
X170180000Y-76327000D01*
D23*
X153035000Y-81645000D02*
X153940000Y-82550000D01*
X153940000Y-82550000D02*
X156210000Y-82550000D01*
X158750000Y-85090000D02*
X158750000Y-86360000D01*
X156210000Y-82550000D02*
X158750000Y-85090000D01*
X153035000Y-81645000D02*
X153035000Y-80010000D01*
D25*
X166370000Y-83517500D02*
X166037500Y-83185000D01*
X166370000Y-86360000D02*
X166370000Y-83517500D01*
X161305000Y-83185000D02*
X164162500Y-83185000D01*
D26*
G36*
X144200811Y-56219251D02*
G01*
X144077472Y-56320472D01*
X144052105Y-56351382D01*
X143616560Y-56786928D01*
X143505000Y-56786928D01*
X143380518Y-56799188D01*
X143260820Y-56835498D01*
X143150506Y-56894463D01*
X143053815Y-56973815D01*
X142974463Y-57070506D01*
X142915498Y-57180820D01*
X142879188Y-57300518D01*
X142866928Y-57425000D01*
X142866928Y-58485000D01*
X142879188Y-58609482D01*
X142915498Y-58729180D01*
X142953887Y-58801000D01*
X140913734Y-58801000D01*
X140970472Y-58694851D01*
X141021008Y-58528255D01*
X141038072Y-58355001D01*
X141038072Y-57704999D01*
X141021008Y-57531745D01*
X140970472Y-57365149D01*
X140888405Y-57211613D01*
X140777962Y-57077038D01*
X140643387Y-56966595D01*
X140489851Y-56884528D01*
X140323255Y-56833992D01*
X140150001Y-56816928D01*
X139249999Y-56816928D01*
X139076745Y-56833992D01*
X138910149Y-56884528D01*
X138756613Y-56966595D01*
X138622038Y-57077038D01*
X138511595Y-57211613D01*
X138429528Y-57365149D01*
X138378992Y-57531745D01*
X138361928Y-57704999D01*
X138361928Y-58293270D01*
X137422699Y-59232500D01*
X137057845Y-59232500D01*
X136969792Y-59125208D01*
X136963436Y-59119992D01*
X137041185Y-59056185D01*
X137120537Y-58959494D01*
X137179502Y-58849180D01*
X137215812Y-58729482D01*
X137228072Y-58605000D01*
X137225000Y-58403250D01*
X137066250Y-58244500D01*
X136017000Y-58244500D01*
X136017000Y-58264500D01*
X135763000Y-58264500D01*
X135763000Y-58244500D01*
X134713750Y-58244500D01*
X134555000Y-58403250D01*
X134551928Y-58605000D01*
X134564188Y-58729482D01*
X134600498Y-58849180D01*
X134659463Y-58959494D01*
X134738815Y-59056185D01*
X134816564Y-59119992D01*
X134810208Y-59125208D01*
X134700542Y-59258836D01*
X134619053Y-59411291D01*
X134568872Y-59576715D01*
X134551928Y-59748750D01*
X134551928Y-60236250D01*
X134568872Y-60408285D01*
X134619053Y-60573709D01*
X134700542Y-60726164D01*
X134810208Y-60859792D01*
X134943836Y-60969458D01*
X135096291Y-61050947D01*
X135261715Y-61101128D01*
X135433750Y-61118072D01*
X136346250Y-61118072D01*
X136518285Y-61101128D01*
X136525000Y-61099091D01*
X136525000Y-62308296D01*
X136476185Y-62248815D01*
X136379494Y-62169463D01*
X136269180Y-62110498D01*
X136149482Y-62074188D01*
X136025000Y-62061928D01*
X135010750Y-62065000D01*
X134852000Y-62223750D01*
X134852000Y-63373000D01*
X134872000Y-63373000D01*
X134872000Y-63627000D01*
X134852000Y-63627000D01*
X134852000Y-64776250D01*
X135010750Y-64935000D01*
X136025000Y-64938072D01*
X136149482Y-64925812D01*
X136269180Y-64889502D01*
X136379494Y-64830537D01*
X136476185Y-64751185D01*
X136525000Y-64691704D01*
X136525000Y-64770000D01*
X136537201Y-64893882D01*
X136573336Y-65013004D01*
X136632017Y-65122787D01*
X136710987Y-65219013D01*
X136807213Y-65297983D01*
X136916996Y-65356664D01*
X137036118Y-65392799D01*
X137160000Y-65405000D01*
X138717442Y-65405000D01*
X138441331Y-65519369D01*
X138075271Y-65763962D01*
X137763962Y-66075271D01*
X137519369Y-66441331D01*
X137350890Y-66848075D01*
X137265000Y-67279872D01*
X137265000Y-67720128D01*
X137350890Y-68151925D01*
X137519369Y-68558669D01*
X137763962Y-68924729D01*
X138075271Y-69236038D01*
X138441331Y-69480631D01*
X138848075Y-69649110D01*
X139279872Y-69735000D01*
X139720128Y-69735000D01*
X140151925Y-69649110D01*
X140558669Y-69480631D01*
X140924729Y-69236038D01*
X141236038Y-68924729D01*
X141480631Y-68558669D01*
X141649110Y-68151925D01*
X141735000Y-67720128D01*
X141735000Y-67279872D01*
X141649110Y-66848075D01*
X141480631Y-66441331D01*
X141236038Y-66075271D01*
X140924729Y-65763962D01*
X140558669Y-65519369D01*
X140282558Y-65405000D01*
X142707501Y-65405000D01*
X142707500Y-67651368D01*
X140579941Y-69778928D01*
X140497000Y-69778928D01*
X140372518Y-69791188D01*
X140252820Y-69827498D01*
X140142506Y-69886463D01*
X140045815Y-69965815D01*
X139966463Y-70062506D01*
X139907498Y-70172820D01*
X139871188Y-70292518D01*
X139858928Y-70417000D01*
X139858928Y-71317000D01*
X139871188Y-71441482D01*
X139873859Y-71450286D01*
X139866447Y-71446324D01*
X139652499Y-71381423D01*
X139485752Y-71365000D01*
X139485751Y-71365000D01*
X139430000Y-71359509D01*
X139374249Y-71365000D01*
X138388072Y-71365000D01*
X138388072Y-70750000D01*
X138375812Y-70625518D01*
X138339502Y-70505820D01*
X138280537Y-70395506D01*
X138201185Y-70298815D01*
X138104494Y-70219463D01*
X137994180Y-70160498D01*
X137874482Y-70124188D01*
X137750000Y-70111928D01*
X135217060Y-70111928D01*
X131945000Y-66839869D01*
X131945000Y-66370107D01*
X131963475Y-66351632D01*
X132125990Y-66108411D01*
X132237932Y-65838158D01*
X132295000Y-65551260D01*
X132295000Y-65258740D01*
X132237932Y-64971842D01*
X132125990Y-64701589D01*
X131963475Y-64458368D01*
X131805107Y-64300000D01*
X132786928Y-64300000D01*
X132799188Y-64424482D01*
X132835498Y-64544180D01*
X132894463Y-64654494D01*
X132973815Y-64751185D01*
X133070506Y-64830537D01*
X133180820Y-64889502D01*
X133300518Y-64925812D01*
X133425000Y-64938072D01*
X134439250Y-64935000D01*
X134598000Y-64776250D01*
X134598000Y-63627000D01*
X132948750Y-63627000D01*
X132790000Y-63785750D01*
X132786928Y-64300000D01*
X131805107Y-64300000D01*
X131756632Y-64251525D01*
X131513411Y-64089010D01*
X131243158Y-63977068D01*
X130956260Y-63920000D01*
X130663740Y-63920000D01*
X130376842Y-63977068D01*
X130106589Y-64089010D01*
X129863368Y-64251525D01*
X129731513Y-64383380D01*
X129709502Y-64310820D01*
X129650537Y-64200506D01*
X129571185Y-64103815D01*
X129474494Y-64024463D01*
X129364180Y-63965498D01*
X129244482Y-63929188D01*
X129120000Y-63916928D01*
X128555750Y-63920000D01*
X128397000Y-64078750D01*
X128397000Y-65278000D01*
X128417000Y-65278000D01*
X128417000Y-65532000D01*
X128397000Y-65532000D01*
X128397000Y-66731250D01*
X128555750Y-66890000D01*
X129120000Y-66893072D01*
X129244482Y-66880812D01*
X129364180Y-66844502D01*
X129474494Y-66785537D01*
X129571185Y-66706185D01*
X129650537Y-66609494D01*
X129675001Y-66563727D01*
X129675001Y-67254239D01*
X129669509Y-67310000D01*
X129691423Y-67532498D01*
X129756324Y-67746446D01*
X129789073Y-67807714D01*
X129861717Y-67943623D01*
X130003552Y-68116449D01*
X130046860Y-68151991D01*
X133611928Y-71717060D01*
X133611928Y-74250000D01*
X133624188Y-74374482D01*
X133660498Y-74494180D01*
X133719463Y-74604494D01*
X133798815Y-74701185D01*
X133895506Y-74780537D01*
X133957345Y-74813591D01*
X133285750Y-74815000D01*
X133127000Y-74973750D01*
X133127000Y-77073000D01*
X135226250Y-77073000D01*
X135385000Y-76914250D01*
X135388072Y-75450000D01*
X135375812Y-75325518D01*
X135339502Y-75205820D01*
X135280537Y-75095506D01*
X135201185Y-74998815D01*
X135104494Y-74919463D01*
X135045767Y-74888072D01*
X137750000Y-74888072D01*
X137874482Y-74875812D01*
X137994180Y-74839502D01*
X138104494Y-74780537D01*
X138201185Y-74701185D01*
X138280537Y-74604494D01*
X138339502Y-74494180D01*
X138375812Y-74374482D01*
X138388072Y-74250000D01*
X138388072Y-73635000D01*
X138959869Y-73635000D01*
X139858928Y-74534060D01*
X139858928Y-74617000D01*
X139871188Y-74741482D01*
X139907498Y-74861180D01*
X139966463Y-74971494D01*
X140045815Y-75068185D01*
X140142506Y-75147537D01*
X140252820Y-75206502D01*
X140372518Y-75242812D01*
X140497000Y-75255072D01*
X140773940Y-75255072D01*
X140874501Y-75285577D01*
X141096999Y-75307491D01*
X141319498Y-75285577D01*
X141420059Y-75255072D01*
X141697000Y-75255072D01*
X141821482Y-75242812D01*
X141941180Y-75206502D01*
X142051494Y-75147537D01*
X142148185Y-75068185D01*
X142227537Y-74971494D01*
X142286502Y-74861180D01*
X142322812Y-74741482D01*
X142335072Y-74617000D01*
X142335072Y-73717000D01*
X142322812Y-73592518D01*
X142286502Y-73472820D01*
X142227537Y-73362506D01*
X142148185Y-73265815D01*
X142051494Y-73186463D01*
X141941180Y-73127498D01*
X141821482Y-73091188D01*
X141697000Y-73078928D01*
X141614060Y-73078928D01*
X140489461Y-71954329D01*
X140497000Y-71955072D01*
X140773941Y-71955072D01*
X140874502Y-71985577D01*
X141097000Y-72007491D01*
X141319498Y-71985577D01*
X141420059Y-71955072D01*
X141697000Y-71955072D01*
X141821482Y-71942812D01*
X141941180Y-71906502D01*
X142051494Y-71847537D01*
X142148185Y-71768185D01*
X142227537Y-71671494D01*
X142286502Y-71561180D01*
X142322812Y-71441482D01*
X142335072Y-71317000D01*
X142335072Y-71234059D01*
X144605641Y-68963491D01*
X144648949Y-68927949D01*
X144790784Y-68755123D01*
X144896176Y-68557947D01*
X144961077Y-68343999D01*
X144977500Y-68177252D01*
X144977500Y-68177243D01*
X144982990Y-68121501D01*
X144977500Y-68065759D01*
X144977500Y-65420055D01*
X144985820Y-65424502D01*
X145105518Y-65460812D01*
X145230000Y-65473072D01*
X145431750Y-65470000D01*
X145590500Y-65311250D01*
X145590500Y-64262000D01*
X145844500Y-64262000D01*
X145844500Y-65311250D01*
X146003250Y-65470000D01*
X146205000Y-65473072D01*
X146329482Y-65460812D01*
X146449180Y-65424502D01*
X146559494Y-65365537D01*
X146656185Y-65286185D01*
X146735537Y-65189494D01*
X146794502Y-65079180D01*
X146830812Y-64959482D01*
X146843072Y-64835000D01*
X147161928Y-64835000D01*
X147174188Y-64959482D01*
X147210498Y-65079180D01*
X147269463Y-65189494D01*
X147348815Y-65286185D01*
X147445506Y-65365537D01*
X147555820Y-65424502D01*
X147675518Y-65460812D01*
X147800000Y-65473072D01*
X148001750Y-65470000D01*
X148160500Y-65311250D01*
X148160500Y-64262000D01*
X147323750Y-64262000D01*
X147165000Y-64420750D01*
X147161928Y-64835000D01*
X146843072Y-64835000D01*
X146840000Y-64420750D01*
X146681250Y-64262000D01*
X145844500Y-64262000D01*
X145590500Y-64262000D01*
X145570500Y-64262000D01*
X145570500Y-64008000D01*
X145590500Y-64008000D01*
X145590500Y-62958750D01*
X145844500Y-62958750D01*
X145844500Y-64008000D01*
X146681250Y-64008000D01*
X146840000Y-63849250D01*
X146843072Y-63435000D01*
X147161928Y-63435000D01*
X147165000Y-63849250D01*
X147323750Y-64008000D01*
X148160500Y-64008000D01*
X148160500Y-62958750D01*
X148001750Y-62800000D01*
X147800000Y-62796928D01*
X147675518Y-62809188D01*
X147555820Y-62845498D01*
X147445506Y-62904463D01*
X147348815Y-62983815D01*
X147269463Y-63080506D01*
X147210498Y-63190820D01*
X147174188Y-63310518D01*
X147161928Y-63435000D01*
X146843072Y-63435000D01*
X146830812Y-63310518D01*
X146794502Y-63190820D01*
X146735537Y-63080506D01*
X146656185Y-62983815D01*
X146559494Y-62904463D01*
X146449180Y-62845498D01*
X146329482Y-62809188D01*
X146205000Y-62796928D01*
X146003250Y-62800000D01*
X145844500Y-62958750D01*
X145590500Y-62958750D01*
X145431750Y-62800000D01*
X145230000Y-62796928D01*
X145105518Y-62809188D01*
X144985820Y-62845498D01*
X144875506Y-62904463D01*
X144780000Y-62982842D01*
X144780000Y-61320000D01*
X144907002Y-61320000D01*
X144907002Y-61161252D01*
X145065750Y-61320000D01*
X145105000Y-61323072D01*
X145229482Y-61310812D01*
X145255000Y-61303071D01*
X145280518Y-61310812D01*
X145405000Y-61323072D01*
X146055000Y-61323072D01*
X146179482Y-61310812D01*
X146299180Y-61274502D01*
X146409494Y-61215537D01*
X146506185Y-61136185D01*
X146585537Y-61039494D01*
X146644502Y-60929180D01*
X146680812Y-60809482D01*
X146693072Y-60685000D01*
X146693072Y-60480000D01*
X148521928Y-60480000D01*
X148534188Y-60604482D01*
X148570498Y-60724180D01*
X148629463Y-60834494D01*
X148708815Y-60931185D01*
X148805506Y-61010537D01*
X148915820Y-61069502D01*
X149035518Y-61105812D01*
X149160000Y-61118072D01*
X149574250Y-61115000D01*
X149733000Y-60956250D01*
X149733000Y-60119500D01*
X148683750Y-60119500D01*
X148525000Y-60278250D01*
X148521928Y-60480000D01*
X146693072Y-60480000D01*
X146693072Y-59625000D01*
X146680812Y-59500518D01*
X146644502Y-59380820D01*
X146585537Y-59270506D01*
X146537740Y-59212265D01*
X146528280Y-59116212D01*
X146481963Y-58963527D01*
X146479190Y-58958339D01*
X146506185Y-58936185D01*
X146585537Y-58839494D01*
X146644502Y-58729180D01*
X146680812Y-58609482D01*
X146693072Y-58485000D01*
X146693072Y-58430585D01*
X146924605Y-58662118D01*
X146949972Y-58693028D01*
X146980880Y-58718393D01*
X147073310Y-58794249D01*
X147119935Y-58819170D01*
X147214027Y-58869463D01*
X147366712Y-58915780D01*
X147485709Y-58927500D01*
X147485712Y-58927500D01*
X147525500Y-58931419D01*
X147565288Y-58927500D01*
X148733190Y-58927500D01*
X148780208Y-58984792D01*
X148786564Y-58990008D01*
X148708815Y-59053815D01*
X148629463Y-59150506D01*
X148570498Y-59260820D01*
X148534188Y-59380518D01*
X148521928Y-59505000D01*
X148525000Y-59706750D01*
X148683750Y-59865500D01*
X149733000Y-59865500D01*
X149733000Y-59845500D01*
X149987000Y-59845500D01*
X149987000Y-59865500D01*
X150007000Y-59865500D01*
X150007000Y-60119500D01*
X149987000Y-60119500D01*
X149987000Y-60956250D01*
X150145750Y-61115000D01*
X150560000Y-61118072D01*
X150684482Y-61105812D01*
X150804180Y-61069502D01*
X150914494Y-61010537D01*
X150925001Y-61001914D01*
X150925001Y-61922836D01*
X150796898Y-61869774D01*
X150596939Y-61830000D01*
X150393061Y-61830000D01*
X150193102Y-61869774D01*
X150004744Y-61947795D01*
X149835226Y-62061063D01*
X149691063Y-62205226D01*
X149577795Y-62374744D01*
X149499774Y-62563102D01*
X149460000Y-62763061D01*
X149460000Y-62899555D01*
X149456954Y-62905254D01*
X149447810Y-62935400D01*
X149428836Y-62945542D01*
X149295208Y-63055208D01*
X149289992Y-63061564D01*
X149226185Y-62983815D01*
X149129494Y-62904463D01*
X149019180Y-62845498D01*
X148899482Y-62809188D01*
X148775000Y-62796928D01*
X148573250Y-62800000D01*
X148414500Y-62958750D01*
X148414500Y-64008000D01*
X148434500Y-64008000D01*
X148434500Y-64262000D01*
X148414500Y-64262000D01*
X148414500Y-65311250D01*
X148573250Y-65470000D01*
X148775000Y-65473072D01*
X148899482Y-65460812D01*
X149019180Y-65424502D01*
X149129494Y-65365537D01*
X149226185Y-65286185D01*
X149289992Y-65208436D01*
X149295208Y-65214792D01*
X149402500Y-65302845D01*
X149402501Y-67454697D01*
X145158003Y-71699196D01*
X145147057Y-71708179D01*
X145133255Y-71703992D01*
X144960001Y-71686928D01*
X144309999Y-71686928D01*
X144136745Y-71703992D01*
X143970149Y-71754528D01*
X143816613Y-71836595D01*
X143682038Y-71947038D01*
X143571595Y-72081613D01*
X143489528Y-72235149D01*
X143438992Y-72401745D01*
X143421928Y-72574999D01*
X143421928Y-73475001D01*
X143438992Y-73648255D01*
X143489528Y-73814851D01*
X143571595Y-73968387D01*
X143682038Y-74102962D01*
X143816613Y-74213405D01*
X143875000Y-74244614D01*
X143875000Y-74633198D01*
X142998998Y-75509201D01*
X142970000Y-75532999D01*
X142946202Y-75561997D01*
X142946201Y-75561998D01*
X142875026Y-75648724D01*
X142804454Y-75780754D01*
X142784769Y-75845650D01*
X142760998Y-75924014D01*
X142755681Y-75978001D01*
X142746324Y-76073000D01*
X142750001Y-76110332D01*
X142750000Y-78806198D01*
X142363998Y-79192201D01*
X142335000Y-79215999D01*
X142311203Y-79244996D01*
X142311201Y-79244998D01*
X142240026Y-79331724D01*
X142169454Y-79463754D01*
X142144914Y-79544656D01*
X142125998Y-79607014D01*
X142120783Y-79659964D01*
X142111324Y-79756000D01*
X142115001Y-79793332D01*
X142115000Y-81131196D01*
X140606492Y-82639705D01*
X140403411Y-82504010D01*
X140133158Y-82392068D01*
X139846260Y-82335000D01*
X139553740Y-82335000D01*
X139266842Y-82392068D01*
X138996589Y-82504010D01*
X138753368Y-82666525D01*
X138621513Y-82798380D01*
X138599502Y-82725820D01*
X138540537Y-82615506D01*
X138461185Y-82518815D01*
X138364494Y-82439463D01*
X138254180Y-82380498D01*
X138134482Y-82344188D01*
X138010000Y-82331928D01*
X137445750Y-82335000D01*
X137287000Y-82493750D01*
X137287000Y-83693000D01*
X137307000Y-83693000D01*
X137307000Y-83947000D01*
X137287000Y-83947000D01*
X137287000Y-83967000D01*
X137033000Y-83967000D01*
X137033000Y-83947000D01*
X135833750Y-83947000D01*
X135675000Y-84105750D01*
X135671928Y-84670000D01*
X135684188Y-84794482D01*
X135720498Y-84914180D01*
X135779463Y-85024494D01*
X135858815Y-85121185D01*
X135955506Y-85200537D01*
X136065820Y-85259502D01*
X136138380Y-85281513D01*
X136006525Y-85413368D01*
X135844010Y-85656589D01*
X135732068Y-85926842D01*
X135675000Y-86213740D01*
X135675000Y-86506260D01*
X135732068Y-86793158D01*
X135844010Y-87063411D01*
X136006525Y-87306632D01*
X136213368Y-87513475D01*
X136456589Y-87675990D01*
X136726842Y-87787932D01*
X137013740Y-87845000D01*
X137306260Y-87845000D01*
X137593158Y-87787932D01*
X137863411Y-87675990D01*
X138106632Y-87513475D01*
X138313475Y-87306632D01*
X138430000Y-87132240D01*
X138546525Y-87306632D01*
X138753368Y-87513475D01*
X138996589Y-87675990D01*
X139266842Y-87787932D01*
X139553740Y-87845000D01*
X139846260Y-87845000D01*
X140133158Y-87787932D01*
X140403411Y-87675990D01*
X140646632Y-87513475D01*
X140853475Y-87306632D01*
X140970000Y-87132240D01*
X141086525Y-87306632D01*
X141293368Y-87513475D01*
X141536589Y-87675990D01*
X141806842Y-87787932D01*
X142093740Y-87845000D01*
X142386260Y-87845000D01*
X142606408Y-87801210D01*
X142946201Y-88141003D01*
X142969999Y-88170001D01*
X143085724Y-88264974D01*
X143217753Y-88335546D01*
X143361014Y-88379003D01*
X143472667Y-88390000D01*
X143472676Y-88390000D01*
X143509999Y-88393676D01*
X143547322Y-88390000D01*
X145377678Y-88390000D01*
X145415000Y-88393676D01*
X145452322Y-88390000D01*
X145452333Y-88390000D01*
X145563986Y-88379003D01*
X145707247Y-88335546D01*
X145839276Y-88264974D01*
X145955001Y-88170001D01*
X145978804Y-88140997D01*
X146695300Y-87424502D01*
X146778748Y-87424502D01*
X146620000Y-87583250D01*
X146616928Y-87785000D01*
X146629188Y-87909482D01*
X146665498Y-88029180D01*
X146724463Y-88139494D01*
X146803815Y-88236185D01*
X146900506Y-88315537D01*
X147010820Y-88374502D01*
X147130518Y-88410812D01*
X147255000Y-88423072D01*
X147669250Y-88420000D01*
X147828000Y-88261250D01*
X147828000Y-87424500D01*
X148082000Y-87424500D01*
X148082000Y-88261250D01*
X148240750Y-88420000D01*
X148655000Y-88423072D01*
X148779482Y-88410812D01*
X148899180Y-88374502D01*
X149009494Y-88315537D01*
X149106185Y-88236185D01*
X149185537Y-88139494D01*
X149244502Y-88029180D01*
X149280812Y-87909482D01*
X149293072Y-87785000D01*
X149290000Y-87583250D01*
X149131250Y-87424500D01*
X148082000Y-87424500D01*
X147828000Y-87424500D01*
X147808000Y-87424500D01*
X147808000Y-87210000D01*
X152181928Y-87210000D01*
X152194188Y-87334482D01*
X152230498Y-87454180D01*
X152289463Y-87564494D01*
X152368815Y-87661185D01*
X152465506Y-87740537D01*
X152575820Y-87799502D01*
X152695518Y-87835812D01*
X152820000Y-87848072D01*
X153384250Y-87845000D01*
X153543000Y-87686250D01*
X153543000Y-86487000D01*
X152343750Y-86487000D01*
X152185000Y-86645750D01*
X152181928Y-87210000D01*
X147808000Y-87210000D01*
X147808000Y-87170500D01*
X147828000Y-87170500D01*
X147828000Y-87150500D01*
X148082000Y-87150500D01*
X148082000Y-87170500D01*
X149131250Y-87170500D01*
X149290000Y-87011750D01*
X149293072Y-86810000D01*
X149286054Y-86738747D01*
X150514801Y-85510000D01*
X152181928Y-85510000D01*
X152185000Y-86074250D01*
X152343750Y-86233000D01*
X153543000Y-86233000D01*
X153543000Y-85033750D01*
X153384250Y-84875000D01*
X152820000Y-84871928D01*
X152695518Y-84884188D01*
X152575820Y-84920498D01*
X152465506Y-84979463D01*
X152368815Y-85058815D01*
X152289463Y-85155506D01*
X152230498Y-85265820D01*
X152194188Y-85385518D01*
X152181928Y-85510000D01*
X150514801Y-85510000D01*
X152079802Y-83945000D01*
X155260199Y-83945000D01*
X156190198Y-84875000D01*
X156063740Y-84875000D01*
X155776842Y-84932068D01*
X155506589Y-85044010D01*
X155263368Y-85206525D01*
X155131513Y-85338380D01*
X155109502Y-85265820D01*
X155050537Y-85155506D01*
X154971185Y-85058815D01*
X154874494Y-84979463D01*
X154764180Y-84920498D01*
X154644482Y-84884188D01*
X154520000Y-84871928D01*
X153955750Y-84875000D01*
X153797000Y-85033750D01*
X153797000Y-86233000D01*
X153817000Y-86233000D01*
X153817000Y-86487000D01*
X153797000Y-86487000D01*
X153797000Y-87686250D01*
X153955750Y-87845000D01*
X154520000Y-87848072D01*
X154644482Y-87835812D01*
X154764180Y-87799502D01*
X154874494Y-87740537D01*
X154971185Y-87661185D01*
X155050537Y-87564494D01*
X155109502Y-87454180D01*
X155131513Y-87381620D01*
X155263368Y-87513475D01*
X155506589Y-87675990D01*
X155776842Y-87787932D01*
X156063740Y-87845000D01*
X156356260Y-87845000D01*
X156643158Y-87787932D01*
X156913411Y-87675990D01*
X157016984Y-87606785D01*
X157551200Y-88141002D01*
X157574999Y-88170001D01*
X157603997Y-88193799D01*
X157690724Y-88264974D01*
X157822753Y-88335546D01*
X157966014Y-88379003D01*
X158115000Y-88393677D01*
X158152333Y-88390000D01*
X159347678Y-88390000D01*
X159385000Y-88393676D01*
X159422322Y-88390000D01*
X159422333Y-88390000D01*
X159533986Y-88379003D01*
X159677247Y-88335546D01*
X159809276Y-88264974D01*
X159925001Y-88170001D01*
X159948803Y-88140998D01*
X160483017Y-87606786D01*
X160586589Y-87675990D01*
X160856842Y-87787932D01*
X161143740Y-87845000D01*
X161436260Y-87845000D01*
X161723158Y-87787932D01*
X161993411Y-87675990D01*
X162236632Y-87513475D01*
X162443475Y-87306632D01*
X162560000Y-87132240D01*
X162676525Y-87306632D01*
X162883368Y-87513475D01*
X163126589Y-87675990D01*
X163396842Y-87787932D01*
X163683740Y-87845000D01*
X163976260Y-87845000D01*
X164263158Y-87787932D01*
X164533411Y-87675990D01*
X164776632Y-87513475D01*
X164983475Y-87306632D01*
X165100000Y-87132240D01*
X165216525Y-87306632D01*
X165423368Y-87513475D01*
X165666589Y-87675990D01*
X165936842Y-87787932D01*
X166223740Y-87845000D01*
X166516260Y-87845000D01*
X166803158Y-87787932D01*
X167073411Y-87675990D01*
X167316632Y-87513475D01*
X167523475Y-87306632D01*
X167685990Y-87063411D01*
X167797932Y-86793158D01*
X167855000Y-86506260D01*
X167855000Y-86213740D01*
X167797932Y-85926842D01*
X167685990Y-85656589D01*
X167523475Y-85413368D01*
X167316632Y-85206525D01*
X167130000Y-85081822D01*
X167130000Y-83866452D01*
X167146128Y-83813285D01*
X167163072Y-83641250D01*
X167163072Y-82728750D01*
X167146128Y-82556715D01*
X167095947Y-82391291D01*
X167014458Y-82238836D01*
X166904792Y-82105208D01*
X166771164Y-81995542D01*
X166618709Y-81914053D01*
X166453285Y-81863872D01*
X166281250Y-81846928D01*
X165793750Y-81846928D01*
X165621715Y-81863872D01*
X165456291Y-81914053D01*
X165303836Y-81995542D01*
X165170208Y-82105208D01*
X165100000Y-82190756D01*
X165029792Y-82105208D01*
X164896164Y-81995542D01*
X164743709Y-81914053D01*
X164578285Y-81863872D01*
X164406250Y-81846928D01*
X163918750Y-81846928D01*
X163746715Y-81863872D01*
X163581291Y-81914053D01*
X163428836Y-81995542D01*
X163295208Y-82105208D01*
X163185542Y-82238836D01*
X163104053Y-82391291D01*
X163093827Y-82425000D01*
X162319362Y-82425000D01*
X162276498Y-82344808D01*
X162222042Y-82263309D01*
X162142690Y-82166618D01*
X162073382Y-82097310D01*
X161976691Y-82017958D01*
X161895192Y-81963502D01*
X161784875Y-81904536D01*
X161694319Y-81867027D01*
X161574623Y-81830718D01*
X161478490Y-81811596D01*
X161354009Y-81799336D01*
X161329450Y-81799336D01*
X161305000Y-81796928D01*
X160805000Y-81796928D01*
X160680518Y-81809188D01*
X160655000Y-81816929D01*
X160629482Y-81809188D01*
X160505000Y-81796928D01*
X160005000Y-81796928D01*
X159980550Y-81799336D01*
X159955991Y-81799336D01*
X159831510Y-81811596D01*
X159735377Y-81830718D01*
X159615681Y-81867027D01*
X159525125Y-81904536D01*
X159414808Y-81963502D01*
X159333309Y-82017958D01*
X159236618Y-82097310D01*
X159167310Y-82166618D01*
X159087958Y-82263309D01*
X159033502Y-82344808D01*
X158974536Y-82455125D01*
X158937027Y-82545681D01*
X158900718Y-82665377D01*
X158881596Y-82761510D01*
X158869336Y-82885991D01*
X158869336Y-82910550D01*
X158866928Y-82935000D01*
X158866928Y-83435000D01*
X158869336Y-83459450D01*
X158869336Y-83484009D01*
X158881596Y-83608490D01*
X158900718Y-83704623D01*
X158937027Y-83824319D01*
X158974536Y-83914875D01*
X159033502Y-84025192D01*
X159087958Y-84106691D01*
X159167310Y-84203382D01*
X159236618Y-84272690D01*
X159245001Y-84279569D01*
X159245001Y-84439488D01*
X156810900Y-82005387D01*
X156785528Y-81974472D01*
X156662189Y-81873251D01*
X156521473Y-81798037D01*
X156368788Y-81751720D01*
X156249791Y-81740000D01*
X156249788Y-81740000D01*
X156210000Y-81736081D01*
X156170212Y-81740000D01*
X154275513Y-81740000D01*
X153933584Y-81398072D01*
X154335000Y-81398072D01*
X154359450Y-81395664D01*
X154384009Y-81395664D01*
X154508490Y-81383404D01*
X154604623Y-81364282D01*
X154724319Y-81327973D01*
X154814875Y-81290464D01*
X154925192Y-81231498D01*
X155006691Y-81177042D01*
X155103382Y-81097690D01*
X155172690Y-81028382D01*
X155252042Y-80931691D01*
X155306498Y-80850192D01*
X155365464Y-80739875D01*
X155402973Y-80649319D01*
X155439282Y-80529623D01*
X155458404Y-80433490D01*
X155470664Y-80309009D01*
X155470664Y-80284450D01*
X155473072Y-80260000D01*
X155473072Y-79760000D01*
X155470664Y-79735550D01*
X155470664Y-79710991D01*
X155458404Y-79586510D01*
X155439282Y-79490377D01*
X155402973Y-79370681D01*
X155365464Y-79280125D01*
X155306498Y-79169808D01*
X155252042Y-79088309D01*
X155172690Y-78991618D01*
X155103382Y-78922310D01*
X155006691Y-78842958D01*
X154925192Y-78788502D01*
X154814875Y-78729536D01*
X154724319Y-78692027D01*
X154604623Y-78655718D01*
X154508490Y-78636596D01*
X154384009Y-78624336D01*
X154359450Y-78624336D01*
X154335000Y-78621928D01*
X153785000Y-78621928D01*
X153660518Y-78634188D01*
X153660000Y-78634345D01*
X153659482Y-78634188D01*
X153535000Y-78621928D01*
X152545000Y-78621928D01*
X152545000Y-75683072D01*
X153535000Y-75683072D01*
X153659482Y-75670812D01*
X153779180Y-75634502D01*
X153889494Y-75575537D01*
X153986185Y-75496185D01*
X154065537Y-75399494D01*
X154124502Y-75289180D01*
X154154873Y-75189060D01*
X154172875Y-75183762D01*
X154174847Y-75182731D01*
X154176980Y-75182087D01*
X154229781Y-75154012D01*
X154282703Y-75126345D01*
X154284437Y-75124951D01*
X154286404Y-75123905D01*
X154332737Y-75086117D01*
X154379286Y-75048690D01*
X154380717Y-75046985D01*
X154382443Y-75045577D01*
X154420539Y-74999527D01*
X154458947Y-74953754D01*
X154460020Y-74951802D01*
X154461439Y-74950087D01*
X154489851Y-74897539D01*
X154518651Y-74845153D01*
X154519325Y-74843029D01*
X154520383Y-74841072D01*
X154538034Y-74784050D01*
X154556124Y-74727024D01*
X154556373Y-74724808D01*
X154557030Y-74722684D01*
X154563276Y-74663257D01*
X154569938Y-74603866D01*
X154569968Y-74599596D01*
X154569985Y-74599433D01*
X154569970Y-74599270D01*
X154570000Y-74595000D01*
X154570000Y-73995000D01*
X154564166Y-73935495D01*
X154558752Y-73876013D01*
X154558125Y-73873882D01*
X154557907Y-73871661D01*
X154540612Y-73814379D01*
X154523762Y-73757125D01*
X154522731Y-73755153D01*
X154522087Y-73753020D01*
X154494012Y-73700219D01*
X154471940Y-73658000D01*
X154498199Y-73658000D01*
X155069000Y-74228802D01*
X155069001Y-78194668D01*
X155065324Y-78232000D01*
X155069001Y-78269333D01*
X155079998Y-78380986D01*
X155087847Y-78406862D01*
X155123454Y-78524246D01*
X155194026Y-78656276D01*
X155262681Y-78739931D01*
X155289000Y-78772001D01*
X155317998Y-78795799D01*
X156789205Y-80267008D01*
X156812999Y-80296001D01*
X156841992Y-80319795D01*
X156841996Y-80319799D01*
X156897957Y-80365724D01*
X156928724Y-80390974D01*
X157060753Y-80461546D01*
X157204014Y-80505003D01*
X157315667Y-80516000D01*
X157315676Y-80516000D01*
X157352999Y-80519676D01*
X157390322Y-80516000D01*
X168491678Y-80516000D01*
X168529000Y-80519676D01*
X168566322Y-80516000D01*
X168566333Y-80516000D01*
X168677986Y-80505003D01*
X168821247Y-80461546D01*
X168953276Y-80390974D01*
X169069001Y-80296001D01*
X169092804Y-80266997D01*
X170691003Y-78668799D01*
X170720001Y-78645001D01*
X170814974Y-78529276D01*
X170885546Y-78397247D01*
X170929003Y-78253986D01*
X170929373Y-78250233D01*
X171589803Y-77589803D01*
X171605597Y-77570557D01*
X171617333Y-77548601D01*
X171624560Y-77524776D01*
X171627000Y-77500000D01*
X171627000Y-77350000D01*
X173011928Y-77350000D01*
X173024188Y-77474482D01*
X173060498Y-77594180D01*
X173119463Y-77704494D01*
X173198815Y-77801185D01*
X173295506Y-77880537D01*
X173405820Y-77939502D01*
X173525518Y-77975812D01*
X173650000Y-77988072D01*
X174214250Y-77985000D01*
X174373000Y-77826250D01*
X174373000Y-76627000D01*
X174627000Y-76627000D01*
X174627000Y-77826250D01*
X174785750Y-77985000D01*
X175350000Y-77988072D01*
X175474482Y-77975812D01*
X175594180Y-77939502D01*
X175704494Y-77880537D01*
X175801185Y-77801185D01*
X175880537Y-77704494D01*
X175939502Y-77594180D01*
X175975812Y-77474482D01*
X175988072Y-77350000D01*
X175985000Y-76785750D01*
X175826250Y-76627000D01*
X174627000Y-76627000D01*
X174373000Y-76627000D01*
X173173750Y-76627000D01*
X173015000Y-76785750D01*
X173011928Y-77350000D01*
X171627000Y-77350000D01*
X171627000Y-74548633D01*
X171758387Y-74478405D01*
X171892962Y-74367962D01*
X172003405Y-74233387D01*
X172007888Y-74225000D01*
X172139488Y-74225000D01*
X172419105Y-74504617D01*
X172444472Y-74535528D01*
X172567811Y-74636749D01*
X172708527Y-74711963D01*
X172861212Y-74758280D01*
X172980209Y-74770000D01*
X172980211Y-74770000D01*
X173019999Y-74773919D01*
X173059787Y-74770000D01*
X173255230Y-74770000D01*
X173346525Y-74906632D01*
X173478380Y-75038487D01*
X173405820Y-75060498D01*
X173295506Y-75119463D01*
X173198815Y-75198815D01*
X173119463Y-75295506D01*
X173060498Y-75405820D01*
X173024188Y-75525518D01*
X173011928Y-75650000D01*
X173015000Y-76214250D01*
X173173750Y-76373000D01*
X174373000Y-76373000D01*
X174373000Y-76353000D01*
X174627000Y-76353000D01*
X174627000Y-76373000D01*
X175826250Y-76373000D01*
X175985000Y-76214250D01*
X175988072Y-75650000D01*
X175975812Y-75525518D01*
X175939502Y-75405820D01*
X175880537Y-75295506D01*
X175801185Y-75198815D01*
X175704494Y-75119463D01*
X175594180Y-75060498D01*
X175521620Y-75038487D01*
X175653475Y-74906632D01*
X175815990Y-74663411D01*
X175927932Y-74393158D01*
X175985000Y-74106260D01*
X175985000Y-73813740D01*
X175927932Y-73526842D01*
X175815990Y-73256589D01*
X175653475Y-73013368D01*
X175446632Y-72806525D01*
X175272240Y-72690000D01*
X175446632Y-72573475D01*
X175653475Y-72366632D01*
X175815990Y-72123411D01*
X175927932Y-71853158D01*
X175985000Y-71566260D01*
X175985000Y-71273740D01*
X175927932Y-70986842D01*
X175815990Y-70716589D01*
X175653475Y-70473368D01*
X175446632Y-70266525D01*
X175272240Y-70150000D01*
X175446632Y-70033475D01*
X175653475Y-69826632D01*
X175815990Y-69583411D01*
X175927932Y-69313158D01*
X175985000Y-69026260D01*
X175985000Y-68733740D01*
X175927932Y-68446842D01*
X175815990Y-68176589D01*
X175653475Y-67933368D01*
X175446632Y-67726525D01*
X175203411Y-67564010D01*
X174933158Y-67452068D01*
X174646260Y-67395000D01*
X174353740Y-67395000D01*
X174133592Y-67438790D01*
X168943072Y-62248271D01*
X168943072Y-61671000D01*
X168930812Y-61546518D01*
X168894502Y-61426820D01*
X168835537Y-61316506D01*
X168756185Y-61219815D01*
X168659494Y-61140463D01*
X168565000Y-61089954D01*
X168565000Y-59052046D01*
X168659494Y-59001537D01*
X168756185Y-58922185D01*
X168835537Y-58825494D01*
X168894502Y-58715180D01*
X168930812Y-58595482D01*
X168943072Y-58471000D01*
X168943072Y-57571000D01*
X168930812Y-57446518D01*
X168894502Y-57326820D01*
X168835537Y-57216506D01*
X168756185Y-57119815D01*
X168659494Y-57040463D01*
X168549180Y-56981498D01*
X168429482Y-56945188D01*
X168305000Y-56932928D01*
X167305000Y-56932928D01*
X167180518Y-56945188D01*
X167060820Y-56981498D01*
X167005000Y-57011335D01*
X166949180Y-56981498D01*
X166829482Y-56945188D01*
X166705000Y-56932928D01*
X166490750Y-56936000D01*
X166332000Y-57094750D01*
X166332000Y-57894000D01*
X166352000Y-57894000D01*
X166352000Y-58148000D01*
X166332000Y-58148000D01*
X166332000Y-58947250D01*
X166490750Y-59106000D01*
X166705000Y-59109072D01*
X166829482Y-59096812D01*
X166949180Y-59060502D01*
X167005000Y-59030665D01*
X167045000Y-59052046D01*
X167045001Y-61089954D01*
X167005000Y-61111335D01*
X166949180Y-61081498D01*
X166829482Y-61045188D01*
X166705000Y-61032928D01*
X166490750Y-61036000D01*
X166332000Y-61194750D01*
X166332000Y-61994000D01*
X166352000Y-61994000D01*
X166352000Y-62248000D01*
X166332000Y-62248000D01*
X166332000Y-62268000D01*
X166078000Y-62268000D01*
X166078000Y-62248000D01*
X165228750Y-62248000D01*
X165070000Y-62406750D01*
X165066928Y-62571000D01*
X165079188Y-62695482D01*
X165115498Y-62815180D01*
X165116471Y-62817000D01*
X163813529Y-62817000D01*
X163814502Y-62815180D01*
X163850812Y-62695482D01*
X163863072Y-62571000D01*
X163860000Y-62406750D01*
X163701250Y-62248000D01*
X162852000Y-62248000D01*
X162852000Y-62268000D01*
X162598000Y-62268000D01*
X162598000Y-62248000D01*
X162578000Y-62248000D01*
X162578000Y-61994000D01*
X162598000Y-61994000D01*
X162598000Y-61194750D01*
X162852000Y-61194750D01*
X162852000Y-61994000D01*
X163701250Y-61994000D01*
X163860000Y-61835250D01*
X163863072Y-61671000D01*
X165066928Y-61671000D01*
X165070000Y-61835250D01*
X165228750Y-61994000D01*
X166078000Y-61994000D01*
X166078000Y-61194750D01*
X165919250Y-61036000D01*
X165705000Y-61032928D01*
X165580518Y-61045188D01*
X165460820Y-61081498D01*
X165350506Y-61140463D01*
X165253815Y-61219815D01*
X165174463Y-61316506D01*
X165115498Y-61426820D01*
X165079188Y-61546518D01*
X165066928Y-61671000D01*
X163863072Y-61671000D01*
X163850812Y-61546518D01*
X163814502Y-61426820D01*
X163755537Y-61316506D01*
X163676185Y-61219815D01*
X163579494Y-61140463D01*
X163469180Y-61081498D01*
X163349482Y-61045188D01*
X163225000Y-61032928D01*
X163010750Y-61036000D01*
X162852000Y-61194750D01*
X162598000Y-61194750D01*
X162439250Y-61036000D01*
X162225000Y-61032928D01*
X162160000Y-61039330D01*
X162160000Y-61023061D01*
X162120226Y-60823102D01*
X162042205Y-60634744D01*
X161928937Y-60465226D01*
X161885000Y-60421289D01*
X161885000Y-59052046D01*
X161925000Y-59030665D01*
X161980820Y-59060502D01*
X162100518Y-59096812D01*
X162225000Y-59109072D01*
X162439250Y-59106000D01*
X162598000Y-58947250D01*
X162598000Y-58148000D01*
X162852000Y-58148000D01*
X162852000Y-58947250D01*
X163010750Y-59106000D01*
X163225000Y-59109072D01*
X163349482Y-59096812D01*
X163469180Y-59060502D01*
X163579494Y-59001537D01*
X163676185Y-58922185D01*
X163755537Y-58825494D01*
X163814502Y-58715180D01*
X163850812Y-58595482D01*
X163863072Y-58471000D01*
X165066928Y-58471000D01*
X165079188Y-58595482D01*
X165115498Y-58715180D01*
X165174463Y-58825494D01*
X165253815Y-58922185D01*
X165350506Y-59001537D01*
X165460820Y-59060502D01*
X165580518Y-59096812D01*
X165705000Y-59109072D01*
X165919250Y-59106000D01*
X166078000Y-58947250D01*
X166078000Y-58148000D01*
X165228750Y-58148000D01*
X165070000Y-58306750D01*
X165066928Y-58471000D01*
X163863072Y-58471000D01*
X163860000Y-58306750D01*
X163701250Y-58148000D01*
X162852000Y-58148000D01*
X162598000Y-58148000D01*
X162578000Y-58148000D01*
X162578000Y-57894000D01*
X162598000Y-57894000D01*
X162598000Y-57094750D01*
X162852000Y-57094750D01*
X162852000Y-57894000D01*
X163701250Y-57894000D01*
X163860000Y-57735250D01*
X163863072Y-57571000D01*
X165066928Y-57571000D01*
X165070000Y-57735250D01*
X165228750Y-57894000D01*
X166078000Y-57894000D01*
X166078000Y-57094750D01*
X165919250Y-56936000D01*
X165705000Y-56932928D01*
X165580518Y-56945188D01*
X165460820Y-56981498D01*
X165350506Y-57040463D01*
X165253815Y-57119815D01*
X165174463Y-57216506D01*
X165115498Y-57326820D01*
X165079188Y-57446518D01*
X165066928Y-57571000D01*
X163863072Y-57571000D01*
X163850812Y-57446518D01*
X163814502Y-57326820D01*
X163755537Y-57216506D01*
X163676185Y-57119815D01*
X163579494Y-57040463D01*
X163469180Y-56981498D01*
X163349482Y-56945188D01*
X163225000Y-56932928D01*
X163010750Y-56936000D01*
X162852000Y-57094750D01*
X162598000Y-57094750D01*
X162439250Y-56936000D01*
X162225000Y-56932928D01*
X162100518Y-56945188D01*
X161980820Y-56981498D01*
X161925000Y-57011335D01*
X161869180Y-56981498D01*
X161749482Y-56945188D01*
X161625000Y-56932928D01*
X160625000Y-56932928D01*
X160500518Y-56945188D01*
X160380820Y-56981498D01*
X160270506Y-57040463D01*
X160173815Y-57119815D01*
X160094463Y-57216506D01*
X160035498Y-57326820D01*
X159999188Y-57446518D01*
X159986928Y-57571000D01*
X159986928Y-58471000D01*
X159999188Y-58595482D01*
X160035498Y-58715180D01*
X160094463Y-58825494D01*
X160173815Y-58922185D01*
X160270506Y-59001537D01*
X160365001Y-59052046D01*
X160365000Y-60421289D01*
X160321063Y-60465226D01*
X160207795Y-60634744D01*
X160129774Y-60823102D01*
X160090000Y-61023061D01*
X160090000Y-61226939D01*
X160105211Y-61303410D01*
X160094463Y-61316506D01*
X160035498Y-61426820D01*
X159999188Y-61546518D01*
X159986928Y-61671000D01*
X159986928Y-62571000D01*
X159999188Y-62695482D01*
X160035498Y-62815180D01*
X160036471Y-62817000D01*
X157688513Y-62817000D01*
X155627163Y-60755650D01*
X155632499Y-60756176D01*
X155669822Y-60752500D01*
X156312155Y-60752500D01*
X156400208Y-60859792D01*
X156533836Y-60969458D01*
X156686291Y-61050947D01*
X156851715Y-61101128D01*
X157023750Y-61118072D01*
X157936250Y-61118072D01*
X158108285Y-61101128D01*
X158273709Y-61050947D01*
X158426164Y-60969458D01*
X158559792Y-60859792D01*
X158669458Y-60726164D01*
X158750947Y-60573709D01*
X158801128Y-60408285D01*
X158818072Y-60236250D01*
X158818072Y-59748750D01*
X158801128Y-59576715D01*
X158750947Y-59411291D01*
X158669458Y-59258836D01*
X158559792Y-59125208D01*
X158553436Y-59119992D01*
X158631185Y-59056185D01*
X158710537Y-58959494D01*
X158769502Y-58849180D01*
X158805812Y-58729482D01*
X158818072Y-58605000D01*
X158815000Y-58403250D01*
X158656250Y-58244500D01*
X157607000Y-58244500D01*
X157607000Y-58264500D01*
X157353000Y-58264500D01*
X157353000Y-58244500D01*
X156303750Y-58244500D01*
X156145000Y-58403250D01*
X156141928Y-58605000D01*
X156154188Y-58729482D01*
X156190498Y-58849180D01*
X156249463Y-58959494D01*
X156328815Y-59056185D01*
X156406564Y-59119992D01*
X156400208Y-59125208D01*
X156312155Y-59232500D01*
X155947302Y-59232500D01*
X155008072Y-58293271D01*
X155008072Y-57704999D01*
X155000686Y-57630000D01*
X156141928Y-57630000D01*
X156145000Y-57831750D01*
X156303750Y-57990500D01*
X157353000Y-57990500D01*
X157353000Y-57153750D01*
X157607000Y-57153750D01*
X157607000Y-57990500D01*
X158656250Y-57990500D01*
X158815000Y-57831750D01*
X158818072Y-57630000D01*
X158805812Y-57505518D01*
X158769502Y-57385820D01*
X158710537Y-57275506D01*
X158631185Y-57178815D01*
X158534494Y-57099463D01*
X158424180Y-57040498D01*
X158304482Y-57004188D01*
X158180000Y-56991928D01*
X157765750Y-56995000D01*
X157607000Y-57153750D01*
X157353000Y-57153750D01*
X157194250Y-56995000D01*
X156780000Y-56991928D01*
X156655518Y-57004188D01*
X156535820Y-57040498D01*
X156425506Y-57099463D01*
X156328815Y-57178815D01*
X156249463Y-57275506D01*
X156190498Y-57385820D01*
X156154188Y-57505518D01*
X156141928Y-57630000D01*
X155000686Y-57630000D01*
X154991008Y-57531745D01*
X154940472Y-57365149D01*
X154858405Y-57211613D01*
X154747962Y-57077038D01*
X154613387Y-56966595D01*
X154459851Y-56884528D01*
X154293255Y-56833992D01*
X154120001Y-56816928D01*
X153219999Y-56816928D01*
X153046745Y-56833992D01*
X152880149Y-56884528D01*
X152726613Y-56966595D01*
X152592038Y-57077038D01*
X152481595Y-57211613D01*
X152399528Y-57365149D01*
X152348992Y-57531745D01*
X152331928Y-57704999D01*
X152331928Y-58355001D01*
X152348992Y-58528255D01*
X152399528Y-58694851D01*
X152481595Y-58848387D01*
X152592038Y-58982962D01*
X152679816Y-59055000D01*
X152592038Y-59127038D01*
X152481595Y-59261613D01*
X152477112Y-59270000D01*
X152158013Y-59270000D01*
X151198072Y-58310060D01*
X151198072Y-57873750D01*
X151181128Y-57701715D01*
X151130947Y-57536291D01*
X151049458Y-57383836D01*
X150939792Y-57250208D01*
X150806164Y-57140542D01*
X150653709Y-57059053D01*
X150488285Y-57008872D01*
X150316250Y-56991928D01*
X149403750Y-56991928D01*
X149231715Y-57008872D01*
X149066291Y-57059053D01*
X148913836Y-57140542D01*
X148780208Y-57250208D01*
X148733190Y-57307500D01*
X147861013Y-57307500D01*
X146904899Y-56351387D01*
X146879528Y-56320472D01*
X146756189Y-56219251D01*
X146645338Y-56160000D01*
X172968591Y-56160000D01*
X173725555Y-56232221D01*
X174424940Y-56437398D01*
X175072904Y-56771120D01*
X175646074Y-57221353D01*
X176123762Y-57771839D01*
X176488742Y-58402730D01*
X176727836Y-59091248D01*
X176835790Y-59835790D01*
X176840001Y-60008104D01*
X176840000Y-84968591D01*
X176767779Y-85725555D01*
X176562602Y-86424940D01*
X176228878Y-87072906D01*
X175778650Y-87646072D01*
X175228159Y-88123763D01*
X174597270Y-88488741D01*
X173908752Y-88727836D01*
X173164210Y-88835790D01*
X172991937Y-88840000D01*
X130031409Y-88840000D01*
X129274445Y-88767779D01*
X128575060Y-88562602D01*
X127927094Y-88228878D01*
X127353928Y-87778650D01*
X126876237Y-87228159D01*
X126511259Y-86597270D01*
X126272164Y-85908752D01*
X126164210Y-85164210D01*
X126160000Y-84991937D01*
X126160000Y-82970000D01*
X135671928Y-82970000D01*
X135675000Y-83534250D01*
X135833750Y-83693000D01*
X137033000Y-83693000D01*
X137033000Y-82493750D01*
X136874250Y-82335000D01*
X136310000Y-82331928D01*
X136185518Y-82344188D01*
X136065820Y-82380498D01*
X135955506Y-82439463D01*
X135858815Y-82518815D01*
X135779463Y-82615506D01*
X135720498Y-82725820D01*
X135684188Y-82845518D01*
X135671928Y-82970000D01*
X126160000Y-82970000D01*
X126160000Y-78950000D01*
X130611928Y-78950000D01*
X130624188Y-79074482D01*
X130660498Y-79194180D01*
X130719463Y-79304494D01*
X130798815Y-79401185D01*
X130895506Y-79480537D01*
X131005820Y-79539502D01*
X131125518Y-79575812D01*
X131250000Y-79588072D01*
X132714250Y-79585000D01*
X132873000Y-79426250D01*
X132873000Y-77327000D01*
X133127000Y-77327000D01*
X133127000Y-79426250D01*
X133285750Y-79585000D01*
X134750000Y-79588072D01*
X134874482Y-79575812D01*
X134994180Y-79539502D01*
X135104494Y-79480537D01*
X135201185Y-79401185D01*
X135280537Y-79304494D01*
X135339502Y-79194180D01*
X135375812Y-79074482D01*
X135388072Y-78950000D01*
X135385000Y-77485750D01*
X135226250Y-77327000D01*
X133127000Y-77327000D01*
X132873000Y-77327000D01*
X130773750Y-77327000D01*
X130615000Y-77485750D01*
X130611928Y-78950000D01*
X126160000Y-78950000D01*
X126160000Y-77279872D01*
X137265000Y-77279872D01*
X137265000Y-77720128D01*
X137350890Y-78151925D01*
X137519369Y-78558669D01*
X137763962Y-78924729D01*
X138075271Y-79236038D01*
X138441331Y-79480631D01*
X138848075Y-79649110D01*
X139279872Y-79735000D01*
X139720128Y-79735000D01*
X140151925Y-79649110D01*
X140558669Y-79480631D01*
X140924729Y-79236038D01*
X141236038Y-78924729D01*
X141480631Y-78558669D01*
X141649110Y-78151925D01*
X141735000Y-77720128D01*
X141735000Y-77279872D01*
X141649110Y-76848075D01*
X141480631Y-76441331D01*
X141236038Y-76075271D01*
X140924729Y-75763962D01*
X140558669Y-75519369D01*
X140151925Y-75350890D01*
X139720128Y-75265000D01*
X139279872Y-75265000D01*
X138848075Y-75350890D01*
X138441331Y-75519369D01*
X138075271Y-75763962D01*
X137763962Y-76075271D01*
X137519369Y-76441331D01*
X137350890Y-76848075D01*
X137265000Y-77279872D01*
X126160000Y-77279872D01*
X126160000Y-74250000D01*
X127861928Y-74250000D01*
X127874188Y-74374482D01*
X127910498Y-74494180D01*
X127969463Y-74604494D01*
X128048815Y-74701185D01*
X128145506Y-74780537D01*
X128255820Y-74839502D01*
X128375518Y-74875812D01*
X128500000Y-74888072D01*
X129714250Y-74885000D01*
X129873000Y-74726250D01*
X129873000Y-72627000D01*
X130127000Y-72627000D01*
X130127000Y-74726250D01*
X130285750Y-74885000D01*
X130956805Y-74886698D01*
X130895506Y-74919463D01*
X130798815Y-74998815D01*
X130719463Y-75095506D01*
X130660498Y-75205820D01*
X130624188Y-75325518D01*
X130611928Y-75450000D01*
X130615000Y-76914250D01*
X130773750Y-77073000D01*
X132873000Y-77073000D01*
X132873000Y-74973750D01*
X132714250Y-74815000D01*
X131793633Y-74813069D01*
X131854494Y-74780537D01*
X131951185Y-74701185D01*
X132030537Y-74604494D01*
X132089502Y-74494180D01*
X132125812Y-74374482D01*
X132138072Y-74250000D01*
X132135000Y-72785750D01*
X131976250Y-72627000D01*
X130127000Y-72627000D01*
X129873000Y-72627000D01*
X128023750Y-72627000D01*
X127865000Y-72785750D01*
X127861928Y-74250000D01*
X126160000Y-74250000D01*
X126160000Y-70750000D01*
X127861928Y-70750000D01*
X127865000Y-72214250D01*
X128023750Y-72373000D01*
X129873000Y-72373000D01*
X129873000Y-70273750D01*
X130127000Y-70273750D01*
X130127000Y-72373000D01*
X131976250Y-72373000D01*
X132135000Y-72214250D01*
X132138072Y-70750000D01*
X132125812Y-70625518D01*
X132089502Y-70505820D01*
X132030537Y-70395506D01*
X131951185Y-70298815D01*
X131854494Y-70219463D01*
X131744180Y-70160498D01*
X131624482Y-70124188D01*
X131500000Y-70111928D01*
X130285750Y-70115000D01*
X130127000Y-70273750D01*
X129873000Y-70273750D01*
X129714250Y-70115000D01*
X128500000Y-70111928D01*
X128375518Y-70124188D01*
X128255820Y-70160498D01*
X128145506Y-70219463D01*
X128048815Y-70298815D01*
X127969463Y-70395506D01*
X127910498Y-70505820D01*
X127874188Y-70625518D01*
X127861928Y-70750000D01*
X126160000Y-70750000D01*
X126160000Y-66255000D01*
X126781928Y-66255000D01*
X126794188Y-66379482D01*
X126830498Y-66499180D01*
X126889463Y-66609494D01*
X126968815Y-66706185D01*
X127065506Y-66785537D01*
X127175820Y-66844502D01*
X127295518Y-66880812D01*
X127420000Y-66893072D01*
X127984250Y-66890000D01*
X128143000Y-66731250D01*
X128143000Y-65532000D01*
X126943750Y-65532000D01*
X126785000Y-65690750D01*
X126781928Y-66255000D01*
X126160000Y-66255000D01*
X126160000Y-64555000D01*
X126781928Y-64555000D01*
X126785000Y-65119250D01*
X126943750Y-65278000D01*
X128143000Y-65278000D01*
X128143000Y-64078750D01*
X127984250Y-63920000D01*
X127420000Y-63916928D01*
X127295518Y-63929188D01*
X127175820Y-63965498D01*
X127065506Y-64024463D01*
X126968815Y-64103815D01*
X126889463Y-64200506D01*
X126830498Y-64310820D01*
X126794188Y-64430518D01*
X126781928Y-64555000D01*
X126160000Y-64555000D01*
X126160000Y-62700000D01*
X132786928Y-62700000D01*
X132790000Y-63214250D01*
X132948750Y-63373000D01*
X134598000Y-63373000D01*
X134598000Y-62223750D01*
X134439250Y-62065000D01*
X133425000Y-62061928D01*
X133300518Y-62074188D01*
X133180820Y-62110498D01*
X133070506Y-62169463D01*
X132973815Y-62248815D01*
X132894463Y-62345506D01*
X132835498Y-62455820D01*
X132799188Y-62575518D01*
X132786928Y-62700000D01*
X126160000Y-62700000D01*
X126160000Y-60031409D01*
X126232221Y-59274445D01*
X126437398Y-58575060D01*
X126771120Y-57927096D01*
X127004493Y-57630000D01*
X134551928Y-57630000D01*
X134555000Y-57831750D01*
X134713750Y-57990500D01*
X135763000Y-57990500D01*
X135763000Y-57153750D01*
X136017000Y-57153750D01*
X136017000Y-57990500D01*
X137066250Y-57990500D01*
X137225000Y-57831750D01*
X137228072Y-57630000D01*
X137215812Y-57505518D01*
X137179502Y-57385820D01*
X137120537Y-57275506D01*
X137041185Y-57178815D01*
X136944494Y-57099463D01*
X136834180Y-57040498D01*
X136714482Y-57004188D01*
X136590000Y-56991928D01*
X136175750Y-56995000D01*
X136017000Y-57153750D01*
X135763000Y-57153750D01*
X135604250Y-56995000D01*
X135190000Y-56991928D01*
X135065518Y-57004188D01*
X134945820Y-57040498D01*
X134835506Y-57099463D01*
X134738815Y-57178815D01*
X134659463Y-57275506D01*
X134600498Y-57385820D01*
X134564188Y-57505518D01*
X134551928Y-57630000D01*
X127004493Y-57630000D01*
X127221353Y-57353926D01*
X127771839Y-56876238D01*
X128402730Y-56511258D01*
X129091248Y-56272164D01*
X129835790Y-56164210D01*
X130008063Y-56160000D01*
X144311662Y-56160000D01*
X144200811Y-56219251D01*
G37*
X144200811Y-56219251D02*
X144077472Y-56320472D01*
X144052105Y-56351382D01*
X143616560Y-56786928D01*
X143505000Y-56786928D01*
X143380518Y-56799188D01*
X143260820Y-56835498D01*
X143150506Y-56894463D01*
X143053815Y-56973815D01*
X142974463Y-57070506D01*
X142915498Y-57180820D01*
X142879188Y-57300518D01*
X142866928Y-57425000D01*
X142866928Y-58485000D01*
X142879188Y-58609482D01*
X142915498Y-58729180D01*
X142953887Y-58801000D01*
X140913734Y-58801000D01*
X140970472Y-58694851D01*
X141021008Y-58528255D01*
X141038072Y-58355001D01*
X141038072Y-57704999D01*
X141021008Y-57531745D01*
X140970472Y-57365149D01*
X140888405Y-57211613D01*
X140777962Y-57077038D01*
X140643387Y-56966595D01*
X140489851Y-56884528D01*
X140323255Y-56833992D01*
X140150001Y-56816928D01*
X139249999Y-56816928D01*
X139076745Y-56833992D01*
X138910149Y-56884528D01*
X138756613Y-56966595D01*
X138622038Y-57077038D01*
X138511595Y-57211613D01*
X138429528Y-57365149D01*
X138378992Y-57531745D01*
X138361928Y-57704999D01*
X138361928Y-58293270D01*
X137422699Y-59232500D01*
X137057845Y-59232500D01*
X136969792Y-59125208D01*
X136963436Y-59119992D01*
X137041185Y-59056185D01*
X137120537Y-58959494D01*
X137179502Y-58849180D01*
X137215812Y-58729482D01*
X137228072Y-58605000D01*
X137225000Y-58403250D01*
X137066250Y-58244500D01*
X136017000Y-58244500D01*
X136017000Y-58264500D01*
X135763000Y-58264500D01*
X135763000Y-58244500D01*
X134713750Y-58244500D01*
X134555000Y-58403250D01*
X134551928Y-58605000D01*
X134564188Y-58729482D01*
X134600498Y-58849180D01*
X134659463Y-58959494D01*
X134738815Y-59056185D01*
X134816564Y-59119992D01*
X134810208Y-59125208D01*
X134700542Y-59258836D01*
X134619053Y-59411291D01*
X134568872Y-59576715D01*
X134551928Y-59748750D01*
X134551928Y-60236250D01*
X134568872Y-60408285D01*
X134619053Y-60573709D01*
X134700542Y-60726164D01*
X134810208Y-60859792D01*
X134943836Y-60969458D01*
X135096291Y-61050947D01*
X135261715Y-61101128D01*
X135433750Y-61118072D01*
X136346250Y-61118072D01*
X136518285Y-61101128D01*
X136525000Y-61099091D01*
X136525000Y-62308296D01*
X136476185Y-62248815D01*
X136379494Y-62169463D01*
X136269180Y-62110498D01*
X136149482Y-62074188D01*
X136025000Y-62061928D01*
X135010750Y-62065000D01*
X134852000Y-62223750D01*
X134852000Y-63373000D01*
X134872000Y-63373000D01*
X134872000Y-63627000D01*
X134852000Y-63627000D01*
X134852000Y-64776250D01*
X135010750Y-64935000D01*
X136025000Y-64938072D01*
X136149482Y-64925812D01*
X136269180Y-64889502D01*
X136379494Y-64830537D01*
X136476185Y-64751185D01*
X136525000Y-64691704D01*
X136525000Y-64770000D01*
X136537201Y-64893882D01*
X136573336Y-65013004D01*
X136632017Y-65122787D01*
X136710987Y-65219013D01*
X136807213Y-65297983D01*
X136916996Y-65356664D01*
X137036118Y-65392799D01*
X137160000Y-65405000D01*
X138717442Y-65405000D01*
X138441331Y-65519369D01*
X138075271Y-65763962D01*
X137763962Y-66075271D01*
X137519369Y-66441331D01*
X137350890Y-66848075D01*
X137265000Y-67279872D01*
X137265000Y-67720128D01*
X137350890Y-68151925D01*
X137519369Y-68558669D01*
X137763962Y-68924729D01*
X138075271Y-69236038D01*
X138441331Y-69480631D01*
X138848075Y-69649110D01*
X139279872Y-69735000D01*
X139720128Y-69735000D01*
X140151925Y-69649110D01*
X140558669Y-69480631D01*
X140924729Y-69236038D01*
X141236038Y-68924729D01*
X141480631Y-68558669D01*
X141649110Y-68151925D01*
X141735000Y-67720128D01*
X141735000Y-67279872D01*
X141649110Y-66848075D01*
X141480631Y-66441331D01*
X141236038Y-66075271D01*
X140924729Y-65763962D01*
X140558669Y-65519369D01*
X140282558Y-65405000D01*
X142707501Y-65405000D01*
X142707500Y-67651368D01*
X140579941Y-69778928D01*
X140497000Y-69778928D01*
X140372518Y-69791188D01*
X140252820Y-69827498D01*
X140142506Y-69886463D01*
X140045815Y-69965815D01*
X139966463Y-70062506D01*
X139907498Y-70172820D01*
X139871188Y-70292518D01*
X139858928Y-70417000D01*
X139858928Y-71317000D01*
X139871188Y-71441482D01*
X139873859Y-71450286D01*
X139866447Y-71446324D01*
X139652499Y-71381423D01*
X139485752Y-71365000D01*
X139485751Y-71365000D01*
X139430000Y-71359509D01*
X139374249Y-71365000D01*
X138388072Y-71365000D01*
X138388072Y-70750000D01*
X138375812Y-70625518D01*
X138339502Y-70505820D01*
X138280537Y-70395506D01*
X138201185Y-70298815D01*
X138104494Y-70219463D01*
X137994180Y-70160498D01*
X137874482Y-70124188D01*
X137750000Y-70111928D01*
X135217060Y-70111928D01*
X131945000Y-66839869D01*
X131945000Y-66370107D01*
X131963475Y-66351632D01*
X132125990Y-66108411D01*
X132237932Y-65838158D01*
X132295000Y-65551260D01*
X132295000Y-65258740D01*
X132237932Y-64971842D01*
X132125990Y-64701589D01*
X131963475Y-64458368D01*
X131805107Y-64300000D01*
X132786928Y-64300000D01*
X132799188Y-64424482D01*
X132835498Y-64544180D01*
X132894463Y-64654494D01*
X132973815Y-64751185D01*
X133070506Y-64830537D01*
X133180820Y-64889502D01*
X133300518Y-64925812D01*
X133425000Y-64938072D01*
X134439250Y-64935000D01*
X134598000Y-64776250D01*
X134598000Y-63627000D01*
X132948750Y-63627000D01*
X132790000Y-63785750D01*
X132786928Y-64300000D01*
X131805107Y-64300000D01*
X131756632Y-64251525D01*
X131513411Y-64089010D01*
X131243158Y-63977068D01*
X130956260Y-63920000D01*
X130663740Y-63920000D01*
X130376842Y-63977068D01*
X130106589Y-64089010D01*
X129863368Y-64251525D01*
X129731513Y-64383380D01*
X129709502Y-64310820D01*
X129650537Y-64200506D01*
X129571185Y-64103815D01*
X129474494Y-64024463D01*
X129364180Y-63965498D01*
X129244482Y-63929188D01*
X129120000Y-63916928D01*
X128555750Y-63920000D01*
X128397000Y-64078750D01*
X128397000Y-65278000D01*
X128417000Y-65278000D01*
X128417000Y-65532000D01*
X128397000Y-65532000D01*
X128397000Y-66731250D01*
X128555750Y-66890000D01*
X129120000Y-66893072D01*
X129244482Y-66880812D01*
X129364180Y-66844502D01*
X129474494Y-66785537D01*
X129571185Y-66706185D01*
X129650537Y-66609494D01*
X129675001Y-66563727D01*
X129675001Y-67254239D01*
X129669509Y-67310000D01*
X129691423Y-67532498D01*
X129756324Y-67746446D01*
X129789073Y-67807714D01*
X129861717Y-67943623D01*
X130003552Y-68116449D01*
X130046860Y-68151991D01*
X133611928Y-71717060D01*
X133611928Y-74250000D01*
X133624188Y-74374482D01*
X133660498Y-74494180D01*
X133719463Y-74604494D01*
X133798815Y-74701185D01*
X133895506Y-74780537D01*
X133957345Y-74813591D01*
X133285750Y-74815000D01*
X133127000Y-74973750D01*
X133127000Y-77073000D01*
X135226250Y-77073000D01*
X135385000Y-76914250D01*
X135388072Y-75450000D01*
X135375812Y-75325518D01*
X135339502Y-75205820D01*
X135280537Y-75095506D01*
X135201185Y-74998815D01*
X135104494Y-74919463D01*
X135045767Y-74888072D01*
X137750000Y-74888072D01*
X137874482Y-74875812D01*
X137994180Y-74839502D01*
X138104494Y-74780537D01*
X138201185Y-74701185D01*
X138280537Y-74604494D01*
X138339502Y-74494180D01*
X138375812Y-74374482D01*
X138388072Y-74250000D01*
X138388072Y-73635000D01*
X138959869Y-73635000D01*
X139858928Y-74534060D01*
X139858928Y-74617000D01*
X139871188Y-74741482D01*
X139907498Y-74861180D01*
X139966463Y-74971494D01*
X140045815Y-75068185D01*
X140142506Y-75147537D01*
X140252820Y-75206502D01*
X140372518Y-75242812D01*
X140497000Y-75255072D01*
X140773940Y-75255072D01*
X140874501Y-75285577D01*
X141096999Y-75307491D01*
X141319498Y-75285577D01*
X141420059Y-75255072D01*
X141697000Y-75255072D01*
X141821482Y-75242812D01*
X141941180Y-75206502D01*
X142051494Y-75147537D01*
X142148185Y-75068185D01*
X142227537Y-74971494D01*
X142286502Y-74861180D01*
X142322812Y-74741482D01*
X142335072Y-74617000D01*
X142335072Y-73717000D01*
X142322812Y-73592518D01*
X142286502Y-73472820D01*
X142227537Y-73362506D01*
X142148185Y-73265815D01*
X142051494Y-73186463D01*
X141941180Y-73127498D01*
X141821482Y-73091188D01*
X141697000Y-73078928D01*
X141614060Y-73078928D01*
X140489461Y-71954329D01*
X140497000Y-71955072D01*
X140773941Y-71955072D01*
X140874502Y-71985577D01*
X141097000Y-72007491D01*
X141319498Y-71985577D01*
X141420059Y-71955072D01*
X141697000Y-71955072D01*
X141821482Y-71942812D01*
X141941180Y-71906502D01*
X142051494Y-71847537D01*
X142148185Y-71768185D01*
X142227537Y-71671494D01*
X142286502Y-71561180D01*
X142322812Y-71441482D01*
X142335072Y-71317000D01*
X142335072Y-71234059D01*
X144605641Y-68963491D01*
X144648949Y-68927949D01*
X144790784Y-68755123D01*
X144896176Y-68557947D01*
X144961077Y-68343999D01*
X144977500Y-68177252D01*
X144977500Y-68177243D01*
X144982990Y-68121501D01*
X144977500Y-68065759D01*
X144977500Y-65420055D01*
X144985820Y-65424502D01*
X145105518Y-65460812D01*
X145230000Y-65473072D01*
X145431750Y-65470000D01*
X145590500Y-65311250D01*
X145590500Y-64262000D01*
X145844500Y-64262000D01*
X145844500Y-65311250D01*
X146003250Y-65470000D01*
X146205000Y-65473072D01*
X146329482Y-65460812D01*
X146449180Y-65424502D01*
X146559494Y-65365537D01*
X146656185Y-65286185D01*
X146735537Y-65189494D01*
X146794502Y-65079180D01*
X146830812Y-64959482D01*
X146843072Y-64835000D01*
X147161928Y-64835000D01*
X147174188Y-64959482D01*
X147210498Y-65079180D01*
X147269463Y-65189494D01*
X147348815Y-65286185D01*
X147445506Y-65365537D01*
X147555820Y-65424502D01*
X147675518Y-65460812D01*
X147800000Y-65473072D01*
X148001750Y-65470000D01*
X148160500Y-65311250D01*
X148160500Y-64262000D01*
X147323750Y-64262000D01*
X147165000Y-64420750D01*
X147161928Y-64835000D01*
X146843072Y-64835000D01*
X146840000Y-64420750D01*
X146681250Y-64262000D01*
X145844500Y-64262000D01*
X145590500Y-64262000D01*
X145570500Y-64262000D01*
X145570500Y-64008000D01*
X145590500Y-64008000D01*
X145590500Y-62958750D01*
X145844500Y-62958750D01*
X145844500Y-64008000D01*
X146681250Y-64008000D01*
X146840000Y-63849250D01*
X146843072Y-63435000D01*
X147161928Y-63435000D01*
X147165000Y-63849250D01*
X147323750Y-64008000D01*
X148160500Y-64008000D01*
X148160500Y-62958750D01*
X148001750Y-62800000D01*
X147800000Y-62796928D01*
X147675518Y-62809188D01*
X147555820Y-62845498D01*
X147445506Y-62904463D01*
X147348815Y-62983815D01*
X147269463Y-63080506D01*
X147210498Y-63190820D01*
X147174188Y-63310518D01*
X147161928Y-63435000D01*
X146843072Y-63435000D01*
X146830812Y-63310518D01*
X146794502Y-63190820D01*
X146735537Y-63080506D01*
X146656185Y-62983815D01*
X146559494Y-62904463D01*
X146449180Y-62845498D01*
X146329482Y-62809188D01*
X146205000Y-62796928D01*
X146003250Y-62800000D01*
X145844500Y-62958750D01*
X145590500Y-62958750D01*
X145431750Y-62800000D01*
X145230000Y-62796928D01*
X145105518Y-62809188D01*
X144985820Y-62845498D01*
X144875506Y-62904463D01*
X144780000Y-62982842D01*
X144780000Y-61320000D01*
X144907002Y-61320000D01*
X144907002Y-61161252D01*
X145065750Y-61320000D01*
X145105000Y-61323072D01*
X145229482Y-61310812D01*
X145255000Y-61303071D01*
X145280518Y-61310812D01*
X145405000Y-61323072D01*
X146055000Y-61323072D01*
X146179482Y-61310812D01*
X146299180Y-61274502D01*
X146409494Y-61215537D01*
X146506185Y-61136185D01*
X146585537Y-61039494D01*
X146644502Y-60929180D01*
X146680812Y-60809482D01*
X146693072Y-60685000D01*
X146693072Y-60480000D01*
X148521928Y-60480000D01*
X148534188Y-60604482D01*
X148570498Y-60724180D01*
X148629463Y-60834494D01*
X148708815Y-60931185D01*
X148805506Y-61010537D01*
X148915820Y-61069502D01*
X149035518Y-61105812D01*
X149160000Y-61118072D01*
X149574250Y-61115000D01*
X149733000Y-60956250D01*
X149733000Y-60119500D01*
X148683750Y-60119500D01*
X148525000Y-60278250D01*
X148521928Y-60480000D01*
X146693072Y-60480000D01*
X146693072Y-59625000D01*
X146680812Y-59500518D01*
X146644502Y-59380820D01*
X146585537Y-59270506D01*
X146537740Y-59212265D01*
X146528280Y-59116212D01*
X146481963Y-58963527D01*
X146479190Y-58958339D01*
X146506185Y-58936185D01*
X146585537Y-58839494D01*
X146644502Y-58729180D01*
X146680812Y-58609482D01*
X146693072Y-58485000D01*
X146693072Y-58430585D01*
X146924605Y-58662118D01*
X146949972Y-58693028D01*
X146980880Y-58718393D01*
X147073310Y-58794249D01*
X147119935Y-58819170D01*
X147214027Y-58869463D01*
X147366712Y-58915780D01*
X147485709Y-58927500D01*
X147485712Y-58927500D01*
X147525500Y-58931419D01*
X147565288Y-58927500D01*
X148733190Y-58927500D01*
X148780208Y-58984792D01*
X148786564Y-58990008D01*
X148708815Y-59053815D01*
X148629463Y-59150506D01*
X148570498Y-59260820D01*
X148534188Y-59380518D01*
X148521928Y-59505000D01*
X148525000Y-59706750D01*
X148683750Y-59865500D01*
X149733000Y-59865500D01*
X149733000Y-59845500D01*
X149987000Y-59845500D01*
X149987000Y-59865500D01*
X150007000Y-59865500D01*
X150007000Y-60119500D01*
X149987000Y-60119500D01*
X149987000Y-60956250D01*
X150145750Y-61115000D01*
X150560000Y-61118072D01*
X150684482Y-61105812D01*
X150804180Y-61069502D01*
X150914494Y-61010537D01*
X150925001Y-61001914D01*
X150925001Y-61922836D01*
X150796898Y-61869774D01*
X150596939Y-61830000D01*
X150393061Y-61830000D01*
X150193102Y-61869774D01*
X150004744Y-61947795D01*
X149835226Y-62061063D01*
X149691063Y-62205226D01*
X149577795Y-62374744D01*
X149499774Y-62563102D01*
X149460000Y-62763061D01*
X149460000Y-62899555D01*
X149456954Y-62905254D01*
X149447810Y-62935400D01*
X149428836Y-62945542D01*
X149295208Y-63055208D01*
X149289992Y-63061564D01*
X149226185Y-62983815D01*
X149129494Y-62904463D01*
X149019180Y-62845498D01*
X148899482Y-62809188D01*
X148775000Y-62796928D01*
X148573250Y-62800000D01*
X148414500Y-62958750D01*
X148414500Y-64008000D01*
X148434500Y-64008000D01*
X148434500Y-64262000D01*
X148414500Y-64262000D01*
X148414500Y-65311250D01*
X148573250Y-65470000D01*
X148775000Y-65473072D01*
X148899482Y-65460812D01*
X149019180Y-65424502D01*
X149129494Y-65365537D01*
X149226185Y-65286185D01*
X149289992Y-65208436D01*
X149295208Y-65214792D01*
X149402500Y-65302845D01*
X149402501Y-67454697D01*
X145158003Y-71699196D01*
X145147057Y-71708179D01*
X145133255Y-71703992D01*
X144960001Y-71686928D01*
X144309999Y-71686928D01*
X144136745Y-71703992D01*
X143970149Y-71754528D01*
X143816613Y-71836595D01*
X143682038Y-71947038D01*
X143571595Y-72081613D01*
X143489528Y-72235149D01*
X143438992Y-72401745D01*
X143421928Y-72574999D01*
X143421928Y-73475001D01*
X143438992Y-73648255D01*
X143489528Y-73814851D01*
X143571595Y-73968387D01*
X143682038Y-74102962D01*
X143816613Y-74213405D01*
X143875000Y-74244614D01*
X143875000Y-74633198D01*
X142998998Y-75509201D01*
X142970000Y-75532999D01*
X142946202Y-75561997D01*
X142946201Y-75561998D01*
X142875026Y-75648724D01*
X142804454Y-75780754D01*
X142784769Y-75845650D01*
X142760998Y-75924014D01*
X142755681Y-75978001D01*
X142746324Y-76073000D01*
X142750001Y-76110332D01*
X142750000Y-78806198D01*
X142363998Y-79192201D01*
X142335000Y-79215999D01*
X142311203Y-79244996D01*
X142311201Y-79244998D01*
X142240026Y-79331724D01*
X142169454Y-79463754D01*
X142144914Y-79544656D01*
X142125998Y-79607014D01*
X142120783Y-79659964D01*
X142111324Y-79756000D01*
X142115001Y-79793332D01*
X142115000Y-81131196D01*
X140606492Y-82639705D01*
X140403411Y-82504010D01*
X140133158Y-82392068D01*
X139846260Y-82335000D01*
X139553740Y-82335000D01*
X139266842Y-82392068D01*
X138996589Y-82504010D01*
X138753368Y-82666525D01*
X138621513Y-82798380D01*
X138599502Y-82725820D01*
X138540537Y-82615506D01*
X138461185Y-82518815D01*
X138364494Y-82439463D01*
X138254180Y-82380498D01*
X138134482Y-82344188D01*
X138010000Y-82331928D01*
X137445750Y-82335000D01*
X137287000Y-82493750D01*
X137287000Y-83693000D01*
X137307000Y-83693000D01*
X137307000Y-83947000D01*
X137287000Y-83947000D01*
X137287000Y-83967000D01*
X137033000Y-83967000D01*
X137033000Y-83947000D01*
X135833750Y-83947000D01*
X135675000Y-84105750D01*
X135671928Y-84670000D01*
X135684188Y-84794482D01*
X135720498Y-84914180D01*
X135779463Y-85024494D01*
X135858815Y-85121185D01*
X135955506Y-85200537D01*
X136065820Y-85259502D01*
X136138380Y-85281513D01*
X136006525Y-85413368D01*
X135844010Y-85656589D01*
X135732068Y-85926842D01*
X135675000Y-86213740D01*
X135675000Y-86506260D01*
X135732068Y-86793158D01*
X135844010Y-87063411D01*
X136006525Y-87306632D01*
X136213368Y-87513475D01*
X136456589Y-87675990D01*
X136726842Y-87787932D01*
X137013740Y-87845000D01*
X137306260Y-87845000D01*
X137593158Y-87787932D01*
X137863411Y-87675990D01*
X138106632Y-87513475D01*
X138313475Y-87306632D01*
X138430000Y-87132240D01*
X138546525Y-87306632D01*
X138753368Y-87513475D01*
X138996589Y-87675990D01*
X139266842Y-87787932D01*
X139553740Y-87845000D01*
X139846260Y-87845000D01*
X140133158Y-87787932D01*
X140403411Y-87675990D01*
X140646632Y-87513475D01*
X140853475Y-87306632D01*
X140970000Y-87132240D01*
X141086525Y-87306632D01*
X141293368Y-87513475D01*
X141536589Y-87675990D01*
X141806842Y-87787932D01*
X142093740Y-87845000D01*
X142386260Y-87845000D01*
X142606408Y-87801210D01*
X142946201Y-88141003D01*
X142969999Y-88170001D01*
X143085724Y-88264974D01*
X143217753Y-88335546D01*
X143361014Y-88379003D01*
X143472667Y-88390000D01*
X143472676Y-88390000D01*
X143509999Y-88393676D01*
X143547322Y-88390000D01*
X145377678Y-88390000D01*
X145415000Y-88393676D01*
X145452322Y-88390000D01*
X145452333Y-88390000D01*
X145563986Y-88379003D01*
X145707247Y-88335546D01*
X145839276Y-88264974D01*
X145955001Y-88170001D01*
X145978804Y-88140997D01*
X146695300Y-87424502D01*
X146778748Y-87424502D01*
X146620000Y-87583250D01*
X146616928Y-87785000D01*
X146629188Y-87909482D01*
X146665498Y-88029180D01*
X146724463Y-88139494D01*
X146803815Y-88236185D01*
X146900506Y-88315537D01*
X147010820Y-88374502D01*
X147130518Y-88410812D01*
X147255000Y-88423072D01*
X147669250Y-88420000D01*
X147828000Y-88261250D01*
X147828000Y-87424500D01*
X148082000Y-87424500D01*
X148082000Y-88261250D01*
X148240750Y-88420000D01*
X148655000Y-88423072D01*
X148779482Y-88410812D01*
X148899180Y-88374502D01*
X149009494Y-88315537D01*
X149106185Y-88236185D01*
X149185537Y-88139494D01*
X149244502Y-88029180D01*
X149280812Y-87909482D01*
X149293072Y-87785000D01*
X149290000Y-87583250D01*
X149131250Y-87424500D01*
X148082000Y-87424500D01*
X147828000Y-87424500D01*
X147808000Y-87424500D01*
X147808000Y-87210000D01*
X152181928Y-87210000D01*
X152194188Y-87334482D01*
X152230498Y-87454180D01*
X152289463Y-87564494D01*
X152368815Y-87661185D01*
X152465506Y-87740537D01*
X152575820Y-87799502D01*
X152695518Y-87835812D01*
X152820000Y-87848072D01*
X153384250Y-87845000D01*
X153543000Y-87686250D01*
X153543000Y-86487000D01*
X152343750Y-86487000D01*
X152185000Y-86645750D01*
X152181928Y-87210000D01*
X147808000Y-87210000D01*
X147808000Y-87170500D01*
X147828000Y-87170500D01*
X147828000Y-87150500D01*
X148082000Y-87150500D01*
X148082000Y-87170500D01*
X149131250Y-87170500D01*
X149290000Y-87011750D01*
X149293072Y-86810000D01*
X149286054Y-86738747D01*
X150514801Y-85510000D01*
X152181928Y-85510000D01*
X152185000Y-86074250D01*
X152343750Y-86233000D01*
X153543000Y-86233000D01*
X153543000Y-85033750D01*
X153384250Y-84875000D01*
X152820000Y-84871928D01*
X152695518Y-84884188D01*
X152575820Y-84920498D01*
X152465506Y-84979463D01*
X152368815Y-85058815D01*
X152289463Y-85155506D01*
X152230498Y-85265820D01*
X152194188Y-85385518D01*
X152181928Y-85510000D01*
X150514801Y-85510000D01*
X152079802Y-83945000D01*
X155260199Y-83945000D01*
X156190198Y-84875000D01*
X156063740Y-84875000D01*
X155776842Y-84932068D01*
X155506589Y-85044010D01*
X155263368Y-85206525D01*
X155131513Y-85338380D01*
X155109502Y-85265820D01*
X155050537Y-85155506D01*
X154971185Y-85058815D01*
X154874494Y-84979463D01*
X154764180Y-84920498D01*
X154644482Y-84884188D01*
X154520000Y-84871928D01*
X153955750Y-84875000D01*
X153797000Y-85033750D01*
X153797000Y-86233000D01*
X153817000Y-86233000D01*
X153817000Y-86487000D01*
X153797000Y-86487000D01*
X153797000Y-87686250D01*
X153955750Y-87845000D01*
X154520000Y-87848072D01*
X154644482Y-87835812D01*
X154764180Y-87799502D01*
X154874494Y-87740537D01*
X154971185Y-87661185D01*
X155050537Y-87564494D01*
X155109502Y-87454180D01*
X155131513Y-87381620D01*
X155263368Y-87513475D01*
X155506589Y-87675990D01*
X155776842Y-87787932D01*
X156063740Y-87845000D01*
X156356260Y-87845000D01*
X156643158Y-87787932D01*
X156913411Y-87675990D01*
X157016984Y-87606785D01*
X157551200Y-88141002D01*
X157574999Y-88170001D01*
X157603997Y-88193799D01*
X157690724Y-88264974D01*
X157822753Y-88335546D01*
X157966014Y-88379003D01*
X158115000Y-88393677D01*
X158152333Y-88390000D01*
X159347678Y-88390000D01*
X159385000Y-88393676D01*
X159422322Y-88390000D01*
X159422333Y-88390000D01*
X159533986Y-88379003D01*
X159677247Y-88335546D01*
X159809276Y-88264974D01*
X159925001Y-88170001D01*
X159948803Y-88140998D01*
X160483017Y-87606786D01*
X160586589Y-87675990D01*
X160856842Y-87787932D01*
X161143740Y-87845000D01*
X161436260Y-87845000D01*
X161723158Y-87787932D01*
X161993411Y-87675990D01*
X162236632Y-87513475D01*
X162443475Y-87306632D01*
X162560000Y-87132240D01*
X162676525Y-87306632D01*
X162883368Y-87513475D01*
X163126589Y-87675990D01*
X163396842Y-87787932D01*
X163683740Y-87845000D01*
X163976260Y-87845000D01*
X164263158Y-87787932D01*
X164533411Y-87675990D01*
X164776632Y-87513475D01*
X164983475Y-87306632D01*
X165100000Y-87132240D01*
X165216525Y-87306632D01*
X165423368Y-87513475D01*
X165666589Y-87675990D01*
X165936842Y-87787932D01*
X166223740Y-87845000D01*
X166516260Y-87845000D01*
X166803158Y-87787932D01*
X167073411Y-87675990D01*
X167316632Y-87513475D01*
X167523475Y-87306632D01*
X167685990Y-87063411D01*
X167797932Y-86793158D01*
X167855000Y-86506260D01*
X167855000Y-86213740D01*
X167797932Y-85926842D01*
X167685990Y-85656589D01*
X167523475Y-85413368D01*
X167316632Y-85206525D01*
X167130000Y-85081822D01*
X167130000Y-83866452D01*
X167146128Y-83813285D01*
X167163072Y-83641250D01*
X167163072Y-82728750D01*
X167146128Y-82556715D01*
X167095947Y-82391291D01*
X167014458Y-82238836D01*
X166904792Y-82105208D01*
X166771164Y-81995542D01*
X166618709Y-81914053D01*
X166453285Y-81863872D01*
X166281250Y-81846928D01*
X165793750Y-81846928D01*
X165621715Y-81863872D01*
X165456291Y-81914053D01*
X165303836Y-81995542D01*
X165170208Y-82105208D01*
X165100000Y-82190756D01*
X165029792Y-82105208D01*
X164896164Y-81995542D01*
X164743709Y-81914053D01*
X164578285Y-81863872D01*
X164406250Y-81846928D01*
X163918750Y-81846928D01*
X163746715Y-81863872D01*
X163581291Y-81914053D01*
X163428836Y-81995542D01*
X163295208Y-82105208D01*
X163185542Y-82238836D01*
X163104053Y-82391291D01*
X163093827Y-82425000D01*
X162319362Y-82425000D01*
X162276498Y-82344808D01*
X162222042Y-82263309D01*
X162142690Y-82166618D01*
X162073382Y-82097310D01*
X161976691Y-82017958D01*
X161895192Y-81963502D01*
X161784875Y-81904536D01*
X161694319Y-81867027D01*
X161574623Y-81830718D01*
X161478490Y-81811596D01*
X161354009Y-81799336D01*
X161329450Y-81799336D01*
X161305000Y-81796928D01*
X160805000Y-81796928D01*
X160680518Y-81809188D01*
X160655000Y-81816929D01*
X160629482Y-81809188D01*
X160505000Y-81796928D01*
X160005000Y-81796928D01*
X159980550Y-81799336D01*
X159955991Y-81799336D01*
X159831510Y-81811596D01*
X159735377Y-81830718D01*
X159615681Y-81867027D01*
X159525125Y-81904536D01*
X159414808Y-81963502D01*
X159333309Y-82017958D01*
X159236618Y-82097310D01*
X159167310Y-82166618D01*
X159087958Y-82263309D01*
X159033502Y-82344808D01*
X158974536Y-82455125D01*
X158937027Y-82545681D01*
X158900718Y-82665377D01*
X158881596Y-82761510D01*
X158869336Y-82885991D01*
X158869336Y-82910550D01*
X158866928Y-82935000D01*
X158866928Y-83435000D01*
X158869336Y-83459450D01*
X158869336Y-83484009D01*
X158881596Y-83608490D01*
X158900718Y-83704623D01*
X158937027Y-83824319D01*
X158974536Y-83914875D01*
X159033502Y-84025192D01*
X159087958Y-84106691D01*
X159167310Y-84203382D01*
X159236618Y-84272690D01*
X159245001Y-84279569D01*
X159245001Y-84439488D01*
X156810900Y-82005387D01*
X156785528Y-81974472D01*
X156662189Y-81873251D01*
X156521473Y-81798037D01*
X156368788Y-81751720D01*
X156249791Y-81740000D01*
X156249788Y-81740000D01*
X156210000Y-81736081D01*
X156170212Y-81740000D01*
X154275513Y-81740000D01*
X153933584Y-81398072D01*
X154335000Y-81398072D01*
X154359450Y-81395664D01*
X154384009Y-81395664D01*
X154508490Y-81383404D01*
X154604623Y-81364282D01*
X154724319Y-81327973D01*
X154814875Y-81290464D01*
X154925192Y-81231498D01*
X155006691Y-81177042D01*
X155103382Y-81097690D01*
X155172690Y-81028382D01*
X155252042Y-80931691D01*
X155306498Y-80850192D01*
X155365464Y-80739875D01*
X155402973Y-80649319D01*
X155439282Y-80529623D01*
X155458404Y-80433490D01*
X155470664Y-80309009D01*
X155470664Y-80284450D01*
X155473072Y-80260000D01*
X155473072Y-79760000D01*
X155470664Y-79735550D01*
X155470664Y-79710991D01*
X155458404Y-79586510D01*
X155439282Y-79490377D01*
X155402973Y-79370681D01*
X155365464Y-79280125D01*
X155306498Y-79169808D01*
X155252042Y-79088309D01*
X155172690Y-78991618D01*
X155103382Y-78922310D01*
X155006691Y-78842958D01*
X154925192Y-78788502D01*
X154814875Y-78729536D01*
X154724319Y-78692027D01*
X154604623Y-78655718D01*
X154508490Y-78636596D01*
X154384009Y-78624336D01*
X154359450Y-78624336D01*
X154335000Y-78621928D01*
X153785000Y-78621928D01*
X153660518Y-78634188D01*
X153660000Y-78634345D01*
X153659482Y-78634188D01*
X153535000Y-78621928D01*
X152545000Y-78621928D01*
X152545000Y-75683072D01*
X153535000Y-75683072D01*
X153659482Y-75670812D01*
X153779180Y-75634502D01*
X153889494Y-75575537D01*
X153986185Y-75496185D01*
X154065537Y-75399494D01*
X154124502Y-75289180D01*
X154154873Y-75189060D01*
X154172875Y-75183762D01*
X154174847Y-75182731D01*
X154176980Y-75182087D01*
X154229781Y-75154012D01*
X154282703Y-75126345D01*
X154284437Y-75124951D01*
X154286404Y-75123905D01*
X154332737Y-75086117D01*
X154379286Y-75048690D01*
X154380717Y-75046985D01*
X154382443Y-75045577D01*
X154420539Y-74999527D01*
X154458947Y-74953754D01*
X154460020Y-74951802D01*
X154461439Y-74950087D01*
X154489851Y-74897539D01*
X154518651Y-74845153D01*
X154519325Y-74843029D01*
X154520383Y-74841072D01*
X154538034Y-74784050D01*
X154556124Y-74727024D01*
X154556373Y-74724808D01*
X154557030Y-74722684D01*
X154563276Y-74663257D01*
X154569938Y-74603866D01*
X154569968Y-74599596D01*
X154569985Y-74599433D01*
X154569970Y-74599270D01*
X154570000Y-74595000D01*
X154570000Y-73995000D01*
X154564166Y-73935495D01*
X154558752Y-73876013D01*
X154558125Y-73873882D01*
X154557907Y-73871661D01*
X154540612Y-73814379D01*
X154523762Y-73757125D01*
X154522731Y-73755153D01*
X154522087Y-73753020D01*
X154494012Y-73700219D01*
X154471940Y-73658000D01*
X154498199Y-73658000D01*
X155069000Y-74228802D01*
X155069001Y-78194668D01*
X155065324Y-78232000D01*
X155069001Y-78269333D01*
X155079998Y-78380986D01*
X155087847Y-78406862D01*
X155123454Y-78524246D01*
X155194026Y-78656276D01*
X155262681Y-78739931D01*
X155289000Y-78772001D01*
X155317998Y-78795799D01*
X156789205Y-80267008D01*
X156812999Y-80296001D01*
X156841992Y-80319795D01*
X156841996Y-80319799D01*
X156897957Y-80365724D01*
X156928724Y-80390974D01*
X157060753Y-80461546D01*
X157204014Y-80505003D01*
X157315667Y-80516000D01*
X157315676Y-80516000D01*
X157352999Y-80519676D01*
X157390322Y-80516000D01*
X168491678Y-80516000D01*
X168529000Y-80519676D01*
X168566322Y-80516000D01*
X168566333Y-80516000D01*
X168677986Y-80505003D01*
X168821247Y-80461546D01*
X168953276Y-80390974D01*
X169069001Y-80296001D01*
X169092804Y-80266997D01*
X170691003Y-78668799D01*
X170720001Y-78645001D01*
X170814974Y-78529276D01*
X170885546Y-78397247D01*
X170929003Y-78253986D01*
X170929373Y-78250233D01*
X171589803Y-77589803D01*
X171605597Y-77570557D01*
X171617333Y-77548601D01*
X171624560Y-77524776D01*
X171627000Y-77500000D01*
X171627000Y-77350000D01*
X173011928Y-77350000D01*
X173024188Y-77474482D01*
X173060498Y-77594180D01*
X173119463Y-77704494D01*
X173198815Y-77801185D01*
X173295506Y-77880537D01*
X173405820Y-77939502D01*
X173525518Y-77975812D01*
X173650000Y-77988072D01*
X174214250Y-77985000D01*
X174373000Y-77826250D01*
X174373000Y-76627000D01*
X174627000Y-76627000D01*
X174627000Y-77826250D01*
X174785750Y-77985000D01*
X175350000Y-77988072D01*
X175474482Y-77975812D01*
X175594180Y-77939502D01*
X175704494Y-77880537D01*
X175801185Y-77801185D01*
X175880537Y-77704494D01*
X175939502Y-77594180D01*
X175975812Y-77474482D01*
X175988072Y-77350000D01*
X175985000Y-76785750D01*
X175826250Y-76627000D01*
X174627000Y-76627000D01*
X174373000Y-76627000D01*
X173173750Y-76627000D01*
X173015000Y-76785750D01*
X173011928Y-77350000D01*
X171627000Y-77350000D01*
X171627000Y-74548633D01*
X171758387Y-74478405D01*
X171892962Y-74367962D01*
X172003405Y-74233387D01*
X172007888Y-74225000D01*
X172139488Y-74225000D01*
X172419105Y-74504617D01*
X172444472Y-74535528D01*
X172567811Y-74636749D01*
X172708527Y-74711963D01*
X172861212Y-74758280D01*
X172980209Y-74770000D01*
X172980211Y-74770000D01*
X173019999Y-74773919D01*
X173059787Y-74770000D01*
X173255230Y-74770000D01*
X173346525Y-74906632D01*
X173478380Y-75038487D01*
X173405820Y-75060498D01*
X173295506Y-75119463D01*
X173198815Y-75198815D01*
X173119463Y-75295506D01*
X173060498Y-75405820D01*
X173024188Y-75525518D01*
X173011928Y-75650000D01*
X173015000Y-76214250D01*
X173173750Y-76373000D01*
X174373000Y-76373000D01*
X174373000Y-76353000D01*
X174627000Y-76353000D01*
X174627000Y-76373000D01*
X175826250Y-76373000D01*
X175985000Y-76214250D01*
X175988072Y-75650000D01*
X175975812Y-75525518D01*
X175939502Y-75405820D01*
X175880537Y-75295506D01*
X175801185Y-75198815D01*
X175704494Y-75119463D01*
X175594180Y-75060498D01*
X175521620Y-75038487D01*
X175653475Y-74906632D01*
X175815990Y-74663411D01*
X175927932Y-74393158D01*
X175985000Y-74106260D01*
X175985000Y-73813740D01*
X175927932Y-73526842D01*
X175815990Y-73256589D01*
X175653475Y-73013368D01*
X175446632Y-72806525D01*
X175272240Y-72690000D01*
X175446632Y-72573475D01*
X175653475Y-72366632D01*
X175815990Y-72123411D01*
X175927932Y-71853158D01*
X175985000Y-71566260D01*
X175985000Y-71273740D01*
X175927932Y-70986842D01*
X175815990Y-70716589D01*
X175653475Y-70473368D01*
X175446632Y-70266525D01*
X175272240Y-70150000D01*
X175446632Y-70033475D01*
X175653475Y-69826632D01*
X175815990Y-69583411D01*
X175927932Y-69313158D01*
X175985000Y-69026260D01*
X175985000Y-68733740D01*
X175927932Y-68446842D01*
X175815990Y-68176589D01*
X175653475Y-67933368D01*
X175446632Y-67726525D01*
X175203411Y-67564010D01*
X174933158Y-67452068D01*
X174646260Y-67395000D01*
X174353740Y-67395000D01*
X174133592Y-67438790D01*
X168943072Y-62248271D01*
X168943072Y-61671000D01*
X168930812Y-61546518D01*
X168894502Y-61426820D01*
X168835537Y-61316506D01*
X168756185Y-61219815D01*
X168659494Y-61140463D01*
X168565000Y-61089954D01*
X168565000Y-59052046D01*
X168659494Y-59001537D01*
X168756185Y-58922185D01*
X168835537Y-58825494D01*
X168894502Y-58715180D01*
X168930812Y-58595482D01*
X168943072Y-58471000D01*
X168943072Y-57571000D01*
X168930812Y-57446518D01*
X168894502Y-57326820D01*
X168835537Y-57216506D01*
X168756185Y-57119815D01*
X168659494Y-57040463D01*
X168549180Y-56981498D01*
X168429482Y-56945188D01*
X168305000Y-56932928D01*
X167305000Y-56932928D01*
X167180518Y-56945188D01*
X167060820Y-56981498D01*
X167005000Y-57011335D01*
X166949180Y-56981498D01*
X166829482Y-56945188D01*
X166705000Y-56932928D01*
X166490750Y-56936000D01*
X166332000Y-57094750D01*
X166332000Y-57894000D01*
X166352000Y-57894000D01*
X166352000Y-58148000D01*
X166332000Y-58148000D01*
X166332000Y-58947250D01*
X166490750Y-59106000D01*
X166705000Y-59109072D01*
X166829482Y-59096812D01*
X166949180Y-59060502D01*
X167005000Y-59030665D01*
X167045000Y-59052046D01*
X167045001Y-61089954D01*
X167005000Y-61111335D01*
X166949180Y-61081498D01*
X166829482Y-61045188D01*
X166705000Y-61032928D01*
X166490750Y-61036000D01*
X166332000Y-61194750D01*
X166332000Y-61994000D01*
X166352000Y-61994000D01*
X166352000Y-62248000D01*
X166332000Y-62248000D01*
X166332000Y-62268000D01*
X166078000Y-62268000D01*
X166078000Y-62248000D01*
X165228750Y-62248000D01*
X165070000Y-62406750D01*
X165066928Y-62571000D01*
X165079188Y-62695482D01*
X165115498Y-62815180D01*
X165116471Y-62817000D01*
X163813529Y-62817000D01*
X163814502Y-62815180D01*
X163850812Y-62695482D01*
X163863072Y-62571000D01*
X163860000Y-62406750D01*
X163701250Y-62248000D01*
X162852000Y-62248000D01*
X162852000Y-62268000D01*
X162598000Y-62268000D01*
X162598000Y-62248000D01*
X162578000Y-62248000D01*
X162578000Y-61994000D01*
X162598000Y-61994000D01*
X162598000Y-61194750D01*
X162852000Y-61194750D01*
X162852000Y-61994000D01*
X163701250Y-61994000D01*
X163860000Y-61835250D01*
X163863072Y-61671000D01*
X165066928Y-61671000D01*
X165070000Y-61835250D01*
X165228750Y-61994000D01*
X166078000Y-61994000D01*
X166078000Y-61194750D01*
X165919250Y-61036000D01*
X165705000Y-61032928D01*
X165580518Y-61045188D01*
X165460820Y-61081498D01*
X165350506Y-61140463D01*
X165253815Y-61219815D01*
X165174463Y-61316506D01*
X165115498Y-61426820D01*
X165079188Y-61546518D01*
X165066928Y-61671000D01*
X163863072Y-61671000D01*
X163850812Y-61546518D01*
X163814502Y-61426820D01*
X163755537Y-61316506D01*
X163676185Y-61219815D01*
X163579494Y-61140463D01*
X163469180Y-61081498D01*
X163349482Y-61045188D01*
X163225000Y-61032928D01*
X163010750Y-61036000D01*
X162852000Y-61194750D01*
X162598000Y-61194750D01*
X162439250Y-61036000D01*
X162225000Y-61032928D01*
X162160000Y-61039330D01*
X162160000Y-61023061D01*
X162120226Y-60823102D01*
X162042205Y-60634744D01*
X161928937Y-60465226D01*
X161885000Y-60421289D01*
X161885000Y-59052046D01*
X161925000Y-59030665D01*
X161980820Y-59060502D01*
X162100518Y-59096812D01*
X162225000Y-59109072D01*
X162439250Y-59106000D01*
X162598000Y-58947250D01*
X162598000Y-58148000D01*
X162852000Y-58148000D01*
X162852000Y-58947250D01*
X163010750Y-59106000D01*
X163225000Y-59109072D01*
X163349482Y-59096812D01*
X163469180Y-59060502D01*
X163579494Y-59001537D01*
X163676185Y-58922185D01*
X163755537Y-58825494D01*
X163814502Y-58715180D01*
X163850812Y-58595482D01*
X163863072Y-58471000D01*
X165066928Y-58471000D01*
X165079188Y-58595482D01*
X165115498Y-58715180D01*
X165174463Y-58825494D01*
X165253815Y-58922185D01*
X165350506Y-59001537D01*
X165460820Y-59060502D01*
X165580518Y-59096812D01*
X165705000Y-59109072D01*
X165919250Y-59106000D01*
X166078000Y-58947250D01*
X166078000Y-58148000D01*
X165228750Y-58148000D01*
X165070000Y-58306750D01*
X165066928Y-58471000D01*
X163863072Y-58471000D01*
X163860000Y-58306750D01*
X163701250Y-58148000D01*
X162852000Y-58148000D01*
X162598000Y-58148000D01*
X162578000Y-58148000D01*
X162578000Y-57894000D01*
X162598000Y-57894000D01*
X162598000Y-57094750D01*
X162852000Y-57094750D01*
X162852000Y-57894000D01*
X163701250Y-57894000D01*
X163860000Y-57735250D01*
X163863072Y-57571000D01*
X165066928Y-57571000D01*
X165070000Y-57735250D01*
X165228750Y-57894000D01*
X166078000Y-57894000D01*
X166078000Y-57094750D01*
X165919250Y-56936000D01*
X165705000Y-56932928D01*
X165580518Y-56945188D01*
X165460820Y-56981498D01*
X165350506Y-57040463D01*
X165253815Y-57119815D01*
X165174463Y-57216506D01*
X165115498Y-57326820D01*
X165079188Y-57446518D01*
X165066928Y-57571000D01*
X163863072Y-57571000D01*
X163850812Y-57446518D01*
X163814502Y-57326820D01*
X163755537Y-57216506D01*
X163676185Y-57119815D01*
X163579494Y-57040463D01*
X163469180Y-56981498D01*
X163349482Y-56945188D01*
X163225000Y-56932928D01*
X163010750Y-56936000D01*
X162852000Y-57094750D01*
X162598000Y-57094750D01*
X162439250Y-56936000D01*
X162225000Y-56932928D01*
X162100518Y-56945188D01*
X161980820Y-56981498D01*
X161925000Y-57011335D01*
X161869180Y-56981498D01*
X161749482Y-56945188D01*
X161625000Y-56932928D01*
X160625000Y-56932928D01*
X160500518Y-56945188D01*
X160380820Y-56981498D01*
X160270506Y-57040463D01*
X160173815Y-57119815D01*
X160094463Y-57216506D01*
X160035498Y-57326820D01*
X159999188Y-57446518D01*
X159986928Y-57571000D01*
X159986928Y-58471000D01*
X159999188Y-58595482D01*
X160035498Y-58715180D01*
X160094463Y-58825494D01*
X160173815Y-58922185D01*
X160270506Y-59001537D01*
X160365001Y-59052046D01*
X160365000Y-60421289D01*
X160321063Y-60465226D01*
X160207795Y-60634744D01*
X160129774Y-60823102D01*
X160090000Y-61023061D01*
X160090000Y-61226939D01*
X160105211Y-61303410D01*
X160094463Y-61316506D01*
X160035498Y-61426820D01*
X159999188Y-61546518D01*
X159986928Y-61671000D01*
X159986928Y-62571000D01*
X159999188Y-62695482D01*
X160035498Y-62815180D01*
X160036471Y-62817000D01*
X157688513Y-62817000D01*
X155627163Y-60755650D01*
X155632499Y-60756176D01*
X155669822Y-60752500D01*
X156312155Y-60752500D01*
X156400208Y-60859792D01*
X156533836Y-60969458D01*
X156686291Y-61050947D01*
X156851715Y-61101128D01*
X157023750Y-61118072D01*
X157936250Y-61118072D01*
X158108285Y-61101128D01*
X158273709Y-61050947D01*
X158426164Y-60969458D01*
X158559792Y-60859792D01*
X158669458Y-60726164D01*
X158750947Y-60573709D01*
X158801128Y-60408285D01*
X158818072Y-60236250D01*
X158818072Y-59748750D01*
X158801128Y-59576715D01*
X158750947Y-59411291D01*
X158669458Y-59258836D01*
X158559792Y-59125208D01*
X158553436Y-59119992D01*
X158631185Y-59056185D01*
X158710537Y-58959494D01*
X158769502Y-58849180D01*
X158805812Y-58729482D01*
X158818072Y-58605000D01*
X158815000Y-58403250D01*
X158656250Y-58244500D01*
X157607000Y-58244500D01*
X157607000Y-58264500D01*
X157353000Y-58264500D01*
X157353000Y-58244500D01*
X156303750Y-58244500D01*
X156145000Y-58403250D01*
X156141928Y-58605000D01*
X156154188Y-58729482D01*
X156190498Y-58849180D01*
X156249463Y-58959494D01*
X156328815Y-59056185D01*
X156406564Y-59119992D01*
X156400208Y-59125208D01*
X156312155Y-59232500D01*
X155947302Y-59232500D01*
X155008072Y-58293271D01*
X155008072Y-57704999D01*
X155000686Y-57630000D01*
X156141928Y-57630000D01*
X156145000Y-57831750D01*
X156303750Y-57990500D01*
X157353000Y-57990500D01*
X157353000Y-57153750D01*
X157607000Y-57153750D01*
X157607000Y-57990500D01*
X158656250Y-57990500D01*
X158815000Y-57831750D01*
X158818072Y-57630000D01*
X158805812Y-57505518D01*
X158769502Y-57385820D01*
X158710537Y-57275506D01*
X158631185Y-57178815D01*
X158534494Y-57099463D01*
X158424180Y-57040498D01*
X158304482Y-57004188D01*
X158180000Y-56991928D01*
X157765750Y-56995000D01*
X157607000Y-57153750D01*
X157353000Y-57153750D01*
X157194250Y-56995000D01*
X156780000Y-56991928D01*
X156655518Y-57004188D01*
X156535820Y-57040498D01*
X156425506Y-57099463D01*
X156328815Y-57178815D01*
X156249463Y-57275506D01*
X156190498Y-57385820D01*
X156154188Y-57505518D01*
X156141928Y-57630000D01*
X155000686Y-57630000D01*
X154991008Y-57531745D01*
X154940472Y-57365149D01*
X154858405Y-57211613D01*
X154747962Y-57077038D01*
X154613387Y-56966595D01*
X154459851Y-56884528D01*
X154293255Y-56833992D01*
X154120001Y-56816928D01*
X153219999Y-56816928D01*
X153046745Y-56833992D01*
X152880149Y-56884528D01*
X152726613Y-56966595D01*
X152592038Y-57077038D01*
X152481595Y-57211613D01*
X152399528Y-57365149D01*
X152348992Y-57531745D01*
X152331928Y-57704999D01*
X152331928Y-58355001D01*
X152348992Y-58528255D01*
X152399528Y-58694851D01*
X152481595Y-58848387D01*
X152592038Y-58982962D01*
X152679816Y-59055000D01*
X152592038Y-59127038D01*
X152481595Y-59261613D01*
X152477112Y-59270000D01*
X152158013Y-59270000D01*
X151198072Y-58310060D01*
X151198072Y-57873750D01*
X151181128Y-57701715D01*
X151130947Y-57536291D01*
X151049458Y-57383836D01*
X150939792Y-57250208D01*
X150806164Y-57140542D01*
X150653709Y-57059053D01*
X150488285Y-57008872D01*
X150316250Y-56991928D01*
X149403750Y-56991928D01*
X149231715Y-57008872D01*
X149066291Y-57059053D01*
X148913836Y-57140542D01*
X148780208Y-57250208D01*
X148733190Y-57307500D01*
X147861013Y-57307500D01*
X146904899Y-56351387D01*
X146879528Y-56320472D01*
X146756189Y-56219251D01*
X146645338Y-56160000D01*
X172968591Y-56160000D01*
X173725555Y-56232221D01*
X174424940Y-56437398D01*
X175072904Y-56771120D01*
X175646074Y-57221353D01*
X176123762Y-57771839D01*
X176488742Y-58402730D01*
X176727836Y-59091248D01*
X176835790Y-59835790D01*
X176840001Y-60008104D01*
X176840000Y-84968591D01*
X176767779Y-85725555D01*
X176562602Y-86424940D01*
X176228878Y-87072906D01*
X175778650Y-87646072D01*
X175228159Y-88123763D01*
X174597270Y-88488741D01*
X173908752Y-88727836D01*
X173164210Y-88835790D01*
X172991937Y-88840000D01*
X130031409Y-88840000D01*
X129274445Y-88767779D01*
X128575060Y-88562602D01*
X127927094Y-88228878D01*
X127353928Y-87778650D01*
X126876237Y-87228159D01*
X126511259Y-86597270D01*
X126272164Y-85908752D01*
X126164210Y-85164210D01*
X126160000Y-84991937D01*
X126160000Y-82970000D01*
X135671928Y-82970000D01*
X135675000Y-83534250D01*
X135833750Y-83693000D01*
X137033000Y-83693000D01*
X137033000Y-82493750D01*
X136874250Y-82335000D01*
X136310000Y-82331928D01*
X136185518Y-82344188D01*
X136065820Y-82380498D01*
X135955506Y-82439463D01*
X135858815Y-82518815D01*
X135779463Y-82615506D01*
X135720498Y-82725820D01*
X135684188Y-82845518D01*
X135671928Y-82970000D01*
X126160000Y-82970000D01*
X126160000Y-78950000D01*
X130611928Y-78950000D01*
X130624188Y-79074482D01*
X130660498Y-79194180D01*
X130719463Y-79304494D01*
X130798815Y-79401185D01*
X130895506Y-79480537D01*
X131005820Y-79539502D01*
X131125518Y-79575812D01*
X131250000Y-79588072D01*
X132714250Y-79585000D01*
X132873000Y-79426250D01*
X132873000Y-77327000D01*
X133127000Y-77327000D01*
X133127000Y-79426250D01*
X133285750Y-79585000D01*
X134750000Y-79588072D01*
X134874482Y-79575812D01*
X134994180Y-79539502D01*
X135104494Y-79480537D01*
X135201185Y-79401185D01*
X135280537Y-79304494D01*
X135339502Y-79194180D01*
X135375812Y-79074482D01*
X135388072Y-78950000D01*
X135385000Y-77485750D01*
X135226250Y-77327000D01*
X133127000Y-77327000D01*
X132873000Y-77327000D01*
X130773750Y-77327000D01*
X130615000Y-77485750D01*
X130611928Y-78950000D01*
X126160000Y-78950000D01*
X126160000Y-77279872D01*
X137265000Y-77279872D01*
X137265000Y-77720128D01*
X137350890Y-78151925D01*
X137519369Y-78558669D01*
X137763962Y-78924729D01*
X138075271Y-79236038D01*
X138441331Y-79480631D01*
X138848075Y-79649110D01*
X139279872Y-79735000D01*
X139720128Y-79735000D01*
X140151925Y-79649110D01*
X140558669Y-79480631D01*
X140924729Y-79236038D01*
X141236038Y-78924729D01*
X141480631Y-78558669D01*
X141649110Y-78151925D01*
X141735000Y-77720128D01*
X141735000Y-77279872D01*
X141649110Y-76848075D01*
X141480631Y-76441331D01*
X141236038Y-76075271D01*
X140924729Y-75763962D01*
X140558669Y-75519369D01*
X140151925Y-75350890D01*
X139720128Y-75265000D01*
X139279872Y-75265000D01*
X138848075Y-75350890D01*
X138441331Y-75519369D01*
X138075271Y-75763962D01*
X137763962Y-76075271D01*
X137519369Y-76441331D01*
X137350890Y-76848075D01*
X137265000Y-77279872D01*
X126160000Y-77279872D01*
X126160000Y-74250000D01*
X127861928Y-74250000D01*
X127874188Y-74374482D01*
X127910498Y-74494180D01*
X127969463Y-74604494D01*
X128048815Y-74701185D01*
X128145506Y-74780537D01*
X128255820Y-74839502D01*
X128375518Y-74875812D01*
X128500000Y-74888072D01*
X129714250Y-74885000D01*
X129873000Y-74726250D01*
X129873000Y-72627000D01*
X130127000Y-72627000D01*
X130127000Y-74726250D01*
X130285750Y-74885000D01*
X130956805Y-74886698D01*
X130895506Y-74919463D01*
X130798815Y-74998815D01*
X130719463Y-75095506D01*
X130660498Y-75205820D01*
X130624188Y-75325518D01*
X130611928Y-75450000D01*
X130615000Y-76914250D01*
X130773750Y-77073000D01*
X132873000Y-77073000D01*
X132873000Y-74973750D01*
X132714250Y-74815000D01*
X131793633Y-74813069D01*
X131854494Y-74780537D01*
X131951185Y-74701185D01*
X132030537Y-74604494D01*
X132089502Y-74494180D01*
X132125812Y-74374482D01*
X132138072Y-74250000D01*
X132135000Y-72785750D01*
X131976250Y-72627000D01*
X130127000Y-72627000D01*
X129873000Y-72627000D01*
X128023750Y-72627000D01*
X127865000Y-72785750D01*
X127861928Y-74250000D01*
X126160000Y-74250000D01*
X126160000Y-70750000D01*
X127861928Y-70750000D01*
X127865000Y-72214250D01*
X128023750Y-72373000D01*
X129873000Y-72373000D01*
X129873000Y-70273750D01*
X130127000Y-70273750D01*
X130127000Y-72373000D01*
X131976250Y-72373000D01*
X132135000Y-72214250D01*
X132138072Y-70750000D01*
X132125812Y-70625518D01*
X132089502Y-70505820D01*
X132030537Y-70395506D01*
X131951185Y-70298815D01*
X131854494Y-70219463D01*
X131744180Y-70160498D01*
X131624482Y-70124188D01*
X131500000Y-70111928D01*
X130285750Y-70115000D01*
X130127000Y-70273750D01*
X129873000Y-70273750D01*
X129714250Y-70115000D01*
X128500000Y-70111928D01*
X128375518Y-70124188D01*
X128255820Y-70160498D01*
X128145506Y-70219463D01*
X128048815Y-70298815D01*
X127969463Y-70395506D01*
X127910498Y-70505820D01*
X127874188Y-70625518D01*
X127861928Y-70750000D01*
X126160000Y-70750000D01*
X126160000Y-66255000D01*
X126781928Y-66255000D01*
X126794188Y-66379482D01*
X126830498Y-66499180D01*
X126889463Y-66609494D01*
X126968815Y-66706185D01*
X127065506Y-66785537D01*
X127175820Y-66844502D01*
X127295518Y-66880812D01*
X127420000Y-66893072D01*
X127984250Y-66890000D01*
X128143000Y-66731250D01*
X128143000Y-65532000D01*
X126943750Y-65532000D01*
X126785000Y-65690750D01*
X126781928Y-66255000D01*
X126160000Y-66255000D01*
X126160000Y-64555000D01*
X126781928Y-64555000D01*
X126785000Y-65119250D01*
X126943750Y-65278000D01*
X128143000Y-65278000D01*
X128143000Y-64078750D01*
X127984250Y-63920000D01*
X127420000Y-63916928D01*
X127295518Y-63929188D01*
X127175820Y-63965498D01*
X127065506Y-64024463D01*
X126968815Y-64103815D01*
X126889463Y-64200506D01*
X126830498Y-64310820D01*
X126794188Y-64430518D01*
X126781928Y-64555000D01*
X126160000Y-64555000D01*
X126160000Y-62700000D01*
X132786928Y-62700000D01*
X132790000Y-63214250D01*
X132948750Y-63373000D01*
X134598000Y-63373000D01*
X134598000Y-62223750D01*
X134439250Y-62065000D01*
X133425000Y-62061928D01*
X133300518Y-62074188D01*
X133180820Y-62110498D01*
X133070506Y-62169463D01*
X132973815Y-62248815D01*
X132894463Y-62345506D01*
X132835498Y-62455820D01*
X132799188Y-62575518D01*
X132786928Y-62700000D01*
X126160000Y-62700000D01*
X126160000Y-60031409D01*
X126232221Y-59274445D01*
X126437398Y-58575060D01*
X126771120Y-57927096D01*
X127004493Y-57630000D01*
X134551928Y-57630000D01*
X134555000Y-57831750D01*
X134713750Y-57990500D01*
X135763000Y-57990500D01*
X135763000Y-57153750D01*
X136017000Y-57153750D01*
X136017000Y-57990500D01*
X137066250Y-57990500D01*
X137225000Y-57831750D01*
X137228072Y-57630000D01*
X137215812Y-57505518D01*
X137179502Y-57385820D01*
X137120537Y-57275506D01*
X137041185Y-57178815D01*
X136944494Y-57099463D01*
X136834180Y-57040498D01*
X136714482Y-57004188D01*
X136590000Y-56991928D01*
X136175750Y-56995000D01*
X136017000Y-57153750D01*
X135763000Y-57153750D01*
X135604250Y-56995000D01*
X135190000Y-56991928D01*
X135065518Y-57004188D01*
X134945820Y-57040498D01*
X134835506Y-57099463D01*
X134738815Y-57178815D01*
X134659463Y-57275506D01*
X134600498Y-57385820D01*
X134564188Y-57505518D01*
X134551928Y-57630000D01*
X127004493Y-57630000D01*
X127221353Y-57353926D01*
X127771839Y-56876238D01*
X128402730Y-56511258D01*
X129091248Y-56272164D01*
X129835790Y-56164210D01*
X130008063Y-56160000D01*
X144311662Y-56160000D01*
X144200811Y-56219251D01*
G36*
X150925000Y-73248928D02*
G01*
X150897310Y-73276618D01*
X150817958Y-73373309D01*
X150763502Y-73454808D01*
X150704536Y-73565125D01*
X150667027Y-73655681D01*
X150630718Y-73775377D01*
X150611596Y-73871510D01*
X150599336Y-73995991D01*
X150599336Y-74020550D01*
X150596928Y-74045000D01*
X150596928Y-74545000D01*
X150599336Y-74569450D01*
X150599336Y-74594009D01*
X150611596Y-74718490D01*
X150630718Y-74814623D01*
X150667027Y-74934319D01*
X150704536Y-75024875D01*
X150763502Y-75135192D01*
X150817958Y-75216691D01*
X150897310Y-75313382D01*
X150925000Y-75341072D01*
X150925001Y-78963927D01*
X150897310Y-78991618D01*
X150817958Y-79088309D01*
X150763502Y-79169808D01*
X150704536Y-79280125D01*
X150667027Y-79370681D01*
X150630718Y-79490377D01*
X150611596Y-79586510D01*
X150599336Y-79710991D01*
X150599336Y-79735550D01*
X150596928Y-79760000D01*
X150596928Y-80260000D01*
X150599336Y-80284450D01*
X150599336Y-80309009D01*
X150611596Y-80433490D01*
X150630718Y-80529623D01*
X150667027Y-80649319D01*
X150704536Y-80739875D01*
X150763502Y-80850192D01*
X150817958Y-80931691D01*
X150897310Y-81028382D01*
X150925001Y-81056073D01*
X150925001Y-81306986D01*
X147955000Y-84276988D01*
X147495000Y-83816988D01*
X147495000Y-81837888D01*
X147503387Y-81833405D01*
X147637962Y-81722962D01*
X147748405Y-81588387D01*
X147830472Y-81434851D01*
X147881008Y-81268255D01*
X147898072Y-81095001D01*
X147898072Y-80194999D01*
X147881008Y-80021745D01*
X147830472Y-79855149D01*
X147748405Y-79701613D01*
X147637962Y-79567038D01*
X147503387Y-79456595D01*
X147495000Y-79452112D01*
X147495000Y-78027888D01*
X147503387Y-78023405D01*
X147637962Y-77912962D01*
X147748405Y-77778387D01*
X147830472Y-77624851D01*
X147881008Y-77458255D01*
X147898072Y-77285001D01*
X147898072Y-76384999D01*
X147881008Y-76211745D01*
X147830472Y-76045149D01*
X147748405Y-75891613D01*
X147637962Y-75757038D01*
X147503387Y-75646595D01*
X147495000Y-75642112D01*
X147495000Y-74217888D01*
X147503387Y-74213405D01*
X147637962Y-74102962D01*
X147748405Y-73968387D01*
X147830472Y-73814851D01*
X147881008Y-73648255D01*
X147898072Y-73475001D01*
X147898072Y-72574999D01*
X147881008Y-72401745D01*
X147830472Y-72235149D01*
X147748405Y-72081613D01*
X147637962Y-71947038D01*
X147503387Y-71836595D01*
X147349851Y-71754528D01*
X147274984Y-71731817D01*
X150673503Y-68333299D01*
X150702501Y-68309501D01*
X150797474Y-68193776D01*
X150868046Y-68061747D01*
X150911503Y-67918486D01*
X150922500Y-67806833D01*
X150922500Y-67806825D01*
X150925000Y-67781436D01*
X150925000Y-73248928D01*
G37*
X150925000Y-73248928D02*
X150897310Y-73276618D01*
X150817958Y-73373309D01*
X150763502Y-73454808D01*
X150704536Y-73565125D01*
X150667027Y-73655681D01*
X150630718Y-73775377D01*
X150611596Y-73871510D01*
X150599336Y-73995991D01*
X150599336Y-74020550D01*
X150596928Y-74045000D01*
X150596928Y-74545000D01*
X150599336Y-74569450D01*
X150599336Y-74594009D01*
X150611596Y-74718490D01*
X150630718Y-74814623D01*
X150667027Y-74934319D01*
X150704536Y-75024875D01*
X150763502Y-75135192D01*
X150817958Y-75216691D01*
X150897310Y-75313382D01*
X150925000Y-75341072D01*
X150925001Y-78963927D01*
X150897310Y-78991618D01*
X150817958Y-79088309D01*
X150763502Y-79169808D01*
X150704536Y-79280125D01*
X150667027Y-79370681D01*
X150630718Y-79490377D01*
X150611596Y-79586510D01*
X150599336Y-79710991D01*
X150599336Y-79735550D01*
X150596928Y-79760000D01*
X150596928Y-80260000D01*
X150599336Y-80284450D01*
X150599336Y-80309009D01*
X150611596Y-80433490D01*
X150630718Y-80529623D01*
X150667027Y-80649319D01*
X150704536Y-80739875D01*
X150763502Y-80850192D01*
X150817958Y-80931691D01*
X150897310Y-81028382D01*
X150925001Y-81056073D01*
X150925001Y-81306986D01*
X147955000Y-84276988D01*
X147495000Y-83816988D01*
X147495000Y-81837888D01*
X147503387Y-81833405D01*
X147637962Y-81722962D01*
X147748405Y-81588387D01*
X147830472Y-81434851D01*
X147881008Y-81268255D01*
X147898072Y-81095001D01*
X147898072Y-80194999D01*
X147881008Y-80021745D01*
X147830472Y-79855149D01*
X147748405Y-79701613D01*
X147637962Y-79567038D01*
X147503387Y-79456595D01*
X147495000Y-79452112D01*
X147495000Y-78027888D01*
X147503387Y-78023405D01*
X147637962Y-77912962D01*
X147748405Y-77778387D01*
X147830472Y-77624851D01*
X147881008Y-77458255D01*
X147898072Y-77285001D01*
X147898072Y-76384999D01*
X147881008Y-76211745D01*
X147830472Y-76045149D01*
X147748405Y-75891613D01*
X147637962Y-75757038D01*
X147503387Y-75646595D01*
X147495000Y-75642112D01*
X147495000Y-74217888D01*
X147503387Y-74213405D01*
X147637962Y-74102962D01*
X147748405Y-73968387D01*
X147830472Y-73814851D01*
X147881008Y-73648255D01*
X147898072Y-73475001D01*
X147898072Y-72574999D01*
X147881008Y-72401745D01*
X147830472Y-72235149D01*
X147748405Y-72081613D01*
X147637962Y-71947038D01*
X147503387Y-71836595D01*
X147349851Y-71754528D01*
X147274984Y-71731817D01*
X150673503Y-68333299D01*
X150702501Y-68309501D01*
X150797474Y-68193776D01*
X150868046Y-68061747D01*
X150911503Y-67918486D01*
X150922500Y-67806833D01*
X150922500Y-67806825D01*
X150925000Y-67781436D01*
X150925000Y-73248928D01*
G36*
X152592038Y-61032962D02*
G01*
X152726613Y-61143405D01*
X152880149Y-61225472D01*
X153046745Y-61276008D01*
X153219999Y-61293072D01*
X153873560Y-61293072D01*
X156752105Y-64171618D01*
X156777472Y-64202528D01*
X156852997Y-64264509D01*
X156900811Y-64303749D01*
X157041526Y-64378963D01*
X157194212Y-64425280D01*
X157353000Y-64440919D01*
X157392791Y-64437000D01*
X167431488Y-64437000D01*
X168367488Y-65373000D01*
X167368837Y-65373000D01*
X167064405Y-65343150D01*
X167064402Y-65343150D01*
X167032419Y-65340000D01*
X158467581Y-65340000D01*
X158438627Y-65342852D01*
X158426219Y-65342765D01*
X158417047Y-65343665D01*
X158137946Y-65373000D01*
X158000000Y-65373000D01*
X157975224Y-65375440D01*
X157951399Y-65382667D01*
X157929443Y-65394403D01*
X157913764Y-65407270D01*
X157911498Y-65407702D01*
X157902677Y-65410366D01*
X157529802Y-65525790D01*
X157474647Y-65548975D01*
X157419194Y-65571379D01*
X157411062Y-65575704D01*
X157411057Y-65575706D01*
X157411053Y-65575709D01*
X157067702Y-65761357D01*
X157018101Y-65794813D01*
X156968054Y-65827563D01*
X156960913Y-65833387D01*
X156660158Y-66082194D01*
X156618019Y-66124629D01*
X156575269Y-66166492D01*
X156569396Y-66173593D01*
X156322695Y-66476077D01*
X156289598Y-66525893D01*
X156255795Y-66575259D01*
X156251413Y-66583365D01*
X156068163Y-66928007D01*
X156045368Y-66983313D01*
X156021802Y-67038296D01*
X156019077Y-67047099D01*
X155906259Y-67420770D01*
X155894639Y-67479458D01*
X155882203Y-67537961D01*
X155881240Y-67547126D01*
X155843150Y-67935595D01*
X155843150Y-67935608D01*
X155840001Y-67967581D01*
X155840000Y-72850199D01*
X155376804Y-72387002D01*
X155353001Y-72357999D01*
X155237276Y-72263026D01*
X155105247Y-72192454D01*
X154961986Y-72148997D01*
X154850333Y-72138000D01*
X154850322Y-72138000D01*
X154813000Y-72134324D01*
X154775678Y-72138000D01*
X153469325Y-72138000D01*
X153432000Y-72134324D01*
X153394675Y-72138000D01*
X153394667Y-72138000D01*
X153283014Y-72148997D01*
X153139753Y-72192454D01*
X153007724Y-72263026D01*
X152891999Y-72357999D01*
X152868196Y-72387003D01*
X152545000Y-72710199D01*
X152545000Y-60975646D01*
X152592038Y-61032962D01*
G37*
X152592038Y-61032962D02*
X152726613Y-61143405D01*
X152880149Y-61225472D01*
X153046745Y-61276008D01*
X153219999Y-61293072D01*
X153873560Y-61293072D01*
X156752105Y-64171618D01*
X156777472Y-64202528D01*
X156852997Y-64264509D01*
X156900811Y-64303749D01*
X157041526Y-64378963D01*
X157194212Y-64425280D01*
X157353000Y-64440919D01*
X157392791Y-64437000D01*
X167431488Y-64437000D01*
X168367488Y-65373000D01*
X167368837Y-65373000D01*
X167064405Y-65343150D01*
X167064402Y-65343150D01*
X167032419Y-65340000D01*
X158467581Y-65340000D01*
X158438627Y-65342852D01*
X158426219Y-65342765D01*
X158417047Y-65343665D01*
X158137946Y-65373000D01*
X158000000Y-65373000D01*
X157975224Y-65375440D01*
X157951399Y-65382667D01*
X157929443Y-65394403D01*
X157913764Y-65407270D01*
X157911498Y-65407702D01*
X157902677Y-65410366D01*
X157529802Y-65525790D01*
X157474647Y-65548975D01*
X157419194Y-65571379D01*
X157411062Y-65575704D01*
X157411057Y-65575706D01*
X157411053Y-65575709D01*
X157067702Y-65761357D01*
X157018101Y-65794813D01*
X156968054Y-65827563D01*
X156960913Y-65833387D01*
X156660158Y-66082194D01*
X156618019Y-66124629D01*
X156575269Y-66166492D01*
X156569396Y-66173593D01*
X156322695Y-66476077D01*
X156289598Y-66525893D01*
X156255795Y-66575259D01*
X156251413Y-66583365D01*
X156068163Y-66928007D01*
X156045368Y-66983313D01*
X156021802Y-67038296D01*
X156019077Y-67047099D01*
X155906259Y-67420770D01*
X155894639Y-67479458D01*
X155882203Y-67537961D01*
X155881240Y-67547126D01*
X155843150Y-67935595D01*
X155843150Y-67935608D01*
X155840001Y-67967581D01*
X155840000Y-72850199D01*
X155376804Y-72387002D01*
X155353001Y-72357999D01*
X155237276Y-72263026D01*
X155105247Y-72192454D01*
X154961986Y-72148997D01*
X154850333Y-72138000D01*
X154850322Y-72138000D01*
X154813000Y-72134324D01*
X154775678Y-72138000D01*
X153469325Y-72138000D01*
X153432000Y-72134324D01*
X153394675Y-72138000D01*
X153394667Y-72138000D01*
X153283014Y-72148997D01*
X153139753Y-72192454D01*
X153007724Y-72263026D01*
X152891999Y-72357999D01*
X152868196Y-72387003D01*
X152545000Y-72710199D01*
X152545000Y-60975646D01*
X152592038Y-61032962D01*
G36*
X142866928Y-59625000D02*
G01*
X142870000Y-59869250D01*
X143028750Y-60028000D01*
X143703000Y-60028000D01*
X143703000Y-60008000D01*
X143816928Y-60008000D01*
X143816928Y-60685000D01*
X143829188Y-60809482D01*
X143865498Y-60929180D01*
X143924463Y-61039494D01*
X143957000Y-61079141D01*
X143957000Y-61161250D01*
X143980867Y-61185117D01*
X143981721Y-61193787D01*
X144018000Y-61313382D01*
X144018000Y-62910250D01*
X143969500Y-62958750D01*
X143969500Y-64008000D01*
X143989500Y-64008000D01*
X143989500Y-64262000D01*
X143969500Y-64262000D01*
X143969500Y-64282000D01*
X143715500Y-64282000D01*
X143715500Y-64262000D01*
X142878750Y-64262000D01*
X142720000Y-64420750D01*
X142718352Y-64643000D01*
X140161681Y-64643000D01*
X140214502Y-64544180D01*
X140250812Y-64424482D01*
X140263072Y-64300000D01*
X140260000Y-63785750D01*
X140101250Y-63627000D01*
X138452000Y-63627000D01*
X138452000Y-63647000D01*
X138198000Y-63647000D01*
X138198000Y-63627000D01*
X138178000Y-63627000D01*
X138178000Y-63435000D01*
X142716928Y-63435000D01*
X142720000Y-63849250D01*
X142878750Y-64008000D01*
X143715500Y-64008000D01*
X143715500Y-62958750D01*
X143556750Y-62800000D01*
X143355000Y-62796928D01*
X143230518Y-62809188D01*
X143110820Y-62845498D01*
X143000506Y-62904463D01*
X142903815Y-62983815D01*
X142824463Y-63080506D01*
X142765498Y-63190820D01*
X142729188Y-63310518D01*
X142716928Y-63435000D01*
X138178000Y-63435000D01*
X138178000Y-63373000D01*
X138198000Y-63373000D01*
X138198000Y-62223750D01*
X138452000Y-62223750D01*
X138452000Y-63373000D01*
X140101250Y-63373000D01*
X140260000Y-63214250D01*
X140263072Y-62700000D01*
X140250812Y-62575518D01*
X140214502Y-62455820D01*
X140155537Y-62345506D01*
X140076185Y-62248815D01*
X139979494Y-62169463D01*
X139869180Y-62110498D01*
X139749482Y-62074188D01*
X139625000Y-62061928D01*
X138610750Y-62065000D01*
X138452000Y-62223750D01*
X138198000Y-62223750D01*
X138039250Y-62065000D01*
X137287000Y-62062722D01*
X137287000Y-61009401D01*
X137522493Y-60752500D01*
X137700178Y-60752500D01*
X137737500Y-60756176D01*
X137774822Y-60752500D01*
X137774833Y-60752500D01*
X137886486Y-60741503D01*
X138029747Y-60698046D01*
X138161776Y-60627474D01*
X138277501Y-60532501D01*
X138301304Y-60503497D01*
X138364205Y-60440596D01*
X138361928Y-60655000D01*
X138374188Y-60779482D01*
X138410498Y-60899180D01*
X138469463Y-61009494D01*
X138548815Y-61106185D01*
X138645506Y-61185537D01*
X138755820Y-61244502D01*
X138875518Y-61280812D01*
X139000000Y-61293072D01*
X139414250Y-61290000D01*
X139573000Y-61131250D01*
X139573000Y-60207000D01*
X139827000Y-60207000D01*
X139827000Y-61131250D01*
X139985750Y-61290000D01*
X140400000Y-61293072D01*
X140524482Y-61280812D01*
X140644180Y-61244502D01*
X140754494Y-61185537D01*
X140851185Y-61106185D01*
X140930537Y-61009494D01*
X140989502Y-60899180D01*
X141025812Y-60779482D01*
X141035117Y-60685000D01*
X142866928Y-60685000D01*
X142879188Y-60809482D01*
X142915498Y-60929180D01*
X142974463Y-61039494D01*
X143053815Y-61136185D01*
X143150506Y-61215537D01*
X143260820Y-61274502D01*
X143380518Y-61310812D01*
X143505000Y-61323072D01*
X143544250Y-61320000D01*
X143703000Y-61161250D01*
X143703000Y-60282000D01*
X143028750Y-60282000D01*
X142870000Y-60440750D01*
X142866928Y-60685000D01*
X141035117Y-60685000D01*
X141038072Y-60655000D01*
X141035000Y-60365750D01*
X140876250Y-60207000D01*
X139827000Y-60207000D01*
X139573000Y-60207000D01*
X139553000Y-60207000D01*
X139553000Y-59953000D01*
X139573000Y-59953000D01*
X139573000Y-59933000D01*
X139827000Y-59933000D01*
X139827000Y-59953000D01*
X140876250Y-59953000D01*
X141035000Y-59794250D01*
X141037456Y-59563000D01*
X142873034Y-59563000D01*
X142866928Y-59625000D01*
G37*
X142866928Y-59625000D02*
X142870000Y-59869250D01*
X143028750Y-60028000D01*
X143703000Y-60028000D01*
X143703000Y-60008000D01*
X143816928Y-60008000D01*
X143816928Y-60685000D01*
X143829188Y-60809482D01*
X143865498Y-60929180D01*
X143924463Y-61039494D01*
X143957000Y-61079141D01*
X143957000Y-61161250D01*
X143980867Y-61185117D01*
X143981721Y-61193787D01*
X144018000Y-61313382D01*
X144018000Y-62910250D01*
X143969500Y-62958750D01*
X143969500Y-64008000D01*
X143989500Y-64008000D01*
X143989500Y-64262000D01*
X143969500Y-64262000D01*
X143969500Y-64282000D01*
X143715500Y-64282000D01*
X143715500Y-64262000D01*
X142878750Y-64262000D01*
X142720000Y-64420750D01*
X142718352Y-64643000D01*
X140161681Y-64643000D01*
X140214502Y-64544180D01*
X140250812Y-64424482D01*
X140263072Y-64300000D01*
X140260000Y-63785750D01*
X140101250Y-63627000D01*
X138452000Y-63627000D01*
X138452000Y-63647000D01*
X138198000Y-63647000D01*
X138198000Y-63627000D01*
X138178000Y-63627000D01*
X138178000Y-63435000D01*
X142716928Y-63435000D01*
X142720000Y-63849250D01*
X142878750Y-64008000D01*
X143715500Y-64008000D01*
X143715500Y-62958750D01*
X143556750Y-62800000D01*
X143355000Y-62796928D01*
X143230518Y-62809188D01*
X143110820Y-62845498D01*
X143000506Y-62904463D01*
X142903815Y-62983815D01*
X142824463Y-63080506D01*
X142765498Y-63190820D01*
X142729188Y-63310518D01*
X142716928Y-63435000D01*
X138178000Y-63435000D01*
X138178000Y-63373000D01*
X138198000Y-63373000D01*
X138198000Y-62223750D01*
X138452000Y-62223750D01*
X138452000Y-63373000D01*
X140101250Y-63373000D01*
X140260000Y-63214250D01*
X140263072Y-62700000D01*
X140250812Y-62575518D01*
X140214502Y-62455820D01*
X140155537Y-62345506D01*
X140076185Y-62248815D01*
X139979494Y-62169463D01*
X139869180Y-62110498D01*
X139749482Y-62074188D01*
X139625000Y-62061928D01*
X138610750Y-62065000D01*
X138452000Y-62223750D01*
X138198000Y-62223750D01*
X138039250Y-62065000D01*
X137287000Y-62062722D01*
X137287000Y-61009401D01*
X137522493Y-60752500D01*
X137700178Y-60752500D01*
X137737500Y-60756176D01*
X137774822Y-60752500D01*
X137774833Y-60752500D01*
X137886486Y-60741503D01*
X138029747Y-60698046D01*
X138161776Y-60627474D01*
X138277501Y-60532501D01*
X138301304Y-60503497D01*
X138364205Y-60440596D01*
X138361928Y-60655000D01*
X138374188Y-60779482D01*
X138410498Y-60899180D01*
X138469463Y-61009494D01*
X138548815Y-61106185D01*
X138645506Y-61185537D01*
X138755820Y-61244502D01*
X138875518Y-61280812D01*
X139000000Y-61293072D01*
X139414250Y-61290000D01*
X139573000Y-61131250D01*
X139573000Y-60207000D01*
X139827000Y-60207000D01*
X139827000Y-61131250D01*
X139985750Y-61290000D01*
X140400000Y-61293072D01*
X140524482Y-61280812D01*
X140644180Y-61244502D01*
X140754494Y-61185537D01*
X140851185Y-61106185D01*
X140930537Y-61009494D01*
X140989502Y-60899180D01*
X141025812Y-60779482D01*
X141035117Y-60685000D01*
X142866928Y-60685000D01*
X142879188Y-60809482D01*
X142915498Y-60929180D01*
X142974463Y-61039494D01*
X143053815Y-61136185D01*
X143150506Y-61215537D01*
X143260820Y-61274502D01*
X143380518Y-61310812D01*
X143505000Y-61323072D01*
X143544250Y-61320000D01*
X143703000Y-61161250D01*
X143703000Y-60282000D01*
X143028750Y-60282000D01*
X142870000Y-60440750D01*
X142866928Y-60685000D01*
X141035117Y-60685000D01*
X141038072Y-60655000D01*
X141035000Y-60365750D01*
X140876250Y-60207000D01*
X139827000Y-60207000D01*
X139573000Y-60207000D01*
X139553000Y-60207000D01*
X139553000Y-59953000D01*
X139573000Y-59953000D01*
X139573000Y-59933000D01*
X139827000Y-59933000D01*
X139827000Y-59953000D01*
X140876250Y-59953000D01*
X141035000Y-59794250D01*
X141037456Y-59563000D01*
X142873034Y-59563000D01*
X142866928Y-59625000D01*
M02*
