G04 #@! TF.GenerationSoftware,KiCad,Pcbnew,(5.1.5-0-10_14)*
G04 #@! TF.CreationDate,2020-08-04T00:57:44-05:00*
G04 #@! TF.ProjectId,TempHumSensWithESP01,54656d70-4875-46d5-9365-6e7357697468,rev?*
G04 #@! TF.SameCoordinates,Original*
G04 #@! TF.FileFunction,Paste,Top*
G04 #@! TF.FilePolarity,Positive*
%FSLAX46Y46*%
G04 Gerber Fmt 4.6, Leading zero omitted, Abs format (unit mm)*
G04 Created by KiCad (PCBNEW (5.1.5-0-10_14)) date 2020-08-04 00:57:44*
%MOMM*%
%LPD*%
G04 APERTURE LIST*
%ADD10C,0.100000*%
%ADD11R,1.000000X0.900000*%
%ADD12R,0.650000X1.060000*%
%ADD13R,1.200000X0.900000*%
G04 APERTURE END LIST*
D10*
G36*
X135799504Y-62701204D02*
G01*
X135823773Y-62704804D01*
X135847571Y-62710765D01*
X135870671Y-62719030D01*
X135892849Y-62729520D01*
X135913893Y-62742133D01*
X135933598Y-62756747D01*
X135951777Y-62773223D01*
X135968253Y-62791402D01*
X135982867Y-62811107D01*
X135995480Y-62832151D01*
X136005970Y-62854329D01*
X136014235Y-62877429D01*
X136020196Y-62901227D01*
X136023796Y-62925496D01*
X136025000Y-62950000D01*
X136025000Y-64050000D01*
X136023796Y-64074504D01*
X136020196Y-64098773D01*
X136014235Y-64122571D01*
X136005970Y-64145671D01*
X135995480Y-64167849D01*
X135982867Y-64188893D01*
X135968253Y-64208598D01*
X135951777Y-64226777D01*
X135933598Y-64243253D01*
X135913893Y-64257867D01*
X135892849Y-64270480D01*
X135870671Y-64280970D01*
X135847571Y-64289235D01*
X135823773Y-64295196D01*
X135799504Y-64298796D01*
X135775000Y-64300000D01*
X133675000Y-64300000D01*
X133650496Y-64298796D01*
X133626227Y-64295196D01*
X133602429Y-64289235D01*
X133579329Y-64280970D01*
X133557151Y-64270480D01*
X133536107Y-64257867D01*
X133516402Y-64243253D01*
X133498223Y-64226777D01*
X133481747Y-64208598D01*
X133467133Y-64188893D01*
X133454520Y-64167849D01*
X133444030Y-64145671D01*
X133435765Y-64122571D01*
X133429804Y-64098773D01*
X133426204Y-64074504D01*
X133425000Y-64050000D01*
X133425000Y-62950000D01*
X133426204Y-62925496D01*
X133429804Y-62901227D01*
X133435765Y-62877429D01*
X133444030Y-62854329D01*
X133454520Y-62832151D01*
X133467133Y-62811107D01*
X133481747Y-62791402D01*
X133498223Y-62773223D01*
X133516402Y-62756747D01*
X133536107Y-62742133D01*
X133557151Y-62729520D01*
X133579329Y-62719030D01*
X133602429Y-62710765D01*
X133626227Y-62704804D01*
X133650496Y-62701204D01*
X133675000Y-62700000D01*
X135775000Y-62700000D01*
X135799504Y-62701204D01*
G37*
G36*
X139399504Y-62701204D02*
G01*
X139423773Y-62704804D01*
X139447571Y-62710765D01*
X139470671Y-62719030D01*
X139492849Y-62729520D01*
X139513893Y-62742133D01*
X139533598Y-62756747D01*
X139551777Y-62773223D01*
X139568253Y-62791402D01*
X139582867Y-62811107D01*
X139595480Y-62832151D01*
X139605970Y-62854329D01*
X139614235Y-62877429D01*
X139620196Y-62901227D01*
X139623796Y-62925496D01*
X139625000Y-62950000D01*
X139625000Y-64050000D01*
X139623796Y-64074504D01*
X139620196Y-64098773D01*
X139614235Y-64122571D01*
X139605970Y-64145671D01*
X139595480Y-64167849D01*
X139582867Y-64188893D01*
X139568253Y-64208598D01*
X139551777Y-64226777D01*
X139533598Y-64243253D01*
X139513893Y-64257867D01*
X139492849Y-64270480D01*
X139470671Y-64280970D01*
X139447571Y-64289235D01*
X139423773Y-64295196D01*
X139399504Y-64298796D01*
X139375000Y-64300000D01*
X137275000Y-64300000D01*
X137250496Y-64298796D01*
X137226227Y-64295196D01*
X137202429Y-64289235D01*
X137179329Y-64280970D01*
X137157151Y-64270480D01*
X137136107Y-64257867D01*
X137116402Y-64243253D01*
X137098223Y-64226777D01*
X137081747Y-64208598D01*
X137067133Y-64188893D01*
X137054520Y-64167849D01*
X137044030Y-64145671D01*
X137035765Y-64122571D01*
X137029804Y-64098773D01*
X137026204Y-64074504D01*
X137025000Y-64050000D01*
X137025000Y-62950000D01*
X137026204Y-62925496D01*
X137029804Y-62901227D01*
X137035765Y-62877429D01*
X137044030Y-62854329D01*
X137054520Y-62832151D01*
X137067133Y-62811107D01*
X137081747Y-62791402D01*
X137098223Y-62773223D01*
X137116402Y-62756747D01*
X137136107Y-62742133D01*
X137157151Y-62729520D01*
X137179329Y-62719030D01*
X137202429Y-62710765D01*
X137226227Y-62704804D01*
X137250496Y-62701204D01*
X137275000Y-62700000D01*
X139375000Y-62700000D01*
X139399504Y-62701204D01*
G37*
G36*
X148435142Y-86811174D02*
G01*
X148458803Y-86814684D01*
X148482007Y-86820496D01*
X148504529Y-86828554D01*
X148526153Y-86838782D01*
X148546670Y-86851079D01*
X148565883Y-86865329D01*
X148583607Y-86881393D01*
X148599671Y-86899117D01*
X148613921Y-86918330D01*
X148626218Y-86938847D01*
X148636446Y-86960471D01*
X148644504Y-86982993D01*
X148650316Y-87006197D01*
X148653826Y-87029858D01*
X148655000Y-87053750D01*
X148655000Y-87541250D01*
X148653826Y-87565142D01*
X148650316Y-87588803D01*
X148644504Y-87612007D01*
X148636446Y-87634529D01*
X148626218Y-87656153D01*
X148613921Y-87676670D01*
X148599671Y-87695883D01*
X148583607Y-87713607D01*
X148565883Y-87729671D01*
X148546670Y-87743921D01*
X148526153Y-87756218D01*
X148504529Y-87766446D01*
X148482007Y-87774504D01*
X148458803Y-87780316D01*
X148435142Y-87783826D01*
X148411250Y-87785000D01*
X147498750Y-87785000D01*
X147474858Y-87783826D01*
X147451197Y-87780316D01*
X147427993Y-87774504D01*
X147405471Y-87766446D01*
X147383847Y-87756218D01*
X147363330Y-87743921D01*
X147344117Y-87729671D01*
X147326393Y-87713607D01*
X147310329Y-87695883D01*
X147296079Y-87676670D01*
X147283782Y-87656153D01*
X147273554Y-87634529D01*
X147265496Y-87612007D01*
X147259684Y-87588803D01*
X147256174Y-87565142D01*
X147255000Y-87541250D01*
X147255000Y-87053750D01*
X147256174Y-87029858D01*
X147259684Y-87006197D01*
X147265496Y-86982993D01*
X147273554Y-86960471D01*
X147283782Y-86938847D01*
X147296079Y-86918330D01*
X147310329Y-86899117D01*
X147326393Y-86881393D01*
X147344117Y-86865329D01*
X147363330Y-86851079D01*
X147383847Y-86838782D01*
X147405471Y-86828554D01*
X147427993Y-86820496D01*
X147451197Y-86814684D01*
X147474858Y-86811174D01*
X147498750Y-86810000D01*
X148411250Y-86810000D01*
X148435142Y-86811174D01*
G37*
G36*
X148435142Y-84936174D02*
G01*
X148458803Y-84939684D01*
X148482007Y-84945496D01*
X148504529Y-84953554D01*
X148526153Y-84963782D01*
X148546670Y-84976079D01*
X148565883Y-84990329D01*
X148583607Y-85006393D01*
X148599671Y-85024117D01*
X148613921Y-85043330D01*
X148626218Y-85063847D01*
X148636446Y-85085471D01*
X148644504Y-85107993D01*
X148650316Y-85131197D01*
X148653826Y-85154858D01*
X148655000Y-85178750D01*
X148655000Y-85666250D01*
X148653826Y-85690142D01*
X148650316Y-85713803D01*
X148644504Y-85737007D01*
X148636446Y-85759529D01*
X148626218Y-85781153D01*
X148613921Y-85801670D01*
X148599671Y-85820883D01*
X148583607Y-85838607D01*
X148565883Y-85854671D01*
X148546670Y-85868921D01*
X148526153Y-85881218D01*
X148504529Y-85891446D01*
X148482007Y-85899504D01*
X148458803Y-85905316D01*
X148435142Y-85908826D01*
X148411250Y-85910000D01*
X147498750Y-85910000D01*
X147474858Y-85908826D01*
X147451197Y-85905316D01*
X147427993Y-85899504D01*
X147405471Y-85891446D01*
X147383847Y-85881218D01*
X147363330Y-85868921D01*
X147344117Y-85854671D01*
X147326393Y-85838607D01*
X147310329Y-85820883D01*
X147296079Y-85801670D01*
X147283782Y-85781153D01*
X147273554Y-85759529D01*
X147265496Y-85737007D01*
X147259684Y-85713803D01*
X147256174Y-85690142D01*
X147255000Y-85666250D01*
X147255000Y-85178750D01*
X147256174Y-85154858D01*
X147259684Y-85131197D01*
X147265496Y-85107993D01*
X147273554Y-85085471D01*
X147283782Y-85063847D01*
X147296079Y-85043330D01*
X147310329Y-85024117D01*
X147326393Y-85006393D01*
X147344117Y-84990329D01*
X147363330Y-84976079D01*
X147383847Y-84963782D01*
X147405471Y-84953554D01*
X147427993Y-84945496D01*
X147451197Y-84939684D01*
X147474858Y-84936174D01*
X147498750Y-84935000D01*
X148411250Y-84935000D01*
X148435142Y-84936174D01*
G37*
D11*
X166205000Y-62121000D03*
X167805000Y-62121000D03*
X166205000Y-58021000D03*
X167805000Y-58021000D03*
D10*
G36*
X157960142Y-59506174D02*
G01*
X157983803Y-59509684D01*
X158007007Y-59515496D01*
X158029529Y-59523554D01*
X158051153Y-59533782D01*
X158071670Y-59546079D01*
X158090883Y-59560329D01*
X158108607Y-59576393D01*
X158124671Y-59594117D01*
X158138921Y-59613330D01*
X158151218Y-59633847D01*
X158161446Y-59655471D01*
X158169504Y-59677993D01*
X158175316Y-59701197D01*
X158178826Y-59724858D01*
X158180000Y-59748750D01*
X158180000Y-60236250D01*
X158178826Y-60260142D01*
X158175316Y-60283803D01*
X158169504Y-60307007D01*
X158161446Y-60329529D01*
X158151218Y-60351153D01*
X158138921Y-60371670D01*
X158124671Y-60390883D01*
X158108607Y-60408607D01*
X158090883Y-60424671D01*
X158071670Y-60438921D01*
X158051153Y-60451218D01*
X158029529Y-60461446D01*
X158007007Y-60469504D01*
X157983803Y-60475316D01*
X157960142Y-60478826D01*
X157936250Y-60480000D01*
X157023750Y-60480000D01*
X156999858Y-60478826D01*
X156976197Y-60475316D01*
X156952993Y-60469504D01*
X156930471Y-60461446D01*
X156908847Y-60451218D01*
X156888330Y-60438921D01*
X156869117Y-60424671D01*
X156851393Y-60408607D01*
X156835329Y-60390883D01*
X156821079Y-60371670D01*
X156808782Y-60351153D01*
X156798554Y-60329529D01*
X156790496Y-60307007D01*
X156784684Y-60283803D01*
X156781174Y-60260142D01*
X156780000Y-60236250D01*
X156780000Y-59748750D01*
X156781174Y-59724858D01*
X156784684Y-59701197D01*
X156790496Y-59677993D01*
X156798554Y-59655471D01*
X156808782Y-59633847D01*
X156821079Y-59613330D01*
X156835329Y-59594117D01*
X156851393Y-59576393D01*
X156869117Y-59560329D01*
X156888330Y-59546079D01*
X156908847Y-59533782D01*
X156930471Y-59523554D01*
X156952993Y-59515496D01*
X156976197Y-59509684D01*
X156999858Y-59506174D01*
X157023750Y-59505000D01*
X157936250Y-59505000D01*
X157960142Y-59506174D01*
G37*
G36*
X157960142Y-57631174D02*
G01*
X157983803Y-57634684D01*
X158007007Y-57640496D01*
X158029529Y-57648554D01*
X158051153Y-57658782D01*
X158071670Y-57671079D01*
X158090883Y-57685329D01*
X158108607Y-57701393D01*
X158124671Y-57719117D01*
X158138921Y-57738330D01*
X158151218Y-57758847D01*
X158161446Y-57780471D01*
X158169504Y-57802993D01*
X158175316Y-57826197D01*
X158178826Y-57849858D01*
X158180000Y-57873750D01*
X158180000Y-58361250D01*
X158178826Y-58385142D01*
X158175316Y-58408803D01*
X158169504Y-58432007D01*
X158161446Y-58454529D01*
X158151218Y-58476153D01*
X158138921Y-58496670D01*
X158124671Y-58515883D01*
X158108607Y-58533607D01*
X158090883Y-58549671D01*
X158071670Y-58563921D01*
X158051153Y-58576218D01*
X158029529Y-58586446D01*
X158007007Y-58594504D01*
X157983803Y-58600316D01*
X157960142Y-58603826D01*
X157936250Y-58605000D01*
X157023750Y-58605000D01*
X156999858Y-58603826D01*
X156976197Y-58600316D01*
X156952993Y-58594504D01*
X156930471Y-58586446D01*
X156908847Y-58576218D01*
X156888330Y-58563921D01*
X156869117Y-58549671D01*
X156851393Y-58533607D01*
X156835329Y-58515883D01*
X156821079Y-58496670D01*
X156808782Y-58476153D01*
X156798554Y-58454529D01*
X156790496Y-58432007D01*
X156784684Y-58408803D01*
X156781174Y-58385142D01*
X156780000Y-58361250D01*
X156780000Y-57873750D01*
X156781174Y-57849858D01*
X156784684Y-57826197D01*
X156790496Y-57802993D01*
X156798554Y-57780471D01*
X156808782Y-57758847D01*
X156821079Y-57738330D01*
X156835329Y-57719117D01*
X156851393Y-57701393D01*
X156869117Y-57685329D01*
X156888330Y-57671079D01*
X156908847Y-57658782D01*
X156930471Y-57648554D01*
X156952993Y-57640496D01*
X156976197Y-57634684D01*
X156999858Y-57631174D01*
X157023750Y-57630000D01*
X157936250Y-57630000D01*
X157960142Y-57631174D01*
G37*
G36*
X136370142Y-59506174D02*
G01*
X136393803Y-59509684D01*
X136417007Y-59515496D01*
X136439529Y-59523554D01*
X136461153Y-59533782D01*
X136481670Y-59546079D01*
X136500883Y-59560329D01*
X136518607Y-59576393D01*
X136534671Y-59594117D01*
X136548921Y-59613330D01*
X136561218Y-59633847D01*
X136571446Y-59655471D01*
X136579504Y-59677993D01*
X136585316Y-59701197D01*
X136588826Y-59724858D01*
X136590000Y-59748750D01*
X136590000Y-60236250D01*
X136588826Y-60260142D01*
X136585316Y-60283803D01*
X136579504Y-60307007D01*
X136571446Y-60329529D01*
X136561218Y-60351153D01*
X136548921Y-60371670D01*
X136534671Y-60390883D01*
X136518607Y-60408607D01*
X136500883Y-60424671D01*
X136481670Y-60438921D01*
X136461153Y-60451218D01*
X136439529Y-60461446D01*
X136417007Y-60469504D01*
X136393803Y-60475316D01*
X136370142Y-60478826D01*
X136346250Y-60480000D01*
X135433750Y-60480000D01*
X135409858Y-60478826D01*
X135386197Y-60475316D01*
X135362993Y-60469504D01*
X135340471Y-60461446D01*
X135318847Y-60451218D01*
X135298330Y-60438921D01*
X135279117Y-60424671D01*
X135261393Y-60408607D01*
X135245329Y-60390883D01*
X135231079Y-60371670D01*
X135218782Y-60351153D01*
X135208554Y-60329529D01*
X135200496Y-60307007D01*
X135194684Y-60283803D01*
X135191174Y-60260142D01*
X135190000Y-60236250D01*
X135190000Y-59748750D01*
X135191174Y-59724858D01*
X135194684Y-59701197D01*
X135200496Y-59677993D01*
X135208554Y-59655471D01*
X135218782Y-59633847D01*
X135231079Y-59613330D01*
X135245329Y-59594117D01*
X135261393Y-59576393D01*
X135279117Y-59560329D01*
X135298330Y-59546079D01*
X135318847Y-59533782D01*
X135340471Y-59523554D01*
X135362993Y-59515496D01*
X135386197Y-59509684D01*
X135409858Y-59506174D01*
X135433750Y-59505000D01*
X136346250Y-59505000D01*
X136370142Y-59506174D01*
G37*
G36*
X136370142Y-57631174D02*
G01*
X136393803Y-57634684D01*
X136417007Y-57640496D01*
X136439529Y-57648554D01*
X136461153Y-57658782D01*
X136481670Y-57671079D01*
X136500883Y-57685329D01*
X136518607Y-57701393D01*
X136534671Y-57719117D01*
X136548921Y-57738330D01*
X136561218Y-57758847D01*
X136571446Y-57780471D01*
X136579504Y-57802993D01*
X136585316Y-57826197D01*
X136588826Y-57849858D01*
X136590000Y-57873750D01*
X136590000Y-58361250D01*
X136588826Y-58385142D01*
X136585316Y-58408803D01*
X136579504Y-58432007D01*
X136571446Y-58454529D01*
X136561218Y-58476153D01*
X136548921Y-58496670D01*
X136534671Y-58515883D01*
X136518607Y-58533607D01*
X136500883Y-58549671D01*
X136481670Y-58563921D01*
X136461153Y-58576218D01*
X136439529Y-58586446D01*
X136417007Y-58594504D01*
X136393803Y-58600316D01*
X136370142Y-58603826D01*
X136346250Y-58605000D01*
X135433750Y-58605000D01*
X135409858Y-58603826D01*
X135386197Y-58600316D01*
X135362993Y-58594504D01*
X135340471Y-58586446D01*
X135318847Y-58576218D01*
X135298330Y-58563921D01*
X135279117Y-58549671D01*
X135261393Y-58533607D01*
X135245329Y-58515883D01*
X135231079Y-58496670D01*
X135218782Y-58476153D01*
X135208554Y-58454529D01*
X135200496Y-58432007D01*
X135194684Y-58408803D01*
X135191174Y-58385142D01*
X135190000Y-58361250D01*
X135190000Y-57873750D01*
X135191174Y-57849858D01*
X135194684Y-57826197D01*
X135200496Y-57802993D01*
X135208554Y-57780471D01*
X135218782Y-57758847D01*
X135231079Y-57738330D01*
X135245329Y-57719117D01*
X135261393Y-57701393D01*
X135279117Y-57685329D01*
X135298330Y-57671079D01*
X135318847Y-57658782D01*
X135340471Y-57648554D01*
X135362993Y-57640496D01*
X135386197Y-57634684D01*
X135409858Y-57631174D01*
X135433750Y-57630000D01*
X136346250Y-57630000D01*
X136370142Y-57631174D01*
G37*
D12*
X143830000Y-57955000D03*
X145730000Y-57955000D03*
X145730000Y-60155000D03*
X144780000Y-60155000D03*
X143830000Y-60155000D03*
D11*
X162725000Y-58021000D03*
X161125000Y-58021000D03*
X162725000Y-62121000D03*
X161125000Y-62121000D03*
D10*
G36*
X167479505Y-70791204D02*
G01*
X167503773Y-70794804D01*
X167527572Y-70800765D01*
X167550671Y-70809030D01*
X167572850Y-70819520D01*
X167593893Y-70832132D01*
X167613599Y-70846747D01*
X167631777Y-70863223D01*
X167648253Y-70881401D01*
X167662868Y-70901107D01*
X167675480Y-70922150D01*
X167685970Y-70944329D01*
X167694235Y-70967428D01*
X167700196Y-70991227D01*
X167703796Y-71015495D01*
X167705000Y-71039999D01*
X167705000Y-71690001D01*
X167703796Y-71714505D01*
X167700196Y-71738773D01*
X167694235Y-71762572D01*
X167685970Y-71785671D01*
X167675480Y-71807850D01*
X167662868Y-71828893D01*
X167648253Y-71848599D01*
X167631777Y-71866777D01*
X167613599Y-71883253D01*
X167593893Y-71897868D01*
X167572850Y-71910480D01*
X167550671Y-71920970D01*
X167527572Y-71929235D01*
X167503773Y-71935196D01*
X167479505Y-71938796D01*
X167455001Y-71940000D01*
X166554999Y-71940000D01*
X166530495Y-71938796D01*
X166506227Y-71935196D01*
X166482428Y-71929235D01*
X166459329Y-71920970D01*
X166437150Y-71910480D01*
X166416107Y-71897868D01*
X166396401Y-71883253D01*
X166378223Y-71866777D01*
X166361747Y-71848599D01*
X166347132Y-71828893D01*
X166334520Y-71807850D01*
X166324030Y-71785671D01*
X166315765Y-71762572D01*
X166309804Y-71738773D01*
X166306204Y-71714505D01*
X166305000Y-71690001D01*
X166305000Y-71039999D01*
X166306204Y-71015495D01*
X166309804Y-70991227D01*
X166315765Y-70967428D01*
X166324030Y-70944329D01*
X166334520Y-70922150D01*
X166347132Y-70901107D01*
X166361747Y-70881401D01*
X166378223Y-70863223D01*
X166396401Y-70846747D01*
X166416107Y-70832132D01*
X166437150Y-70819520D01*
X166459329Y-70809030D01*
X166482428Y-70800765D01*
X166506227Y-70794804D01*
X166530495Y-70791204D01*
X166554999Y-70790000D01*
X167455001Y-70790000D01*
X167479505Y-70791204D01*
G37*
G36*
X167479505Y-72841204D02*
G01*
X167503773Y-72844804D01*
X167527572Y-72850765D01*
X167550671Y-72859030D01*
X167572850Y-72869520D01*
X167593893Y-72882132D01*
X167613599Y-72896747D01*
X167631777Y-72913223D01*
X167648253Y-72931401D01*
X167662868Y-72951107D01*
X167675480Y-72972150D01*
X167685970Y-72994329D01*
X167694235Y-73017428D01*
X167700196Y-73041227D01*
X167703796Y-73065495D01*
X167705000Y-73089999D01*
X167705000Y-73740001D01*
X167703796Y-73764505D01*
X167700196Y-73788773D01*
X167694235Y-73812572D01*
X167685970Y-73835671D01*
X167675480Y-73857850D01*
X167662868Y-73878893D01*
X167648253Y-73898599D01*
X167631777Y-73916777D01*
X167613599Y-73933253D01*
X167593893Y-73947868D01*
X167572850Y-73960480D01*
X167550671Y-73970970D01*
X167527572Y-73979235D01*
X167503773Y-73985196D01*
X167479505Y-73988796D01*
X167455001Y-73990000D01*
X166554999Y-73990000D01*
X166530495Y-73988796D01*
X166506227Y-73985196D01*
X166482428Y-73979235D01*
X166459329Y-73970970D01*
X166437150Y-73960480D01*
X166416107Y-73947868D01*
X166396401Y-73933253D01*
X166378223Y-73916777D01*
X166361747Y-73898599D01*
X166347132Y-73878893D01*
X166334520Y-73857850D01*
X166324030Y-73835671D01*
X166315765Y-73812572D01*
X166309804Y-73788773D01*
X166306204Y-73764505D01*
X166305000Y-73740001D01*
X166305000Y-73089999D01*
X166306204Y-73065495D01*
X166309804Y-73041227D01*
X166315765Y-73017428D01*
X166324030Y-72994329D01*
X166334520Y-72972150D01*
X166347132Y-72951107D01*
X166361747Y-72931401D01*
X166378223Y-72913223D01*
X166396401Y-72896747D01*
X166416107Y-72882132D01*
X166437150Y-72869520D01*
X166459329Y-72859030D01*
X166482428Y-72850765D01*
X166506227Y-72844804D01*
X166530495Y-72841204D01*
X166554999Y-72840000D01*
X167455001Y-72840000D01*
X167479505Y-72841204D01*
G37*
G36*
X171289505Y-70791204D02*
G01*
X171313773Y-70794804D01*
X171337572Y-70800765D01*
X171360671Y-70809030D01*
X171382850Y-70819520D01*
X171403893Y-70832132D01*
X171423599Y-70846747D01*
X171441777Y-70863223D01*
X171458253Y-70881401D01*
X171472868Y-70901107D01*
X171485480Y-70922150D01*
X171495970Y-70944329D01*
X171504235Y-70967428D01*
X171510196Y-70991227D01*
X171513796Y-71015495D01*
X171515000Y-71039999D01*
X171515000Y-71690001D01*
X171513796Y-71714505D01*
X171510196Y-71738773D01*
X171504235Y-71762572D01*
X171495970Y-71785671D01*
X171485480Y-71807850D01*
X171472868Y-71828893D01*
X171458253Y-71848599D01*
X171441777Y-71866777D01*
X171423599Y-71883253D01*
X171403893Y-71897868D01*
X171382850Y-71910480D01*
X171360671Y-71920970D01*
X171337572Y-71929235D01*
X171313773Y-71935196D01*
X171289505Y-71938796D01*
X171265001Y-71940000D01*
X170364999Y-71940000D01*
X170340495Y-71938796D01*
X170316227Y-71935196D01*
X170292428Y-71929235D01*
X170269329Y-71920970D01*
X170247150Y-71910480D01*
X170226107Y-71897868D01*
X170206401Y-71883253D01*
X170188223Y-71866777D01*
X170171747Y-71848599D01*
X170157132Y-71828893D01*
X170144520Y-71807850D01*
X170134030Y-71785671D01*
X170125765Y-71762572D01*
X170119804Y-71738773D01*
X170116204Y-71714505D01*
X170115000Y-71690001D01*
X170115000Y-71039999D01*
X170116204Y-71015495D01*
X170119804Y-70991227D01*
X170125765Y-70967428D01*
X170134030Y-70944329D01*
X170144520Y-70922150D01*
X170157132Y-70901107D01*
X170171747Y-70881401D01*
X170188223Y-70863223D01*
X170206401Y-70846747D01*
X170226107Y-70832132D01*
X170247150Y-70819520D01*
X170269329Y-70809030D01*
X170292428Y-70800765D01*
X170316227Y-70794804D01*
X170340495Y-70791204D01*
X170364999Y-70790000D01*
X171265001Y-70790000D01*
X171289505Y-70791204D01*
G37*
G36*
X171289505Y-72841204D02*
G01*
X171313773Y-72844804D01*
X171337572Y-72850765D01*
X171360671Y-72859030D01*
X171382850Y-72869520D01*
X171403893Y-72882132D01*
X171423599Y-72896747D01*
X171441777Y-72913223D01*
X171458253Y-72931401D01*
X171472868Y-72951107D01*
X171485480Y-72972150D01*
X171495970Y-72994329D01*
X171504235Y-73017428D01*
X171510196Y-73041227D01*
X171513796Y-73065495D01*
X171515000Y-73089999D01*
X171515000Y-73740001D01*
X171513796Y-73764505D01*
X171510196Y-73788773D01*
X171504235Y-73812572D01*
X171495970Y-73835671D01*
X171485480Y-73857850D01*
X171472868Y-73878893D01*
X171458253Y-73898599D01*
X171441777Y-73916777D01*
X171423599Y-73933253D01*
X171403893Y-73947868D01*
X171382850Y-73960480D01*
X171360671Y-73970970D01*
X171337572Y-73979235D01*
X171313773Y-73985196D01*
X171289505Y-73988796D01*
X171265001Y-73990000D01*
X170364999Y-73990000D01*
X170340495Y-73988796D01*
X170316227Y-73985196D01*
X170292428Y-73979235D01*
X170269329Y-73970970D01*
X170247150Y-73960480D01*
X170226107Y-73947868D01*
X170206401Y-73933253D01*
X170188223Y-73916777D01*
X170171747Y-73898599D01*
X170157132Y-73878893D01*
X170144520Y-73857850D01*
X170134030Y-73835671D01*
X170125765Y-73812572D01*
X170119804Y-73788773D01*
X170116204Y-73764505D01*
X170115000Y-73740001D01*
X170115000Y-73089999D01*
X170116204Y-73065495D01*
X170119804Y-73041227D01*
X170125765Y-73017428D01*
X170134030Y-72994329D01*
X170144520Y-72972150D01*
X170157132Y-72951107D01*
X170171747Y-72931401D01*
X170188223Y-72913223D01*
X170206401Y-72896747D01*
X170226107Y-72882132D01*
X170247150Y-72869520D01*
X170269329Y-72859030D01*
X170292428Y-72850765D01*
X170316227Y-72844804D01*
X170340495Y-72841204D01*
X170364999Y-72840000D01*
X171265001Y-72840000D01*
X171289505Y-72841204D01*
G37*
G36*
X144984505Y-76136204D02*
G01*
X145008773Y-76139804D01*
X145032572Y-76145765D01*
X145055671Y-76154030D01*
X145077850Y-76164520D01*
X145098893Y-76177132D01*
X145118599Y-76191747D01*
X145136777Y-76208223D01*
X145153253Y-76226401D01*
X145167868Y-76246107D01*
X145180480Y-76267150D01*
X145190970Y-76289329D01*
X145199235Y-76312428D01*
X145205196Y-76336227D01*
X145208796Y-76360495D01*
X145210000Y-76384999D01*
X145210000Y-77285001D01*
X145208796Y-77309505D01*
X145205196Y-77333773D01*
X145199235Y-77357572D01*
X145190970Y-77380671D01*
X145180480Y-77402850D01*
X145167868Y-77423893D01*
X145153253Y-77443599D01*
X145136777Y-77461777D01*
X145118599Y-77478253D01*
X145098893Y-77492868D01*
X145077850Y-77505480D01*
X145055671Y-77515970D01*
X145032572Y-77524235D01*
X145008773Y-77530196D01*
X144984505Y-77533796D01*
X144960001Y-77535000D01*
X144309999Y-77535000D01*
X144285495Y-77533796D01*
X144261227Y-77530196D01*
X144237428Y-77524235D01*
X144214329Y-77515970D01*
X144192150Y-77505480D01*
X144171107Y-77492868D01*
X144151401Y-77478253D01*
X144133223Y-77461777D01*
X144116747Y-77443599D01*
X144102132Y-77423893D01*
X144089520Y-77402850D01*
X144079030Y-77380671D01*
X144070765Y-77357572D01*
X144064804Y-77333773D01*
X144061204Y-77309505D01*
X144060000Y-77285001D01*
X144060000Y-76384999D01*
X144061204Y-76360495D01*
X144064804Y-76336227D01*
X144070765Y-76312428D01*
X144079030Y-76289329D01*
X144089520Y-76267150D01*
X144102132Y-76246107D01*
X144116747Y-76226401D01*
X144133223Y-76208223D01*
X144151401Y-76191747D01*
X144171107Y-76177132D01*
X144192150Y-76164520D01*
X144214329Y-76154030D01*
X144237428Y-76145765D01*
X144261227Y-76139804D01*
X144285495Y-76136204D01*
X144309999Y-76135000D01*
X144960001Y-76135000D01*
X144984505Y-76136204D01*
G37*
G36*
X147034505Y-76136204D02*
G01*
X147058773Y-76139804D01*
X147082572Y-76145765D01*
X147105671Y-76154030D01*
X147127850Y-76164520D01*
X147148893Y-76177132D01*
X147168599Y-76191747D01*
X147186777Y-76208223D01*
X147203253Y-76226401D01*
X147217868Y-76246107D01*
X147230480Y-76267150D01*
X147240970Y-76289329D01*
X147249235Y-76312428D01*
X147255196Y-76336227D01*
X147258796Y-76360495D01*
X147260000Y-76384999D01*
X147260000Y-77285001D01*
X147258796Y-77309505D01*
X147255196Y-77333773D01*
X147249235Y-77357572D01*
X147240970Y-77380671D01*
X147230480Y-77402850D01*
X147217868Y-77423893D01*
X147203253Y-77443599D01*
X147186777Y-77461777D01*
X147168599Y-77478253D01*
X147148893Y-77492868D01*
X147127850Y-77505480D01*
X147105671Y-77515970D01*
X147082572Y-77524235D01*
X147058773Y-77530196D01*
X147034505Y-77533796D01*
X147010001Y-77535000D01*
X146359999Y-77535000D01*
X146335495Y-77533796D01*
X146311227Y-77530196D01*
X146287428Y-77524235D01*
X146264329Y-77515970D01*
X146242150Y-77505480D01*
X146221107Y-77492868D01*
X146201401Y-77478253D01*
X146183223Y-77461777D01*
X146166747Y-77443599D01*
X146152132Y-77423893D01*
X146139520Y-77402850D01*
X146129030Y-77380671D01*
X146120765Y-77357572D01*
X146114804Y-77333773D01*
X146111204Y-77309505D01*
X146110000Y-77285001D01*
X146110000Y-76384999D01*
X146111204Y-76360495D01*
X146114804Y-76336227D01*
X146120765Y-76312428D01*
X146129030Y-76289329D01*
X146139520Y-76267150D01*
X146152132Y-76246107D01*
X146166747Y-76226401D01*
X146183223Y-76208223D01*
X146201401Y-76191747D01*
X146221107Y-76177132D01*
X146242150Y-76164520D01*
X146264329Y-76154030D01*
X146287428Y-76145765D01*
X146311227Y-76139804D01*
X146335495Y-76136204D01*
X146359999Y-76135000D01*
X147010001Y-76135000D01*
X147034505Y-76136204D01*
G37*
G36*
X147034505Y-79946204D02*
G01*
X147058773Y-79949804D01*
X147082572Y-79955765D01*
X147105671Y-79964030D01*
X147127850Y-79974520D01*
X147148893Y-79987132D01*
X147168599Y-80001747D01*
X147186777Y-80018223D01*
X147203253Y-80036401D01*
X147217868Y-80056107D01*
X147230480Y-80077150D01*
X147240970Y-80099329D01*
X147249235Y-80122428D01*
X147255196Y-80146227D01*
X147258796Y-80170495D01*
X147260000Y-80194999D01*
X147260000Y-81095001D01*
X147258796Y-81119505D01*
X147255196Y-81143773D01*
X147249235Y-81167572D01*
X147240970Y-81190671D01*
X147230480Y-81212850D01*
X147217868Y-81233893D01*
X147203253Y-81253599D01*
X147186777Y-81271777D01*
X147168599Y-81288253D01*
X147148893Y-81302868D01*
X147127850Y-81315480D01*
X147105671Y-81325970D01*
X147082572Y-81334235D01*
X147058773Y-81340196D01*
X147034505Y-81343796D01*
X147010001Y-81345000D01*
X146359999Y-81345000D01*
X146335495Y-81343796D01*
X146311227Y-81340196D01*
X146287428Y-81334235D01*
X146264329Y-81325970D01*
X146242150Y-81315480D01*
X146221107Y-81302868D01*
X146201401Y-81288253D01*
X146183223Y-81271777D01*
X146166747Y-81253599D01*
X146152132Y-81233893D01*
X146139520Y-81212850D01*
X146129030Y-81190671D01*
X146120765Y-81167572D01*
X146114804Y-81143773D01*
X146111204Y-81119505D01*
X146110000Y-81095001D01*
X146110000Y-80194999D01*
X146111204Y-80170495D01*
X146114804Y-80146227D01*
X146120765Y-80122428D01*
X146129030Y-80099329D01*
X146139520Y-80077150D01*
X146152132Y-80056107D01*
X146166747Y-80036401D01*
X146183223Y-80018223D01*
X146201401Y-80001747D01*
X146221107Y-79987132D01*
X146242150Y-79974520D01*
X146264329Y-79964030D01*
X146287428Y-79955765D01*
X146311227Y-79949804D01*
X146335495Y-79946204D01*
X146359999Y-79945000D01*
X147010001Y-79945000D01*
X147034505Y-79946204D01*
G37*
G36*
X144984505Y-79946204D02*
G01*
X145008773Y-79949804D01*
X145032572Y-79955765D01*
X145055671Y-79964030D01*
X145077850Y-79974520D01*
X145098893Y-79987132D01*
X145118599Y-80001747D01*
X145136777Y-80018223D01*
X145153253Y-80036401D01*
X145167868Y-80056107D01*
X145180480Y-80077150D01*
X145190970Y-80099329D01*
X145199235Y-80122428D01*
X145205196Y-80146227D01*
X145208796Y-80170495D01*
X145210000Y-80194999D01*
X145210000Y-81095001D01*
X145208796Y-81119505D01*
X145205196Y-81143773D01*
X145199235Y-81167572D01*
X145190970Y-81190671D01*
X145180480Y-81212850D01*
X145167868Y-81233893D01*
X145153253Y-81253599D01*
X145136777Y-81271777D01*
X145118599Y-81288253D01*
X145098893Y-81302868D01*
X145077850Y-81315480D01*
X145055671Y-81325970D01*
X145032572Y-81334235D01*
X145008773Y-81340196D01*
X144984505Y-81343796D01*
X144960001Y-81345000D01*
X144309999Y-81345000D01*
X144285495Y-81343796D01*
X144261227Y-81340196D01*
X144237428Y-81334235D01*
X144214329Y-81325970D01*
X144192150Y-81315480D01*
X144171107Y-81302868D01*
X144151401Y-81288253D01*
X144133223Y-81271777D01*
X144116747Y-81253599D01*
X144102132Y-81233893D01*
X144089520Y-81212850D01*
X144079030Y-81190671D01*
X144070765Y-81167572D01*
X144064804Y-81143773D01*
X144061204Y-81119505D01*
X144060000Y-81095001D01*
X144060000Y-80194999D01*
X144061204Y-80170495D01*
X144064804Y-80146227D01*
X144070765Y-80122428D01*
X144079030Y-80099329D01*
X144089520Y-80077150D01*
X144102132Y-80056107D01*
X144116747Y-80036401D01*
X144133223Y-80018223D01*
X144151401Y-80001747D01*
X144171107Y-79987132D01*
X144192150Y-79974520D01*
X144214329Y-79964030D01*
X144237428Y-79955765D01*
X144261227Y-79949804D01*
X144285495Y-79946204D01*
X144309999Y-79945000D01*
X144960001Y-79945000D01*
X144984505Y-79946204D01*
G37*
G36*
X154144505Y-57456204D02*
G01*
X154168773Y-57459804D01*
X154192572Y-57465765D01*
X154215671Y-57474030D01*
X154237850Y-57484520D01*
X154258893Y-57497132D01*
X154278599Y-57511747D01*
X154296777Y-57528223D01*
X154313253Y-57546401D01*
X154327868Y-57566107D01*
X154340480Y-57587150D01*
X154350970Y-57609329D01*
X154359235Y-57632428D01*
X154365196Y-57656227D01*
X154368796Y-57680495D01*
X154370000Y-57704999D01*
X154370000Y-58355001D01*
X154368796Y-58379505D01*
X154365196Y-58403773D01*
X154359235Y-58427572D01*
X154350970Y-58450671D01*
X154340480Y-58472850D01*
X154327868Y-58493893D01*
X154313253Y-58513599D01*
X154296777Y-58531777D01*
X154278599Y-58548253D01*
X154258893Y-58562868D01*
X154237850Y-58575480D01*
X154215671Y-58585970D01*
X154192572Y-58594235D01*
X154168773Y-58600196D01*
X154144505Y-58603796D01*
X154120001Y-58605000D01*
X153219999Y-58605000D01*
X153195495Y-58603796D01*
X153171227Y-58600196D01*
X153147428Y-58594235D01*
X153124329Y-58585970D01*
X153102150Y-58575480D01*
X153081107Y-58562868D01*
X153061401Y-58548253D01*
X153043223Y-58531777D01*
X153026747Y-58513599D01*
X153012132Y-58493893D01*
X152999520Y-58472850D01*
X152989030Y-58450671D01*
X152980765Y-58427572D01*
X152974804Y-58403773D01*
X152971204Y-58379505D01*
X152970000Y-58355001D01*
X152970000Y-57704999D01*
X152971204Y-57680495D01*
X152974804Y-57656227D01*
X152980765Y-57632428D01*
X152989030Y-57609329D01*
X152999520Y-57587150D01*
X153012132Y-57566107D01*
X153026747Y-57546401D01*
X153043223Y-57528223D01*
X153061401Y-57511747D01*
X153081107Y-57497132D01*
X153102150Y-57484520D01*
X153124329Y-57474030D01*
X153147428Y-57465765D01*
X153171227Y-57459804D01*
X153195495Y-57456204D01*
X153219999Y-57455000D01*
X154120001Y-57455000D01*
X154144505Y-57456204D01*
G37*
G36*
X154144505Y-59506204D02*
G01*
X154168773Y-59509804D01*
X154192572Y-59515765D01*
X154215671Y-59524030D01*
X154237850Y-59534520D01*
X154258893Y-59547132D01*
X154278599Y-59561747D01*
X154296777Y-59578223D01*
X154313253Y-59596401D01*
X154327868Y-59616107D01*
X154340480Y-59637150D01*
X154350970Y-59659329D01*
X154359235Y-59682428D01*
X154365196Y-59706227D01*
X154368796Y-59730495D01*
X154370000Y-59754999D01*
X154370000Y-60405001D01*
X154368796Y-60429505D01*
X154365196Y-60453773D01*
X154359235Y-60477572D01*
X154350970Y-60500671D01*
X154340480Y-60522850D01*
X154327868Y-60543893D01*
X154313253Y-60563599D01*
X154296777Y-60581777D01*
X154278599Y-60598253D01*
X154258893Y-60612868D01*
X154237850Y-60625480D01*
X154215671Y-60635970D01*
X154192572Y-60644235D01*
X154168773Y-60650196D01*
X154144505Y-60653796D01*
X154120001Y-60655000D01*
X153219999Y-60655000D01*
X153195495Y-60653796D01*
X153171227Y-60650196D01*
X153147428Y-60644235D01*
X153124329Y-60635970D01*
X153102150Y-60625480D01*
X153081107Y-60612868D01*
X153061401Y-60598253D01*
X153043223Y-60581777D01*
X153026747Y-60563599D01*
X153012132Y-60543893D01*
X152999520Y-60522850D01*
X152989030Y-60500671D01*
X152980765Y-60477572D01*
X152974804Y-60453773D01*
X152971204Y-60429505D01*
X152970000Y-60405001D01*
X152970000Y-59754999D01*
X152971204Y-59730495D01*
X152974804Y-59706227D01*
X152980765Y-59682428D01*
X152989030Y-59659329D01*
X152999520Y-59637150D01*
X153012132Y-59616107D01*
X153026747Y-59596401D01*
X153043223Y-59578223D01*
X153061401Y-59561747D01*
X153081107Y-59547132D01*
X153102150Y-59534520D01*
X153124329Y-59524030D01*
X153147428Y-59515765D01*
X153171227Y-59509804D01*
X153195495Y-59506204D01*
X153219999Y-59505000D01*
X154120001Y-59505000D01*
X154144505Y-59506204D01*
G37*
G36*
X140174505Y-57456204D02*
G01*
X140198773Y-57459804D01*
X140222572Y-57465765D01*
X140245671Y-57474030D01*
X140267850Y-57484520D01*
X140288893Y-57497132D01*
X140308599Y-57511747D01*
X140326777Y-57528223D01*
X140343253Y-57546401D01*
X140357868Y-57566107D01*
X140370480Y-57587150D01*
X140380970Y-57609329D01*
X140389235Y-57632428D01*
X140395196Y-57656227D01*
X140398796Y-57680495D01*
X140400000Y-57704999D01*
X140400000Y-58355001D01*
X140398796Y-58379505D01*
X140395196Y-58403773D01*
X140389235Y-58427572D01*
X140380970Y-58450671D01*
X140370480Y-58472850D01*
X140357868Y-58493893D01*
X140343253Y-58513599D01*
X140326777Y-58531777D01*
X140308599Y-58548253D01*
X140288893Y-58562868D01*
X140267850Y-58575480D01*
X140245671Y-58585970D01*
X140222572Y-58594235D01*
X140198773Y-58600196D01*
X140174505Y-58603796D01*
X140150001Y-58605000D01*
X139249999Y-58605000D01*
X139225495Y-58603796D01*
X139201227Y-58600196D01*
X139177428Y-58594235D01*
X139154329Y-58585970D01*
X139132150Y-58575480D01*
X139111107Y-58562868D01*
X139091401Y-58548253D01*
X139073223Y-58531777D01*
X139056747Y-58513599D01*
X139042132Y-58493893D01*
X139029520Y-58472850D01*
X139019030Y-58450671D01*
X139010765Y-58427572D01*
X139004804Y-58403773D01*
X139001204Y-58379505D01*
X139000000Y-58355001D01*
X139000000Y-57704999D01*
X139001204Y-57680495D01*
X139004804Y-57656227D01*
X139010765Y-57632428D01*
X139019030Y-57609329D01*
X139029520Y-57587150D01*
X139042132Y-57566107D01*
X139056747Y-57546401D01*
X139073223Y-57528223D01*
X139091401Y-57511747D01*
X139111107Y-57497132D01*
X139132150Y-57484520D01*
X139154329Y-57474030D01*
X139177428Y-57465765D01*
X139201227Y-57459804D01*
X139225495Y-57456204D01*
X139249999Y-57455000D01*
X140150001Y-57455000D01*
X140174505Y-57456204D01*
G37*
G36*
X140174505Y-59506204D02*
G01*
X140198773Y-59509804D01*
X140222572Y-59515765D01*
X140245671Y-59524030D01*
X140267850Y-59534520D01*
X140288893Y-59547132D01*
X140308599Y-59561747D01*
X140326777Y-59578223D01*
X140343253Y-59596401D01*
X140357868Y-59616107D01*
X140370480Y-59637150D01*
X140380970Y-59659329D01*
X140389235Y-59682428D01*
X140395196Y-59706227D01*
X140398796Y-59730495D01*
X140400000Y-59754999D01*
X140400000Y-60405001D01*
X140398796Y-60429505D01*
X140395196Y-60453773D01*
X140389235Y-60477572D01*
X140380970Y-60500671D01*
X140370480Y-60522850D01*
X140357868Y-60543893D01*
X140343253Y-60563599D01*
X140326777Y-60581777D01*
X140308599Y-60598253D01*
X140288893Y-60612868D01*
X140267850Y-60625480D01*
X140245671Y-60635970D01*
X140222572Y-60644235D01*
X140198773Y-60650196D01*
X140174505Y-60653796D01*
X140150001Y-60655000D01*
X139249999Y-60655000D01*
X139225495Y-60653796D01*
X139201227Y-60650196D01*
X139177428Y-60644235D01*
X139154329Y-60635970D01*
X139132150Y-60625480D01*
X139111107Y-60612868D01*
X139091401Y-60598253D01*
X139073223Y-60581777D01*
X139056747Y-60563599D01*
X139042132Y-60543893D01*
X139029520Y-60522850D01*
X139019030Y-60500671D01*
X139010765Y-60477572D01*
X139004804Y-60453773D01*
X139001204Y-60429505D01*
X139000000Y-60405001D01*
X139000000Y-59754999D01*
X139001204Y-59730495D01*
X139004804Y-59706227D01*
X139010765Y-59682428D01*
X139019030Y-59659329D01*
X139029520Y-59637150D01*
X139042132Y-59616107D01*
X139056747Y-59596401D01*
X139073223Y-59578223D01*
X139091401Y-59561747D01*
X139111107Y-59547132D01*
X139132150Y-59534520D01*
X139154329Y-59524030D01*
X139177428Y-59515765D01*
X139201227Y-59509804D01*
X139225495Y-59506204D01*
X139249999Y-59505000D01*
X140150001Y-59505000D01*
X140174505Y-59506204D01*
G37*
D13*
X141097000Y-70867000D03*
X141097000Y-74167000D03*
D10*
G36*
X166305142Y-82486174D02*
G01*
X166328803Y-82489684D01*
X166352007Y-82495496D01*
X166374529Y-82503554D01*
X166396153Y-82513782D01*
X166416670Y-82526079D01*
X166435883Y-82540329D01*
X166453607Y-82556393D01*
X166469671Y-82574117D01*
X166483921Y-82593330D01*
X166496218Y-82613847D01*
X166506446Y-82635471D01*
X166514504Y-82657993D01*
X166520316Y-82681197D01*
X166523826Y-82704858D01*
X166525000Y-82728750D01*
X166525000Y-83641250D01*
X166523826Y-83665142D01*
X166520316Y-83688803D01*
X166514504Y-83712007D01*
X166506446Y-83734529D01*
X166496218Y-83756153D01*
X166483921Y-83776670D01*
X166469671Y-83795883D01*
X166453607Y-83813607D01*
X166435883Y-83829671D01*
X166416670Y-83843921D01*
X166396153Y-83856218D01*
X166374529Y-83866446D01*
X166352007Y-83874504D01*
X166328803Y-83880316D01*
X166305142Y-83883826D01*
X166281250Y-83885000D01*
X165793750Y-83885000D01*
X165769858Y-83883826D01*
X165746197Y-83880316D01*
X165722993Y-83874504D01*
X165700471Y-83866446D01*
X165678847Y-83856218D01*
X165658330Y-83843921D01*
X165639117Y-83829671D01*
X165621393Y-83813607D01*
X165605329Y-83795883D01*
X165591079Y-83776670D01*
X165578782Y-83756153D01*
X165568554Y-83734529D01*
X165560496Y-83712007D01*
X165554684Y-83688803D01*
X165551174Y-83665142D01*
X165550000Y-83641250D01*
X165550000Y-82728750D01*
X165551174Y-82704858D01*
X165554684Y-82681197D01*
X165560496Y-82657993D01*
X165568554Y-82635471D01*
X165578782Y-82613847D01*
X165591079Y-82593330D01*
X165605329Y-82574117D01*
X165621393Y-82556393D01*
X165639117Y-82540329D01*
X165658330Y-82526079D01*
X165678847Y-82513782D01*
X165700471Y-82503554D01*
X165722993Y-82495496D01*
X165746197Y-82489684D01*
X165769858Y-82486174D01*
X165793750Y-82485000D01*
X166281250Y-82485000D01*
X166305142Y-82486174D01*
G37*
G36*
X164430142Y-82486174D02*
G01*
X164453803Y-82489684D01*
X164477007Y-82495496D01*
X164499529Y-82503554D01*
X164521153Y-82513782D01*
X164541670Y-82526079D01*
X164560883Y-82540329D01*
X164578607Y-82556393D01*
X164594671Y-82574117D01*
X164608921Y-82593330D01*
X164621218Y-82613847D01*
X164631446Y-82635471D01*
X164639504Y-82657993D01*
X164645316Y-82681197D01*
X164648826Y-82704858D01*
X164650000Y-82728750D01*
X164650000Y-83641250D01*
X164648826Y-83665142D01*
X164645316Y-83688803D01*
X164639504Y-83712007D01*
X164631446Y-83734529D01*
X164621218Y-83756153D01*
X164608921Y-83776670D01*
X164594671Y-83795883D01*
X164578607Y-83813607D01*
X164560883Y-83829671D01*
X164541670Y-83843921D01*
X164521153Y-83856218D01*
X164499529Y-83866446D01*
X164477007Y-83874504D01*
X164453803Y-83880316D01*
X164430142Y-83883826D01*
X164406250Y-83885000D01*
X163918750Y-83885000D01*
X163894858Y-83883826D01*
X163871197Y-83880316D01*
X163847993Y-83874504D01*
X163825471Y-83866446D01*
X163803847Y-83856218D01*
X163783330Y-83843921D01*
X163764117Y-83829671D01*
X163746393Y-83813607D01*
X163730329Y-83795883D01*
X163716079Y-83776670D01*
X163703782Y-83756153D01*
X163693554Y-83734529D01*
X163685496Y-83712007D01*
X163679684Y-83688803D01*
X163676174Y-83665142D01*
X163675000Y-83641250D01*
X163675000Y-82728750D01*
X163676174Y-82704858D01*
X163679684Y-82681197D01*
X163685496Y-82657993D01*
X163693554Y-82635471D01*
X163703782Y-82613847D01*
X163716079Y-82593330D01*
X163730329Y-82574117D01*
X163746393Y-82556393D01*
X163764117Y-82540329D01*
X163783330Y-82526079D01*
X163803847Y-82513782D01*
X163825471Y-82503554D01*
X163847993Y-82495496D01*
X163871197Y-82489684D01*
X163894858Y-82486174D01*
X163918750Y-82485000D01*
X164406250Y-82485000D01*
X164430142Y-82486174D01*
G37*
G36*
X146865142Y-72326174D02*
G01*
X146888803Y-72329684D01*
X146912007Y-72335496D01*
X146934529Y-72343554D01*
X146956153Y-72353782D01*
X146976670Y-72366079D01*
X146995883Y-72380329D01*
X147013607Y-72396393D01*
X147029671Y-72414117D01*
X147043921Y-72433330D01*
X147056218Y-72453847D01*
X147066446Y-72475471D01*
X147074504Y-72497993D01*
X147080316Y-72521197D01*
X147083826Y-72544858D01*
X147085000Y-72568750D01*
X147085000Y-73481250D01*
X147083826Y-73505142D01*
X147080316Y-73528803D01*
X147074504Y-73552007D01*
X147066446Y-73574529D01*
X147056218Y-73596153D01*
X147043921Y-73616670D01*
X147029671Y-73635883D01*
X147013607Y-73653607D01*
X146995883Y-73669671D01*
X146976670Y-73683921D01*
X146956153Y-73696218D01*
X146934529Y-73706446D01*
X146912007Y-73714504D01*
X146888803Y-73720316D01*
X146865142Y-73723826D01*
X146841250Y-73725000D01*
X146353750Y-73725000D01*
X146329858Y-73723826D01*
X146306197Y-73720316D01*
X146282993Y-73714504D01*
X146260471Y-73706446D01*
X146238847Y-73696218D01*
X146218330Y-73683921D01*
X146199117Y-73669671D01*
X146181393Y-73653607D01*
X146165329Y-73635883D01*
X146151079Y-73616670D01*
X146138782Y-73596153D01*
X146128554Y-73574529D01*
X146120496Y-73552007D01*
X146114684Y-73528803D01*
X146111174Y-73505142D01*
X146110000Y-73481250D01*
X146110000Y-72568750D01*
X146111174Y-72544858D01*
X146114684Y-72521197D01*
X146120496Y-72497993D01*
X146128554Y-72475471D01*
X146138782Y-72453847D01*
X146151079Y-72433330D01*
X146165329Y-72414117D01*
X146181393Y-72396393D01*
X146199117Y-72380329D01*
X146218330Y-72366079D01*
X146238847Y-72353782D01*
X146260471Y-72343554D01*
X146282993Y-72335496D01*
X146306197Y-72329684D01*
X146329858Y-72326174D01*
X146353750Y-72325000D01*
X146841250Y-72325000D01*
X146865142Y-72326174D01*
G37*
G36*
X144990142Y-72326174D02*
G01*
X145013803Y-72329684D01*
X145037007Y-72335496D01*
X145059529Y-72343554D01*
X145081153Y-72353782D01*
X145101670Y-72366079D01*
X145120883Y-72380329D01*
X145138607Y-72396393D01*
X145154671Y-72414117D01*
X145168921Y-72433330D01*
X145181218Y-72453847D01*
X145191446Y-72475471D01*
X145199504Y-72497993D01*
X145205316Y-72521197D01*
X145208826Y-72544858D01*
X145210000Y-72568750D01*
X145210000Y-73481250D01*
X145208826Y-73505142D01*
X145205316Y-73528803D01*
X145199504Y-73552007D01*
X145191446Y-73574529D01*
X145181218Y-73596153D01*
X145168921Y-73616670D01*
X145154671Y-73635883D01*
X145138607Y-73653607D01*
X145120883Y-73669671D01*
X145101670Y-73683921D01*
X145081153Y-73696218D01*
X145059529Y-73706446D01*
X145037007Y-73714504D01*
X145013803Y-73720316D01*
X144990142Y-73723826D01*
X144966250Y-73725000D01*
X144478750Y-73725000D01*
X144454858Y-73723826D01*
X144431197Y-73720316D01*
X144407993Y-73714504D01*
X144385471Y-73706446D01*
X144363847Y-73696218D01*
X144343330Y-73683921D01*
X144324117Y-73669671D01*
X144306393Y-73653607D01*
X144290329Y-73635883D01*
X144276079Y-73616670D01*
X144263782Y-73596153D01*
X144253554Y-73574529D01*
X144245496Y-73552007D01*
X144239684Y-73528803D01*
X144236174Y-73505142D01*
X144235000Y-73481250D01*
X144235000Y-72568750D01*
X144236174Y-72544858D01*
X144239684Y-72521197D01*
X144245496Y-72497993D01*
X144253554Y-72475471D01*
X144263782Y-72453847D01*
X144276079Y-72433330D01*
X144290329Y-72414117D01*
X144306393Y-72396393D01*
X144324117Y-72380329D01*
X144343330Y-72366079D01*
X144363847Y-72353782D01*
X144385471Y-72343554D01*
X144407993Y-72335496D01*
X144431197Y-72329684D01*
X144454858Y-72326174D01*
X144478750Y-72325000D01*
X144966250Y-72325000D01*
X144990142Y-72326174D01*
G37*
G36*
X150340142Y-59506174D02*
G01*
X150363803Y-59509684D01*
X150387007Y-59515496D01*
X150409529Y-59523554D01*
X150431153Y-59533782D01*
X150451670Y-59546079D01*
X150470883Y-59560329D01*
X150488607Y-59576393D01*
X150504671Y-59594117D01*
X150518921Y-59613330D01*
X150531218Y-59633847D01*
X150541446Y-59655471D01*
X150549504Y-59677993D01*
X150555316Y-59701197D01*
X150558826Y-59724858D01*
X150560000Y-59748750D01*
X150560000Y-60236250D01*
X150558826Y-60260142D01*
X150555316Y-60283803D01*
X150549504Y-60307007D01*
X150541446Y-60329529D01*
X150531218Y-60351153D01*
X150518921Y-60371670D01*
X150504671Y-60390883D01*
X150488607Y-60408607D01*
X150470883Y-60424671D01*
X150451670Y-60438921D01*
X150431153Y-60451218D01*
X150409529Y-60461446D01*
X150387007Y-60469504D01*
X150363803Y-60475316D01*
X150340142Y-60478826D01*
X150316250Y-60480000D01*
X149403750Y-60480000D01*
X149379858Y-60478826D01*
X149356197Y-60475316D01*
X149332993Y-60469504D01*
X149310471Y-60461446D01*
X149288847Y-60451218D01*
X149268330Y-60438921D01*
X149249117Y-60424671D01*
X149231393Y-60408607D01*
X149215329Y-60390883D01*
X149201079Y-60371670D01*
X149188782Y-60351153D01*
X149178554Y-60329529D01*
X149170496Y-60307007D01*
X149164684Y-60283803D01*
X149161174Y-60260142D01*
X149160000Y-60236250D01*
X149160000Y-59748750D01*
X149161174Y-59724858D01*
X149164684Y-59701197D01*
X149170496Y-59677993D01*
X149178554Y-59655471D01*
X149188782Y-59633847D01*
X149201079Y-59613330D01*
X149215329Y-59594117D01*
X149231393Y-59576393D01*
X149249117Y-59560329D01*
X149268330Y-59546079D01*
X149288847Y-59533782D01*
X149310471Y-59523554D01*
X149332993Y-59515496D01*
X149356197Y-59509684D01*
X149379858Y-59506174D01*
X149403750Y-59505000D01*
X150316250Y-59505000D01*
X150340142Y-59506174D01*
G37*
G36*
X150340142Y-57631174D02*
G01*
X150363803Y-57634684D01*
X150387007Y-57640496D01*
X150409529Y-57648554D01*
X150431153Y-57658782D01*
X150451670Y-57671079D01*
X150470883Y-57685329D01*
X150488607Y-57701393D01*
X150504671Y-57719117D01*
X150518921Y-57738330D01*
X150531218Y-57758847D01*
X150541446Y-57780471D01*
X150549504Y-57802993D01*
X150555316Y-57826197D01*
X150558826Y-57849858D01*
X150560000Y-57873750D01*
X150560000Y-58361250D01*
X150558826Y-58385142D01*
X150555316Y-58408803D01*
X150549504Y-58432007D01*
X150541446Y-58454529D01*
X150531218Y-58476153D01*
X150518921Y-58496670D01*
X150504671Y-58515883D01*
X150488607Y-58533607D01*
X150470883Y-58549671D01*
X150451670Y-58563921D01*
X150431153Y-58576218D01*
X150409529Y-58586446D01*
X150387007Y-58594504D01*
X150363803Y-58600316D01*
X150340142Y-58603826D01*
X150316250Y-58605000D01*
X149403750Y-58605000D01*
X149379858Y-58603826D01*
X149356197Y-58600316D01*
X149332993Y-58594504D01*
X149310471Y-58586446D01*
X149288847Y-58576218D01*
X149268330Y-58563921D01*
X149249117Y-58549671D01*
X149231393Y-58533607D01*
X149215329Y-58515883D01*
X149201079Y-58496670D01*
X149188782Y-58476153D01*
X149178554Y-58454529D01*
X149170496Y-58432007D01*
X149164684Y-58408803D01*
X149161174Y-58385142D01*
X149160000Y-58361250D01*
X149160000Y-57873750D01*
X149161174Y-57849858D01*
X149164684Y-57826197D01*
X149170496Y-57802993D01*
X149178554Y-57780471D01*
X149188782Y-57758847D01*
X149201079Y-57738330D01*
X149215329Y-57719117D01*
X149231393Y-57701393D01*
X149249117Y-57685329D01*
X149268330Y-57671079D01*
X149288847Y-57658782D01*
X149310471Y-57648554D01*
X149332993Y-57640496D01*
X149356197Y-57634684D01*
X149379858Y-57631174D01*
X149403750Y-57630000D01*
X150316250Y-57630000D01*
X150340142Y-57631174D01*
G37*
G36*
X145985142Y-63436174D02*
G01*
X146008803Y-63439684D01*
X146032007Y-63445496D01*
X146054529Y-63453554D01*
X146076153Y-63463782D01*
X146096670Y-63476079D01*
X146115883Y-63490329D01*
X146133607Y-63506393D01*
X146149671Y-63524117D01*
X146163921Y-63543330D01*
X146176218Y-63563847D01*
X146186446Y-63585471D01*
X146194504Y-63607993D01*
X146200316Y-63631197D01*
X146203826Y-63654858D01*
X146205000Y-63678750D01*
X146205000Y-64591250D01*
X146203826Y-64615142D01*
X146200316Y-64638803D01*
X146194504Y-64662007D01*
X146186446Y-64684529D01*
X146176218Y-64706153D01*
X146163921Y-64726670D01*
X146149671Y-64745883D01*
X146133607Y-64763607D01*
X146115883Y-64779671D01*
X146096670Y-64793921D01*
X146076153Y-64806218D01*
X146054529Y-64816446D01*
X146032007Y-64824504D01*
X146008803Y-64830316D01*
X145985142Y-64833826D01*
X145961250Y-64835000D01*
X145473750Y-64835000D01*
X145449858Y-64833826D01*
X145426197Y-64830316D01*
X145402993Y-64824504D01*
X145380471Y-64816446D01*
X145358847Y-64806218D01*
X145338330Y-64793921D01*
X145319117Y-64779671D01*
X145301393Y-64763607D01*
X145285329Y-64745883D01*
X145271079Y-64726670D01*
X145258782Y-64706153D01*
X145248554Y-64684529D01*
X145240496Y-64662007D01*
X145234684Y-64638803D01*
X145231174Y-64615142D01*
X145230000Y-64591250D01*
X145230000Y-63678750D01*
X145231174Y-63654858D01*
X145234684Y-63631197D01*
X145240496Y-63607993D01*
X145248554Y-63585471D01*
X145258782Y-63563847D01*
X145271079Y-63543330D01*
X145285329Y-63524117D01*
X145301393Y-63506393D01*
X145319117Y-63490329D01*
X145338330Y-63476079D01*
X145358847Y-63463782D01*
X145380471Y-63453554D01*
X145402993Y-63445496D01*
X145426197Y-63439684D01*
X145449858Y-63436174D01*
X145473750Y-63435000D01*
X145961250Y-63435000D01*
X145985142Y-63436174D01*
G37*
G36*
X144110142Y-63436174D02*
G01*
X144133803Y-63439684D01*
X144157007Y-63445496D01*
X144179529Y-63453554D01*
X144201153Y-63463782D01*
X144221670Y-63476079D01*
X144240883Y-63490329D01*
X144258607Y-63506393D01*
X144274671Y-63524117D01*
X144288921Y-63543330D01*
X144301218Y-63563847D01*
X144311446Y-63585471D01*
X144319504Y-63607993D01*
X144325316Y-63631197D01*
X144328826Y-63654858D01*
X144330000Y-63678750D01*
X144330000Y-64591250D01*
X144328826Y-64615142D01*
X144325316Y-64638803D01*
X144319504Y-64662007D01*
X144311446Y-64684529D01*
X144301218Y-64706153D01*
X144288921Y-64726670D01*
X144274671Y-64745883D01*
X144258607Y-64763607D01*
X144240883Y-64779671D01*
X144221670Y-64793921D01*
X144201153Y-64806218D01*
X144179529Y-64816446D01*
X144157007Y-64824504D01*
X144133803Y-64830316D01*
X144110142Y-64833826D01*
X144086250Y-64835000D01*
X143598750Y-64835000D01*
X143574858Y-64833826D01*
X143551197Y-64830316D01*
X143527993Y-64824504D01*
X143505471Y-64816446D01*
X143483847Y-64806218D01*
X143463330Y-64793921D01*
X143444117Y-64779671D01*
X143426393Y-64763607D01*
X143410329Y-64745883D01*
X143396079Y-64726670D01*
X143383782Y-64706153D01*
X143373554Y-64684529D01*
X143365496Y-64662007D01*
X143359684Y-64638803D01*
X143356174Y-64615142D01*
X143355000Y-64591250D01*
X143355000Y-63678750D01*
X143356174Y-63654858D01*
X143359684Y-63631197D01*
X143365496Y-63607993D01*
X143373554Y-63585471D01*
X143383782Y-63563847D01*
X143396079Y-63543330D01*
X143410329Y-63524117D01*
X143426393Y-63506393D01*
X143444117Y-63490329D01*
X143463330Y-63476079D01*
X143483847Y-63463782D01*
X143505471Y-63453554D01*
X143527993Y-63445496D01*
X143551197Y-63439684D01*
X143574858Y-63436174D01*
X143598750Y-63435000D01*
X144086250Y-63435000D01*
X144110142Y-63436174D01*
G37*
M02*
