G04 #@! TF.GenerationSoftware,KiCad,Pcbnew,(5.1.5-0-10_14)*
G04 #@! TF.CreationDate,2020-08-04T00:57:44-05:00*
G04 #@! TF.ProjectId,TempHumSensWithESP01,54656d70-4875-46d5-9365-6e7357697468,rev?*
G04 #@! TF.SameCoordinates,Original*
G04 #@! TF.FileFunction,Copper,L1,Top*
G04 #@! TF.FilePolarity,Positive*
%FSLAX46Y46*%
G04 Gerber Fmt 4.6, Leading zero omitted, Abs format (unit mm)*
G04 Created by KiCad (PCBNEW (5.1.5-0-10_14)) date 2020-08-04 00:57:44*
%MOMM*%
%LPD*%
G04 APERTURE LIST*
%ADD10C,0.100000*%
%ADD11R,1.000000X0.900000*%
%ADD12O,1.700000X1.700000*%
%ADD13R,1.700000X1.700000*%
%ADD14C,0.800000*%
%ADD15C,6.400000*%
%ADD16R,0.650000X1.060000*%
%ADD17R,1.000000X1.500000*%
%ADD18R,3.500000X3.500000*%
%ADD19R,1.200000X0.900000*%
%ADD20C,0.900000*%
%ADD21C,0.350000*%
%ADD22C,1.000000*%
%ADD23C,0.250000*%
%ADD24C,0.254000*%
G04 APERTURE END LIST*
D10*
G36*
X153935000Y-74595000D02*
G01*
X153435000Y-74595000D01*
X153435000Y-73995000D01*
X153935000Y-73995000D01*
X153935000Y-74595000D01*
G37*
G04 #@! TA.AperFunction,SMDPad,CuDef*
G36*
X135799504Y-62701204D02*
G01*
X135823773Y-62704804D01*
X135847571Y-62710765D01*
X135870671Y-62719030D01*
X135892849Y-62729520D01*
X135913893Y-62742133D01*
X135933598Y-62756747D01*
X135951777Y-62773223D01*
X135968253Y-62791402D01*
X135982867Y-62811107D01*
X135995480Y-62832151D01*
X136005970Y-62854329D01*
X136014235Y-62877429D01*
X136020196Y-62901227D01*
X136023796Y-62925496D01*
X136025000Y-62950000D01*
X136025000Y-64050000D01*
X136023796Y-64074504D01*
X136020196Y-64098773D01*
X136014235Y-64122571D01*
X136005970Y-64145671D01*
X135995480Y-64167849D01*
X135982867Y-64188893D01*
X135968253Y-64208598D01*
X135951777Y-64226777D01*
X135933598Y-64243253D01*
X135913893Y-64257867D01*
X135892849Y-64270480D01*
X135870671Y-64280970D01*
X135847571Y-64289235D01*
X135823773Y-64295196D01*
X135799504Y-64298796D01*
X135775000Y-64300000D01*
X133675000Y-64300000D01*
X133650496Y-64298796D01*
X133626227Y-64295196D01*
X133602429Y-64289235D01*
X133579329Y-64280970D01*
X133557151Y-64270480D01*
X133536107Y-64257867D01*
X133516402Y-64243253D01*
X133498223Y-64226777D01*
X133481747Y-64208598D01*
X133467133Y-64188893D01*
X133454520Y-64167849D01*
X133444030Y-64145671D01*
X133435765Y-64122571D01*
X133429804Y-64098773D01*
X133426204Y-64074504D01*
X133425000Y-64050000D01*
X133425000Y-62950000D01*
X133426204Y-62925496D01*
X133429804Y-62901227D01*
X133435765Y-62877429D01*
X133444030Y-62854329D01*
X133454520Y-62832151D01*
X133467133Y-62811107D01*
X133481747Y-62791402D01*
X133498223Y-62773223D01*
X133516402Y-62756747D01*
X133536107Y-62742133D01*
X133557151Y-62729520D01*
X133579329Y-62719030D01*
X133602429Y-62710765D01*
X133626227Y-62704804D01*
X133650496Y-62701204D01*
X133675000Y-62700000D01*
X135775000Y-62700000D01*
X135799504Y-62701204D01*
G37*
G04 #@! TD.AperFunction*
G04 #@! TA.AperFunction,SMDPad,CuDef*
G36*
X139399504Y-62701204D02*
G01*
X139423773Y-62704804D01*
X139447571Y-62710765D01*
X139470671Y-62719030D01*
X139492849Y-62729520D01*
X139513893Y-62742133D01*
X139533598Y-62756747D01*
X139551777Y-62773223D01*
X139568253Y-62791402D01*
X139582867Y-62811107D01*
X139595480Y-62832151D01*
X139605970Y-62854329D01*
X139614235Y-62877429D01*
X139620196Y-62901227D01*
X139623796Y-62925496D01*
X139625000Y-62950000D01*
X139625000Y-64050000D01*
X139623796Y-64074504D01*
X139620196Y-64098773D01*
X139614235Y-64122571D01*
X139605970Y-64145671D01*
X139595480Y-64167849D01*
X139582867Y-64188893D01*
X139568253Y-64208598D01*
X139551777Y-64226777D01*
X139533598Y-64243253D01*
X139513893Y-64257867D01*
X139492849Y-64270480D01*
X139470671Y-64280970D01*
X139447571Y-64289235D01*
X139423773Y-64295196D01*
X139399504Y-64298796D01*
X139375000Y-64300000D01*
X137275000Y-64300000D01*
X137250496Y-64298796D01*
X137226227Y-64295196D01*
X137202429Y-64289235D01*
X137179329Y-64280970D01*
X137157151Y-64270480D01*
X137136107Y-64257867D01*
X137116402Y-64243253D01*
X137098223Y-64226777D01*
X137081747Y-64208598D01*
X137067133Y-64188893D01*
X137054520Y-64167849D01*
X137044030Y-64145671D01*
X137035765Y-64122571D01*
X137029804Y-64098773D01*
X137026204Y-64074504D01*
X137025000Y-64050000D01*
X137025000Y-62950000D01*
X137026204Y-62925496D01*
X137029804Y-62901227D01*
X137035765Y-62877429D01*
X137044030Y-62854329D01*
X137054520Y-62832151D01*
X137067133Y-62811107D01*
X137081747Y-62791402D01*
X137098223Y-62773223D01*
X137116402Y-62756747D01*
X137136107Y-62742133D01*
X137157151Y-62729520D01*
X137179329Y-62719030D01*
X137202429Y-62710765D01*
X137226227Y-62704804D01*
X137250496Y-62701204D01*
X137275000Y-62700000D01*
X139375000Y-62700000D01*
X139399504Y-62701204D01*
G37*
G04 #@! TD.AperFunction*
G04 #@! TA.AperFunction,SMDPad,CuDef*
G36*
X148435142Y-86811174D02*
G01*
X148458803Y-86814684D01*
X148482007Y-86820496D01*
X148504529Y-86828554D01*
X148526153Y-86838782D01*
X148546670Y-86851079D01*
X148565883Y-86865329D01*
X148583607Y-86881393D01*
X148599671Y-86899117D01*
X148613921Y-86918330D01*
X148626218Y-86938847D01*
X148636446Y-86960471D01*
X148644504Y-86982993D01*
X148650316Y-87006197D01*
X148653826Y-87029858D01*
X148655000Y-87053750D01*
X148655000Y-87541250D01*
X148653826Y-87565142D01*
X148650316Y-87588803D01*
X148644504Y-87612007D01*
X148636446Y-87634529D01*
X148626218Y-87656153D01*
X148613921Y-87676670D01*
X148599671Y-87695883D01*
X148583607Y-87713607D01*
X148565883Y-87729671D01*
X148546670Y-87743921D01*
X148526153Y-87756218D01*
X148504529Y-87766446D01*
X148482007Y-87774504D01*
X148458803Y-87780316D01*
X148435142Y-87783826D01*
X148411250Y-87785000D01*
X147498750Y-87785000D01*
X147474858Y-87783826D01*
X147451197Y-87780316D01*
X147427993Y-87774504D01*
X147405471Y-87766446D01*
X147383847Y-87756218D01*
X147363330Y-87743921D01*
X147344117Y-87729671D01*
X147326393Y-87713607D01*
X147310329Y-87695883D01*
X147296079Y-87676670D01*
X147283782Y-87656153D01*
X147273554Y-87634529D01*
X147265496Y-87612007D01*
X147259684Y-87588803D01*
X147256174Y-87565142D01*
X147255000Y-87541250D01*
X147255000Y-87053750D01*
X147256174Y-87029858D01*
X147259684Y-87006197D01*
X147265496Y-86982993D01*
X147273554Y-86960471D01*
X147283782Y-86938847D01*
X147296079Y-86918330D01*
X147310329Y-86899117D01*
X147326393Y-86881393D01*
X147344117Y-86865329D01*
X147363330Y-86851079D01*
X147383847Y-86838782D01*
X147405471Y-86828554D01*
X147427993Y-86820496D01*
X147451197Y-86814684D01*
X147474858Y-86811174D01*
X147498750Y-86810000D01*
X148411250Y-86810000D01*
X148435142Y-86811174D01*
G37*
G04 #@! TD.AperFunction*
G04 #@! TA.AperFunction,SMDPad,CuDef*
G36*
X148435142Y-84936174D02*
G01*
X148458803Y-84939684D01*
X148482007Y-84945496D01*
X148504529Y-84953554D01*
X148526153Y-84963782D01*
X148546670Y-84976079D01*
X148565883Y-84990329D01*
X148583607Y-85006393D01*
X148599671Y-85024117D01*
X148613921Y-85043330D01*
X148626218Y-85063847D01*
X148636446Y-85085471D01*
X148644504Y-85107993D01*
X148650316Y-85131197D01*
X148653826Y-85154858D01*
X148655000Y-85178750D01*
X148655000Y-85666250D01*
X148653826Y-85690142D01*
X148650316Y-85713803D01*
X148644504Y-85737007D01*
X148636446Y-85759529D01*
X148626218Y-85781153D01*
X148613921Y-85801670D01*
X148599671Y-85820883D01*
X148583607Y-85838607D01*
X148565883Y-85854671D01*
X148546670Y-85868921D01*
X148526153Y-85881218D01*
X148504529Y-85891446D01*
X148482007Y-85899504D01*
X148458803Y-85905316D01*
X148435142Y-85908826D01*
X148411250Y-85910000D01*
X147498750Y-85910000D01*
X147474858Y-85908826D01*
X147451197Y-85905316D01*
X147427993Y-85899504D01*
X147405471Y-85891446D01*
X147383847Y-85881218D01*
X147363330Y-85868921D01*
X147344117Y-85854671D01*
X147326393Y-85838607D01*
X147310329Y-85820883D01*
X147296079Y-85801670D01*
X147283782Y-85781153D01*
X147273554Y-85759529D01*
X147265496Y-85737007D01*
X147259684Y-85713803D01*
X147256174Y-85690142D01*
X147255000Y-85666250D01*
X147255000Y-85178750D01*
X147256174Y-85154858D01*
X147259684Y-85131197D01*
X147265496Y-85107993D01*
X147273554Y-85085471D01*
X147283782Y-85063847D01*
X147296079Y-85043330D01*
X147310329Y-85024117D01*
X147326393Y-85006393D01*
X147344117Y-84990329D01*
X147363330Y-84976079D01*
X147383847Y-84963782D01*
X147405471Y-84953554D01*
X147427993Y-84945496D01*
X147451197Y-84939684D01*
X147474858Y-84936174D01*
X147498750Y-84935000D01*
X148411250Y-84935000D01*
X148435142Y-84936174D01*
G37*
G04 #@! TD.AperFunction*
D11*
X166205000Y-62121000D03*
X167805000Y-62121000D03*
X166205000Y-58021000D03*
X167805000Y-58021000D03*
D12*
X130810000Y-65405000D03*
D13*
X128270000Y-65405000D03*
D14*
X174697056Y-83302944D03*
X173000000Y-82600000D03*
X171302944Y-83302944D03*
X170600000Y-85000000D03*
X171302944Y-86697056D03*
X173000000Y-87400000D03*
X174697056Y-86697056D03*
X175400000Y-85000000D03*
D15*
X173000000Y-85000000D03*
D14*
X131697056Y-83302944D03*
X130000000Y-82600000D03*
X128302944Y-83302944D03*
X127600000Y-85000000D03*
X128302944Y-86697056D03*
X130000000Y-87400000D03*
X131697056Y-86697056D03*
X132400000Y-85000000D03*
D15*
X130000000Y-85000000D03*
D14*
X174697056Y-58302944D03*
X173000000Y-57600000D03*
X171302944Y-58302944D03*
X170600000Y-60000000D03*
X171302944Y-61697056D03*
X173000000Y-62400000D03*
X174697056Y-61697056D03*
X175400000Y-60000000D03*
D15*
X173000000Y-60000000D03*
D14*
X131697056Y-58302944D03*
X130000000Y-57600000D03*
X128302944Y-58302944D03*
X127600000Y-60000000D03*
X128302944Y-61697056D03*
X130000000Y-62400000D03*
X131697056Y-61697056D03*
X132400000Y-60000000D03*
D15*
X130000000Y-60000000D03*
G04 #@! TA.AperFunction,SMDPad,CuDef*
D10*
G36*
X157960142Y-59506174D02*
G01*
X157983803Y-59509684D01*
X158007007Y-59515496D01*
X158029529Y-59523554D01*
X158051153Y-59533782D01*
X158071670Y-59546079D01*
X158090883Y-59560329D01*
X158108607Y-59576393D01*
X158124671Y-59594117D01*
X158138921Y-59613330D01*
X158151218Y-59633847D01*
X158161446Y-59655471D01*
X158169504Y-59677993D01*
X158175316Y-59701197D01*
X158178826Y-59724858D01*
X158180000Y-59748750D01*
X158180000Y-60236250D01*
X158178826Y-60260142D01*
X158175316Y-60283803D01*
X158169504Y-60307007D01*
X158161446Y-60329529D01*
X158151218Y-60351153D01*
X158138921Y-60371670D01*
X158124671Y-60390883D01*
X158108607Y-60408607D01*
X158090883Y-60424671D01*
X158071670Y-60438921D01*
X158051153Y-60451218D01*
X158029529Y-60461446D01*
X158007007Y-60469504D01*
X157983803Y-60475316D01*
X157960142Y-60478826D01*
X157936250Y-60480000D01*
X157023750Y-60480000D01*
X156999858Y-60478826D01*
X156976197Y-60475316D01*
X156952993Y-60469504D01*
X156930471Y-60461446D01*
X156908847Y-60451218D01*
X156888330Y-60438921D01*
X156869117Y-60424671D01*
X156851393Y-60408607D01*
X156835329Y-60390883D01*
X156821079Y-60371670D01*
X156808782Y-60351153D01*
X156798554Y-60329529D01*
X156790496Y-60307007D01*
X156784684Y-60283803D01*
X156781174Y-60260142D01*
X156780000Y-60236250D01*
X156780000Y-59748750D01*
X156781174Y-59724858D01*
X156784684Y-59701197D01*
X156790496Y-59677993D01*
X156798554Y-59655471D01*
X156808782Y-59633847D01*
X156821079Y-59613330D01*
X156835329Y-59594117D01*
X156851393Y-59576393D01*
X156869117Y-59560329D01*
X156888330Y-59546079D01*
X156908847Y-59533782D01*
X156930471Y-59523554D01*
X156952993Y-59515496D01*
X156976197Y-59509684D01*
X156999858Y-59506174D01*
X157023750Y-59505000D01*
X157936250Y-59505000D01*
X157960142Y-59506174D01*
G37*
G04 #@! TD.AperFunction*
G04 #@! TA.AperFunction,SMDPad,CuDef*
G36*
X157960142Y-57631174D02*
G01*
X157983803Y-57634684D01*
X158007007Y-57640496D01*
X158029529Y-57648554D01*
X158051153Y-57658782D01*
X158071670Y-57671079D01*
X158090883Y-57685329D01*
X158108607Y-57701393D01*
X158124671Y-57719117D01*
X158138921Y-57738330D01*
X158151218Y-57758847D01*
X158161446Y-57780471D01*
X158169504Y-57802993D01*
X158175316Y-57826197D01*
X158178826Y-57849858D01*
X158180000Y-57873750D01*
X158180000Y-58361250D01*
X158178826Y-58385142D01*
X158175316Y-58408803D01*
X158169504Y-58432007D01*
X158161446Y-58454529D01*
X158151218Y-58476153D01*
X158138921Y-58496670D01*
X158124671Y-58515883D01*
X158108607Y-58533607D01*
X158090883Y-58549671D01*
X158071670Y-58563921D01*
X158051153Y-58576218D01*
X158029529Y-58586446D01*
X158007007Y-58594504D01*
X157983803Y-58600316D01*
X157960142Y-58603826D01*
X157936250Y-58605000D01*
X157023750Y-58605000D01*
X156999858Y-58603826D01*
X156976197Y-58600316D01*
X156952993Y-58594504D01*
X156930471Y-58586446D01*
X156908847Y-58576218D01*
X156888330Y-58563921D01*
X156869117Y-58549671D01*
X156851393Y-58533607D01*
X156835329Y-58515883D01*
X156821079Y-58496670D01*
X156808782Y-58476153D01*
X156798554Y-58454529D01*
X156790496Y-58432007D01*
X156784684Y-58408803D01*
X156781174Y-58385142D01*
X156780000Y-58361250D01*
X156780000Y-57873750D01*
X156781174Y-57849858D01*
X156784684Y-57826197D01*
X156790496Y-57802993D01*
X156798554Y-57780471D01*
X156808782Y-57758847D01*
X156821079Y-57738330D01*
X156835329Y-57719117D01*
X156851393Y-57701393D01*
X156869117Y-57685329D01*
X156888330Y-57671079D01*
X156908847Y-57658782D01*
X156930471Y-57648554D01*
X156952993Y-57640496D01*
X156976197Y-57634684D01*
X156999858Y-57631174D01*
X157023750Y-57630000D01*
X157936250Y-57630000D01*
X157960142Y-57631174D01*
G37*
G04 #@! TD.AperFunction*
G04 #@! TA.AperFunction,SMDPad,CuDef*
G36*
X136370142Y-59506174D02*
G01*
X136393803Y-59509684D01*
X136417007Y-59515496D01*
X136439529Y-59523554D01*
X136461153Y-59533782D01*
X136481670Y-59546079D01*
X136500883Y-59560329D01*
X136518607Y-59576393D01*
X136534671Y-59594117D01*
X136548921Y-59613330D01*
X136561218Y-59633847D01*
X136571446Y-59655471D01*
X136579504Y-59677993D01*
X136585316Y-59701197D01*
X136588826Y-59724858D01*
X136590000Y-59748750D01*
X136590000Y-60236250D01*
X136588826Y-60260142D01*
X136585316Y-60283803D01*
X136579504Y-60307007D01*
X136571446Y-60329529D01*
X136561218Y-60351153D01*
X136548921Y-60371670D01*
X136534671Y-60390883D01*
X136518607Y-60408607D01*
X136500883Y-60424671D01*
X136481670Y-60438921D01*
X136461153Y-60451218D01*
X136439529Y-60461446D01*
X136417007Y-60469504D01*
X136393803Y-60475316D01*
X136370142Y-60478826D01*
X136346250Y-60480000D01*
X135433750Y-60480000D01*
X135409858Y-60478826D01*
X135386197Y-60475316D01*
X135362993Y-60469504D01*
X135340471Y-60461446D01*
X135318847Y-60451218D01*
X135298330Y-60438921D01*
X135279117Y-60424671D01*
X135261393Y-60408607D01*
X135245329Y-60390883D01*
X135231079Y-60371670D01*
X135218782Y-60351153D01*
X135208554Y-60329529D01*
X135200496Y-60307007D01*
X135194684Y-60283803D01*
X135191174Y-60260142D01*
X135190000Y-60236250D01*
X135190000Y-59748750D01*
X135191174Y-59724858D01*
X135194684Y-59701197D01*
X135200496Y-59677993D01*
X135208554Y-59655471D01*
X135218782Y-59633847D01*
X135231079Y-59613330D01*
X135245329Y-59594117D01*
X135261393Y-59576393D01*
X135279117Y-59560329D01*
X135298330Y-59546079D01*
X135318847Y-59533782D01*
X135340471Y-59523554D01*
X135362993Y-59515496D01*
X135386197Y-59509684D01*
X135409858Y-59506174D01*
X135433750Y-59505000D01*
X136346250Y-59505000D01*
X136370142Y-59506174D01*
G37*
G04 #@! TD.AperFunction*
G04 #@! TA.AperFunction,SMDPad,CuDef*
G36*
X136370142Y-57631174D02*
G01*
X136393803Y-57634684D01*
X136417007Y-57640496D01*
X136439529Y-57648554D01*
X136461153Y-57658782D01*
X136481670Y-57671079D01*
X136500883Y-57685329D01*
X136518607Y-57701393D01*
X136534671Y-57719117D01*
X136548921Y-57738330D01*
X136561218Y-57758847D01*
X136571446Y-57780471D01*
X136579504Y-57802993D01*
X136585316Y-57826197D01*
X136588826Y-57849858D01*
X136590000Y-57873750D01*
X136590000Y-58361250D01*
X136588826Y-58385142D01*
X136585316Y-58408803D01*
X136579504Y-58432007D01*
X136571446Y-58454529D01*
X136561218Y-58476153D01*
X136548921Y-58496670D01*
X136534671Y-58515883D01*
X136518607Y-58533607D01*
X136500883Y-58549671D01*
X136481670Y-58563921D01*
X136461153Y-58576218D01*
X136439529Y-58586446D01*
X136417007Y-58594504D01*
X136393803Y-58600316D01*
X136370142Y-58603826D01*
X136346250Y-58605000D01*
X135433750Y-58605000D01*
X135409858Y-58603826D01*
X135386197Y-58600316D01*
X135362993Y-58594504D01*
X135340471Y-58586446D01*
X135318847Y-58576218D01*
X135298330Y-58563921D01*
X135279117Y-58549671D01*
X135261393Y-58533607D01*
X135245329Y-58515883D01*
X135231079Y-58496670D01*
X135218782Y-58476153D01*
X135208554Y-58454529D01*
X135200496Y-58432007D01*
X135194684Y-58408803D01*
X135191174Y-58385142D01*
X135190000Y-58361250D01*
X135190000Y-57873750D01*
X135191174Y-57849858D01*
X135194684Y-57826197D01*
X135200496Y-57802993D01*
X135208554Y-57780471D01*
X135218782Y-57758847D01*
X135231079Y-57738330D01*
X135245329Y-57719117D01*
X135261393Y-57701393D01*
X135279117Y-57685329D01*
X135298330Y-57671079D01*
X135318847Y-57658782D01*
X135340471Y-57648554D01*
X135362993Y-57640496D01*
X135386197Y-57634684D01*
X135409858Y-57631174D01*
X135433750Y-57630000D01*
X136346250Y-57630000D01*
X136370142Y-57631174D01*
G37*
G04 #@! TD.AperFunction*
D16*
X143830000Y-57955000D03*
X145730000Y-57955000D03*
X145730000Y-60155000D03*
X144780000Y-60155000D03*
X143830000Y-60155000D03*
D11*
X162725000Y-58021000D03*
X161125000Y-58021000D03*
X162725000Y-62121000D03*
X161125000Y-62121000D03*
G04 #@! TA.AperFunction,SMDPad,CuDef*
D10*
G36*
X167479505Y-70791204D02*
G01*
X167503773Y-70794804D01*
X167527572Y-70800765D01*
X167550671Y-70809030D01*
X167572850Y-70819520D01*
X167593893Y-70832132D01*
X167613599Y-70846747D01*
X167631777Y-70863223D01*
X167648253Y-70881401D01*
X167662868Y-70901107D01*
X167675480Y-70922150D01*
X167685970Y-70944329D01*
X167694235Y-70967428D01*
X167700196Y-70991227D01*
X167703796Y-71015495D01*
X167705000Y-71039999D01*
X167705000Y-71690001D01*
X167703796Y-71714505D01*
X167700196Y-71738773D01*
X167694235Y-71762572D01*
X167685970Y-71785671D01*
X167675480Y-71807850D01*
X167662868Y-71828893D01*
X167648253Y-71848599D01*
X167631777Y-71866777D01*
X167613599Y-71883253D01*
X167593893Y-71897868D01*
X167572850Y-71910480D01*
X167550671Y-71920970D01*
X167527572Y-71929235D01*
X167503773Y-71935196D01*
X167479505Y-71938796D01*
X167455001Y-71940000D01*
X166554999Y-71940000D01*
X166530495Y-71938796D01*
X166506227Y-71935196D01*
X166482428Y-71929235D01*
X166459329Y-71920970D01*
X166437150Y-71910480D01*
X166416107Y-71897868D01*
X166396401Y-71883253D01*
X166378223Y-71866777D01*
X166361747Y-71848599D01*
X166347132Y-71828893D01*
X166334520Y-71807850D01*
X166324030Y-71785671D01*
X166315765Y-71762572D01*
X166309804Y-71738773D01*
X166306204Y-71714505D01*
X166305000Y-71690001D01*
X166305000Y-71039999D01*
X166306204Y-71015495D01*
X166309804Y-70991227D01*
X166315765Y-70967428D01*
X166324030Y-70944329D01*
X166334520Y-70922150D01*
X166347132Y-70901107D01*
X166361747Y-70881401D01*
X166378223Y-70863223D01*
X166396401Y-70846747D01*
X166416107Y-70832132D01*
X166437150Y-70819520D01*
X166459329Y-70809030D01*
X166482428Y-70800765D01*
X166506227Y-70794804D01*
X166530495Y-70791204D01*
X166554999Y-70790000D01*
X167455001Y-70790000D01*
X167479505Y-70791204D01*
G37*
G04 #@! TD.AperFunction*
G04 #@! TA.AperFunction,SMDPad,CuDef*
G36*
X167479505Y-72841204D02*
G01*
X167503773Y-72844804D01*
X167527572Y-72850765D01*
X167550671Y-72859030D01*
X167572850Y-72869520D01*
X167593893Y-72882132D01*
X167613599Y-72896747D01*
X167631777Y-72913223D01*
X167648253Y-72931401D01*
X167662868Y-72951107D01*
X167675480Y-72972150D01*
X167685970Y-72994329D01*
X167694235Y-73017428D01*
X167700196Y-73041227D01*
X167703796Y-73065495D01*
X167705000Y-73089999D01*
X167705000Y-73740001D01*
X167703796Y-73764505D01*
X167700196Y-73788773D01*
X167694235Y-73812572D01*
X167685970Y-73835671D01*
X167675480Y-73857850D01*
X167662868Y-73878893D01*
X167648253Y-73898599D01*
X167631777Y-73916777D01*
X167613599Y-73933253D01*
X167593893Y-73947868D01*
X167572850Y-73960480D01*
X167550671Y-73970970D01*
X167527572Y-73979235D01*
X167503773Y-73985196D01*
X167479505Y-73988796D01*
X167455001Y-73990000D01*
X166554999Y-73990000D01*
X166530495Y-73988796D01*
X166506227Y-73985196D01*
X166482428Y-73979235D01*
X166459329Y-73970970D01*
X166437150Y-73960480D01*
X166416107Y-73947868D01*
X166396401Y-73933253D01*
X166378223Y-73916777D01*
X166361747Y-73898599D01*
X166347132Y-73878893D01*
X166334520Y-73857850D01*
X166324030Y-73835671D01*
X166315765Y-73812572D01*
X166309804Y-73788773D01*
X166306204Y-73764505D01*
X166305000Y-73740001D01*
X166305000Y-73089999D01*
X166306204Y-73065495D01*
X166309804Y-73041227D01*
X166315765Y-73017428D01*
X166324030Y-72994329D01*
X166334520Y-72972150D01*
X166347132Y-72951107D01*
X166361747Y-72931401D01*
X166378223Y-72913223D01*
X166396401Y-72896747D01*
X166416107Y-72882132D01*
X166437150Y-72869520D01*
X166459329Y-72859030D01*
X166482428Y-72850765D01*
X166506227Y-72844804D01*
X166530495Y-72841204D01*
X166554999Y-72840000D01*
X167455001Y-72840000D01*
X167479505Y-72841204D01*
G37*
G04 #@! TD.AperFunction*
G04 #@! TA.AperFunction,SMDPad,CuDef*
G36*
X171289505Y-70791204D02*
G01*
X171313773Y-70794804D01*
X171337572Y-70800765D01*
X171360671Y-70809030D01*
X171382850Y-70819520D01*
X171403893Y-70832132D01*
X171423599Y-70846747D01*
X171441777Y-70863223D01*
X171458253Y-70881401D01*
X171472868Y-70901107D01*
X171485480Y-70922150D01*
X171495970Y-70944329D01*
X171504235Y-70967428D01*
X171510196Y-70991227D01*
X171513796Y-71015495D01*
X171515000Y-71039999D01*
X171515000Y-71690001D01*
X171513796Y-71714505D01*
X171510196Y-71738773D01*
X171504235Y-71762572D01*
X171495970Y-71785671D01*
X171485480Y-71807850D01*
X171472868Y-71828893D01*
X171458253Y-71848599D01*
X171441777Y-71866777D01*
X171423599Y-71883253D01*
X171403893Y-71897868D01*
X171382850Y-71910480D01*
X171360671Y-71920970D01*
X171337572Y-71929235D01*
X171313773Y-71935196D01*
X171289505Y-71938796D01*
X171265001Y-71940000D01*
X170364999Y-71940000D01*
X170340495Y-71938796D01*
X170316227Y-71935196D01*
X170292428Y-71929235D01*
X170269329Y-71920970D01*
X170247150Y-71910480D01*
X170226107Y-71897868D01*
X170206401Y-71883253D01*
X170188223Y-71866777D01*
X170171747Y-71848599D01*
X170157132Y-71828893D01*
X170144520Y-71807850D01*
X170134030Y-71785671D01*
X170125765Y-71762572D01*
X170119804Y-71738773D01*
X170116204Y-71714505D01*
X170115000Y-71690001D01*
X170115000Y-71039999D01*
X170116204Y-71015495D01*
X170119804Y-70991227D01*
X170125765Y-70967428D01*
X170134030Y-70944329D01*
X170144520Y-70922150D01*
X170157132Y-70901107D01*
X170171747Y-70881401D01*
X170188223Y-70863223D01*
X170206401Y-70846747D01*
X170226107Y-70832132D01*
X170247150Y-70819520D01*
X170269329Y-70809030D01*
X170292428Y-70800765D01*
X170316227Y-70794804D01*
X170340495Y-70791204D01*
X170364999Y-70790000D01*
X171265001Y-70790000D01*
X171289505Y-70791204D01*
G37*
G04 #@! TD.AperFunction*
G04 #@! TA.AperFunction,SMDPad,CuDef*
G36*
X171289505Y-72841204D02*
G01*
X171313773Y-72844804D01*
X171337572Y-72850765D01*
X171360671Y-72859030D01*
X171382850Y-72869520D01*
X171403893Y-72882132D01*
X171423599Y-72896747D01*
X171441777Y-72913223D01*
X171458253Y-72931401D01*
X171472868Y-72951107D01*
X171485480Y-72972150D01*
X171495970Y-72994329D01*
X171504235Y-73017428D01*
X171510196Y-73041227D01*
X171513796Y-73065495D01*
X171515000Y-73089999D01*
X171515000Y-73740001D01*
X171513796Y-73764505D01*
X171510196Y-73788773D01*
X171504235Y-73812572D01*
X171495970Y-73835671D01*
X171485480Y-73857850D01*
X171472868Y-73878893D01*
X171458253Y-73898599D01*
X171441777Y-73916777D01*
X171423599Y-73933253D01*
X171403893Y-73947868D01*
X171382850Y-73960480D01*
X171360671Y-73970970D01*
X171337572Y-73979235D01*
X171313773Y-73985196D01*
X171289505Y-73988796D01*
X171265001Y-73990000D01*
X170364999Y-73990000D01*
X170340495Y-73988796D01*
X170316227Y-73985196D01*
X170292428Y-73979235D01*
X170269329Y-73970970D01*
X170247150Y-73960480D01*
X170226107Y-73947868D01*
X170206401Y-73933253D01*
X170188223Y-73916777D01*
X170171747Y-73898599D01*
X170157132Y-73878893D01*
X170144520Y-73857850D01*
X170134030Y-73835671D01*
X170125765Y-73812572D01*
X170119804Y-73788773D01*
X170116204Y-73764505D01*
X170115000Y-73740001D01*
X170115000Y-73089999D01*
X170116204Y-73065495D01*
X170119804Y-73041227D01*
X170125765Y-73017428D01*
X170134030Y-72994329D01*
X170144520Y-72972150D01*
X170157132Y-72951107D01*
X170171747Y-72931401D01*
X170188223Y-72913223D01*
X170206401Y-72896747D01*
X170226107Y-72882132D01*
X170247150Y-72869520D01*
X170269329Y-72859030D01*
X170292428Y-72850765D01*
X170316227Y-72844804D01*
X170340495Y-72841204D01*
X170364999Y-72840000D01*
X171265001Y-72840000D01*
X171289505Y-72841204D01*
G37*
G04 #@! TD.AperFunction*
G04 #@! TA.AperFunction,SMDPad,CuDef*
G36*
X144984505Y-76136204D02*
G01*
X145008773Y-76139804D01*
X145032572Y-76145765D01*
X145055671Y-76154030D01*
X145077850Y-76164520D01*
X145098893Y-76177132D01*
X145118599Y-76191747D01*
X145136777Y-76208223D01*
X145153253Y-76226401D01*
X145167868Y-76246107D01*
X145180480Y-76267150D01*
X145190970Y-76289329D01*
X145199235Y-76312428D01*
X145205196Y-76336227D01*
X145208796Y-76360495D01*
X145210000Y-76384999D01*
X145210000Y-77285001D01*
X145208796Y-77309505D01*
X145205196Y-77333773D01*
X145199235Y-77357572D01*
X145190970Y-77380671D01*
X145180480Y-77402850D01*
X145167868Y-77423893D01*
X145153253Y-77443599D01*
X145136777Y-77461777D01*
X145118599Y-77478253D01*
X145098893Y-77492868D01*
X145077850Y-77505480D01*
X145055671Y-77515970D01*
X145032572Y-77524235D01*
X145008773Y-77530196D01*
X144984505Y-77533796D01*
X144960001Y-77535000D01*
X144309999Y-77535000D01*
X144285495Y-77533796D01*
X144261227Y-77530196D01*
X144237428Y-77524235D01*
X144214329Y-77515970D01*
X144192150Y-77505480D01*
X144171107Y-77492868D01*
X144151401Y-77478253D01*
X144133223Y-77461777D01*
X144116747Y-77443599D01*
X144102132Y-77423893D01*
X144089520Y-77402850D01*
X144079030Y-77380671D01*
X144070765Y-77357572D01*
X144064804Y-77333773D01*
X144061204Y-77309505D01*
X144060000Y-77285001D01*
X144060000Y-76384999D01*
X144061204Y-76360495D01*
X144064804Y-76336227D01*
X144070765Y-76312428D01*
X144079030Y-76289329D01*
X144089520Y-76267150D01*
X144102132Y-76246107D01*
X144116747Y-76226401D01*
X144133223Y-76208223D01*
X144151401Y-76191747D01*
X144171107Y-76177132D01*
X144192150Y-76164520D01*
X144214329Y-76154030D01*
X144237428Y-76145765D01*
X144261227Y-76139804D01*
X144285495Y-76136204D01*
X144309999Y-76135000D01*
X144960001Y-76135000D01*
X144984505Y-76136204D01*
G37*
G04 #@! TD.AperFunction*
G04 #@! TA.AperFunction,SMDPad,CuDef*
G36*
X147034505Y-76136204D02*
G01*
X147058773Y-76139804D01*
X147082572Y-76145765D01*
X147105671Y-76154030D01*
X147127850Y-76164520D01*
X147148893Y-76177132D01*
X147168599Y-76191747D01*
X147186777Y-76208223D01*
X147203253Y-76226401D01*
X147217868Y-76246107D01*
X147230480Y-76267150D01*
X147240970Y-76289329D01*
X147249235Y-76312428D01*
X147255196Y-76336227D01*
X147258796Y-76360495D01*
X147260000Y-76384999D01*
X147260000Y-77285001D01*
X147258796Y-77309505D01*
X147255196Y-77333773D01*
X147249235Y-77357572D01*
X147240970Y-77380671D01*
X147230480Y-77402850D01*
X147217868Y-77423893D01*
X147203253Y-77443599D01*
X147186777Y-77461777D01*
X147168599Y-77478253D01*
X147148893Y-77492868D01*
X147127850Y-77505480D01*
X147105671Y-77515970D01*
X147082572Y-77524235D01*
X147058773Y-77530196D01*
X147034505Y-77533796D01*
X147010001Y-77535000D01*
X146359999Y-77535000D01*
X146335495Y-77533796D01*
X146311227Y-77530196D01*
X146287428Y-77524235D01*
X146264329Y-77515970D01*
X146242150Y-77505480D01*
X146221107Y-77492868D01*
X146201401Y-77478253D01*
X146183223Y-77461777D01*
X146166747Y-77443599D01*
X146152132Y-77423893D01*
X146139520Y-77402850D01*
X146129030Y-77380671D01*
X146120765Y-77357572D01*
X146114804Y-77333773D01*
X146111204Y-77309505D01*
X146110000Y-77285001D01*
X146110000Y-76384999D01*
X146111204Y-76360495D01*
X146114804Y-76336227D01*
X146120765Y-76312428D01*
X146129030Y-76289329D01*
X146139520Y-76267150D01*
X146152132Y-76246107D01*
X146166747Y-76226401D01*
X146183223Y-76208223D01*
X146201401Y-76191747D01*
X146221107Y-76177132D01*
X146242150Y-76164520D01*
X146264329Y-76154030D01*
X146287428Y-76145765D01*
X146311227Y-76139804D01*
X146335495Y-76136204D01*
X146359999Y-76135000D01*
X147010001Y-76135000D01*
X147034505Y-76136204D01*
G37*
G04 #@! TD.AperFunction*
G04 #@! TA.AperFunction,SMDPad,CuDef*
G36*
X147034505Y-79946204D02*
G01*
X147058773Y-79949804D01*
X147082572Y-79955765D01*
X147105671Y-79964030D01*
X147127850Y-79974520D01*
X147148893Y-79987132D01*
X147168599Y-80001747D01*
X147186777Y-80018223D01*
X147203253Y-80036401D01*
X147217868Y-80056107D01*
X147230480Y-80077150D01*
X147240970Y-80099329D01*
X147249235Y-80122428D01*
X147255196Y-80146227D01*
X147258796Y-80170495D01*
X147260000Y-80194999D01*
X147260000Y-81095001D01*
X147258796Y-81119505D01*
X147255196Y-81143773D01*
X147249235Y-81167572D01*
X147240970Y-81190671D01*
X147230480Y-81212850D01*
X147217868Y-81233893D01*
X147203253Y-81253599D01*
X147186777Y-81271777D01*
X147168599Y-81288253D01*
X147148893Y-81302868D01*
X147127850Y-81315480D01*
X147105671Y-81325970D01*
X147082572Y-81334235D01*
X147058773Y-81340196D01*
X147034505Y-81343796D01*
X147010001Y-81345000D01*
X146359999Y-81345000D01*
X146335495Y-81343796D01*
X146311227Y-81340196D01*
X146287428Y-81334235D01*
X146264329Y-81325970D01*
X146242150Y-81315480D01*
X146221107Y-81302868D01*
X146201401Y-81288253D01*
X146183223Y-81271777D01*
X146166747Y-81253599D01*
X146152132Y-81233893D01*
X146139520Y-81212850D01*
X146129030Y-81190671D01*
X146120765Y-81167572D01*
X146114804Y-81143773D01*
X146111204Y-81119505D01*
X146110000Y-81095001D01*
X146110000Y-80194999D01*
X146111204Y-80170495D01*
X146114804Y-80146227D01*
X146120765Y-80122428D01*
X146129030Y-80099329D01*
X146139520Y-80077150D01*
X146152132Y-80056107D01*
X146166747Y-80036401D01*
X146183223Y-80018223D01*
X146201401Y-80001747D01*
X146221107Y-79987132D01*
X146242150Y-79974520D01*
X146264329Y-79964030D01*
X146287428Y-79955765D01*
X146311227Y-79949804D01*
X146335495Y-79946204D01*
X146359999Y-79945000D01*
X147010001Y-79945000D01*
X147034505Y-79946204D01*
G37*
G04 #@! TD.AperFunction*
G04 #@! TA.AperFunction,SMDPad,CuDef*
G36*
X144984505Y-79946204D02*
G01*
X145008773Y-79949804D01*
X145032572Y-79955765D01*
X145055671Y-79964030D01*
X145077850Y-79974520D01*
X145098893Y-79987132D01*
X145118599Y-80001747D01*
X145136777Y-80018223D01*
X145153253Y-80036401D01*
X145167868Y-80056107D01*
X145180480Y-80077150D01*
X145190970Y-80099329D01*
X145199235Y-80122428D01*
X145205196Y-80146227D01*
X145208796Y-80170495D01*
X145210000Y-80194999D01*
X145210000Y-81095001D01*
X145208796Y-81119505D01*
X145205196Y-81143773D01*
X145199235Y-81167572D01*
X145190970Y-81190671D01*
X145180480Y-81212850D01*
X145167868Y-81233893D01*
X145153253Y-81253599D01*
X145136777Y-81271777D01*
X145118599Y-81288253D01*
X145098893Y-81302868D01*
X145077850Y-81315480D01*
X145055671Y-81325970D01*
X145032572Y-81334235D01*
X145008773Y-81340196D01*
X144984505Y-81343796D01*
X144960001Y-81345000D01*
X144309999Y-81345000D01*
X144285495Y-81343796D01*
X144261227Y-81340196D01*
X144237428Y-81334235D01*
X144214329Y-81325970D01*
X144192150Y-81315480D01*
X144171107Y-81302868D01*
X144151401Y-81288253D01*
X144133223Y-81271777D01*
X144116747Y-81253599D01*
X144102132Y-81233893D01*
X144089520Y-81212850D01*
X144079030Y-81190671D01*
X144070765Y-81167572D01*
X144064804Y-81143773D01*
X144061204Y-81119505D01*
X144060000Y-81095001D01*
X144060000Y-80194999D01*
X144061204Y-80170495D01*
X144064804Y-80146227D01*
X144070765Y-80122428D01*
X144079030Y-80099329D01*
X144089520Y-80077150D01*
X144102132Y-80056107D01*
X144116747Y-80036401D01*
X144133223Y-80018223D01*
X144151401Y-80001747D01*
X144171107Y-79987132D01*
X144192150Y-79974520D01*
X144214329Y-79964030D01*
X144237428Y-79955765D01*
X144261227Y-79949804D01*
X144285495Y-79946204D01*
X144309999Y-79945000D01*
X144960001Y-79945000D01*
X144984505Y-79946204D01*
G37*
G04 #@! TD.AperFunction*
G04 #@! TA.AperFunction,SMDPad,CuDef*
G36*
X154144505Y-57456204D02*
G01*
X154168773Y-57459804D01*
X154192572Y-57465765D01*
X154215671Y-57474030D01*
X154237850Y-57484520D01*
X154258893Y-57497132D01*
X154278599Y-57511747D01*
X154296777Y-57528223D01*
X154313253Y-57546401D01*
X154327868Y-57566107D01*
X154340480Y-57587150D01*
X154350970Y-57609329D01*
X154359235Y-57632428D01*
X154365196Y-57656227D01*
X154368796Y-57680495D01*
X154370000Y-57704999D01*
X154370000Y-58355001D01*
X154368796Y-58379505D01*
X154365196Y-58403773D01*
X154359235Y-58427572D01*
X154350970Y-58450671D01*
X154340480Y-58472850D01*
X154327868Y-58493893D01*
X154313253Y-58513599D01*
X154296777Y-58531777D01*
X154278599Y-58548253D01*
X154258893Y-58562868D01*
X154237850Y-58575480D01*
X154215671Y-58585970D01*
X154192572Y-58594235D01*
X154168773Y-58600196D01*
X154144505Y-58603796D01*
X154120001Y-58605000D01*
X153219999Y-58605000D01*
X153195495Y-58603796D01*
X153171227Y-58600196D01*
X153147428Y-58594235D01*
X153124329Y-58585970D01*
X153102150Y-58575480D01*
X153081107Y-58562868D01*
X153061401Y-58548253D01*
X153043223Y-58531777D01*
X153026747Y-58513599D01*
X153012132Y-58493893D01*
X152999520Y-58472850D01*
X152989030Y-58450671D01*
X152980765Y-58427572D01*
X152974804Y-58403773D01*
X152971204Y-58379505D01*
X152970000Y-58355001D01*
X152970000Y-57704999D01*
X152971204Y-57680495D01*
X152974804Y-57656227D01*
X152980765Y-57632428D01*
X152989030Y-57609329D01*
X152999520Y-57587150D01*
X153012132Y-57566107D01*
X153026747Y-57546401D01*
X153043223Y-57528223D01*
X153061401Y-57511747D01*
X153081107Y-57497132D01*
X153102150Y-57484520D01*
X153124329Y-57474030D01*
X153147428Y-57465765D01*
X153171227Y-57459804D01*
X153195495Y-57456204D01*
X153219999Y-57455000D01*
X154120001Y-57455000D01*
X154144505Y-57456204D01*
G37*
G04 #@! TD.AperFunction*
G04 #@! TA.AperFunction,SMDPad,CuDef*
G36*
X154144505Y-59506204D02*
G01*
X154168773Y-59509804D01*
X154192572Y-59515765D01*
X154215671Y-59524030D01*
X154237850Y-59534520D01*
X154258893Y-59547132D01*
X154278599Y-59561747D01*
X154296777Y-59578223D01*
X154313253Y-59596401D01*
X154327868Y-59616107D01*
X154340480Y-59637150D01*
X154350970Y-59659329D01*
X154359235Y-59682428D01*
X154365196Y-59706227D01*
X154368796Y-59730495D01*
X154370000Y-59754999D01*
X154370000Y-60405001D01*
X154368796Y-60429505D01*
X154365196Y-60453773D01*
X154359235Y-60477572D01*
X154350970Y-60500671D01*
X154340480Y-60522850D01*
X154327868Y-60543893D01*
X154313253Y-60563599D01*
X154296777Y-60581777D01*
X154278599Y-60598253D01*
X154258893Y-60612868D01*
X154237850Y-60625480D01*
X154215671Y-60635970D01*
X154192572Y-60644235D01*
X154168773Y-60650196D01*
X154144505Y-60653796D01*
X154120001Y-60655000D01*
X153219999Y-60655000D01*
X153195495Y-60653796D01*
X153171227Y-60650196D01*
X153147428Y-60644235D01*
X153124329Y-60635970D01*
X153102150Y-60625480D01*
X153081107Y-60612868D01*
X153061401Y-60598253D01*
X153043223Y-60581777D01*
X153026747Y-60563599D01*
X153012132Y-60543893D01*
X152999520Y-60522850D01*
X152989030Y-60500671D01*
X152980765Y-60477572D01*
X152974804Y-60453773D01*
X152971204Y-60429505D01*
X152970000Y-60405001D01*
X152970000Y-59754999D01*
X152971204Y-59730495D01*
X152974804Y-59706227D01*
X152980765Y-59682428D01*
X152989030Y-59659329D01*
X152999520Y-59637150D01*
X153012132Y-59616107D01*
X153026747Y-59596401D01*
X153043223Y-59578223D01*
X153061401Y-59561747D01*
X153081107Y-59547132D01*
X153102150Y-59534520D01*
X153124329Y-59524030D01*
X153147428Y-59515765D01*
X153171227Y-59509804D01*
X153195495Y-59506204D01*
X153219999Y-59505000D01*
X154120001Y-59505000D01*
X154144505Y-59506204D01*
G37*
G04 #@! TD.AperFunction*
G04 #@! TA.AperFunction,SMDPad,CuDef*
G36*
X140174505Y-57456204D02*
G01*
X140198773Y-57459804D01*
X140222572Y-57465765D01*
X140245671Y-57474030D01*
X140267850Y-57484520D01*
X140288893Y-57497132D01*
X140308599Y-57511747D01*
X140326777Y-57528223D01*
X140343253Y-57546401D01*
X140357868Y-57566107D01*
X140370480Y-57587150D01*
X140380970Y-57609329D01*
X140389235Y-57632428D01*
X140395196Y-57656227D01*
X140398796Y-57680495D01*
X140400000Y-57704999D01*
X140400000Y-58355001D01*
X140398796Y-58379505D01*
X140395196Y-58403773D01*
X140389235Y-58427572D01*
X140380970Y-58450671D01*
X140370480Y-58472850D01*
X140357868Y-58493893D01*
X140343253Y-58513599D01*
X140326777Y-58531777D01*
X140308599Y-58548253D01*
X140288893Y-58562868D01*
X140267850Y-58575480D01*
X140245671Y-58585970D01*
X140222572Y-58594235D01*
X140198773Y-58600196D01*
X140174505Y-58603796D01*
X140150001Y-58605000D01*
X139249999Y-58605000D01*
X139225495Y-58603796D01*
X139201227Y-58600196D01*
X139177428Y-58594235D01*
X139154329Y-58585970D01*
X139132150Y-58575480D01*
X139111107Y-58562868D01*
X139091401Y-58548253D01*
X139073223Y-58531777D01*
X139056747Y-58513599D01*
X139042132Y-58493893D01*
X139029520Y-58472850D01*
X139019030Y-58450671D01*
X139010765Y-58427572D01*
X139004804Y-58403773D01*
X139001204Y-58379505D01*
X139000000Y-58355001D01*
X139000000Y-57704999D01*
X139001204Y-57680495D01*
X139004804Y-57656227D01*
X139010765Y-57632428D01*
X139019030Y-57609329D01*
X139029520Y-57587150D01*
X139042132Y-57566107D01*
X139056747Y-57546401D01*
X139073223Y-57528223D01*
X139091401Y-57511747D01*
X139111107Y-57497132D01*
X139132150Y-57484520D01*
X139154329Y-57474030D01*
X139177428Y-57465765D01*
X139201227Y-57459804D01*
X139225495Y-57456204D01*
X139249999Y-57455000D01*
X140150001Y-57455000D01*
X140174505Y-57456204D01*
G37*
G04 #@! TD.AperFunction*
G04 #@! TA.AperFunction,SMDPad,CuDef*
G36*
X140174505Y-59506204D02*
G01*
X140198773Y-59509804D01*
X140222572Y-59515765D01*
X140245671Y-59524030D01*
X140267850Y-59534520D01*
X140288893Y-59547132D01*
X140308599Y-59561747D01*
X140326777Y-59578223D01*
X140343253Y-59596401D01*
X140357868Y-59616107D01*
X140370480Y-59637150D01*
X140380970Y-59659329D01*
X140389235Y-59682428D01*
X140395196Y-59706227D01*
X140398796Y-59730495D01*
X140400000Y-59754999D01*
X140400000Y-60405001D01*
X140398796Y-60429505D01*
X140395196Y-60453773D01*
X140389235Y-60477572D01*
X140380970Y-60500671D01*
X140370480Y-60522850D01*
X140357868Y-60543893D01*
X140343253Y-60563599D01*
X140326777Y-60581777D01*
X140308599Y-60598253D01*
X140288893Y-60612868D01*
X140267850Y-60625480D01*
X140245671Y-60635970D01*
X140222572Y-60644235D01*
X140198773Y-60650196D01*
X140174505Y-60653796D01*
X140150001Y-60655000D01*
X139249999Y-60655000D01*
X139225495Y-60653796D01*
X139201227Y-60650196D01*
X139177428Y-60644235D01*
X139154329Y-60635970D01*
X139132150Y-60625480D01*
X139111107Y-60612868D01*
X139091401Y-60598253D01*
X139073223Y-60581777D01*
X139056747Y-60563599D01*
X139042132Y-60543893D01*
X139029520Y-60522850D01*
X139019030Y-60500671D01*
X139010765Y-60477572D01*
X139004804Y-60453773D01*
X139001204Y-60429505D01*
X139000000Y-60405001D01*
X139000000Y-59754999D01*
X139001204Y-59730495D01*
X139004804Y-59706227D01*
X139010765Y-59682428D01*
X139019030Y-59659329D01*
X139029520Y-59637150D01*
X139042132Y-59616107D01*
X139056747Y-59596401D01*
X139073223Y-59578223D01*
X139091401Y-59561747D01*
X139111107Y-59547132D01*
X139132150Y-59534520D01*
X139154329Y-59524030D01*
X139177428Y-59515765D01*
X139201227Y-59509804D01*
X139225495Y-59506204D01*
X139249999Y-59505000D01*
X140150001Y-59505000D01*
X140174505Y-59506204D01*
G37*
G04 #@! TD.AperFunction*
G04 #@! TA.AperFunction,SMDPad,CuDef*
G36*
X151735000Y-75044398D02*
G01*
X151710466Y-75044398D01*
X151661635Y-75039588D01*
X151613510Y-75030016D01*
X151566555Y-75015772D01*
X151521222Y-74996995D01*
X151477949Y-74973864D01*
X151437150Y-74946604D01*
X151399221Y-74915476D01*
X151364524Y-74880779D01*
X151333396Y-74842850D01*
X151306136Y-74802051D01*
X151283005Y-74758778D01*
X151264228Y-74713445D01*
X151249984Y-74666490D01*
X151240412Y-74618365D01*
X151235602Y-74569534D01*
X151235602Y-74545000D01*
X151235000Y-74545000D01*
X151235000Y-74045000D01*
X151235602Y-74045000D01*
X151235602Y-74020466D01*
X151240412Y-73971635D01*
X151249984Y-73923510D01*
X151264228Y-73876555D01*
X151283005Y-73831222D01*
X151306136Y-73787949D01*
X151333396Y-73747150D01*
X151364524Y-73709221D01*
X151399221Y-73674524D01*
X151437150Y-73643396D01*
X151477949Y-73616136D01*
X151521222Y-73593005D01*
X151566555Y-73574228D01*
X151613510Y-73559984D01*
X151661635Y-73550412D01*
X151710466Y-73545602D01*
X151735000Y-73545602D01*
X151735000Y-73545000D01*
X152285000Y-73545000D01*
X152285000Y-75045000D01*
X151735000Y-75045000D01*
X151735000Y-75044398D01*
G37*
G04 #@! TD.AperFunction*
D17*
X153035000Y-74295000D03*
G04 #@! TA.AperFunction,SMDPad,CuDef*
D10*
G36*
X153785000Y-73545000D02*
G01*
X154335000Y-73545000D01*
X154335000Y-73545602D01*
X154359534Y-73545602D01*
X154408365Y-73550412D01*
X154456490Y-73559984D01*
X154503445Y-73574228D01*
X154548778Y-73593005D01*
X154592051Y-73616136D01*
X154632850Y-73643396D01*
X154670779Y-73674524D01*
X154705476Y-73709221D01*
X154736604Y-73747150D01*
X154763864Y-73787949D01*
X154786995Y-73831222D01*
X154805772Y-73876555D01*
X154820016Y-73923510D01*
X154829588Y-73971635D01*
X154834398Y-74020466D01*
X154834398Y-74045000D01*
X154835000Y-74045000D01*
X154835000Y-74545000D01*
X154834398Y-74545000D01*
X154834398Y-74569534D01*
X154829588Y-74618365D01*
X154820016Y-74666490D01*
X154805772Y-74713445D01*
X154786995Y-74758778D01*
X154763864Y-74802051D01*
X154736604Y-74842850D01*
X154705476Y-74880779D01*
X154670779Y-74915476D01*
X154632850Y-74946604D01*
X154592051Y-74973864D01*
X154548778Y-74996995D01*
X154503445Y-75015772D01*
X154456490Y-75030016D01*
X154408365Y-75039588D01*
X154359534Y-75044398D01*
X154335000Y-75044398D01*
X154335000Y-75045000D01*
X153785000Y-75045000D01*
X153785000Y-73545000D01*
G37*
G04 #@! TD.AperFunction*
G04 #@! TA.AperFunction,SMDPad,CuDef*
G36*
X160805000Y-82435000D02*
G01*
X161305000Y-82435000D01*
X161305000Y-82435602D01*
X161329534Y-82435602D01*
X161378365Y-82440412D01*
X161426490Y-82449984D01*
X161473445Y-82464228D01*
X161518778Y-82483005D01*
X161562051Y-82506136D01*
X161602850Y-82533396D01*
X161640779Y-82564524D01*
X161675476Y-82599221D01*
X161706604Y-82637150D01*
X161733864Y-82677949D01*
X161756995Y-82721222D01*
X161775772Y-82766555D01*
X161790016Y-82813510D01*
X161799588Y-82861635D01*
X161804398Y-82910466D01*
X161804398Y-82935000D01*
X161805000Y-82935000D01*
X161805000Y-83435000D01*
X161804398Y-83435000D01*
X161804398Y-83459534D01*
X161799588Y-83508365D01*
X161790016Y-83556490D01*
X161775772Y-83603445D01*
X161756995Y-83648778D01*
X161733864Y-83692051D01*
X161706604Y-83732850D01*
X161675476Y-83770779D01*
X161640779Y-83805476D01*
X161602850Y-83836604D01*
X161562051Y-83863864D01*
X161518778Y-83886995D01*
X161473445Y-83905772D01*
X161426490Y-83920016D01*
X161378365Y-83929588D01*
X161329534Y-83934398D01*
X161305000Y-83934398D01*
X161305000Y-83935000D01*
X160805000Y-83935000D01*
X160805000Y-82435000D01*
G37*
G04 #@! TD.AperFunction*
G04 #@! TA.AperFunction,SMDPad,CuDef*
G36*
X160005000Y-83934398D02*
G01*
X159980466Y-83934398D01*
X159931635Y-83929588D01*
X159883510Y-83920016D01*
X159836555Y-83905772D01*
X159791222Y-83886995D01*
X159747949Y-83863864D01*
X159707150Y-83836604D01*
X159669221Y-83805476D01*
X159634524Y-83770779D01*
X159603396Y-83732850D01*
X159576136Y-83692051D01*
X159553005Y-83648778D01*
X159534228Y-83603445D01*
X159519984Y-83556490D01*
X159510412Y-83508365D01*
X159505602Y-83459534D01*
X159505602Y-83435000D01*
X159505000Y-83435000D01*
X159505000Y-82935000D01*
X159505602Y-82935000D01*
X159505602Y-82910466D01*
X159510412Y-82861635D01*
X159519984Y-82813510D01*
X159534228Y-82766555D01*
X159553005Y-82721222D01*
X159576136Y-82677949D01*
X159603396Y-82637150D01*
X159634524Y-82599221D01*
X159669221Y-82564524D01*
X159707150Y-82533396D01*
X159747949Y-82506136D01*
X159791222Y-82483005D01*
X159836555Y-82464228D01*
X159883510Y-82449984D01*
X159931635Y-82440412D01*
X159980466Y-82435602D01*
X160005000Y-82435602D01*
X160005000Y-82435000D01*
X160505000Y-82435000D01*
X160505000Y-83935000D01*
X160005000Y-83935000D01*
X160005000Y-83934398D01*
G37*
G04 #@! TD.AperFunction*
D17*
X153035000Y-80010000D03*
G04 #@! TA.AperFunction,SMDPad,CuDef*
D10*
G36*
X151735000Y-80759398D02*
G01*
X151710466Y-80759398D01*
X151661635Y-80754588D01*
X151613510Y-80745016D01*
X151566555Y-80730772D01*
X151521222Y-80711995D01*
X151477949Y-80688864D01*
X151437150Y-80661604D01*
X151399221Y-80630476D01*
X151364524Y-80595779D01*
X151333396Y-80557850D01*
X151306136Y-80517051D01*
X151283005Y-80473778D01*
X151264228Y-80428445D01*
X151249984Y-80381490D01*
X151240412Y-80333365D01*
X151235602Y-80284534D01*
X151235602Y-80260000D01*
X151235000Y-80260000D01*
X151235000Y-79760000D01*
X151235602Y-79760000D01*
X151235602Y-79735466D01*
X151240412Y-79686635D01*
X151249984Y-79638510D01*
X151264228Y-79591555D01*
X151283005Y-79546222D01*
X151306136Y-79502949D01*
X151333396Y-79462150D01*
X151364524Y-79424221D01*
X151399221Y-79389524D01*
X151437150Y-79358396D01*
X151477949Y-79331136D01*
X151521222Y-79308005D01*
X151566555Y-79289228D01*
X151613510Y-79274984D01*
X151661635Y-79265412D01*
X151710466Y-79260602D01*
X151735000Y-79260602D01*
X151735000Y-79260000D01*
X152285000Y-79260000D01*
X152285000Y-80760000D01*
X151735000Y-80760000D01*
X151735000Y-80759398D01*
G37*
G04 #@! TD.AperFunction*
G04 #@! TA.AperFunction,SMDPad,CuDef*
G36*
X153785000Y-79260000D02*
G01*
X154335000Y-79260000D01*
X154335000Y-79260602D01*
X154359534Y-79260602D01*
X154408365Y-79265412D01*
X154456490Y-79274984D01*
X154503445Y-79289228D01*
X154548778Y-79308005D01*
X154592051Y-79331136D01*
X154632850Y-79358396D01*
X154670779Y-79389524D01*
X154705476Y-79424221D01*
X154736604Y-79462150D01*
X154763864Y-79502949D01*
X154786995Y-79546222D01*
X154805772Y-79591555D01*
X154820016Y-79638510D01*
X154829588Y-79686635D01*
X154834398Y-79735466D01*
X154834398Y-79760000D01*
X154835000Y-79760000D01*
X154835000Y-80260000D01*
X154834398Y-80260000D01*
X154834398Y-80284534D01*
X154829588Y-80333365D01*
X154820016Y-80381490D01*
X154805772Y-80428445D01*
X154786995Y-80473778D01*
X154763864Y-80517051D01*
X154736604Y-80557850D01*
X154705476Y-80595779D01*
X154670779Y-80630476D01*
X154632850Y-80661604D01*
X154592051Y-80688864D01*
X154548778Y-80711995D01*
X154503445Y-80730772D01*
X154456490Y-80745016D01*
X154408365Y-80754588D01*
X154359534Y-80759398D01*
X154335000Y-80759398D01*
X154335000Y-80760000D01*
X153785000Y-80760000D01*
X153785000Y-79260000D01*
G37*
G04 #@! TD.AperFunction*
D13*
X174500000Y-76500000D03*
D12*
X174500000Y-73960000D03*
X174500000Y-71420000D03*
X174500000Y-68880000D03*
X166370000Y-86360000D03*
X163830000Y-86360000D03*
X161290000Y-86360000D03*
X158750000Y-86360000D03*
X156210000Y-86360000D03*
D13*
X153670000Y-86360000D03*
D12*
X144780000Y-86360000D03*
X144780000Y-83820000D03*
X142240000Y-86360000D03*
X142240000Y-83820000D03*
X139700000Y-86360000D03*
X139700000Y-83820000D03*
X137160000Y-86360000D03*
D13*
X137160000Y-83820000D03*
G04 #@! TA.AperFunction,ComponentPad*
D10*
G36*
X133960765Y-75454213D02*
G01*
X134045704Y-75466813D01*
X134128999Y-75487677D01*
X134209848Y-75516605D01*
X134287472Y-75553319D01*
X134361124Y-75597464D01*
X134430094Y-75648616D01*
X134493718Y-75706282D01*
X134551384Y-75769906D01*
X134602536Y-75838876D01*
X134646681Y-75912528D01*
X134683395Y-75990152D01*
X134712323Y-76071001D01*
X134733187Y-76154296D01*
X134745787Y-76239235D01*
X134750000Y-76325000D01*
X134750000Y-78075000D01*
X134745787Y-78160765D01*
X134733187Y-78245704D01*
X134712323Y-78328999D01*
X134683395Y-78409848D01*
X134646681Y-78487472D01*
X134602536Y-78561124D01*
X134551384Y-78630094D01*
X134493718Y-78693718D01*
X134430094Y-78751384D01*
X134361124Y-78802536D01*
X134287472Y-78846681D01*
X134209848Y-78883395D01*
X134128999Y-78912323D01*
X134045704Y-78933187D01*
X133960765Y-78945787D01*
X133875000Y-78950000D01*
X132125000Y-78950000D01*
X132039235Y-78945787D01*
X131954296Y-78933187D01*
X131871001Y-78912323D01*
X131790152Y-78883395D01*
X131712528Y-78846681D01*
X131638876Y-78802536D01*
X131569906Y-78751384D01*
X131506282Y-78693718D01*
X131448616Y-78630094D01*
X131397464Y-78561124D01*
X131353319Y-78487472D01*
X131316605Y-78409848D01*
X131287677Y-78328999D01*
X131266813Y-78245704D01*
X131254213Y-78160765D01*
X131250000Y-78075000D01*
X131250000Y-76325000D01*
X131254213Y-76239235D01*
X131266813Y-76154296D01*
X131287677Y-76071001D01*
X131316605Y-75990152D01*
X131353319Y-75912528D01*
X131397464Y-75838876D01*
X131448616Y-75769906D01*
X131506282Y-75706282D01*
X131569906Y-75648616D01*
X131638876Y-75597464D01*
X131712528Y-75553319D01*
X131790152Y-75516605D01*
X131871001Y-75487677D01*
X131954296Y-75466813D01*
X132039235Y-75454213D01*
X132125000Y-75450000D01*
X133875000Y-75450000D01*
X133960765Y-75454213D01*
G37*
G04 #@! TD.AperFunction*
G04 #@! TA.AperFunction,ComponentPad*
G36*
X130823513Y-70753611D02*
G01*
X130896318Y-70764411D01*
X130967714Y-70782295D01*
X131037013Y-70807090D01*
X131103548Y-70838559D01*
X131166678Y-70876398D01*
X131225795Y-70920242D01*
X131280330Y-70969670D01*
X131329758Y-71024205D01*
X131373602Y-71083322D01*
X131411441Y-71146452D01*
X131442910Y-71212987D01*
X131467705Y-71282286D01*
X131485589Y-71353682D01*
X131496389Y-71426487D01*
X131500000Y-71500000D01*
X131500000Y-73500000D01*
X131496389Y-73573513D01*
X131485589Y-73646318D01*
X131467705Y-73717714D01*
X131442910Y-73787013D01*
X131411441Y-73853548D01*
X131373602Y-73916678D01*
X131329758Y-73975795D01*
X131280330Y-74030330D01*
X131225795Y-74079758D01*
X131166678Y-74123602D01*
X131103548Y-74161441D01*
X131037013Y-74192910D01*
X130967714Y-74217705D01*
X130896318Y-74235589D01*
X130823513Y-74246389D01*
X130750000Y-74250000D01*
X129250000Y-74250000D01*
X129176487Y-74246389D01*
X129103682Y-74235589D01*
X129032286Y-74217705D01*
X128962987Y-74192910D01*
X128896452Y-74161441D01*
X128833322Y-74123602D01*
X128774205Y-74079758D01*
X128719670Y-74030330D01*
X128670242Y-73975795D01*
X128626398Y-73916678D01*
X128588559Y-73853548D01*
X128557090Y-73787013D01*
X128532295Y-73717714D01*
X128514411Y-73646318D01*
X128503611Y-73573513D01*
X128500000Y-73500000D01*
X128500000Y-71500000D01*
X128503611Y-71426487D01*
X128514411Y-71353682D01*
X128532295Y-71282286D01*
X128557090Y-71212987D01*
X128588559Y-71146452D01*
X128626398Y-71083322D01*
X128670242Y-71024205D01*
X128719670Y-70969670D01*
X128774205Y-70920242D01*
X128833322Y-70876398D01*
X128896452Y-70838559D01*
X128962987Y-70807090D01*
X129032286Y-70782295D01*
X129103682Y-70764411D01*
X129176487Y-70753611D01*
X129250000Y-70750000D01*
X130750000Y-70750000D01*
X130823513Y-70753611D01*
G37*
G04 #@! TD.AperFunction*
D18*
X136000000Y-72500000D03*
D19*
X141097000Y-70867000D03*
X141097000Y-74167000D03*
G04 #@! TA.AperFunction,SMDPad,CuDef*
D10*
G36*
X166305142Y-82486174D02*
G01*
X166328803Y-82489684D01*
X166352007Y-82495496D01*
X166374529Y-82503554D01*
X166396153Y-82513782D01*
X166416670Y-82526079D01*
X166435883Y-82540329D01*
X166453607Y-82556393D01*
X166469671Y-82574117D01*
X166483921Y-82593330D01*
X166496218Y-82613847D01*
X166506446Y-82635471D01*
X166514504Y-82657993D01*
X166520316Y-82681197D01*
X166523826Y-82704858D01*
X166525000Y-82728750D01*
X166525000Y-83641250D01*
X166523826Y-83665142D01*
X166520316Y-83688803D01*
X166514504Y-83712007D01*
X166506446Y-83734529D01*
X166496218Y-83756153D01*
X166483921Y-83776670D01*
X166469671Y-83795883D01*
X166453607Y-83813607D01*
X166435883Y-83829671D01*
X166416670Y-83843921D01*
X166396153Y-83856218D01*
X166374529Y-83866446D01*
X166352007Y-83874504D01*
X166328803Y-83880316D01*
X166305142Y-83883826D01*
X166281250Y-83885000D01*
X165793750Y-83885000D01*
X165769858Y-83883826D01*
X165746197Y-83880316D01*
X165722993Y-83874504D01*
X165700471Y-83866446D01*
X165678847Y-83856218D01*
X165658330Y-83843921D01*
X165639117Y-83829671D01*
X165621393Y-83813607D01*
X165605329Y-83795883D01*
X165591079Y-83776670D01*
X165578782Y-83756153D01*
X165568554Y-83734529D01*
X165560496Y-83712007D01*
X165554684Y-83688803D01*
X165551174Y-83665142D01*
X165550000Y-83641250D01*
X165550000Y-82728750D01*
X165551174Y-82704858D01*
X165554684Y-82681197D01*
X165560496Y-82657993D01*
X165568554Y-82635471D01*
X165578782Y-82613847D01*
X165591079Y-82593330D01*
X165605329Y-82574117D01*
X165621393Y-82556393D01*
X165639117Y-82540329D01*
X165658330Y-82526079D01*
X165678847Y-82513782D01*
X165700471Y-82503554D01*
X165722993Y-82495496D01*
X165746197Y-82489684D01*
X165769858Y-82486174D01*
X165793750Y-82485000D01*
X166281250Y-82485000D01*
X166305142Y-82486174D01*
G37*
G04 #@! TD.AperFunction*
G04 #@! TA.AperFunction,SMDPad,CuDef*
G36*
X164430142Y-82486174D02*
G01*
X164453803Y-82489684D01*
X164477007Y-82495496D01*
X164499529Y-82503554D01*
X164521153Y-82513782D01*
X164541670Y-82526079D01*
X164560883Y-82540329D01*
X164578607Y-82556393D01*
X164594671Y-82574117D01*
X164608921Y-82593330D01*
X164621218Y-82613847D01*
X164631446Y-82635471D01*
X164639504Y-82657993D01*
X164645316Y-82681197D01*
X164648826Y-82704858D01*
X164650000Y-82728750D01*
X164650000Y-83641250D01*
X164648826Y-83665142D01*
X164645316Y-83688803D01*
X164639504Y-83712007D01*
X164631446Y-83734529D01*
X164621218Y-83756153D01*
X164608921Y-83776670D01*
X164594671Y-83795883D01*
X164578607Y-83813607D01*
X164560883Y-83829671D01*
X164541670Y-83843921D01*
X164521153Y-83856218D01*
X164499529Y-83866446D01*
X164477007Y-83874504D01*
X164453803Y-83880316D01*
X164430142Y-83883826D01*
X164406250Y-83885000D01*
X163918750Y-83885000D01*
X163894858Y-83883826D01*
X163871197Y-83880316D01*
X163847993Y-83874504D01*
X163825471Y-83866446D01*
X163803847Y-83856218D01*
X163783330Y-83843921D01*
X163764117Y-83829671D01*
X163746393Y-83813607D01*
X163730329Y-83795883D01*
X163716079Y-83776670D01*
X163703782Y-83756153D01*
X163693554Y-83734529D01*
X163685496Y-83712007D01*
X163679684Y-83688803D01*
X163676174Y-83665142D01*
X163675000Y-83641250D01*
X163675000Y-82728750D01*
X163676174Y-82704858D01*
X163679684Y-82681197D01*
X163685496Y-82657993D01*
X163693554Y-82635471D01*
X163703782Y-82613847D01*
X163716079Y-82593330D01*
X163730329Y-82574117D01*
X163746393Y-82556393D01*
X163764117Y-82540329D01*
X163783330Y-82526079D01*
X163803847Y-82513782D01*
X163825471Y-82503554D01*
X163847993Y-82495496D01*
X163871197Y-82489684D01*
X163894858Y-82486174D01*
X163918750Y-82485000D01*
X164406250Y-82485000D01*
X164430142Y-82486174D01*
G37*
G04 #@! TD.AperFunction*
G04 #@! TA.AperFunction,SMDPad,CuDef*
G36*
X146865142Y-72326174D02*
G01*
X146888803Y-72329684D01*
X146912007Y-72335496D01*
X146934529Y-72343554D01*
X146956153Y-72353782D01*
X146976670Y-72366079D01*
X146995883Y-72380329D01*
X147013607Y-72396393D01*
X147029671Y-72414117D01*
X147043921Y-72433330D01*
X147056218Y-72453847D01*
X147066446Y-72475471D01*
X147074504Y-72497993D01*
X147080316Y-72521197D01*
X147083826Y-72544858D01*
X147085000Y-72568750D01*
X147085000Y-73481250D01*
X147083826Y-73505142D01*
X147080316Y-73528803D01*
X147074504Y-73552007D01*
X147066446Y-73574529D01*
X147056218Y-73596153D01*
X147043921Y-73616670D01*
X147029671Y-73635883D01*
X147013607Y-73653607D01*
X146995883Y-73669671D01*
X146976670Y-73683921D01*
X146956153Y-73696218D01*
X146934529Y-73706446D01*
X146912007Y-73714504D01*
X146888803Y-73720316D01*
X146865142Y-73723826D01*
X146841250Y-73725000D01*
X146353750Y-73725000D01*
X146329858Y-73723826D01*
X146306197Y-73720316D01*
X146282993Y-73714504D01*
X146260471Y-73706446D01*
X146238847Y-73696218D01*
X146218330Y-73683921D01*
X146199117Y-73669671D01*
X146181393Y-73653607D01*
X146165329Y-73635883D01*
X146151079Y-73616670D01*
X146138782Y-73596153D01*
X146128554Y-73574529D01*
X146120496Y-73552007D01*
X146114684Y-73528803D01*
X146111174Y-73505142D01*
X146110000Y-73481250D01*
X146110000Y-72568750D01*
X146111174Y-72544858D01*
X146114684Y-72521197D01*
X146120496Y-72497993D01*
X146128554Y-72475471D01*
X146138782Y-72453847D01*
X146151079Y-72433330D01*
X146165329Y-72414117D01*
X146181393Y-72396393D01*
X146199117Y-72380329D01*
X146218330Y-72366079D01*
X146238847Y-72353782D01*
X146260471Y-72343554D01*
X146282993Y-72335496D01*
X146306197Y-72329684D01*
X146329858Y-72326174D01*
X146353750Y-72325000D01*
X146841250Y-72325000D01*
X146865142Y-72326174D01*
G37*
G04 #@! TD.AperFunction*
G04 #@! TA.AperFunction,SMDPad,CuDef*
G36*
X144990142Y-72326174D02*
G01*
X145013803Y-72329684D01*
X145037007Y-72335496D01*
X145059529Y-72343554D01*
X145081153Y-72353782D01*
X145101670Y-72366079D01*
X145120883Y-72380329D01*
X145138607Y-72396393D01*
X145154671Y-72414117D01*
X145168921Y-72433330D01*
X145181218Y-72453847D01*
X145191446Y-72475471D01*
X145199504Y-72497993D01*
X145205316Y-72521197D01*
X145208826Y-72544858D01*
X145210000Y-72568750D01*
X145210000Y-73481250D01*
X145208826Y-73505142D01*
X145205316Y-73528803D01*
X145199504Y-73552007D01*
X145191446Y-73574529D01*
X145181218Y-73596153D01*
X145168921Y-73616670D01*
X145154671Y-73635883D01*
X145138607Y-73653607D01*
X145120883Y-73669671D01*
X145101670Y-73683921D01*
X145081153Y-73696218D01*
X145059529Y-73706446D01*
X145037007Y-73714504D01*
X145013803Y-73720316D01*
X144990142Y-73723826D01*
X144966250Y-73725000D01*
X144478750Y-73725000D01*
X144454858Y-73723826D01*
X144431197Y-73720316D01*
X144407993Y-73714504D01*
X144385471Y-73706446D01*
X144363847Y-73696218D01*
X144343330Y-73683921D01*
X144324117Y-73669671D01*
X144306393Y-73653607D01*
X144290329Y-73635883D01*
X144276079Y-73616670D01*
X144263782Y-73596153D01*
X144253554Y-73574529D01*
X144245496Y-73552007D01*
X144239684Y-73528803D01*
X144236174Y-73505142D01*
X144235000Y-73481250D01*
X144235000Y-72568750D01*
X144236174Y-72544858D01*
X144239684Y-72521197D01*
X144245496Y-72497993D01*
X144253554Y-72475471D01*
X144263782Y-72453847D01*
X144276079Y-72433330D01*
X144290329Y-72414117D01*
X144306393Y-72396393D01*
X144324117Y-72380329D01*
X144343330Y-72366079D01*
X144363847Y-72353782D01*
X144385471Y-72343554D01*
X144407993Y-72335496D01*
X144431197Y-72329684D01*
X144454858Y-72326174D01*
X144478750Y-72325000D01*
X144966250Y-72325000D01*
X144990142Y-72326174D01*
G37*
G04 #@! TD.AperFunction*
G04 #@! TA.AperFunction,SMDPad,CuDef*
G36*
X150340142Y-59506174D02*
G01*
X150363803Y-59509684D01*
X150387007Y-59515496D01*
X150409529Y-59523554D01*
X150431153Y-59533782D01*
X150451670Y-59546079D01*
X150470883Y-59560329D01*
X150488607Y-59576393D01*
X150504671Y-59594117D01*
X150518921Y-59613330D01*
X150531218Y-59633847D01*
X150541446Y-59655471D01*
X150549504Y-59677993D01*
X150555316Y-59701197D01*
X150558826Y-59724858D01*
X150560000Y-59748750D01*
X150560000Y-60236250D01*
X150558826Y-60260142D01*
X150555316Y-60283803D01*
X150549504Y-60307007D01*
X150541446Y-60329529D01*
X150531218Y-60351153D01*
X150518921Y-60371670D01*
X150504671Y-60390883D01*
X150488607Y-60408607D01*
X150470883Y-60424671D01*
X150451670Y-60438921D01*
X150431153Y-60451218D01*
X150409529Y-60461446D01*
X150387007Y-60469504D01*
X150363803Y-60475316D01*
X150340142Y-60478826D01*
X150316250Y-60480000D01*
X149403750Y-60480000D01*
X149379858Y-60478826D01*
X149356197Y-60475316D01*
X149332993Y-60469504D01*
X149310471Y-60461446D01*
X149288847Y-60451218D01*
X149268330Y-60438921D01*
X149249117Y-60424671D01*
X149231393Y-60408607D01*
X149215329Y-60390883D01*
X149201079Y-60371670D01*
X149188782Y-60351153D01*
X149178554Y-60329529D01*
X149170496Y-60307007D01*
X149164684Y-60283803D01*
X149161174Y-60260142D01*
X149160000Y-60236250D01*
X149160000Y-59748750D01*
X149161174Y-59724858D01*
X149164684Y-59701197D01*
X149170496Y-59677993D01*
X149178554Y-59655471D01*
X149188782Y-59633847D01*
X149201079Y-59613330D01*
X149215329Y-59594117D01*
X149231393Y-59576393D01*
X149249117Y-59560329D01*
X149268330Y-59546079D01*
X149288847Y-59533782D01*
X149310471Y-59523554D01*
X149332993Y-59515496D01*
X149356197Y-59509684D01*
X149379858Y-59506174D01*
X149403750Y-59505000D01*
X150316250Y-59505000D01*
X150340142Y-59506174D01*
G37*
G04 #@! TD.AperFunction*
G04 #@! TA.AperFunction,SMDPad,CuDef*
G36*
X150340142Y-57631174D02*
G01*
X150363803Y-57634684D01*
X150387007Y-57640496D01*
X150409529Y-57648554D01*
X150431153Y-57658782D01*
X150451670Y-57671079D01*
X150470883Y-57685329D01*
X150488607Y-57701393D01*
X150504671Y-57719117D01*
X150518921Y-57738330D01*
X150531218Y-57758847D01*
X150541446Y-57780471D01*
X150549504Y-57802993D01*
X150555316Y-57826197D01*
X150558826Y-57849858D01*
X150560000Y-57873750D01*
X150560000Y-58361250D01*
X150558826Y-58385142D01*
X150555316Y-58408803D01*
X150549504Y-58432007D01*
X150541446Y-58454529D01*
X150531218Y-58476153D01*
X150518921Y-58496670D01*
X150504671Y-58515883D01*
X150488607Y-58533607D01*
X150470883Y-58549671D01*
X150451670Y-58563921D01*
X150431153Y-58576218D01*
X150409529Y-58586446D01*
X150387007Y-58594504D01*
X150363803Y-58600316D01*
X150340142Y-58603826D01*
X150316250Y-58605000D01*
X149403750Y-58605000D01*
X149379858Y-58603826D01*
X149356197Y-58600316D01*
X149332993Y-58594504D01*
X149310471Y-58586446D01*
X149288847Y-58576218D01*
X149268330Y-58563921D01*
X149249117Y-58549671D01*
X149231393Y-58533607D01*
X149215329Y-58515883D01*
X149201079Y-58496670D01*
X149188782Y-58476153D01*
X149178554Y-58454529D01*
X149170496Y-58432007D01*
X149164684Y-58408803D01*
X149161174Y-58385142D01*
X149160000Y-58361250D01*
X149160000Y-57873750D01*
X149161174Y-57849858D01*
X149164684Y-57826197D01*
X149170496Y-57802993D01*
X149178554Y-57780471D01*
X149188782Y-57758847D01*
X149201079Y-57738330D01*
X149215329Y-57719117D01*
X149231393Y-57701393D01*
X149249117Y-57685329D01*
X149268330Y-57671079D01*
X149288847Y-57658782D01*
X149310471Y-57648554D01*
X149332993Y-57640496D01*
X149356197Y-57634684D01*
X149379858Y-57631174D01*
X149403750Y-57630000D01*
X150316250Y-57630000D01*
X150340142Y-57631174D01*
G37*
G04 #@! TD.AperFunction*
G04 #@! TA.AperFunction,SMDPad,CuDef*
G36*
X145985142Y-63436174D02*
G01*
X146008803Y-63439684D01*
X146032007Y-63445496D01*
X146054529Y-63453554D01*
X146076153Y-63463782D01*
X146096670Y-63476079D01*
X146115883Y-63490329D01*
X146133607Y-63506393D01*
X146149671Y-63524117D01*
X146163921Y-63543330D01*
X146176218Y-63563847D01*
X146186446Y-63585471D01*
X146194504Y-63607993D01*
X146200316Y-63631197D01*
X146203826Y-63654858D01*
X146205000Y-63678750D01*
X146205000Y-64591250D01*
X146203826Y-64615142D01*
X146200316Y-64638803D01*
X146194504Y-64662007D01*
X146186446Y-64684529D01*
X146176218Y-64706153D01*
X146163921Y-64726670D01*
X146149671Y-64745883D01*
X146133607Y-64763607D01*
X146115883Y-64779671D01*
X146096670Y-64793921D01*
X146076153Y-64806218D01*
X146054529Y-64816446D01*
X146032007Y-64824504D01*
X146008803Y-64830316D01*
X145985142Y-64833826D01*
X145961250Y-64835000D01*
X145473750Y-64835000D01*
X145449858Y-64833826D01*
X145426197Y-64830316D01*
X145402993Y-64824504D01*
X145380471Y-64816446D01*
X145358847Y-64806218D01*
X145338330Y-64793921D01*
X145319117Y-64779671D01*
X145301393Y-64763607D01*
X145285329Y-64745883D01*
X145271079Y-64726670D01*
X145258782Y-64706153D01*
X145248554Y-64684529D01*
X145240496Y-64662007D01*
X145234684Y-64638803D01*
X145231174Y-64615142D01*
X145230000Y-64591250D01*
X145230000Y-63678750D01*
X145231174Y-63654858D01*
X145234684Y-63631197D01*
X145240496Y-63607993D01*
X145248554Y-63585471D01*
X145258782Y-63563847D01*
X145271079Y-63543330D01*
X145285329Y-63524117D01*
X145301393Y-63506393D01*
X145319117Y-63490329D01*
X145338330Y-63476079D01*
X145358847Y-63463782D01*
X145380471Y-63453554D01*
X145402993Y-63445496D01*
X145426197Y-63439684D01*
X145449858Y-63436174D01*
X145473750Y-63435000D01*
X145961250Y-63435000D01*
X145985142Y-63436174D01*
G37*
G04 #@! TD.AperFunction*
G04 #@! TA.AperFunction,SMDPad,CuDef*
G36*
X144110142Y-63436174D02*
G01*
X144133803Y-63439684D01*
X144157007Y-63445496D01*
X144179529Y-63453554D01*
X144201153Y-63463782D01*
X144221670Y-63476079D01*
X144240883Y-63490329D01*
X144258607Y-63506393D01*
X144274671Y-63524117D01*
X144288921Y-63543330D01*
X144301218Y-63563847D01*
X144311446Y-63585471D01*
X144319504Y-63607993D01*
X144325316Y-63631197D01*
X144328826Y-63654858D01*
X144330000Y-63678750D01*
X144330000Y-64591250D01*
X144328826Y-64615142D01*
X144325316Y-64638803D01*
X144319504Y-64662007D01*
X144311446Y-64684529D01*
X144301218Y-64706153D01*
X144288921Y-64726670D01*
X144274671Y-64745883D01*
X144258607Y-64763607D01*
X144240883Y-64779671D01*
X144221670Y-64793921D01*
X144201153Y-64806218D01*
X144179529Y-64816446D01*
X144157007Y-64824504D01*
X144133803Y-64830316D01*
X144110142Y-64833826D01*
X144086250Y-64835000D01*
X143598750Y-64835000D01*
X143574858Y-64833826D01*
X143551197Y-64830316D01*
X143527993Y-64824504D01*
X143505471Y-64816446D01*
X143483847Y-64806218D01*
X143463330Y-64793921D01*
X143444117Y-64779671D01*
X143426393Y-64763607D01*
X143410329Y-64745883D01*
X143396079Y-64726670D01*
X143383782Y-64706153D01*
X143373554Y-64684529D01*
X143365496Y-64662007D01*
X143359684Y-64638803D01*
X143356174Y-64615142D01*
X143355000Y-64591250D01*
X143355000Y-63678750D01*
X143356174Y-63654858D01*
X143359684Y-63631197D01*
X143365496Y-63607993D01*
X143373554Y-63585471D01*
X143383782Y-63563847D01*
X143396079Y-63543330D01*
X143410329Y-63524117D01*
X143426393Y-63506393D01*
X143444117Y-63490329D01*
X143463330Y-63476079D01*
X143483847Y-63463782D01*
X143505471Y-63453554D01*
X143527993Y-63445496D01*
X143551197Y-63439684D01*
X143574858Y-63436174D01*
X143598750Y-63435000D01*
X144086250Y-63435000D01*
X144110142Y-63436174D01*
G37*
G04 #@! TD.AperFunction*
D14*
X154305000Y-74295000D03*
D20*
X164719000Y-74549000D03*
X168529000Y-74549000D03*
D14*
X154305000Y-70485000D03*
X154305000Y-62230000D03*
X149225000Y-84455000D03*
D20*
X142240000Y-64135000D03*
X154335000Y-80010000D03*
X163068000Y-69596000D03*
D14*
X150876000Y-62230000D03*
X161125000Y-61125000D03*
X164020500Y-70485000D03*
X163957000Y-72517000D03*
X163068000Y-74549000D03*
D21*
X145717500Y-61972500D02*
X145717500Y-64135000D01*
X144780000Y-61035000D02*
X145717500Y-61972500D01*
X144780000Y-60155000D02*
X144780000Y-61035000D01*
X172549000Y-74549000D02*
X174500000Y-76500000D01*
X164719000Y-74549000D02*
X168529000Y-74549000D01*
X168529000Y-74549000D02*
X172549000Y-74549000D01*
X143830000Y-59275000D02*
X144050000Y-59055000D01*
X143830000Y-60155000D02*
X143830000Y-59275000D01*
X145730000Y-59275000D02*
X145730000Y-60155000D01*
X145510000Y-59055000D02*
X145730000Y-59275000D01*
X144050000Y-59055000D02*
X145510000Y-59055000D01*
D22*
X143842500Y-68121500D02*
X143842500Y-64135000D01*
X141097000Y-70867000D02*
X143842500Y-68121500D01*
D21*
X143830000Y-57955000D02*
X143830000Y-57719000D01*
X143830000Y-57719000D02*
X144653000Y-56896000D01*
X144653000Y-56896000D02*
X146304000Y-56896000D01*
X147525500Y-58117500D02*
X149860000Y-58117500D01*
X146304000Y-56896000D02*
X147525500Y-58117500D01*
X151822500Y-60080000D02*
X149860000Y-58117500D01*
X153670000Y-60080000D02*
X151822500Y-60080000D01*
X151735000Y-60167500D02*
X151822500Y-60080000D01*
X151735000Y-74295000D02*
X151735000Y-60167500D01*
X149225000Y-74295000D02*
X146685000Y-76835000D01*
X151735000Y-74295000D02*
X149225000Y-74295000D01*
X146685000Y-76835000D02*
X146685000Y-80645000D01*
X151100000Y-80645000D02*
X151735000Y-80010000D01*
X146685000Y-80645000D02*
X151100000Y-80645000D01*
X167005000Y-73415000D02*
X170815000Y-73415000D01*
X174500000Y-73960000D02*
X173020000Y-73960000D01*
X172475000Y-73415000D02*
X170815000Y-73415000D01*
X173020000Y-73960000D02*
X172475000Y-73415000D01*
X153806000Y-60080000D02*
X153670000Y-60080000D01*
X170180000Y-66040000D02*
X167767000Y-63627000D01*
X170180000Y-68580000D02*
X170180000Y-66040000D01*
X169164000Y-69596000D02*
X170180000Y-68580000D01*
X167005000Y-73415000D02*
X163585000Y-73415000D01*
X167767000Y-63627000D02*
X157353000Y-63627000D01*
X157353000Y-63627000D02*
X153806000Y-60080000D01*
X163585000Y-73415000D02*
X163068000Y-72898000D01*
X163068000Y-69596000D02*
X163068000Y-72898000D01*
X163068000Y-69596000D02*
X169164000Y-69596000D01*
X145717500Y-85422500D02*
X144780000Y-86360000D01*
X147955000Y-85422500D02*
X145717500Y-85422500D01*
X147955000Y-85422500D02*
X147955000Y-84455000D01*
X146685000Y-83185000D02*
X146685000Y-80645000D01*
X147955000Y-84455000D02*
X146685000Y-83185000D01*
D23*
X144635000Y-80645000D02*
X144635000Y-80790000D01*
X144635000Y-80790000D02*
X143510000Y-81915000D01*
X143510000Y-85090000D02*
X142240000Y-86360000D01*
X143510000Y-81915000D02*
X143510000Y-85090000D01*
X144635000Y-80645000D02*
X144635000Y-80536000D01*
X144635000Y-80536000D02*
X145669000Y-79502000D01*
X145669000Y-73971500D02*
X144722500Y-73025000D01*
X145669000Y-79502000D02*
X145669000Y-75311000D01*
X145669000Y-75311000D02*
X145669000Y-73971500D01*
X157480000Y-86995000D02*
X157480000Y-85090000D01*
X145415000Y-87630000D02*
X143510000Y-87630000D01*
X143510000Y-87630000D02*
X142240000Y-86360000D01*
X157480000Y-85090000D02*
X155575000Y-83185000D01*
X146939000Y-75311000D02*
X145669000Y-75311000D01*
X150876000Y-71374000D02*
X146939000Y-75311000D01*
X150876000Y-62230000D02*
X150876000Y-71374000D01*
X157480000Y-86995000D02*
X158115000Y-87630000D01*
X158115000Y-87630000D02*
X159385000Y-87630000D01*
X160005000Y-87010000D02*
X160005000Y-83185000D01*
X159385000Y-87630000D02*
X160005000Y-87010000D01*
X161125000Y-62121000D02*
X161125000Y-61125000D01*
X161125000Y-61125000D02*
X161125000Y-58021000D01*
X145415000Y-87630000D02*
X146685000Y-86360000D01*
X146685000Y-86360000D02*
X148590000Y-86360000D01*
X151765000Y-83185000D02*
X148590000Y-86360000D01*
X155575000Y-83185000D02*
X151765000Y-83185000D01*
D22*
X130810000Y-67310000D02*
X136000000Y-72500000D01*
X130810000Y-65405000D02*
X130810000Y-67310000D01*
X139430000Y-72500000D02*
X141097000Y-74167000D01*
X136000000Y-72500000D02*
X139430000Y-72500000D01*
D23*
X137737500Y-59992500D02*
X139700000Y-58030000D01*
X135890000Y-59992500D02*
X137737500Y-59992500D01*
X155632500Y-59992500D02*
X153670000Y-58030000D01*
X157480000Y-59992500D02*
X155632500Y-59992500D01*
X167805000Y-62185000D02*
X167805000Y-62121000D01*
X174500000Y-68880000D02*
X167805000Y-62185000D01*
X167805000Y-58021000D02*
X167805000Y-62121000D01*
X167005000Y-71365000D02*
X168665000Y-71365000D01*
X168665000Y-71365000D02*
X170180000Y-69850000D01*
X173530000Y-69850000D02*
X174500000Y-68880000D01*
X170180000Y-69850000D02*
X173530000Y-69850000D01*
X164900500Y-71365000D02*
X164020500Y-70485000D01*
X167005000Y-71365000D02*
X164900500Y-71365000D01*
X144635000Y-76835000D02*
X144635000Y-78885000D01*
X144635000Y-78885000D02*
X140970000Y-82550000D01*
X140970000Y-85090000D02*
X139700000Y-86360000D01*
X140970000Y-82550000D02*
X140970000Y-85090000D01*
X170870000Y-71420000D02*
X170815000Y-71365000D01*
X174500000Y-71420000D02*
X170870000Y-71420000D01*
X170815000Y-71365000D02*
X169554000Y-71365000D01*
X169554000Y-71365000D02*
X168529000Y-72390000D01*
X168529000Y-72390000D02*
X166243000Y-72390000D01*
X166116000Y-72517000D02*
X163957000Y-72517000D01*
X166243000Y-72390000D02*
X166116000Y-72517000D01*
X163068000Y-74549000D02*
X163957000Y-75438000D01*
X168529000Y-79756000D02*
X157353000Y-79756000D01*
X153035000Y-73295000D02*
X153432000Y-72898000D01*
X153035000Y-74295000D02*
X153035000Y-73295000D01*
X153432000Y-72898000D02*
X154813000Y-72898000D01*
X154813000Y-72898000D02*
X155829000Y-73914000D01*
X155829000Y-78232000D02*
X157353000Y-79756000D01*
X155829000Y-73914000D02*
X155829000Y-78232000D01*
X163957000Y-75438000D02*
X169291000Y-75438000D01*
X170180000Y-78105000D02*
X168529000Y-79756000D01*
X170180000Y-76327000D02*
X170180000Y-78105000D01*
X169291000Y-75438000D02*
X170180000Y-76327000D01*
D21*
X153035000Y-81645000D02*
X153940000Y-82550000D01*
X153940000Y-82550000D02*
X156210000Y-82550000D01*
X158750000Y-85090000D02*
X158750000Y-86360000D01*
X156210000Y-82550000D02*
X158750000Y-85090000D01*
X153035000Y-81645000D02*
X153035000Y-80010000D01*
D23*
X166370000Y-83517500D02*
X166037500Y-83185000D01*
X166370000Y-86360000D02*
X166370000Y-83517500D01*
X161305000Y-83185000D02*
X164162500Y-83185000D01*
D24*
G36*
X144200811Y-56219251D02*
G01*
X144077472Y-56320472D01*
X144052105Y-56351382D01*
X143616560Y-56786928D01*
X143505000Y-56786928D01*
X143380518Y-56799188D01*
X143260820Y-56835498D01*
X143150506Y-56894463D01*
X143053815Y-56973815D01*
X142974463Y-57070506D01*
X142915498Y-57180820D01*
X142879188Y-57300518D01*
X142866928Y-57425000D01*
X142866928Y-58485000D01*
X142879188Y-58609482D01*
X142915498Y-58729180D01*
X142953887Y-58801000D01*
X140913734Y-58801000D01*
X140970472Y-58694851D01*
X141021008Y-58528255D01*
X141038072Y-58355001D01*
X141038072Y-57704999D01*
X141021008Y-57531745D01*
X140970472Y-57365149D01*
X140888405Y-57211613D01*
X140777962Y-57077038D01*
X140643387Y-56966595D01*
X140489851Y-56884528D01*
X140323255Y-56833992D01*
X140150001Y-56816928D01*
X139249999Y-56816928D01*
X139076745Y-56833992D01*
X138910149Y-56884528D01*
X138756613Y-56966595D01*
X138622038Y-57077038D01*
X138511595Y-57211613D01*
X138429528Y-57365149D01*
X138378992Y-57531745D01*
X138361928Y-57704999D01*
X138361928Y-58293270D01*
X137422699Y-59232500D01*
X137057845Y-59232500D01*
X136969792Y-59125208D01*
X136963436Y-59119992D01*
X137041185Y-59056185D01*
X137120537Y-58959494D01*
X137179502Y-58849180D01*
X137215812Y-58729482D01*
X137228072Y-58605000D01*
X137225000Y-58403250D01*
X137066250Y-58244500D01*
X136017000Y-58244500D01*
X136017000Y-58264500D01*
X135763000Y-58264500D01*
X135763000Y-58244500D01*
X134713750Y-58244500D01*
X134555000Y-58403250D01*
X134551928Y-58605000D01*
X134564188Y-58729482D01*
X134600498Y-58849180D01*
X134659463Y-58959494D01*
X134738815Y-59056185D01*
X134816564Y-59119992D01*
X134810208Y-59125208D01*
X134700542Y-59258836D01*
X134619053Y-59411291D01*
X134568872Y-59576715D01*
X134551928Y-59748750D01*
X134551928Y-60236250D01*
X134568872Y-60408285D01*
X134619053Y-60573709D01*
X134700542Y-60726164D01*
X134810208Y-60859792D01*
X134943836Y-60969458D01*
X135096291Y-61050947D01*
X135261715Y-61101128D01*
X135433750Y-61118072D01*
X136346250Y-61118072D01*
X136518285Y-61101128D01*
X136525000Y-61099091D01*
X136525000Y-62308296D01*
X136476185Y-62248815D01*
X136379494Y-62169463D01*
X136269180Y-62110498D01*
X136149482Y-62074188D01*
X136025000Y-62061928D01*
X135010750Y-62065000D01*
X134852000Y-62223750D01*
X134852000Y-63373000D01*
X134872000Y-63373000D01*
X134872000Y-63627000D01*
X134852000Y-63627000D01*
X134852000Y-64776250D01*
X135010750Y-64935000D01*
X136025000Y-64938072D01*
X136149482Y-64925812D01*
X136269180Y-64889502D01*
X136379494Y-64830537D01*
X136476185Y-64751185D01*
X136525000Y-64691704D01*
X136525000Y-64770000D01*
X136537201Y-64893882D01*
X136573336Y-65013004D01*
X136632017Y-65122787D01*
X136710987Y-65219013D01*
X136807213Y-65297983D01*
X136916996Y-65356664D01*
X137036118Y-65392799D01*
X137160000Y-65405000D01*
X138717442Y-65405000D01*
X138441331Y-65519369D01*
X138075271Y-65763962D01*
X137763962Y-66075271D01*
X137519369Y-66441331D01*
X137350890Y-66848075D01*
X137265000Y-67279872D01*
X137265000Y-67720128D01*
X137350890Y-68151925D01*
X137519369Y-68558669D01*
X137763962Y-68924729D01*
X138075271Y-69236038D01*
X138441331Y-69480631D01*
X138848075Y-69649110D01*
X139279872Y-69735000D01*
X139720128Y-69735000D01*
X140151925Y-69649110D01*
X140558669Y-69480631D01*
X140924729Y-69236038D01*
X141236038Y-68924729D01*
X141480631Y-68558669D01*
X141649110Y-68151925D01*
X141735000Y-67720128D01*
X141735000Y-67279872D01*
X141649110Y-66848075D01*
X141480631Y-66441331D01*
X141236038Y-66075271D01*
X140924729Y-65763962D01*
X140558669Y-65519369D01*
X140282558Y-65405000D01*
X142707501Y-65405000D01*
X142707500Y-67651368D01*
X140579941Y-69778928D01*
X140497000Y-69778928D01*
X140372518Y-69791188D01*
X140252820Y-69827498D01*
X140142506Y-69886463D01*
X140045815Y-69965815D01*
X139966463Y-70062506D01*
X139907498Y-70172820D01*
X139871188Y-70292518D01*
X139858928Y-70417000D01*
X139858928Y-71317000D01*
X139871188Y-71441482D01*
X139873859Y-71450286D01*
X139866447Y-71446324D01*
X139652499Y-71381423D01*
X139485752Y-71365000D01*
X139485751Y-71365000D01*
X139430000Y-71359509D01*
X139374249Y-71365000D01*
X138388072Y-71365000D01*
X138388072Y-70750000D01*
X138375812Y-70625518D01*
X138339502Y-70505820D01*
X138280537Y-70395506D01*
X138201185Y-70298815D01*
X138104494Y-70219463D01*
X137994180Y-70160498D01*
X137874482Y-70124188D01*
X137750000Y-70111928D01*
X135217060Y-70111928D01*
X131945000Y-66839869D01*
X131945000Y-66370107D01*
X131963475Y-66351632D01*
X132125990Y-66108411D01*
X132237932Y-65838158D01*
X132295000Y-65551260D01*
X132295000Y-65258740D01*
X132237932Y-64971842D01*
X132125990Y-64701589D01*
X131963475Y-64458368D01*
X131805107Y-64300000D01*
X132786928Y-64300000D01*
X132799188Y-64424482D01*
X132835498Y-64544180D01*
X132894463Y-64654494D01*
X132973815Y-64751185D01*
X133070506Y-64830537D01*
X133180820Y-64889502D01*
X133300518Y-64925812D01*
X133425000Y-64938072D01*
X134439250Y-64935000D01*
X134598000Y-64776250D01*
X134598000Y-63627000D01*
X132948750Y-63627000D01*
X132790000Y-63785750D01*
X132786928Y-64300000D01*
X131805107Y-64300000D01*
X131756632Y-64251525D01*
X131513411Y-64089010D01*
X131243158Y-63977068D01*
X130956260Y-63920000D01*
X130663740Y-63920000D01*
X130376842Y-63977068D01*
X130106589Y-64089010D01*
X129863368Y-64251525D01*
X129731513Y-64383380D01*
X129709502Y-64310820D01*
X129650537Y-64200506D01*
X129571185Y-64103815D01*
X129474494Y-64024463D01*
X129364180Y-63965498D01*
X129244482Y-63929188D01*
X129120000Y-63916928D01*
X128555750Y-63920000D01*
X128397000Y-64078750D01*
X128397000Y-65278000D01*
X128417000Y-65278000D01*
X128417000Y-65532000D01*
X128397000Y-65532000D01*
X128397000Y-66731250D01*
X128555750Y-66890000D01*
X129120000Y-66893072D01*
X129244482Y-66880812D01*
X129364180Y-66844502D01*
X129474494Y-66785537D01*
X129571185Y-66706185D01*
X129650537Y-66609494D01*
X129675001Y-66563727D01*
X129675001Y-67254239D01*
X129669509Y-67310000D01*
X129691423Y-67532498D01*
X129756324Y-67746446D01*
X129789073Y-67807714D01*
X129861717Y-67943623D01*
X130003552Y-68116449D01*
X130046860Y-68151991D01*
X133611928Y-71717060D01*
X133611928Y-74250000D01*
X133624188Y-74374482D01*
X133660498Y-74494180D01*
X133719463Y-74604494D01*
X133798815Y-74701185D01*
X133895506Y-74780537D01*
X133957345Y-74813591D01*
X133285750Y-74815000D01*
X133127000Y-74973750D01*
X133127000Y-77073000D01*
X135226250Y-77073000D01*
X135385000Y-76914250D01*
X135388072Y-75450000D01*
X135375812Y-75325518D01*
X135339502Y-75205820D01*
X135280537Y-75095506D01*
X135201185Y-74998815D01*
X135104494Y-74919463D01*
X135045767Y-74888072D01*
X137750000Y-74888072D01*
X137874482Y-74875812D01*
X137994180Y-74839502D01*
X138104494Y-74780537D01*
X138201185Y-74701185D01*
X138280537Y-74604494D01*
X138339502Y-74494180D01*
X138375812Y-74374482D01*
X138388072Y-74250000D01*
X138388072Y-73635000D01*
X138959869Y-73635000D01*
X139858928Y-74534060D01*
X139858928Y-74617000D01*
X139871188Y-74741482D01*
X139907498Y-74861180D01*
X139966463Y-74971494D01*
X140045815Y-75068185D01*
X140142506Y-75147537D01*
X140252820Y-75206502D01*
X140372518Y-75242812D01*
X140497000Y-75255072D01*
X140773940Y-75255072D01*
X140874501Y-75285577D01*
X141096999Y-75307491D01*
X141319498Y-75285577D01*
X141420059Y-75255072D01*
X141697000Y-75255072D01*
X141821482Y-75242812D01*
X141941180Y-75206502D01*
X142051494Y-75147537D01*
X142148185Y-75068185D01*
X142227537Y-74971494D01*
X142286502Y-74861180D01*
X142322812Y-74741482D01*
X142335072Y-74617000D01*
X142335072Y-73717000D01*
X142322812Y-73592518D01*
X142286502Y-73472820D01*
X142227537Y-73362506D01*
X142148185Y-73265815D01*
X142051494Y-73186463D01*
X141941180Y-73127498D01*
X141821482Y-73091188D01*
X141697000Y-73078928D01*
X141614060Y-73078928D01*
X140489461Y-71954329D01*
X140497000Y-71955072D01*
X140773941Y-71955072D01*
X140874502Y-71985577D01*
X141097000Y-72007491D01*
X141319498Y-71985577D01*
X141420059Y-71955072D01*
X141697000Y-71955072D01*
X141821482Y-71942812D01*
X141941180Y-71906502D01*
X142051494Y-71847537D01*
X142148185Y-71768185D01*
X142227537Y-71671494D01*
X142286502Y-71561180D01*
X142322812Y-71441482D01*
X142335072Y-71317000D01*
X142335072Y-71234059D01*
X144605641Y-68963491D01*
X144648949Y-68927949D01*
X144790784Y-68755123D01*
X144896176Y-68557947D01*
X144961077Y-68343999D01*
X144977500Y-68177252D01*
X144977500Y-68177243D01*
X144982990Y-68121501D01*
X144977500Y-68065759D01*
X144977500Y-65420055D01*
X144985820Y-65424502D01*
X145105518Y-65460812D01*
X145230000Y-65473072D01*
X145431750Y-65470000D01*
X145590500Y-65311250D01*
X145590500Y-64262000D01*
X145844500Y-64262000D01*
X145844500Y-65311250D01*
X146003250Y-65470000D01*
X146205000Y-65473072D01*
X146329482Y-65460812D01*
X146449180Y-65424502D01*
X146559494Y-65365537D01*
X146656185Y-65286185D01*
X146735537Y-65189494D01*
X146794502Y-65079180D01*
X146830812Y-64959482D01*
X146843072Y-64835000D01*
X146840000Y-64420750D01*
X146681250Y-64262000D01*
X145844500Y-64262000D01*
X145590500Y-64262000D01*
X145570500Y-64262000D01*
X145570500Y-64008000D01*
X145590500Y-64008000D01*
X145590500Y-62958750D01*
X145844500Y-62958750D01*
X145844500Y-64008000D01*
X146681250Y-64008000D01*
X146840000Y-63849250D01*
X146843072Y-63435000D01*
X146830812Y-63310518D01*
X146794502Y-63190820D01*
X146735537Y-63080506D01*
X146656185Y-62983815D01*
X146559494Y-62904463D01*
X146449180Y-62845498D01*
X146329482Y-62809188D01*
X146205000Y-62796928D01*
X146003250Y-62800000D01*
X145844500Y-62958750D01*
X145590500Y-62958750D01*
X145431750Y-62800000D01*
X145230000Y-62796928D01*
X145105518Y-62809188D01*
X144985820Y-62845498D01*
X144875506Y-62904463D01*
X144780000Y-62982842D01*
X144780000Y-61320000D01*
X144907002Y-61320000D01*
X144907002Y-61161252D01*
X145065750Y-61320000D01*
X145105000Y-61323072D01*
X145229482Y-61310812D01*
X145255000Y-61303071D01*
X145280518Y-61310812D01*
X145405000Y-61323072D01*
X146055000Y-61323072D01*
X146179482Y-61310812D01*
X146299180Y-61274502D01*
X146409494Y-61215537D01*
X146506185Y-61136185D01*
X146585537Y-61039494D01*
X146644502Y-60929180D01*
X146680812Y-60809482D01*
X146693072Y-60685000D01*
X146693072Y-60480000D01*
X148521928Y-60480000D01*
X148534188Y-60604482D01*
X148570498Y-60724180D01*
X148629463Y-60834494D01*
X148708815Y-60931185D01*
X148805506Y-61010537D01*
X148915820Y-61069502D01*
X149035518Y-61105812D01*
X149160000Y-61118072D01*
X149574250Y-61115000D01*
X149733000Y-60956250D01*
X149733000Y-60119500D01*
X148683750Y-60119500D01*
X148525000Y-60278250D01*
X148521928Y-60480000D01*
X146693072Y-60480000D01*
X146693072Y-59625000D01*
X146680812Y-59500518D01*
X146644502Y-59380820D01*
X146585537Y-59270506D01*
X146537740Y-59212265D01*
X146528280Y-59116212D01*
X146481963Y-58963527D01*
X146479190Y-58958339D01*
X146506185Y-58936185D01*
X146585537Y-58839494D01*
X146644502Y-58729180D01*
X146680812Y-58609482D01*
X146693072Y-58485000D01*
X146693072Y-58430585D01*
X146924605Y-58662118D01*
X146949972Y-58693028D01*
X146980880Y-58718393D01*
X147073310Y-58794249D01*
X147119935Y-58819170D01*
X147214027Y-58869463D01*
X147366712Y-58915780D01*
X147485709Y-58927500D01*
X147485712Y-58927500D01*
X147525500Y-58931419D01*
X147565288Y-58927500D01*
X148733190Y-58927500D01*
X148780208Y-58984792D01*
X148786564Y-58990008D01*
X148708815Y-59053815D01*
X148629463Y-59150506D01*
X148570498Y-59260820D01*
X148534188Y-59380518D01*
X148521928Y-59505000D01*
X148525000Y-59706750D01*
X148683750Y-59865500D01*
X149733000Y-59865500D01*
X149733000Y-59845500D01*
X149987000Y-59845500D01*
X149987000Y-59865500D01*
X150007000Y-59865500D01*
X150007000Y-60119500D01*
X149987000Y-60119500D01*
X149987000Y-60956250D01*
X150145750Y-61115000D01*
X150560000Y-61118072D01*
X150684482Y-61105812D01*
X150804180Y-61069502D01*
X150914494Y-61010537D01*
X150925001Y-61001914D01*
X150925001Y-61195000D01*
X150774061Y-61195000D01*
X150574102Y-61234774D01*
X150385744Y-61312795D01*
X150216226Y-61426063D01*
X150072063Y-61570226D01*
X149958795Y-61739744D01*
X149880774Y-61928102D01*
X149841000Y-62128061D01*
X149841000Y-62331939D01*
X149880774Y-62531898D01*
X149958795Y-62720256D01*
X150072063Y-62889774D01*
X150116000Y-62933711D01*
X150116001Y-71059197D01*
X147721063Y-73454135D01*
X147720000Y-73310750D01*
X147561250Y-73152000D01*
X146724500Y-73152000D01*
X146724500Y-74201250D01*
X146849224Y-74325974D01*
X146624199Y-74551000D01*
X146429000Y-74551000D01*
X146429000Y-74242750D01*
X146470500Y-74201250D01*
X146470500Y-73152000D01*
X146450500Y-73152000D01*
X146450500Y-72898000D01*
X146470500Y-72898000D01*
X146470500Y-71848750D01*
X146724500Y-71848750D01*
X146724500Y-72898000D01*
X147561250Y-72898000D01*
X147720000Y-72739250D01*
X147723072Y-72325000D01*
X147710812Y-72200518D01*
X147674502Y-72080820D01*
X147615537Y-71970506D01*
X147536185Y-71873815D01*
X147439494Y-71794463D01*
X147329180Y-71735498D01*
X147209482Y-71699188D01*
X147085000Y-71686928D01*
X146883250Y-71690000D01*
X146724500Y-71848750D01*
X146470500Y-71848750D01*
X146311750Y-71690000D01*
X146110000Y-71686928D01*
X145985518Y-71699188D01*
X145865820Y-71735498D01*
X145755506Y-71794463D01*
X145658815Y-71873815D01*
X145595008Y-71951564D01*
X145589792Y-71945208D01*
X145456164Y-71835542D01*
X145303709Y-71754053D01*
X145138285Y-71703872D01*
X144966250Y-71686928D01*
X144478750Y-71686928D01*
X144306715Y-71703872D01*
X144141291Y-71754053D01*
X143988836Y-71835542D01*
X143855208Y-71945208D01*
X143745542Y-72078836D01*
X143664053Y-72231291D01*
X143613872Y-72396715D01*
X143596928Y-72568750D01*
X143596928Y-73481250D01*
X143613872Y-73653285D01*
X143664053Y-73818709D01*
X143745542Y-73971164D01*
X143855208Y-74104792D01*
X143988836Y-74214458D01*
X144141291Y-74295947D01*
X144306715Y-74346128D01*
X144478750Y-74363072D01*
X144909001Y-74363072D01*
X144909000Y-75273667D01*
X144905323Y-75311000D01*
X144909001Y-75348343D01*
X144909001Y-75496928D01*
X144309999Y-75496928D01*
X144136745Y-75513992D01*
X143970149Y-75564528D01*
X143816613Y-75646595D01*
X143682038Y-75757038D01*
X143571595Y-75891613D01*
X143489528Y-76045149D01*
X143438992Y-76211745D01*
X143421928Y-76384999D01*
X143421928Y-77285001D01*
X143438992Y-77458255D01*
X143489528Y-77624851D01*
X143571595Y-77778387D01*
X143682038Y-77912962D01*
X143816613Y-78023405D01*
X143875001Y-78054614D01*
X143875001Y-78570197D01*
X140459003Y-81986196D01*
X140429999Y-82009999D01*
X140385694Y-82063985D01*
X140335026Y-82125724D01*
X140313168Y-82166618D01*
X140264454Y-82257754D01*
X140220997Y-82401015D01*
X140218401Y-82427376D01*
X140133158Y-82392068D01*
X139846260Y-82335000D01*
X139553740Y-82335000D01*
X139266842Y-82392068D01*
X138996589Y-82504010D01*
X138753368Y-82666525D01*
X138621513Y-82798380D01*
X138599502Y-82725820D01*
X138540537Y-82615506D01*
X138461185Y-82518815D01*
X138364494Y-82439463D01*
X138254180Y-82380498D01*
X138134482Y-82344188D01*
X138010000Y-82331928D01*
X137445750Y-82335000D01*
X137287000Y-82493750D01*
X137287000Y-83693000D01*
X137307000Y-83693000D01*
X137307000Y-83947000D01*
X137287000Y-83947000D01*
X137287000Y-83967000D01*
X137033000Y-83967000D01*
X137033000Y-83947000D01*
X135833750Y-83947000D01*
X135675000Y-84105750D01*
X135671928Y-84670000D01*
X135684188Y-84794482D01*
X135720498Y-84914180D01*
X135779463Y-85024494D01*
X135858815Y-85121185D01*
X135955506Y-85200537D01*
X136065820Y-85259502D01*
X136138380Y-85281513D01*
X136006525Y-85413368D01*
X135844010Y-85656589D01*
X135732068Y-85926842D01*
X135675000Y-86213740D01*
X135675000Y-86506260D01*
X135732068Y-86793158D01*
X135844010Y-87063411D01*
X136006525Y-87306632D01*
X136213368Y-87513475D01*
X136456589Y-87675990D01*
X136726842Y-87787932D01*
X137013740Y-87845000D01*
X137306260Y-87845000D01*
X137593158Y-87787932D01*
X137863411Y-87675990D01*
X138106632Y-87513475D01*
X138313475Y-87306632D01*
X138430000Y-87132240D01*
X138546525Y-87306632D01*
X138753368Y-87513475D01*
X138996589Y-87675990D01*
X139266842Y-87787932D01*
X139553740Y-87845000D01*
X139846260Y-87845000D01*
X140133158Y-87787932D01*
X140403411Y-87675990D01*
X140646632Y-87513475D01*
X140853475Y-87306632D01*
X140970000Y-87132240D01*
X141086525Y-87306632D01*
X141293368Y-87513475D01*
X141536589Y-87675990D01*
X141806842Y-87787932D01*
X142093740Y-87845000D01*
X142386260Y-87845000D01*
X142606408Y-87801210D01*
X142946201Y-88141003D01*
X142969999Y-88170001D01*
X143085724Y-88264974D01*
X143217753Y-88335546D01*
X143361014Y-88379003D01*
X143472667Y-88390000D01*
X143472676Y-88390000D01*
X143509999Y-88393676D01*
X143547322Y-88390000D01*
X145377678Y-88390000D01*
X145415000Y-88393676D01*
X145452322Y-88390000D01*
X145452333Y-88390000D01*
X145563986Y-88379003D01*
X145707247Y-88335546D01*
X145839276Y-88264974D01*
X145955001Y-88170001D01*
X145978804Y-88140997D01*
X146695300Y-87424502D01*
X146778748Y-87424502D01*
X146620000Y-87583250D01*
X146616928Y-87785000D01*
X146629188Y-87909482D01*
X146665498Y-88029180D01*
X146724463Y-88139494D01*
X146803815Y-88236185D01*
X146900506Y-88315537D01*
X147010820Y-88374502D01*
X147130518Y-88410812D01*
X147255000Y-88423072D01*
X147669250Y-88420000D01*
X147828000Y-88261250D01*
X147828000Y-87424500D01*
X148082000Y-87424500D01*
X148082000Y-88261250D01*
X148240750Y-88420000D01*
X148655000Y-88423072D01*
X148779482Y-88410812D01*
X148899180Y-88374502D01*
X149009494Y-88315537D01*
X149106185Y-88236185D01*
X149185537Y-88139494D01*
X149244502Y-88029180D01*
X149280812Y-87909482D01*
X149293072Y-87785000D01*
X149290000Y-87583250D01*
X149131250Y-87424500D01*
X148082000Y-87424500D01*
X147828000Y-87424500D01*
X147808000Y-87424500D01*
X147808000Y-87210000D01*
X152181928Y-87210000D01*
X152194188Y-87334482D01*
X152230498Y-87454180D01*
X152289463Y-87564494D01*
X152368815Y-87661185D01*
X152465506Y-87740537D01*
X152575820Y-87799502D01*
X152695518Y-87835812D01*
X152820000Y-87848072D01*
X153384250Y-87845000D01*
X153543000Y-87686250D01*
X153543000Y-86487000D01*
X152343750Y-86487000D01*
X152185000Y-86645750D01*
X152181928Y-87210000D01*
X147808000Y-87210000D01*
X147808000Y-87170500D01*
X147828000Y-87170500D01*
X147828000Y-87150500D01*
X148082000Y-87150500D01*
X148082000Y-87170500D01*
X149131250Y-87170500D01*
X149290000Y-87011750D01*
X149293072Y-86810000D01*
X149286054Y-86738747D01*
X150514801Y-85510000D01*
X152181928Y-85510000D01*
X152185000Y-86074250D01*
X152343750Y-86233000D01*
X153543000Y-86233000D01*
X153543000Y-85033750D01*
X153384250Y-84875000D01*
X152820000Y-84871928D01*
X152695518Y-84884188D01*
X152575820Y-84920498D01*
X152465506Y-84979463D01*
X152368815Y-85058815D01*
X152289463Y-85155506D01*
X152230498Y-85265820D01*
X152194188Y-85385518D01*
X152181928Y-85510000D01*
X150514801Y-85510000D01*
X152079802Y-83945000D01*
X155260199Y-83945000D01*
X156190198Y-84875000D01*
X156063740Y-84875000D01*
X155776842Y-84932068D01*
X155506589Y-85044010D01*
X155263368Y-85206525D01*
X155131513Y-85338380D01*
X155109502Y-85265820D01*
X155050537Y-85155506D01*
X154971185Y-85058815D01*
X154874494Y-84979463D01*
X154764180Y-84920498D01*
X154644482Y-84884188D01*
X154520000Y-84871928D01*
X153955750Y-84875000D01*
X153797000Y-85033750D01*
X153797000Y-86233000D01*
X153817000Y-86233000D01*
X153817000Y-86487000D01*
X153797000Y-86487000D01*
X153797000Y-87686250D01*
X153955750Y-87845000D01*
X154520000Y-87848072D01*
X154644482Y-87835812D01*
X154764180Y-87799502D01*
X154874494Y-87740537D01*
X154971185Y-87661185D01*
X155050537Y-87564494D01*
X155109502Y-87454180D01*
X155131513Y-87381620D01*
X155263368Y-87513475D01*
X155506589Y-87675990D01*
X155776842Y-87787932D01*
X156063740Y-87845000D01*
X156356260Y-87845000D01*
X156643158Y-87787932D01*
X156913411Y-87675990D01*
X157016984Y-87606785D01*
X157551200Y-88141002D01*
X157574999Y-88170001D01*
X157603997Y-88193799D01*
X157690724Y-88264974D01*
X157822753Y-88335546D01*
X157966014Y-88379003D01*
X158115000Y-88393677D01*
X158152333Y-88390000D01*
X159347678Y-88390000D01*
X159385000Y-88393676D01*
X159422322Y-88390000D01*
X159422333Y-88390000D01*
X159533986Y-88379003D01*
X159677247Y-88335546D01*
X159809276Y-88264974D01*
X159925001Y-88170001D01*
X159948803Y-88140998D01*
X160483017Y-87606786D01*
X160586589Y-87675990D01*
X160856842Y-87787932D01*
X161143740Y-87845000D01*
X161436260Y-87845000D01*
X161723158Y-87787932D01*
X161993411Y-87675990D01*
X162236632Y-87513475D01*
X162443475Y-87306632D01*
X162560000Y-87132240D01*
X162676525Y-87306632D01*
X162883368Y-87513475D01*
X163126589Y-87675990D01*
X163396842Y-87787932D01*
X163683740Y-87845000D01*
X163976260Y-87845000D01*
X164263158Y-87787932D01*
X164533411Y-87675990D01*
X164776632Y-87513475D01*
X164983475Y-87306632D01*
X165100000Y-87132240D01*
X165216525Y-87306632D01*
X165423368Y-87513475D01*
X165666589Y-87675990D01*
X165936842Y-87787932D01*
X166223740Y-87845000D01*
X166516260Y-87845000D01*
X166803158Y-87787932D01*
X167073411Y-87675990D01*
X167316632Y-87513475D01*
X167523475Y-87306632D01*
X167685990Y-87063411D01*
X167797932Y-86793158D01*
X167855000Y-86506260D01*
X167855000Y-86213740D01*
X167797932Y-85926842D01*
X167685990Y-85656589D01*
X167523475Y-85413368D01*
X167316632Y-85206525D01*
X167130000Y-85081822D01*
X167130000Y-83866452D01*
X167146128Y-83813285D01*
X167163072Y-83641250D01*
X167163072Y-82728750D01*
X167146128Y-82556715D01*
X167095947Y-82391291D01*
X167014458Y-82238836D01*
X166904792Y-82105208D01*
X166771164Y-81995542D01*
X166618709Y-81914053D01*
X166453285Y-81863872D01*
X166281250Y-81846928D01*
X165793750Y-81846928D01*
X165621715Y-81863872D01*
X165456291Y-81914053D01*
X165303836Y-81995542D01*
X165170208Y-82105208D01*
X165100000Y-82190756D01*
X165029792Y-82105208D01*
X164896164Y-81995542D01*
X164743709Y-81914053D01*
X164578285Y-81863872D01*
X164406250Y-81846928D01*
X163918750Y-81846928D01*
X163746715Y-81863872D01*
X163581291Y-81914053D01*
X163428836Y-81995542D01*
X163295208Y-82105208D01*
X163185542Y-82238836D01*
X163104053Y-82391291D01*
X163093827Y-82425000D01*
X162319362Y-82425000D01*
X162276498Y-82344808D01*
X162222042Y-82263309D01*
X162142690Y-82166618D01*
X162073382Y-82097310D01*
X161976691Y-82017958D01*
X161895192Y-81963502D01*
X161784875Y-81904536D01*
X161694319Y-81867027D01*
X161574623Y-81830718D01*
X161478490Y-81811596D01*
X161354009Y-81799336D01*
X161329450Y-81799336D01*
X161305000Y-81796928D01*
X160805000Y-81796928D01*
X160680518Y-81809188D01*
X160655000Y-81816929D01*
X160629482Y-81809188D01*
X160505000Y-81796928D01*
X160005000Y-81796928D01*
X159980550Y-81799336D01*
X159955991Y-81799336D01*
X159831510Y-81811596D01*
X159735377Y-81830718D01*
X159615681Y-81867027D01*
X159525125Y-81904536D01*
X159414808Y-81963502D01*
X159333309Y-82017958D01*
X159236618Y-82097310D01*
X159167310Y-82166618D01*
X159087958Y-82263309D01*
X159033502Y-82344808D01*
X158974536Y-82455125D01*
X158937027Y-82545681D01*
X158900718Y-82665377D01*
X158881596Y-82761510D01*
X158869336Y-82885991D01*
X158869336Y-82910550D01*
X158866928Y-82935000D01*
X158866928Y-83435000D01*
X158869336Y-83459450D01*
X158869336Y-83484009D01*
X158881596Y-83608490D01*
X158900718Y-83704623D01*
X158937027Y-83824319D01*
X158974536Y-83914875D01*
X159033502Y-84025192D01*
X159087958Y-84106691D01*
X159167310Y-84203382D01*
X159236618Y-84272690D01*
X159245001Y-84279569D01*
X159245001Y-84439488D01*
X156810900Y-82005387D01*
X156785528Y-81974472D01*
X156662189Y-81873251D01*
X156521473Y-81798037D01*
X156368788Y-81751720D01*
X156249791Y-81740000D01*
X156249788Y-81740000D01*
X156210000Y-81736081D01*
X156170212Y-81740000D01*
X154275513Y-81740000D01*
X153933584Y-81398072D01*
X154335000Y-81398072D01*
X154359450Y-81395664D01*
X154384009Y-81395664D01*
X154508490Y-81383404D01*
X154604623Y-81364282D01*
X154724319Y-81327973D01*
X154814875Y-81290464D01*
X154925192Y-81231498D01*
X155006691Y-81177042D01*
X155103382Y-81097690D01*
X155172690Y-81028382D01*
X155252042Y-80931691D01*
X155306498Y-80850192D01*
X155365464Y-80739875D01*
X155402973Y-80649319D01*
X155439282Y-80529623D01*
X155458404Y-80433490D01*
X155470664Y-80309009D01*
X155470664Y-80284450D01*
X155473072Y-80260000D01*
X155473072Y-79760000D01*
X155470664Y-79735550D01*
X155470664Y-79710991D01*
X155458404Y-79586510D01*
X155439282Y-79490377D01*
X155402973Y-79370681D01*
X155365464Y-79280125D01*
X155306498Y-79169808D01*
X155252042Y-79088309D01*
X155172690Y-78991618D01*
X155103382Y-78922310D01*
X155006691Y-78842958D01*
X154925192Y-78788502D01*
X154814875Y-78729536D01*
X154724319Y-78692027D01*
X154604623Y-78655718D01*
X154508490Y-78636596D01*
X154384009Y-78624336D01*
X154359450Y-78624336D01*
X154335000Y-78621928D01*
X153785000Y-78621928D01*
X153660518Y-78634188D01*
X153660000Y-78634345D01*
X153659482Y-78634188D01*
X153535000Y-78621928D01*
X152535000Y-78621928D01*
X152410518Y-78634188D01*
X152410000Y-78634345D01*
X152409482Y-78634188D01*
X152285000Y-78621928D01*
X151735000Y-78621928D01*
X151710550Y-78624336D01*
X151685991Y-78624336D01*
X151561510Y-78636596D01*
X151465377Y-78655718D01*
X151345681Y-78692027D01*
X151255125Y-78729536D01*
X151144808Y-78788502D01*
X151063309Y-78842958D01*
X150966618Y-78922310D01*
X150897310Y-78991618D01*
X150817958Y-79088309D01*
X150763502Y-79169808D01*
X150704536Y-79280125D01*
X150667027Y-79370681D01*
X150630718Y-79490377D01*
X150611596Y-79586510D01*
X150599336Y-79710991D01*
X150599336Y-79735550D01*
X150596928Y-79760000D01*
X150596928Y-79835000D01*
X147819702Y-79835000D01*
X147748405Y-79701613D01*
X147637962Y-79567038D01*
X147503387Y-79456595D01*
X147495000Y-79452112D01*
X147495000Y-78027888D01*
X147503387Y-78023405D01*
X147637962Y-77912962D01*
X147748405Y-77778387D01*
X147830472Y-77624851D01*
X147881008Y-77458255D01*
X147898072Y-77285001D01*
X147898072Y-76767440D01*
X149560513Y-75105000D01*
X150747364Y-75105000D01*
X150763502Y-75135192D01*
X150817958Y-75216691D01*
X150897310Y-75313382D01*
X150966618Y-75382690D01*
X151063309Y-75462042D01*
X151144808Y-75516498D01*
X151255125Y-75575464D01*
X151345681Y-75612973D01*
X151465377Y-75649282D01*
X151561510Y-75668404D01*
X151685991Y-75680664D01*
X151710550Y-75680664D01*
X151735000Y-75683072D01*
X152285000Y-75683072D01*
X152409482Y-75670812D01*
X152410000Y-75670655D01*
X152410518Y-75670812D01*
X152535000Y-75683072D01*
X153535000Y-75683072D01*
X153659482Y-75670812D01*
X153779180Y-75634502D01*
X153889494Y-75575537D01*
X153986185Y-75496185D01*
X154065537Y-75399494D01*
X154124502Y-75289180D01*
X154154873Y-75189060D01*
X154172875Y-75183762D01*
X154174847Y-75182731D01*
X154176980Y-75182087D01*
X154229781Y-75154012D01*
X154282703Y-75126345D01*
X154284437Y-75124951D01*
X154286404Y-75123905D01*
X154332737Y-75086117D01*
X154379286Y-75048690D01*
X154380717Y-75046985D01*
X154382443Y-75045577D01*
X154420539Y-74999527D01*
X154458947Y-74953754D01*
X154460020Y-74951802D01*
X154461439Y-74950087D01*
X154489851Y-74897539D01*
X154518651Y-74845153D01*
X154519325Y-74843029D01*
X154520383Y-74841072D01*
X154538034Y-74784050D01*
X154556124Y-74727024D01*
X154556373Y-74724808D01*
X154557030Y-74722684D01*
X154563276Y-74663257D01*
X154569938Y-74603866D01*
X154569968Y-74599596D01*
X154569985Y-74599433D01*
X154569970Y-74599270D01*
X154570000Y-74595000D01*
X154570000Y-73995000D01*
X154564166Y-73935495D01*
X154558752Y-73876013D01*
X154558125Y-73873882D01*
X154557907Y-73871661D01*
X154540612Y-73814379D01*
X154523762Y-73757125D01*
X154522731Y-73755153D01*
X154522087Y-73753020D01*
X154494012Y-73700219D01*
X154471940Y-73658000D01*
X154498199Y-73658000D01*
X155069000Y-74228802D01*
X155069001Y-78194668D01*
X155065324Y-78232000D01*
X155069001Y-78269333D01*
X155079998Y-78380986D01*
X155087847Y-78406862D01*
X155123454Y-78524246D01*
X155194026Y-78656276D01*
X155261362Y-78738324D01*
X155289000Y-78772001D01*
X155317998Y-78795799D01*
X156789205Y-80267008D01*
X156812999Y-80296001D01*
X156841992Y-80319795D01*
X156841996Y-80319799D01*
X156897958Y-80365725D01*
X156928724Y-80390974D01*
X157060753Y-80461546D01*
X157204014Y-80505003D01*
X157315667Y-80516000D01*
X157315676Y-80516000D01*
X157352999Y-80519676D01*
X157390322Y-80516000D01*
X168491678Y-80516000D01*
X168529000Y-80519676D01*
X168566322Y-80516000D01*
X168566333Y-80516000D01*
X168677986Y-80505003D01*
X168821247Y-80461546D01*
X168953276Y-80390974D01*
X169069001Y-80296001D01*
X169092804Y-80266997D01*
X170691003Y-78668799D01*
X170720001Y-78645001D01*
X170814974Y-78529276D01*
X170885546Y-78397247D01*
X170929003Y-78253986D01*
X170929373Y-78250233D01*
X171589803Y-77589803D01*
X171605597Y-77570557D01*
X171617333Y-77548601D01*
X171624560Y-77524776D01*
X171627000Y-77500000D01*
X171627000Y-77350000D01*
X173011928Y-77350000D01*
X173024188Y-77474482D01*
X173060498Y-77594180D01*
X173119463Y-77704494D01*
X173198815Y-77801185D01*
X173295506Y-77880537D01*
X173405820Y-77939502D01*
X173525518Y-77975812D01*
X173650000Y-77988072D01*
X174214250Y-77985000D01*
X174373000Y-77826250D01*
X174373000Y-76627000D01*
X174627000Y-76627000D01*
X174627000Y-77826250D01*
X174785750Y-77985000D01*
X175350000Y-77988072D01*
X175474482Y-77975812D01*
X175594180Y-77939502D01*
X175704494Y-77880537D01*
X175801185Y-77801185D01*
X175880537Y-77704494D01*
X175939502Y-77594180D01*
X175975812Y-77474482D01*
X175988072Y-77350000D01*
X175985000Y-76785750D01*
X175826250Y-76627000D01*
X174627000Y-76627000D01*
X174373000Y-76627000D01*
X173173750Y-76627000D01*
X173015000Y-76785750D01*
X173011928Y-77350000D01*
X171627000Y-77350000D01*
X171627000Y-74548633D01*
X171758387Y-74478405D01*
X171892962Y-74367962D01*
X172003405Y-74233387D01*
X172007888Y-74225000D01*
X172139488Y-74225000D01*
X172419105Y-74504617D01*
X172444472Y-74535528D01*
X172567811Y-74636749D01*
X172708527Y-74711963D01*
X172861212Y-74758280D01*
X172980209Y-74770000D01*
X172980211Y-74770000D01*
X173019999Y-74773919D01*
X173059787Y-74770000D01*
X173255230Y-74770000D01*
X173346525Y-74906632D01*
X173478380Y-75038487D01*
X173405820Y-75060498D01*
X173295506Y-75119463D01*
X173198815Y-75198815D01*
X173119463Y-75295506D01*
X173060498Y-75405820D01*
X173024188Y-75525518D01*
X173011928Y-75650000D01*
X173015000Y-76214250D01*
X173173750Y-76373000D01*
X174373000Y-76373000D01*
X174373000Y-76353000D01*
X174627000Y-76353000D01*
X174627000Y-76373000D01*
X175826250Y-76373000D01*
X175985000Y-76214250D01*
X175988072Y-75650000D01*
X175975812Y-75525518D01*
X175939502Y-75405820D01*
X175880537Y-75295506D01*
X175801185Y-75198815D01*
X175704494Y-75119463D01*
X175594180Y-75060498D01*
X175521620Y-75038487D01*
X175653475Y-74906632D01*
X175815990Y-74663411D01*
X175927932Y-74393158D01*
X175985000Y-74106260D01*
X175985000Y-73813740D01*
X175927932Y-73526842D01*
X175815990Y-73256589D01*
X175653475Y-73013368D01*
X175446632Y-72806525D01*
X175272240Y-72690000D01*
X175446632Y-72573475D01*
X175653475Y-72366632D01*
X175815990Y-72123411D01*
X175927932Y-71853158D01*
X175985000Y-71566260D01*
X175985000Y-71273740D01*
X175927932Y-70986842D01*
X175815990Y-70716589D01*
X175653475Y-70473368D01*
X175446632Y-70266525D01*
X175272240Y-70150000D01*
X175446632Y-70033475D01*
X175653475Y-69826632D01*
X175815990Y-69583411D01*
X175927932Y-69313158D01*
X175985000Y-69026260D01*
X175985000Y-68733740D01*
X175927932Y-68446842D01*
X175815990Y-68176589D01*
X175653475Y-67933368D01*
X175446632Y-67726525D01*
X175203411Y-67564010D01*
X174933158Y-67452068D01*
X174646260Y-67395000D01*
X174353740Y-67395000D01*
X174133592Y-67438790D01*
X168943072Y-62248271D01*
X168943072Y-61671000D01*
X168930812Y-61546518D01*
X168894502Y-61426820D01*
X168835537Y-61316506D01*
X168756185Y-61219815D01*
X168659494Y-61140463D01*
X168565000Y-61089954D01*
X168565000Y-59052046D01*
X168659494Y-59001537D01*
X168756185Y-58922185D01*
X168835537Y-58825494D01*
X168894502Y-58715180D01*
X168930812Y-58595482D01*
X168943072Y-58471000D01*
X168943072Y-57571000D01*
X168930812Y-57446518D01*
X168894502Y-57326820D01*
X168835537Y-57216506D01*
X168756185Y-57119815D01*
X168659494Y-57040463D01*
X168549180Y-56981498D01*
X168429482Y-56945188D01*
X168305000Y-56932928D01*
X167305000Y-56932928D01*
X167180518Y-56945188D01*
X167060820Y-56981498D01*
X167005000Y-57011335D01*
X166949180Y-56981498D01*
X166829482Y-56945188D01*
X166705000Y-56932928D01*
X166490750Y-56936000D01*
X166332000Y-57094750D01*
X166332000Y-57894000D01*
X166352000Y-57894000D01*
X166352000Y-58148000D01*
X166332000Y-58148000D01*
X166332000Y-58947250D01*
X166490750Y-59106000D01*
X166705000Y-59109072D01*
X166829482Y-59096812D01*
X166949180Y-59060502D01*
X167005000Y-59030665D01*
X167045000Y-59052046D01*
X167045001Y-61089954D01*
X167005000Y-61111335D01*
X166949180Y-61081498D01*
X166829482Y-61045188D01*
X166705000Y-61032928D01*
X166490750Y-61036000D01*
X166332000Y-61194750D01*
X166332000Y-61994000D01*
X166352000Y-61994000D01*
X166352000Y-62248000D01*
X166332000Y-62248000D01*
X166332000Y-62268000D01*
X166078000Y-62268000D01*
X166078000Y-62248000D01*
X165228750Y-62248000D01*
X165070000Y-62406750D01*
X165066928Y-62571000D01*
X165079188Y-62695482D01*
X165115498Y-62815180D01*
X165116471Y-62817000D01*
X163813529Y-62817000D01*
X163814502Y-62815180D01*
X163850812Y-62695482D01*
X163863072Y-62571000D01*
X163860000Y-62406750D01*
X163701250Y-62248000D01*
X162852000Y-62248000D01*
X162852000Y-62268000D01*
X162598000Y-62268000D01*
X162598000Y-62248000D01*
X162578000Y-62248000D01*
X162578000Y-61994000D01*
X162598000Y-61994000D01*
X162598000Y-61194750D01*
X162852000Y-61194750D01*
X162852000Y-61994000D01*
X163701250Y-61994000D01*
X163860000Y-61835250D01*
X163863072Y-61671000D01*
X165066928Y-61671000D01*
X165070000Y-61835250D01*
X165228750Y-61994000D01*
X166078000Y-61994000D01*
X166078000Y-61194750D01*
X165919250Y-61036000D01*
X165705000Y-61032928D01*
X165580518Y-61045188D01*
X165460820Y-61081498D01*
X165350506Y-61140463D01*
X165253815Y-61219815D01*
X165174463Y-61316506D01*
X165115498Y-61426820D01*
X165079188Y-61546518D01*
X165066928Y-61671000D01*
X163863072Y-61671000D01*
X163850812Y-61546518D01*
X163814502Y-61426820D01*
X163755537Y-61316506D01*
X163676185Y-61219815D01*
X163579494Y-61140463D01*
X163469180Y-61081498D01*
X163349482Y-61045188D01*
X163225000Y-61032928D01*
X163010750Y-61036000D01*
X162852000Y-61194750D01*
X162598000Y-61194750D01*
X162439250Y-61036000D01*
X162225000Y-61032928D01*
X162160000Y-61039330D01*
X162160000Y-61023061D01*
X162120226Y-60823102D01*
X162042205Y-60634744D01*
X161928937Y-60465226D01*
X161885000Y-60421289D01*
X161885000Y-59052046D01*
X161925000Y-59030665D01*
X161980820Y-59060502D01*
X162100518Y-59096812D01*
X162225000Y-59109072D01*
X162439250Y-59106000D01*
X162598000Y-58947250D01*
X162598000Y-58148000D01*
X162852000Y-58148000D01*
X162852000Y-58947250D01*
X163010750Y-59106000D01*
X163225000Y-59109072D01*
X163349482Y-59096812D01*
X163469180Y-59060502D01*
X163579494Y-59001537D01*
X163676185Y-58922185D01*
X163755537Y-58825494D01*
X163814502Y-58715180D01*
X163850812Y-58595482D01*
X163863072Y-58471000D01*
X165066928Y-58471000D01*
X165079188Y-58595482D01*
X165115498Y-58715180D01*
X165174463Y-58825494D01*
X165253815Y-58922185D01*
X165350506Y-59001537D01*
X165460820Y-59060502D01*
X165580518Y-59096812D01*
X165705000Y-59109072D01*
X165919250Y-59106000D01*
X166078000Y-58947250D01*
X166078000Y-58148000D01*
X165228750Y-58148000D01*
X165070000Y-58306750D01*
X165066928Y-58471000D01*
X163863072Y-58471000D01*
X163860000Y-58306750D01*
X163701250Y-58148000D01*
X162852000Y-58148000D01*
X162598000Y-58148000D01*
X162578000Y-58148000D01*
X162578000Y-57894000D01*
X162598000Y-57894000D01*
X162598000Y-57094750D01*
X162852000Y-57094750D01*
X162852000Y-57894000D01*
X163701250Y-57894000D01*
X163860000Y-57735250D01*
X163863072Y-57571000D01*
X165066928Y-57571000D01*
X165070000Y-57735250D01*
X165228750Y-57894000D01*
X166078000Y-57894000D01*
X166078000Y-57094750D01*
X165919250Y-56936000D01*
X165705000Y-56932928D01*
X165580518Y-56945188D01*
X165460820Y-56981498D01*
X165350506Y-57040463D01*
X165253815Y-57119815D01*
X165174463Y-57216506D01*
X165115498Y-57326820D01*
X165079188Y-57446518D01*
X165066928Y-57571000D01*
X163863072Y-57571000D01*
X163850812Y-57446518D01*
X163814502Y-57326820D01*
X163755537Y-57216506D01*
X163676185Y-57119815D01*
X163579494Y-57040463D01*
X163469180Y-56981498D01*
X163349482Y-56945188D01*
X163225000Y-56932928D01*
X163010750Y-56936000D01*
X162852000Y-57094750D01*
X162598000Y-57094750D01*
X162439250Y-56936000D01*
X162225000Y-56932928D01*
X162100518Y-56945188D01*
X161980820Y-56981498D01*
X161925000Y-57011335D01*
X161869180Y-56981498D01*
X161749482Y-56945188D01*
X161625000Y-56932928D01*
X160625000Y-56932928D01*
X160500518Y-56945188D01*
X160380820Y-56981498D01*
X160270506Y-57040463D01*
X160173815Y-57119815D01*
X160094463Y-57216506D01*
X160035498Y-57326820D01*
X159999188Y-57446518D01*
X159986928Y-57571000D01*
X159986928Y-58471000D01*
X159999188Y-58595482D01*
X160035498Y-58715180D01*
X160094463Y-58825494D01*
X160173815Y-58922185D01*
X160270506Y-59001537D01*
X160365001Y-59052046D01*
X160365000Y-60421289D01*
X160321063Y-60465226D01*
X160207795Y-60634744D01*
X160129774Y-60823102D01*
X160090000Y-61023061D01*
X160090000Y-61226939D01*
X160105211Y-61303410D01*
X160094463Y-61316506D01*
X160035498Y-61426820D01*
X159999188Y-61546518D01*
X159986928Y-61671000D01*
X159986928Y-62571000D01*
X159999188Y-62695482D01*
X160035498Y-62815180D01*
X160036471Y-62817000D01*
X157688513Y-62817000D01*
X155627163Y-60755650D01*
X155632499Y-60756176D01*
X155669822Y-60752500D01*
X156312155Y-60752500D01*
X156400208Y-60859792D01*
X156533836Y-60969458D01*
X156686291Y-61050947D01*
X156851715Y-61101128D01*
X157023750Y-61118072D01*
X157936250Y-61118072D01*
X158108285Y-61101128D01*
X158273709Y-61050947D01*
X158426164Y-60969458D01*
X158559792Y-60859792D01*
X158669458Y-60726164D01*
X158750947Y-60573709D01*
X158801128Y-60408285D01*
X158818072Y-60236250D01*
X158818072Y-59748750D01*
X158801128Y-59576715D01*
X158750947Y-59411291D01*
X158669458Y-59258836D01*
X158559792Y-59125208D01*
X158553436Y-59119992D01*
X158631185Y-59056185D01*
X158710537Y-58959494D01*
X158769502Y-58849180D01*
X158805812Y-58729482D01*
X158818072Y-58605000D01*
X158815000Y-58403250D01*
X158656250Y-58244500D01*
X157607000Y-58244500D01*
X157607000Y-58264500D01*
X157353000Y-58264500D01*
X157353000Y-58244500D01*
X156303750Y-58244500D01*
X156145000Y-58403250D01*
X156141928Y-58605000D01*
X156154188Y-58729482D01*
X156190498Y-58849180D01*
X156249463Y-58959494D01*
X156328815Y-59056185D01*
X156406564Y-59119992D01*
X156400208Y-59125208D01*
X156312155Y-59232500D01*
X155947302Y-59232500D01*
X155008072Y-58293271D01*
X155008072Y-57704999D01*
X155000686Y-57630000D01*
X156141928Y-57630000D01*
X156145000Y-57831750D01*
X156303750Y-57990500D01*
X157353000Y-57990500D01*
X157353000Y-57153750D01*
X157607000Y-57153750D01*
X157607000Y-57990500D01*
X158656250Y-57990500D01*
X158815000Y-57831750D01*
X158818072Y-57630000D01*
X158805812Y-57505518D01*
X158769502Y-57385820D01*
X158710537Y-57275506D01*
X158631185Y-57178815D01*
X158534494Y-57099463D01*
X158424180Y-57040498D01*
X158304482Y-57004188D01*
X158180000Y-56991928D01*
X157765750Y-56995000D01*
X157607000Y-57153750D01*
X157353000Y-57153750D01*
X157194250Y-56995000D01*
X156780000Y-56991928D01*
X156655518Y-57004188D01*
X156535820Y-57040498D01*
X156425506Y-57099463D01*
X156328815Y-57178815D01*
X156249463Y-57275506D01*
X156190498Y-57385820D01*
X156154188Y-57505518D01*
X156141928Y-57630000D01*
X155000686Y-57630000D01*
X154991008Y-57531745D01*
X154940472Y-57365149D01*
X154858405Y-57211613D01*
X154747962Y-57077038D01*
X154613387Y-56966595D01*
X154459851Y-56884528D01*
X154293255Y-56833992D01*
X154120001Y-56816928D01*
X153219999Y-56816928D01*
X153046745Y-56833992D01*
X152880149Y-56884528D01*
X152726613Y-56966595D01*
X152592038Y-57077038D01*
X152481595Y-57211613D01*
X152399528Y-57365149D01*
X152348992Y-57531745D01*
X152331928Y-57704999D01*
X152331928Y-58355001D01*
X152348992Y-58528255D01*
X152399528Y-58694851D01*
X152481595Y-58848387D01*
X152592038Y-58982962D01*
X152679816Y-59055000D01*
X152592038Y-59127038D01*
X152481595Y-59261613D01*
X152477112Y-59270000D01*
X152158013Y-59270000D01*
X151198072Y-58310060D01*
X151198072Y-57873750D01*
X151181128Y-57701715D01*
X151130947Y-57536291D01*
X151049458Y-57383836D01*
X150939792Y-57250208D01*
X150806164Y-57140542D01*
X150653709Y-57059053D01*
X150488285Y-57008872D01*
X150316250Y-56991928D01*
X149403750Y-56991928D01*
X149231715Y-57008872D01*
X149066291Y-57059053D01*
X148913836Y-57140542D01*
X148780208Y-57250208D01*
X148733190Y-57307500D01*
X147861013Y-57307500D01*
X146904899Y-56351387D01*
X146879528Y-56320472D01*
X146756189Y-56219251D01*
X146645338Y-56160000D01*
X172968591Y-56160000D01*
X173725555Y-56232221D01*
X174424940Y-56437398D01*
X175072904Y-56771120D01*
X175646074Y-57221353D01*
X176123762Y-57771839D01*
X176488742Y-58402730D01*
X176727836Y-59091248D01*
X176835790Y-59835790D01*
X176840001Y-60008104D01*
X176840000Y-84968591D01*
X176767779Y-85725555D01*
X176562602Y-86424940D01*
X176228878Y-87072906D01*
X175778650Y-87646072D01*
X175228159Y-88123763D01*
X174597270Y-88488741D01*
X173908752Y-88727836D01*
X173164210Y-88835790D01*
X172991937Y-88840000D01*
X130031409Y-88840000D01*
X129274445Y-88767779D01*
X128575060Y-88562602D01*
X127927094Y-88228878D01*
X127353928Y-87778650D01*
X126876237Y-87228159D01*
X126511259Y-86597270D01*
X126272164Y-85908752D01*
X126164210Y-85164210D01*
X126160000Y-84991937D01*
X126160000Y-82970000D01*
X135671928Y-82970000D01*
X135675000Y-83534250D01*
X135833750Y-83693000D01*
X137033000Y-83693000D01*
X137033000Y-82493750D01*
X136874250Y-82335000D01*
X136310000Y-82331928D01*
X136185518Y-82344188D01*
X136065820Y-82380498D01*
X135955506Y-82439463D01*
X135858815Y-82518815D01*
X135779463Y-82615506D01*
X135720498Y-82725820D01*
X135684188Y-82845518D01*
X135671928Y-82970000D01*
X126160000Y-82970000D01*
X126160000Y-78950000D01*
X130611928Y-78950000D01*
X130624188Y-79074482D01*
X130660498Y-79194180D01*
X130719463Y-79304494D01*
X130798815Y-79401185D01*
X130895506Y-79480537D01*
X131005820Y-79539502D01*
X131125518Y-79575812D01*
X131250000Y-79588072D01*
X132714250Y-79585000D01*
X132873000Y-79426250D01*
X132873000Y-77327000D01*
X133127000Y-77327000D01*
X133127000Y-79426250D01*
X133285750Y-79585000D01*
X134750000Y-79588072D01*
X134874482Y-79575812D01*
X134994180Y-79539502D01*
X135104494Y-79480537D01*
X135201185Y-79401185D01*
X135280537Y-79304494D01*
X135339502Y-79194180D01*
X135375812Y-79074482D01*
X135388072Y-78950000D01*
X135385000Y-77485750D01*
X135226250Y-77327000D01*
X133127000Y-77327000D01*
X132873000Y-77327000D01*
X130773750Y-77327000D01*
X130615000Y-77485750D01*
X130611928Y-78950000D01*
X126160000Y-78950000D01*
X126160000Y-77279872D01*
X137265000Y-77279872D01*
X137265000Y-77720128D01*
X137350890Y-78151925D01*
X137519369Y-78558669D01*
X137763962Y-78924729D01*
X138075271Y-79236038D01*
X138441331Y-79480631D01*
X138848075Y-79649110D01*
X139279872Y-79735000D01*
X139720128Y-79735000D01*
X140151925Y-79649110D01*
X140558669Y-79480631D01*
X140924729Y-79236038D01*
X141236038Y-78924729D01*
X141480631Y-78558669D01*
X141649110Y-78151925D01*
X141735000Y-77720128D01*
X141735000Y-77279872D01*
X141649110Y-76848075D01*
X141480631Y-76441331D01*
X141236038Y-76075271D01*
X140924729Y-75763962D01*
X140558669Y-75519369D01*
X140151925Y-75350890D01*
X139720128Y-75265000D01*
X139279872Y-75265000D01*
X138848075Y-75350890D01*
X138441331Y-75519369D01*
X138075271Y-75763962D01*
X137763962Y-76075271D01*
X137519369Y-76441331D01*
X137350890Y-76848075D01*
X137265000Y-77279872D01*
X126160000Y-77279872D01*
X126160000Y-74250000D01*
X127861928Y-74250000D01*
X127874188Y-74374482D01*
X127910498Y-74494180D01*
X127969463Y-74604494D01*
X128048815Y-74701185D01*
X128145506Y-74780537D01*
X128255820Y-74839502D01*
X128375518Y-74875812D01*
X128500000Y-74888072D01*
X129714250Y-74885000D01*
X129873000Y-74726250D01*
X129873000Y-72627000D01*
X130127000Y-72627000D01*
X130127000Y-74726250D01*
X130285750Y-74885000D01*
X130956805Y-74886698D01*
X130895506Y-74919463D01*
X130798815Y-74998815D01*
X130719463Y-75095506D01*
X130660498Y-75205820D01*
X130624188Y-75325518D01*
X130611928Y-75450000D01*
X130615000Y-76914250D01*
X130773750Y-77073000D01*
X132873000Y-77073000D01*
X132873000Y-74973750D01*
X132714250Y-74815000D01*
X131793633Y-74813069D01*
X131854494Y-74780537D01*
X131951185Y-74701185D01*
X132030537Y-74604494D01*
X132089502Y-74494180D01*
X132125812Y-74374482D01*
X132138072Y-74250000D01*
X132135000Y-72785750D01*
X131976250Y-72627000D01*
X130127000Y-72627000D01*
X129873000Y-72627000D01*
X128023750Y-72627000D01*
X127865000Y-72785750D01*
X127861928Y-74250000D01*
X126160000Y-74250000D01*
X126160000Y-70750000D01*
X127861928Y-70750000D01*
X127865000Y-72214250D01*
X128023750Y-72373000D01*
X129873000Y-72373000D01*
X129873000Y-70273750D01*
X130127000Y-70273750D01*
X130127000Y-72373000D01*
X131976250Y-72373000D01*
X132135000Y-72214250D01*
X132138072Y-70750000D01*
X132125812Y-70625518D01*
X132089502Y-70505820D01*
X132030537Y-70395506D01*
X131951185Y-70298815D01*
X131854494Y-70219463D01*
X131744180Y-70160498D01*
X131624482Y-70124188D01*
X131500000Y-70111928D01*
X130285750Y-70115000D01*
X130127000Y-70273750D01*
X129873000Y-70273750D01*
X129714250Y-70115000D01*
X128500000Y-70111928D01*
X128375518Y-70124188D01*
X128255820Y-70160498D01*
X128145506Y-70219463D01*
X128048815Y-70298815D01*
X127969463Y-70395506D01*
X127910498Y-70505820D01*
X127874188Y-70625518D01*
X127861928Y-70750000D01*
X126160000Y-70750000D01*
X126160000Y-66255000D01*
X126781928Y-66255000D01*
X126794188Y-66379482D01*
X126830498Y-66499180D01*
X126889463Y-66609494D01*
X126968815Y-66706185D01*
X127065506Y-66785537D01*
X127175820Y-66844502D01*
X127295518Y-66880812D01*
X127420000Y-66893072D01*
X127984250Y-66890000D01*
X128143000Y-66731250D01*
X128143000Y-65532000D01*
X126943750Y-65532000D01*
X126785000Y-65690750D01*
X126781928Y-66255000D01*
X126160000Y-66255000D01*
X126160000Y-64555000D01*
X126781928Y-64555000D01*
X126785000Y-65119250D01*
X126943750Y-65278000D01*
X128143000Y-65278000D01*
X128143000Y-64078750D01*
X127984250Y-63920000D01*
X127420000Y-63916928D01*
X127295518Y-63929188D01*
X127175820Y-63965498D01*
X127065506Y-64024463D01*
X126968815Y-64103815D01*
X126889463Y-64200506D01*
X126830498Y-64310820D01*
X126794188Y-64430518D01*
X126781928Y-64555000D01*
X126160000Y-64555000D01*
X126160000Y-62700000D01*
X132786928Y-62700000D01*
X132790000Y-63214250D01*
X132948750Y-63373000D01*
X134598000Y-63373000D01*
X134598000Y-62223750D01*
X134439250Y-62065000D01*
X133425000Y-62061928D01*
X133300518Y-62074188D01*
X133180820Y-62110498D01*
X133070506Y-62169463D01*
X132973815Y-62248815D01*
X132894463Y-62345506D01*
X132835498Y-62455820D01*
X132799188Y-62575518D01*
X132786928Y-62700000D01*
X126160000Y-62700000D01*
X126160000Y-60031409D01*
X126232221Y-59274445D01*
X126437398Y-58575060D01*
X126771120Y-57927096D01*
X127004493Y-57630000D01*
X134551928Y-57630000D01*
X134555000Y-57831750D01*
X134713750Y-57990500D01*
X135763000Y-57990500D01*
X135763000Y-57153750D01*
X136017000Y-57153750D01*
X136017000Y-57990500D01*
X137066250Y-57990500D01*
X137225000Y-57831750D01*
X137228072Y-57630000D01*
X137215812Y-57505518D01*
X137179502Y-57385820D01*
X137120537Y-57275506D01*
X137041185Y-57178815D01*
X136944494Y-57099463D01*
X136834180Y-57040498D01*
X136714482Y-57004188D01*
X136590000Y-56991928D01*
X136175750Y-56995000D01*
X136017000Y-57153750D01*
X135763000Y-57153750D01*
X135604250Y-56995000D01*
X135190000Y-56991928D01*
X135065518Y-57004188D01*
X134945820Y-57040498D01*
X134835506Y-57099463D01*
X134738815Y-57178815D01*
X134659463Y-57275506D01*
X134600498Y-57385820D01*
X134564188Y-57505518D01*
X134551928Y-57630000D01*
X127004493Y-57630000D01*
X127221353Y-57353926D01*
X127771839Y-56876238D01*
X128402730Y-56511258D01*
X129091248Y-56272164D01*
X129835790Y-56164210D01*
X130008063Y-56160000D01*
X144311662Y-56160000D01*
X144200811Y-56219251D01*
G37*
X144200811Y-56219251D02*
X144077472Y-56320472D01*
X144052105Y-56351382D01*
X143616560Y-56786928D01*
X143505000Y-56786928D01*
X143380518Y-56799188D01*
X143260820Y-56835498D01*
X143150506Y-56894463D01*
X143053815Y-56973815D01*
X142974463Y-57070506D01*
X142915498Y-57180820D01*
X142879188Y-57300518D01*
X142866928Y-57425000D01*
X142866928Y-58485000D01*
X142879188Y-58609482D01*
X142915498Y-58729180D01*
X142953887Y-58801000D01*
X140913734Y-58801000D01*
X140970472Y-58694851D01*
X141021008Y-58528255D01*
X141038072Y-58355001D01*
X141038072Y-57704999D01*
X141021008Y-57531745D01*
X140970472Y-57365149D01*
X140888405Y-57211613D01*
X140777962Y-57077038D01*
X140643387Y-56966595D01*
X140489851Y-56884528D01*
X140323255Y-56833992D01*
X140150001Y-56816928D01*
X139249999Y-56816928D01*
X139076745Y-56833992D01*
X138910149Y-56884528D01*
X138756613Y-56966595D01*
X138622038Y-57077038D01*
X138511595Y-57211613D01*
X138429528Y-57365149D01*
X138378992Y-57531745D01*
X138361928Y-57704999D01*
X138361928Y-58293270D01*
X137422699Y-59232500D01*
X137057845Y-59232500D01*
X136969792Y-59125208D01*
X136963436Y-59119992D01*
X137041185Y-59056185D01*
X137120537Y-58959494D01*
X137179502Y-58849180D01*
X137215812Y-58729482D01*
X137228072Y-58605000D01*
X137225000Y-58403250D01*
X137066250Y-58244500D01*
X136017000Y-58244500D01*
X136017000Y-58264500D01*
X135763000Y-58264500D01*
X135763000Y-58244500D01*
X134713750Y-58244500D01*
X134555000Y-58403250D01*
X134551928Y-58605000D01*
X134564188Y-58729482D01*
X134600498Y-58849180D01*
X134659463Y-58959494D01*
X134738815Y-59056185D01*
X134816564Y-59119992D01*
X134810208Y-59125208D01*
X134700542Y-59258836D01*
X134619053Y-59411291D01*
X134568872Y-59576715D01*
X134551928Y-59748750D01*
X134551928Y-60236250D01*
X134568872Y-60408285D01*
X134619053Y-60573709D01*
X134700542Y-60726164D01*
X134810208Y-60859792D01*
X134943836Y-60969458D01*
X135096291Y-61050947D01*
X135261715Y-61101128D01*
X135433750Y-61118072D01*
X136346250Y-61118072D01*
X136518285Y-61101128D01*
X136525000Y-61099091D01*
X136525000Y-62308296D01*
X136476185Y-62248815D01*
X136379494Y-62169463D01*
X136269180Y-62110498D01*
X136149482Y-62074188D01*
X136025000Y-62061928D01*
X135010750Y-62065000D01*
X134852000Y-62223750D01*
X134852000Y-63373000D01*
X134872000Y-63373000D01*
X134872000Y-63627000D01*
X134852000Y-63627000D01*
X134852000Y-64776250D01*
X135010750Y-64935000D01*
X136025000Y-64938072D01*
X136149482Y-64925812D01*
X136269180Y-64889502D01*
X136379494Y-64830537D01*
X136476185Y-64751185D01*
X136525000Y-64691704D01*
X136525000Y-64770000D01*
X136537201Y-64893882D01*
X136573336Y-65013004D01*
X136632017Y-65122787D01*
X136710987Y-65219013D01*
X136807213Y-65297983D01*
X136916996Y-65356664D01*
X137036118Y-65392799D01*
X137160000Y-65405000D01*
X138717442Y-65405000D01*
X138441331Y-65519369D01*
X138075271Y-65763962D01*
X137763962Y-66075271D01*
X137519369Y-66441331D01*
X137350890Y-66848075D01*
X137265000Y-67279872D01*
X137265000Y-67720128D01*
X137350890Y-68151925D01*
X137519369Y-68558669D01*
X137763962Y-68924729D01*
X138075271Y-69236038D01*
X138441331Y-69480631D01*
X138848075Y-69649110D01*
X139279872Y-69735000D01*
X139720128Y-69735000D01*
X140151925Y-69649110D01*
X140558669Y-69480631D01*
X140924729Y-69236038D01*
X141236038Y-68924729D01*
X141480631Y-68558669D01*
X141649110Y-68151925D01*
X141735000Y-67720128D01*
X141735000Y-67279872D01*
X141649110Y-66848075D01*
X141480631Y-66441331D01*
X141236038Y-66075271D01*
X140924729Y-65763962D01*
X140558669Y-65519369D01*
X140282558Y-65405000D01*
X142707501Y-65405000D01*
X142707500Y-67651368D01*
X140579941Y-69778928D01*
X140497000Y-69778928D01*
X140372518Y-69791188D01*
X140252820Y-69827498D01*
X140142506Y-69886463D01*
X140045815Y-69965815D01*
X139966463Y-70062506D01*
X139907498Y-70172820D01*
X139871188Y-70292518D01*
X139858928Y-70417000D01*
X139858928Y-71317000D01*
X139871188Y-71441482D01*
X139873859Y-71450286D01*
X139866447Y-71446324D01*
X139652499Y-71381423D01*
X139485752Y-71365000D01*
X139485751Y-71365000D01*
X139430000Y-71359509D01*
X139374249Y-71365000D01*
X138388072Y-71365000D01*
X138388072Y-70750000D01*
X138375812Y-70625518D01*
X138339502Y-70505820D01*
X138280537Y-70395506D01*
X138201185Y-70298815D01*
X138104494Y-70219463D01*
X137994180Y-70160498D01*
X137874482Y-70124188D01*
X137750000Y-70111928D01*
X135217060Y-70111928D01*
X131945000Y-66839869D01*
X131945000Y-66370107D01*
X131963475Y-66351632D01*
X132125990Y-66108411D01*
X132237932Y-65838158D01*
X132295000Y-65551260D01*
X132295000Y-65258740D01*
X132237932Y-64971842D01*
X132125990Y-64701589D01*
X131963475Y-64458368D01*
X131805107Y-64300000D01*
X132786928Y-64300000D01*
X132799188Y-64424482D01*
X132835498Y-64544180D01*
X132894463Y-64654494D01*
X132973815Y-64751185D01*
X133070506Y-64830537D01*
X133180820Y-64889502D01*
X133300518Y-64925812D01*
X133425000Y-64938072D01*
X134439250Y-64935000D01*
X134598000Y-64776250D01*
X134598000Y-63627000D01*
X132948750Y-63627000D01*
X132790000Y-63785750D01*
X132786928Y-64300000D01*
X131805107Y-64300000D01*
X131756632Y-64251525D01*
X131513411Y-64089010D01*
X131243158Y-63977068D01*
X130956260Y-63920000D01*
X130663740Y-63920000D01*
X130376842Y-63977068D01*
X130106589Y-64089010D01*
X129863368Y-64251525D01*
X129731513Y-64383380D01*
X129709502Y-64310820D01*
X129650537Y-64200506D01*
X129571185Y-64103815D01*
X129474494Y-64024463D01*
X129364180Y-63965498D01*
X129244482Y-63929188D01*
X129120000Y-63916928D01*
X128555750Y-63920000D01*
X128397000Y-64078750D01*
X128397000Y-65278000D01*
X128417000Y-65278000D01*
X128417000Y-65532000D01*
X128397000Y-65532000D01*
X128397000Y-66731250D01*
X128555750Y-66890000D01*
X129120000Y-66893072D01*
X129244482Y-66880812D01*
X129364180Y-66844502D01*
X129474494Y-66785537D01*
X129571185Y-66706185D01*
X129650537Y-66609494D01*
X129675001Y-66563727D01*
X129675001Y-67254239D01*
X129669509Y-67310000D01*
X129691423Y-67532498D01*
X129756324Y-67746446D01*
X129789073Y-67807714D01*
X129861717Y-67943623D01*
X130003552Y-68116449D01*
X130046860Y-68151991D01*
X133611928Y-71717060D01*
X133611928Y-74250000D01*
X133624188Y-74374482D01*
X133660498Y-74494180D01*
X133719463Y-74604494D01*
X133798815Y-74701185D01*
X133895506Y-74780537D01*
X133957345Y-74813591D01*
X133285750Y-74815000D01*
X133127000Y-74973750D01*
X133127000Y-77073000D01*
X135226250Y-77073000D01*
X135385000Y-76914250D01*
X135388072Y-75450000D01*
X135375812Y-75325518D01*
X135339502Y-75205820D01*
X135280537Y-75095506D01*
X135201185Y-74998815D01*
X135104494Y-74919463D01*
X135045767Y-74888072D01*
X137750000Y-74888072D01*
X137874482Y-74875812D01*
X137994180Y-74839502D01*
X138104494Y-74780537D01*
X138201185Y-74701185D01*
X138280537Y-74604494D01*
X138339502Y-74494180D01*
X138375812Y-74374482D01*
X138388072Y-74250000D01*
X138388072Y-73635000D01*
X138959869Y-73635000D01*
X139858928Y-74534060D01*
X139858928Y-74617000D01*
X139871188Y-74741482D01*
X139907498Y-74861180D01*
X139966463Y-74971494D01*
X140045815Y-75068185D01*
X140142506Y-75147537D01*
X140252820Y-75206502D01*
X140372518Y-75242812D01*
X140497000Y-75255072D01*
X140773940Y-75255072D01*
X140874501Y-75285577D01*
X141096999Y-75307491D01*
X141319498Y-75285577D01*
X141420059Y-75255072D01*
X141697000Y-75255072D01*
X141821482Y-75242812D01*
X141941180Y-75206502D01*
X142051494Y-75147537D01*
X142148185Y-75068185D01*
X142227537Y-74971494D01*
X142286502Y-74861180D01*
X142322812Y-74741482D01*
X142335072Y-74617000D01*
X142335072Y-73717000D01*
X142322812Y-73592518D01*
X142286502Y-73472820D01*
X142227537Y-73362506D01*
X142148185Y-73265815D01*
X142051494Y-73186463D01*
X141941180Y-73127498D01*
X141821482Y-73091188D01*
X141697000Y-73078928D01*
X141614060Y-73078928D01*
X140489461Y-71954329D01*
X140497000Y-71955072D01*
X140773941Y-71955072D01*
X140874502Y-71985577D01*
X141097000Y-72007491D01*
X141319498Y-71985577D01*
X141420059Y-71955072D01*
X141697000Y-71955072D01*
X141821482Y-71942812D01*
X141941180Y-71906502D01*
X142051494Y-71847537D01*
X142148185Y-71768185D01*
X142227537Y-71671494D01*
X142286502Y-71561180D01*
X142322812Y-71441482D01*
X142335072Y-71317000D01*
X142335072Y-71234059D01*
X144605641Y-68963491D01*
X144648949Y-68927949D01*
X144790784Y-68755123D01*
X144896176Y-68557947D01*
X144961077Y-68343999D01*
X144977500Y-68177252D01*
X144977500Y-68177243D01*
X144982990Y-68121501D01*
X144977500Y-68065759D01*
X144977500Y-65420055D01*
X144985820Y-65424502D01*
X145105518Y-65460812D01*
X145230000Y-65473072D01*
X145431750Y-65470000D01*
X145590500Y-65311250D01*
X145590500Y-64262000D01*
X145844500Y-64262000D01*
X145844500Y-65311250D01*
X146003250Y-65470000D01*
X146205000Y-65473072D01*
X146329482Y-65460812D01*
X146449180Y-65424502D01*
X146559494Y-65365537D01*
X146656185Y-65286185D01*
X146735537Y-65189494D01*
X146794502Y-65079180D01*
X146830812Y-64959482D01*
X146843072Y-64835000D01*
X146840000Y-64420750D01*
X146681250Y-64262000D01*
X145844500Y-64262000D01*
X145590500Y-64262000D01*
X145570500Y-64262000D01*
X145570500Y-64008000D01*
X145590500Y-64008000D01*
X145590500Y-62958750D01*
X145844500Y-62958750D01*
X145844500Y-64008000D01*
X146681250Y-64008000D01*
X146840000Y-63849250D01*
X146843072Y-63435000D01*
X146830812Y-63310518D01*
X146794502Y-63190820D01*
X146735537Y-63080506D01*
X146656185Y-62983815D01*
X146559494Y-62904463D01*
X146449180Y-62845498D01*
X146329482Y-62809188D01*
X146205000Y-62796928D01*
X146003250Y-62800000D01*
X145844500Y-62958750D01*
X145590500Y-62958750D01*
X145431750Y-62800000D01*
X145230000Y-62796928D01*
X145105518Y-62809188D01*
X144985820Y-62845498D01*
X144875506Y-62904463D01*
X144780000Y-62982842D01*
X144780000Y-61320000D01*
X144907002Y-61320000D01*
X144907002Y-61161252D01*
X145065750Y-61320000D01*
X145105000Y-61323072D01*
X145229482Y-61310812D01*
X145255000Y-61303071D01*
X145280518Y-61310812D01*
X145405000Y-61323072D01*
X146055000Y-61323072D01*
X146179482Y-61310812D01*
X146299180Y-61274502D01*
X146409494Y-61215537D01*
X146506185Y-61136185D01*
X146585537Y-61039494D01*
X146644502Y-60929180D01*
X146680812Y-60809482D01*
X146693072Y-60685000D01*
X146693072Y-60480000D01*
X148521928Y-60480000D01*
X148534188Y-60604482D01*
X148570498Y-60724180D01*
X148629463Y-60834494D01*
X148708815Y-60931185D01*
X148805506Y-61010537D01*
X148915820Y-61069502D01*
X149035518Y-61105812D01*
X149160000Y-61118072D01*
X149574250Y-61115000D01*
X149733000Y-60956250D01*
X149733000Y-60119500D01*
X148683750Y-60119500D01*
X148525000Y-60278250D01*
X148521928Y-60480000D01*
X146693072Y-60480000D01*
X146693072Y-59625000D01*
X146680812Y-59500518D01*
X146644502Y-59380820D01*
X146585537Y-59270506D01*
X146537740Y-59212265D01*
X146528280Y-59116212D01*
X146481963Y-58963527D01*
X146479190Y-58958339D01*
X146506185Y-58936185D01*
X146585537Y-58839494D01*
X146644502Y-58729180D01*
X146680812Y-58609482D01*
X146693072Y-58485000D01*
X146693072Y-58430585D01*
X146924605Y-58662118D01*
X146949972Y-58693028D01*
X146980880Y-58718393D01*
X147073310Y-58794249D01*
X147119935Y-58819170D01*
X147214027Y-58869463D01*
X147366712Y-58915780D01*
X147485709Y-58927500D01*
X147485712Y-58927500D01*
X147525500Y-58931419D01*
X147565288Y-58927500D01*
X148733190Y-58927500D01*
X148780208Y-58984792D01*
X148786564Y-58990008D01*
X148708815Y-59053815D01*
X148629463Y-59150506D01*
X148570498Y-59260820D01*
X148534188Y-59380518D01*
X148521928Y-59505000D01*
X148525000Y-59706750D01*
X148683750Y-59865500D01*
X149733000Y-59865500D01*
X149733000Y-59845500D01*
X149987000Y-59845500D01*
X149987000Y-59865500D01*
X150007000Y-59865500D01*
X150007000Y-60119500D01*
X149987000Y-60119500D01*
X149987000Y-60956250D01*
X150145750Y-61115000D01*
X150560000Y-61118072D01*
X150684482Y-61105812D01*
X150804180Y-61069502D01*
X150914494Y-61010537D01*
X150925001Y-61001914D01*
X150925001Y-61195000D01*
X150774061Y-61195000D01*
X150574102Y-61234774D01*
X150385744Y-61312795D01*
X150216226Y-61426063D01*
X150072063Y-61570226D01*
X149958795Y-61739744D01*
X149880774Y-61928102D01*
X149841000Y-62128061D01*
X149841000Y-62331939D01*
X149880774Y-62531898D01*
X149958795Y-62720256D01*
X150072063Y-62889774D01*
X150116000Y-62933711D01*
X150116001Y-71059197D01*
X147721063Y-73454135D01*
X147720000Y-73310750D01*
X147561250Y-73152000D01*
X146724500Y-73152000D01*
X146724500Y-74201250D01*
X146849224Y-74325974D01*
X146624199Y-74551000D01*
X146429000Y-74551000D01*
X146429000Y-74242750D01*
X146470500Y-74201250D01*
X146470500Y-73152000D01*
X146450500Y-73152000D01*
X146450500Y-72898000D01*
X146470500Y-72898000D01*
X146470500Y-71848750D01*
X146724500Y-71848750D01*
X146724500Y-72898000D01*
X147561250Y-72898000D01*
X147720000Y-72739250D01*
X147723072Y-72325000D01*
X147710812Y-72200518D01*
X147674502Y-72080820D01*
X147615537Y-71970506D01*
X147536185Y-71873815D01*
X147439494Y-71794463D01*
X147329180Y-71735498D01*
X147209482Y-71699188D01*
X147085000Y-71686928D01*
X146883250Y-71690000D01*
X146724500Y-71848750D01*
X146470500Y-71848750D01*
X146311750Y-71690000D01*
X146110000Y-71686928D01*
X145985518Y-71699188D01*
X145865820Y-71735498D01*
X145755506Y-71794463D01*
X145658815Y-71873815D01*
X145595008Y-71951564D01*
X145589792Y-71945208D01*
X145456164Y-71835542D01*
X145303709Y-71754053D01*
X145138285Y-71703872D01*
X144966250Y-71686928D01*
X144478750Y-71686928D01*
X144306715Y-71703872D01*
X144141291Y-71754053D01*
X143988836Y-71835542D01*
X143855208Y-71945208D01*
X143745542Y-72078836D01*
X143664053Y-72231291D01*
X143613872Y-72396715D01*
X143596928Y-72568750D01*
X143596928Y-73481250D01*
X143613872Y-73653285D01*
X143664053Y-73818709D01*
X143745542Y-73971164D01*
X143855208Y-74104792D01*
X143988836Y-74214458D01*
X144141291Y-74295947D01*
X144306715Y-74346128D01*
X144478750Y-74363072D01*
X144909001Y-74363072D01*
X144909000Y-75273667D01*
X144905323Y-75311000D01*
X144909001Y-75348343D01*
X144909001Y-75496928D01*
X144309999Y-75496928D01*
X144136745Y-75513992D01*
X143970149Y-75564528D01*
X143816613Y-75646595D01*
X143682038Y-75757038D01*
X143571595Y-75891613D01*
X143489528Y-76045149D01*
X143438992Y-76211745D01*
X143421928Y-76384999D01*
X143421928Y-77285001D01*
X143438992Y-77458255D01*
X143489528Y-77624851D01*
X143571595Y-77778387D01*
X143682038Y-77912962D01*
X143816613Y-78023405D01*
X143875001Y-78054614D01*
X143875001Y-78570197D01*
X140459003Y-81986196D01*
X140429999Y-82009999D01*
X140385694Y-82063985D01*
X140335026Y-82125724D01*
X140313168Y-82166618D01*
X140264454Y-82257754D01*
X140220997Y-82401015D01*
X140218401Y-82427376D01*
X140133158Y-82392068D01*
X139846260Y-82335000D01*
X139553740Y-82335000D01*
X139266842Y-82392068D01*
X138996589Y-82504010D01*
X138753368Y-82666525D01*
X138621513Y-82798380D01*
X138599502Y-82725820D01*
X138540537Y-82615506D01*
X138461185Y-82518815D01*
X138364494Y-82439463D01*
X138254180Y-82380498D01*
X138134482Y-82344188D01*
X138010000Y-82331928D01*
X137445750Y-82335000D01*
X137287000Y-82493750D01*
X137287000Y-83693000D01*
X137307000Y-83693000D01*
X137307000Y-83947000D01*
X137287000Y-83947000D01*
X137287000Y-83967000D01*
X137033000Y-83967000D01*
X137033000Y-83947000D01*
X135833750Y-83947000D01*
X135675000Y-84105750D01*
X135671928Y-84670000D01*
X135684188Y-84794482D01*
X135720498Y-84914180D01*
X135779463Y-85024494D01*
X135858815Y-85121185D01*
X135955506Y-85200537D01*
X136065820Y-85259502D01*
X136138380Y-85281513D01*
X136006525Y-85413368D01*
X135844010Y-85656589D01*
X135732068Y-85926842D01*
X135675000Y-86213740D01*
X135675000Y-86506260D01*
X135732068Y-86793158D01*
X135844010Y-87063411D01*
X136006525Y-87306632D01*
X136213368Y-87513475D01*
X136456589Y-87675990D01*
X136726842Y-87787932D01*
X137013740Y-87845000D01*
X137306260Y-87845000D01*
X137593158Y-87787932D01*
X137863411Y-87675990D01*
X138106632Y-87513475D01*
X138313475Y-87306632D01*
X138430000Y-87132240D01*
X138546525Y-87306632D01*
X138753368Y-87513475D01*
X138996589Y-87675990D01*
X139266842Y-87787932D01*
X139553740Y-87845000D01*
X139846260Y-87845000D01*
X140133158Y-87787932D01*
X140403411Y-87675990D01*
X140646632Y-87513475D01*
X140853475Y-87306632D01*
X140970000Y-87132240D01*
X141086525Y-87306632D01*
X141293368Y-87513475D01*
X141536589Y-87675990D01*
X141806842Y-87787932D01*
X142093740Y-87845000D01*
X142386260Y-87845000D01*
X142606408Y-87801210D01*
X142946201Y-88141003D01*
X142969999Y-88170001D01*
X143085724Y-88264974D01*
X143217753Y-88335546D01*
X143361014Y-88379003D01*
X143472667Y-88390000D01*
X143472676Y-88390000D01*
X143509999Y-88393676D01*
X143547322Y-88390000D01*
X145377678Y-88390000D01*
X145415000Y-88393676D01*
X145452322Y-88390000D01*
X145452333Y-88390000D01*
X145563986Y-88379003D01*
X145707247Y-88335546D01*
X145839276Y-88264974D01*
X145955001Y-88170001D01*
X145978804Y-88140997D01*
X146695300Y-87424502D01*
X146778748Y-87424502D01*
X146620000Y-87583250D01*
X146616928Y-87785000D01*
X146629188Y-87909482D01*
X146665498Y-88029180D01*
X146724463Y-88139494D01*
X146803815Y-88236185D01*
X146900506Y-88315537D01*
X147010820Y-88374502D01*
X147130518Y-88410812D01*
X147255000Y-88423072D01*
X147669250Y-88420000D01*
X147828000Y-88261250D01*
X147828000Y-87424500D01*
X148082000Y-87424500D01*
X148082000Y-88261250D01*
X148240750Y-88420000D01*
X148655000Y-88423072D01*
X148779482Y-88410812D01*
X148899180Y-88374502D01*
X149009494Y-88315537D01*
X149106185Y-88236185D01*
X149185537Y-88139494D01*
X149244502Y-88029180D01*
X149280812Y-87909482D01*
X149293072Y-87785000D01*
X149290000Y-87583250D01*
X149131250Y-87424500D01*
X148082000Y-87424500D01*
X147828000Y-87424500D01*
X147808000Y-87424500D01*
X147808000Y-87210000D01*
X152181928Y-87210000D01*
X152194188Y-87334482D01*
X152230498Y-87454180D01*
X152289463Y-87564494D01*
X152368815Y-87661185D01*
X152465506Y-87740537D01*
X152575820Y-87799502D01*
X152695518Y-87835812D01*
X152820000Y-87848072D01*
X153384250Y-87845000D01*
X153543000Y-87686250D01*
X153543000Y-86487000D01*
X152343750Y-86487000D01*
X152185000Y-86645750D01*
X152181928Y-87210000D01*
X147808000Y-87210000D01*
X147808000Y-87170500D01*
X147828000Y-87170500D01*
X147828000Y-87150500D01*
X148082000Y-87150500D01*
X148082000Y-87170500D01*
X149131250Y-87170500D01*
X149290000Y-87011750D01*
X149293072Y-86810000D01*
X149286054Y-86738747D01*
X150514801Y-85510000D01*
X152181928Y-85510000D01*
X152185000Y-86074250D01*
X152343750Y-86233000D01*
X153543000Y-86233000D01*
X153543000Y-85033750D01*
X153384250Y-84875000D01*
X152820000Y-84871928D01*
X152695518Y-84884188D01*
X152575820Y-84920498D01*
X152465506Y-84979463D01*
X152368815Y-85058815D01*
X152289463Y-85155506D01*
X152230498Y-85265820D01*
X152194188Y-85385518D01*
X152181928Y-85510000D01*
X150514801Y-85510000D01*
X152079802Y-83945000D01*
X155260199Y-83945000D01*
X156190198Y-84875000D01*
X156063740Y-84875000D01*
X155776842Y-84932068D01*
X155506589Y-85044010D01*
X155263368Y-85206525D01*
X155131513Y-85338380D01*
X155109502Y-85265820D01*
X155050537Y-85155506D01*
X154971185Y-85058815D01*
X154874494Y-84979463D01*
X154764180Y-84920498D01*
X154644482Y-84884188D01*
X154520000Y-84871928D01*
X153955750Y-84875000D01*
X153797000Y-85033750D01*
X153797000Y-86233000D01*
X153817000Y-86233000D01*
X153817000Y-86487000D01*
X153797000Y-86487000D01*
X153797000Y-87686250D01*
X153955750Y-87845000D01*
X154520000Y-87848072D01*
X154644482Y-87835812D01*
X154764180Y-87799502D01*
X154874494Y-87740537D01*
X154971185Y-87661185D01*
X155050537Y-87564494D01*
X155109502Y-87454180D01*
X155131513Y-87381620D01*
X155263368Y-87513475D01*
X155506589Y-87675990D01*
X155776842Y-87787932D01*
X156063740Y-87845000D01*
X156356260Y-87845000D01*
X156643158Y-87787932D01*
X156913411Y-87675990D01*
X157016984Y-87606785D01*
X157551200Y-88141002D01*
X157574999Y-88170001D01*
X157603997Y-88193799D01*
X157690724Y-88264974D01*
X157822753Y-88335546D01*
X157966014Y-88379003D01*
X158115000Y-88393677D01*
X158152333Y-88390000D01*
X159347678Y-88390000D01*
X159385000Y-88393676D01*
X159422322Y-88390000D01*
X159422333Y-88390000D01*
X159533986Y-88379003D01*
X159677247Y-88335546D01*
X159809276Y-88264974D01*
X159925001Y-88170001D01*
X159948803Y-88140998D01*
X160483017Y-87606786D01*
X160586589Y-87675990D01*
X160856842Y-87787932D01*
X161143740Y-87845000D01*
X161436260Y-87845000D01*
X161723158Y-87787932D01*
X161993411Y-87675990D01*
X162236632Y-87513475D01*
X162443475Y-87306632D01*
X162560000Y-87132240D01*
X162676525Y-87306632D01*
X162883368Y-87513475D01*
X163126589Y-87675990D01*
X163396842Y-87787932D01*
X163683740Y-87845000D01*
X163976260Y-87845000D01*
X164263158Y-87787932D01*
X164533411Y-87675990D01*
X164776632Y-87513475D01*
X164983475Y-87306632D01*
X165100000Y-87132240D01*
X165216525Y-87306632D01*
X165423368Y-87513475D01*
X165666589Y-87675990D01*
X165936842Y-87787932D01*
X166223740Y-87845000D01*
X166516260Y-87845000D01*
X166803158Y-87787932D01*
X167073411Y-87675990D01*
X167316632Y-87513475D01*
X167523475Y-87306632D01*
X167685990Y-87063411D01*
X167797932Y-86793158D01*
X167855000Y-86506260D01*
X167855000Y-86213740D01*
X167797932Y-85926842D01*
X167685990Y-85656589D01*
X167523475Y-85413368D01*
X167316632Y-85206525D01*
X167130000Y-85081822D01*
X167130000Y-83866452D01*
X167146128Y-83813285D01*
X167163072Y-83641250D01*
X167163072Y-82728750D01*
X167146128Y-82556715D01*
X167095947Y-82391291D01*
X167014458Y-82238836D01*
X166904792Y-82105208D01*
X166771164Y-81995542D01*
X166618709Y-81914053D01*
X166453285Y-81863872D01*
X166281250Y-81846928D01*
X165793750Y-81846928D01*
X165621715Y-81863872D01*
X165456291Y-81914053D01*
X165303836Y-81995542D01*
X165170208Y-82105208D01*
X165100000Y-82190756D01*
X165029792Y-82105208D01*
X164896164Y-81995542D01*
X164743709Y-81914053D01*
X164578285Y-81863872D01*
X164406250Y-81846928D01*
X163918750Y-81846928D01*
X163746715Y-81863872D01*
X163581291Y-81914053D01*
X163428836Y-81995542D01*
X163295208Y-82105208D01*
X163185542Y-82238836D01*
X163104053Y-82391291D01*
X163093827Y-82425000D01*
X162319362Y-82425000D01*
X162276498Y-82344808D01*
X162222042Y-82263309D01*
X162142690Y-82166618D01*
X162073382Y-82097310D01*
X161976691Y-82017958D01*
X161895192Y-81963502D01*
X161784875Y-81904536D01*
X161694319Y-81867027D01*
X161574623Y-81830718D01*
X161478490Y-81811596D01*
X161354009Y-81799336D01*
X161329450Y-81799336D01*
X161305000Y-81796928D01*
X160805000Y-81796928D01*
X160680518Y-81809188D01*
X160655000Y-81816929D01*
X160629482Y-81809188D01*
X160505000Y-81796928D01*
X160005000Y-81796928D01*
X159980550Y-81799336D01*
X159955991Y-81799336D01*
X159831510Y-81811596D01*
X159735377Y-81830718D01*
X159615681Y-81867027D01*
X159525125Y-81904536D01*
X159414808Y-81963502D01*
X159333309Y-82017958D01*
X159236618Y-82097310D01*
X159167310Y-82166618D01*
X159087958Y-82263309D01*
X159033502Y-82344808D01*
X158974536Y-82455125D01*
X158937027Y-82545681D01*
X158900718Y-82665377D01*
X158881596Y-82761510D01*
X158869336Y-82885991D01*
X158869336Y-82910550D01*
X158866928Y-82935000D01*
X158866928Y-83435000D01*
X158869336Y-83459450D01*
X158869336Y-83484009D01*
X158881596Y-83608490D01*
X158900718Y-83704623D01*
X158937027Y-83824319D01*
X158974536Y-83914875D01*
X159033502Y-84025192D01*
X159087958Y-84106691D01*
X159167310Y-84203382D01*
X159236618Y-84272690D01*
X159245001Y-84279569D01*
X159245001Y-84439488D01*
X156810900Y-82005387D01*
X156785528Y-81974472D01*
X156662189Y-81873251D01*
X156521473Y-81798037D01*
X156368788Y-81751720D01*
X156249791Y-81740000D01*
X156249788Y-81740000D01*
X156210000Y-81736081D01*
X156170212Y-81740000D01*
X154275513Y-81740000D01*
X153933584Y-81398072D01*
X154335000Y-81398072D01*
X154359450Y-81395664D01*
X154384009Y-81395664D01*
X154508490Y-81383404D01*
X154604623Y-81364282D01*
X154724319Y-81327973D01*
X154814875Y-81290464D01*
X154925192Y-81231498D01*
X155006691Y-81177042D01*
X155103382Y-81097690D01*
X155172690Y-81028382D01*
X155252042Y-80931691D01*
X155306498Y-80850192D01*
X155365464Y-80739875D01*
X155402973Y-80649319D01*
X155439282Y-80529623D01*
X155458404Y-80433490D01*
X155470664Y-80309009D01*
X155470664Y-80284450D01*
X155473072Y-80260000D01*
X155473072Y-79760000D01*
X155470664Y-79735550D01*
X155470664Y-79710991D01*
X155458404Y-79586510D01*
X155439282Y-79490377D01*
X155402973Y-79370681D01*
X155365464Y-79280125D01*
X155306498Y-79169808D01*
X155252042Y-79088309D01*
X155172690Y-78991618D01*
X155103382Y-78922310D01*
X155006691Y-78842958D01*
X154925192Y-78788502D01*
X154814875Y-78729536D01*
X154724319Y-78692027D01*
X154604623Y-78655718D01*
X154508490Y-78636596D01*
X154384009Y-78624336D01*
X154359450Y-78624336D01*
X154335000Y-78621928D01*
X153785000Y-78621928D01*
X153660518Y-78634188D01*
X153660000Y-78634345D01*
X153659482Y-78634188D01*
X153535000Y-78621928D01*
X152535000Y-78621928D01*
X152410518Y-78634188D01*
X152410000Y-78634345D01*
X152409482Y-78634188D01*
X152285000Y-78621928D01*
X151735000Y-78621928D01*
X151710550Y-78624336D01*
X151685991Y-78624336D01*
X151561510Y-78636596D01*
X151465377Y-78655718D01*
X151345681Y-78692027D01*
X151255125Y-78729536D01*
X151144808Y-78788502D01*
X151063309Y-78842958D01*
X150966618Y-78922310D01*
X150897310Y-78991618D01*
X150817958Y-79088309D01*
X150763502Y-79169808D01*
X150704536Y-79280125D01*
X150667027Y-79370681D01*
X150630718Y-79490377D01*
X150611596Y-79586510D01*
X150599336Y-79710991D01*
X150599336Y-79735550D01*
X150596928Y-79760000D01*
X150596928Y-79835000D01*
X147819702Y-79835000D01*
X147748405Y-79701613D01*
X147637962Y-79567038D01*
X147503387Y-79456595D01*
X147495000Y-79452112D01*
X147495000Y-78027888D01*
X147503387Y-78023405D01*
X147637962Y-77912962D01*
X147748405Y-77778387D01*
X147830472Y-77624851D01*
X147881008Y-77458255D01*
X147898072Y-77285001D01*
X147898072Y-76767440D01*
X149560513Y-75105000D01*
X150747364Y-75105000D01*
X150763502Y-75135192D01*
X150817958Y-75216691D01*
X150897310Y-75313382D01*
X150966618Y-75382690D01*
X151063309Y-75462042D01*
X151144808Y-75516498D01*
X151255125Y-75575464D01*
X151345681Y-75612973D01*
X151465377Y-75649282D01*
X151561510Y-75668404D01*
X151685991Y-75680664D01*
X151710550Y-75680664D01*
X151735000Y-75683072D01*
X152285000Y-75683072D01*
X152409482Y-75670812D01*
X152410000Y-75670655D01*
X152410518Y-75670812D01*
X152535000Y-75683072D01*
X153535000Y-75683072D01*
X153659482Y-75670812D01*
X153779180Y-75634502D01*
X153889494Y-75575537D01*
X153986185Y-75496185D01*
X154065537Y-75399494D01*
X154124502Y-75289180D01*
X154154873Y-75189060D01*
X154172875Y-75183762D01*
X154174847Y-75182731D01*
X154176980Y-75182087D01*
X154229781Y-75154012D01*
X154282703Y-75126345D01*
X154284437Y-75124951D01*
X154286404Y-75123905D01*
X154332737Y-75086117D01*
X154379286Y-75048690D01*
X154380717Y-75046985D01*
X154382443Y-75045577D01*
X154420539Y-74999527D01*
X154458947Y-74953754D01*
X154460020Y-74951802D01*
X154461439Y-74950087D01*
X154489851Y-74897539D01*
X154518651Y-74845153D01*
X154519325Y-74843029D01*
X154520383Y-74841072D01*
X154538034Y-74784050D01*
X154556124Y-74727024D01*
X154556373Y-74724808D01*
X154557030Y-74722684D01*
X154563276Y-74663257D01*
X154569938Y-74603866D01*
X154569968Y-74599596D01*
X154569985Y-74599433D01*
X154569970Y-74599270D01*
X154570000Y-74595000D01*
X154570000Y-73995000D01*
X154564166Y-73935495D01*
X154558752Y-73876013D01*
X154558125Y-73873882D01*
X154557907Y-73871661D01*
X154540612Y-73814379D01*
X154523762Y-73757125D01*
X154522731Y-73755153D01*
X154522087Y-73753020D01*
X154494012Y-73700219D01*
X154471940Y-73658000D01*
X154498199Y-73658000D01*
X155069000Y-74228802D01*
X155069001Y-78194668D01*
X155065324Y-78232000D01*
X155069001Y-78269333D01*
X155079998Y-78380986D01*
X155087847Y-78406862D01*
X155123454Y-78524246D01*
X155194026Y-78656276D01*
X155261362Y-78738324D01*
X155289000Y-78772001D01*
X155317998Y-78795799D01*
X156789205Y-80267008D01*
X156812999Y-80296001D01*
X156841992Y-80319795D01*
X156841996Y-80319799D01*
X156897958Y-80365725D01*
X156928724Y-80390974D01*
X157060753Y-80461546D01*
X157204014Y-80505003D01*
X157315667Y-80516000D01*
X157315676Y-80516000D01*
X157352999Y-80519676D01*
X157390322Y-80516000D01*
X168491678Y-80516000D01*
X168529000Y-80519676D01*
X168566322Y-80516000D01*
X168566333Y-80516000D01*
X168677986Y-80505003D01*
X168821247Y-80461546D01*
X168953276Y-80390974D01*
X169069001Y-80296001D01*
X169092804Y-80266997D01*
X170691003Y-78668799D01*
X170720001Y-78645001D01*
X170814974Y-78529276D01*
X170885546Y-78397247D01*
X170929003Y-78253986D01*
X170929373Y-78250233D01*
X171589803Y-77589803D01*
X171605597Y-77570557D01*
X171617333Y-77548601D01*
X171624560Y-77524776D01*
X171627000Y-77500000D01*
X171627000Y-77350000D01*
X173011928Y-77350000D01*
X173024188Y-77474482D01*
X173060498Y-77594180D01*
X173119463Y-77704494D01*
X173198815Y-77801185D01*
X173295506Y-77880537D01*
X173405820Y-77939502D01*
X173525518Y-77975812D01*
X173650000Y-77988072D01*
X174214250Y-77985000D01*
X174373000Y-77826250D01*
X174373000Y-76627000D01*
X174627000Y-76627000D01*
X174627000Y-77826250D01*
X174785750Y-77985000D01*
X175350000Y-77988072D01*
X175474482Y-77975812D01*
X175594180Y-77939502D01*
X175704494Y-77880537D01*
X175801185Y-77801185D01*
X175880537Y-77704494D01*
X175939502Y-77594180D01*
X175975812Y-77474482D01*
X175988072Y-77350000D01*
X175985000Y-76785750D01*
X175826250Y-76627000D01*
X174627000Y-76627000D01*
X174373000Y-76627000D01*
X173173750Y-76627000D01*
X173015000Y-76785750D01*
X173011928Y-77350000D01*
X171627000Y-77350000D01*
X171627000Y-74548633D01*
X171758387Y-74478405D01*
X171892962Y-74367962D01*
X172003405Y-74233387D01*
X172007888Y-74225000D01*
X172139488Y-74225000D01*
X172419105Y-74504617D01*
X172444472Y-74535528D01*
X172567811Y-74636749D01*
X172708527Y-74711963D01*
X172861212Y-74758280D01*
X172980209Y-74770000D01*
X172980211Y-74770000D01*
X173019999Y-74773919D01*
X173059787Y-74770000D01*
X173255230Y-74770000D01*
X173346525Y-74906632D01*
X173478380Y-75038487D01*
X173405820Y-75060498D01*
X173295506Y-75119463D01*
X173198815Y-75198815D01*
X173119463Y-75295506D01*
X173060498Y-75405820D01*
X173024188Y-75525518D01*
X173011928Y-75650000D01*
X173015000Y-76214250D01*
X173173750Y-76373000D01*
X174373000Y-76373000D01*
X174373000Y-76353000D01*
X174627000Y-76353000D01*
X174627000Y-76373000D01*
X175826250Y-76373000D01*
X175985000Y-76214250D01*
X175988072Y-75650000D01*
X175975812Y-75525518D01*
X175939502Y-75405820D01*
X175880537Y-75295506D01*
X175801185Y-75198815D01*
X175704494Y-75119463D01*
X175594180Y-75060498D01*
X175521620Y-75038487D01*
X175653475Y-74906632D01*
X175815990Y-74663411D01*
X175927932Y-74393158D01*
X175985000Y-74106260D01*
X175985000Y-73813740D01*
X175927932Y-73526842D01*
X175815990Y-73256589D01*
X175653475Y-73013368D01*
X175446632Y-72806525D01*
X175272240Y-72690000D01*
X175446632Y-72573475D01*
X175653475Y-72366632D01*
X175815990Y-72123411D01*
X175927932Y-71853158D01*
X175985000Y-71566260D01*
X175985000Y-71273740D01*
X175927932Y-70986842D01*
X175815990Y-70716589D01*
X175653475Y-70473368D01*
X175446632Y-70266525D01*
X175272240Y-70150000D01*
X175446632Y-70033475D01*
X175653475Y-69826632D01*
X175815990Y-69583411D01*
X175927932Y-69313158D01*
X175985000Y-69026260D01*
X175985000Y-68733740D01*
X175927932Y-68446842D01*
X175815990Y-68176589D01*
X175653475Y-67933368D01*
X175446632Y-67726525D01*
X175203411Y-67564010D01*
X174933158Y-67452068D01*
X174646260Y-67395000D01*
X174353740Y-67395000D01*
X174133592Y-67438790D01*
X168943072Y-62248271D01*
X168943072Y-61671000D01*
X168930812Y-61546518D01*
X168894502Y-61426820D01*
X168835537Y-61316506D01*
X168756185Y-61219815D01*
X168659494Y-61140463D01*
X168565000Y-61089954D01*
X168565000Y-59052046D01*
X168659494Y-59001537D01*
X168756185Y-58922185D01*
X168835537Y-58825494D01*
X168894502Y-58715180D01*
X168930812Y-58595482D01*
X168943072Y-58471000D01*
X168943072Y-57571000D01*
X168930812Y-57446518D01*
X168894502Y-57326820D01*
X168835537Y-57216506D01*
X168756185Y-57119815D01*
X168659494Y-57040463D01*
X168549180Y-56981498D01*
X168429482Y-56945188D01*
X168305000Y-56932928D01*
X167305000Y-56932928D01*
X167180518Y-56945188D01*
X167060820Y-56981498D01*
X167005000Y-57011335D01*
X166949180Y-56981498D01*
X166829482Y-56945188D01*
X166705000Y-56932928D01*
X166490750Y-56936000D01*
X166332000Y-57094750D01*
X166332000Y-57894000D01*
X166352000Y-57894000D01*
X166352000Y-58148000D01*
X166332000Y-58148000D01*
X166332000Y-58947250D01*
X166490750Y-59106000D01*
X166705000Y-59109072D01*
X166829482Y-59096812D01*
X166949180Y-59060502D01*
X167005000Y-59030665D01*
X167045000Y-59052046D01*
X167045001Y-61089954D01*
X167005000Y-61111335D01*
X166949180Y-61081498D01*
X166829482Y-61045188D01*
X166705000Y-61032928D01*
X166490750Y-61036000D01*
X166332000Y-61194750D01*
X166332000Y-61994000D01*
X166352000Y-61994000D01*
X166352000Y-62248000D01*
X166332000Y-62248000D01*
X166332000Y-62268000D01*
X166078000Y-62268000D01*
X166078000Y-62248000D01*
X165228750Y-62248000D01*
X165070000Y-62406750D01*
X165066928Y-62571000D01*
X165079188Y-62695482D01*
X165115498Y-62815180D01*
X165116471Y-62817000D01*
X163813529Y-62817000D01*
X163814502Y-62815180D01*
X163850812Y-62695482D01*
X163863072Y-62571000D01*
X163860000Y-62406750D01*
X163701250Y-62248000D01*
X162852000Y-62248000D01*
X162852000Y-62268000D01*
X162598000Y-62268000D01*
X162598000Y-62248000D01*
X162578000Y-62248000D01*
X162578000Y-61994000D01*
X162598000Y-61994000D01*
X162598000Y-61194750D01*
X162852000Y-61194750D01*
X162852000Y-61994000D01*
X163701250Y-61994000D01*
X163860000Y-61835250D01*
X163863072Y-61671000D01*
X165066928Y-61671000D01*
X165070000Y-61835250D01*
X165228750Y-61994000D01*
X166078000Y-61994000D01*
X166078000Y-61194750D01*
X165919250Y-61036000D01*
X165705000Y-61032928D01*
X165580518Y-61045188D01*
X165460820Y-61081498D01*
X165350506Y-61140463D01*
X165253815Y-61219815D01*
X165174463Y-61316506D01*
X165115498Y-61426820D01*
X165079188Y-61546518D01*
X165066928Y-61671000D01*
X163863072Y-61671000D01*
X163850812Y-61546518D01*
X163814502Y-61426820D01*
X163755537Y-61316506D01*
X163676185Y-61219815D01*
X163579494Y-61140463D01*
X163469180Y-61081498D01*
X163349482Y-61045188D01*
X163225000Y-61032928D01*
X163010750Y-61036000D01*
X162852000Y-61194750D01*
X162598000Y-61194750D01*
X162439250Y-61036000D01*
X162225000Y-61032928D01*
X162160000Y-61039330D01*
X162160000Y-61023061D01*
X162120226Y-60823102D01*
X162042205Y-60634744D01*
X161928937Y-60465226D01*
X161885000Y-60421289D01*
X161885000Y-59052046D01*
X161925000Y-59030665D01*
X161980820Y-59060502D01*
X162100518Y-59096812D01*
X162225000Y-59109072D01*
X162439250Y-59106000D01*
X162598000Y-58947250D01*
X162598000Y-58148000D01*
X162852000Y-58148000D01*
X162852000Y-58947250D01*
X163010750Y-59106000D01*
X163225000Y-59109072D01*
X163349482Y-59096812D01*
X163469180Y-59060502D01*
X163579494Y-59001537D01*
X163676185Y-58922185D01*
X163755537Y-58825494D01*
X163814502Y-58715180D01*
X163850812Y-58595482D01*
X163863072Y-58471000D01*
X165066928Y-58471000D01*
X165079188Y-58595482D01*
X165115498Y-58715180D01*
X165174463Y-58825494D01*
X165253815Y-58922185D01*
X165350506Y-59001537D01*
X165460820Y-59060502D01*
X165580518Y-59096812D01*
X165705000Y-59109072D01*
X165919250Y-59106000D01*
X166078000Y-58947250D01*
X166078000Y-58148000D01*
X165228750Y-58148000D01*
X165070000Y-58306750D01*
X165066928Y-58471000D01*
X163863072Y-58471000D01*
X163860000Y-58306750D01*
X163701250Y-58148000D01*
X162852000Y-58148000D01*
X162598000Y-58148000D01*
X162578000Y-58148000D01*
X162578000Y-57894000D01*
X162598000Y-57894000D01*
X162598000Y-57094750D01*
X162852000Y-57094750D01*
X162852000Y-57894000D01*
X163701250Y-57894000D01*
X163860000Y-57735250D01*
X163863072Y-57571000D01*
X165066928Y-57571000D01*
X165070000Y-57735250D01*
X165228750Y-57894000D01*
X166078000Y-57894000D01*
X166078000Y-57094750D01*
X165919250Y-56936000D01*
X165705000Y-56932928D01*
X165580518Y-56945188D01*
X165460820Y-56981498D01*
X165350506Y-57040463D01*
X165253815Y-57119815D01*
X165174463Y-57216506D01*
X165115498Y-57326820D01*
X165079188Y-57446518D01*
X165066928Y-57571000D01*
X163863072Y-57571000D01*
X163850812Y-57446518D01*
X163814502Y-57326820D01*
X163755537Y-57216506D01*
X163676185Y-57119815D01*
X163579494Y-57040463D01*
X163469180Y-56981498D01*
X163349482Y-56945188D01*
X163225000Y-56932928D01*
X163010750Y-56936000D01*
X162852000Y-57094750D01*
X162598000Y-57094750D01*
X162439250Y-56936000D01*
X162225000Y-56932928D01*
X162100518Y-56945188D01*
X161980820Y-56981498D01*
X161925000Y-57011335D01*
X161869180Y-56981498D01*
X161749482Y-56945188D01*
X161625000Y-56932928D01*
X160625000Y-56932928D01*
X160500518Y-56945188D01*
X160380820Y-56981498D01*
X160270506Y-57040463D01*
X160173815Y-57119815D01*
X160094463Y-57216506D01*
X160035498Y-57326820D01*
X159999188Y-57446518D01*
X159986928Y-57571000D01*
X159986928Y-58471000D01*
X159999188Y-58595482D01*
X160035498Y-58715180D01*
X160094463Y-58825494D01*
X160173815Y-58922185D01*
X160270506Y-59001537D01*
X160365001Y-59052046D01*
X160365000Y-60421289D01*
X160321063Y-60465226D01*
X160207795Y-60634744D01*
X160129774Y-60823102D01*
X160090000Y-61023061D01*
X160090000Y-61226939D01*
X160105211Y-61303410D01*
X160094463Y-61316506D01*
X160035498Y-61426820D01*
X159999188Y-61546518D01*
X159986928Y-61671000D01*
X159986928Y-62571000D01*
X159999188Y-62695482D01*
X160035498Y-62815180D01*
X160036471Y-62817000D01*
X157688513Y-62817000D01*
X155627163Y-60755650D01*
X155632499Y-60756176D01*
X155669822Y-60752500D01*
X156312155Y-60752500D01*
X156400208Y-60859792D01*
X156533836Y-60969458D01*
X156686291Y-61050947D01*
X156851715Y-61101128D01*
X157023750Y-61118072D01*
X157936250Y-61118072D01*
X158108285Y-61101128D01*
X158273709Y-61050947D01*
X158426164Y-60969458D01*
X158559792Y-60859792D01*
X158669458Y-60726164D01*
X158750947Y-60573709D01*
X158801128Y-60408285D01*
X158818072Y-60236250D01*
X158818072Y-59748750D01*
X158801128Y-59576715D01*
X158750947Y-59411291D01*
X158669458Y-59258836D01*
X158559792Y-59125208D01*
X158553436Y-59119992D01*
X158631185Y-59056185D01*
X158710537Y-58959494D01*
X158769502Y-58849180D01*
X158805812Y-58729482D01*
X158818072Y-58605000D01*
X158815000Y-58403250D01*
X158656250Y-58244500D01*
X157607000Y-58244500D01*
X157607000Y-58264500D01*
X157353000Y-58264500D01*
X157353000Y-58244500D01*
X156303750Y-58244500D01*
X156145000Y-58403250D01*
X156141928Y-58605000D01*
X156154188Y-58729482D01*
X156190498Y-58849180D01*
X156249463Y-58959494D01*
X156328815Y-59056185D01*
X156406564Y-59119992D01*
X156400208Y-59125208D01*
X156312155Y-59232500D01*
X155947302Y-59232500D01*
X155008072Y-58293271D01*
X155008072Y-57704999D01*
X155000686Y-57630000D01*
X156141928Y-57630000D01*
X156145000Y-57831750D01*
X156303750Y-57990500D01*
X157353000Y-57990500D01*
X157353000Y-57153750D01*
X157607000Y-57153750D01*
X157607000Y-57990500D01*
X158656250Y-57990500D01*
X158815000Y-57831750D01*
X158818072Y-57630000D01*
X158805812Y-57505518D01*
X158769502Y-57385820D01*
X158710537Y-57275506D01*
X158631185Y-57178815D01*
X158534494Y-57099463D01*
X158424180Y-57040498D01*
X158304482Y-57004188D01*
X158180000Y-56991928D01*
X157765750Y-56995000D01*
X157607000Y-57153750D01*
X157353000Y-57153750D01*
X157194250Y-56995000D01*
X156780000Y-56991928D01*
X156655518Y-57004188D01*
X156535820Y-57040498D01*
X156425506Y-57099463D01*
X156328815Y-57178815D01*
X156249463Y-57275506D01*
X156190498Y-57385820D01*
X156154188Y-57505518D01*
X156141928Y-57630000D01*
X155000686Y-57630000D01*
X154991008Y-57531745D01*
X154940472Y-57365149D01*
X154858405Y-57211613D01*
X154747962Y-57077038D01*
X154613387Y-56966595D01*
X154459851Y-56884528D01*
X154293255Y-56833992D01*
X154120001Y-56816928D01*
X153219999Y-56816928D01*
X153046745Y-56833992D01*
X152880149Y-56884528D01*
X152726613Y-56966595D01*
X152592038Y-57077038D01*
X152481595Y-57211613D01*
X152399528Y-57365149D01*
X152348992Y-57531745D01*
X152331928Y-57704999D01*
X152331928Y-58355001D01*
X152348992Y-58528255D01*
X152399528Y-58694851D01*
X152481595Y-58848387D01*
X152592038Y-58982962D01*
X152679816Y-59055000D01*
X152592038Y-59127038D01*
X152481595Y-59261613D01*
X152477112Y-59270000D01*
X152158013Y-59270000D01*
X151198072Y-58310060D01*
X151198072Y-57873750D01*
X151181128Y-57701715D01*
X151130947Y-57536291D01*
X151049458Y-57383836D01*
X150939792Y-57250208D01*
X150806164Y-57140542D01*
X150653709Y-57059053D01*
X150488285Y-57008872D01*
X150316250Y-56991928D01*
X149403750Y-56991928D01*
X149231715Y-57008872D01*
X149066291Y-57059053D01*
X148913836Y-57140542D01*
X148780208Y-57250208D01*
X148733190Y-57307500D01*
X147861013Y-57307500D01*
X146904899Y-56351387D01*
X146879528Y-56320472D01*
X146756189Y-56219251D01*
X146645338Y-56160000D01*
X172968591Y-56160000D01*
X173725555Y-56232221D01*
X174424940Y-56437398D01*
X175072904Y-56771120D01*
X175646074Y-57221353D01*
X176123762Y-57771839D01*
X176488742Y-58402730D01*
X176727836Y-59091248D01*
X176835790Y-59835790D01*
X176840001Y-60008104D01*
X176840000Y-84968591D01*
X176767779Y-85725555D01*
X176562602Y-86424940D01*
X176228878Y-87072906D01*
X175778650Y-87646072D01*
X175228159Y-88123763D01*
X174597270Y-88488741D01*
X173908752Y-88727836D01*
X173164210Y-88835790D01*
X172991937Y-88840000D01*
X130031409Y-88840000D01*
X129274445Y-88767779D01*
X128575060Y-88562602D01*
X127927094Y-88228878D01*
X127353928Y-87778650D01*
X126876237Y-87228159D01*
X126511259Y-86597270D01*
X126272164Y-85908752D01*
X126164210Y-85164210D01*
X126160000Y-84991937D01*
X126160000Y-82970000D01*
X135671928Y-82970000D01*
X135675000Y-83534250D01*
X135833750Y-83693000D01*
X137033000Y-83693000D01*
X137033000Y-82493750D01*
X136874250Y-82335000D01*
X136310000Y-82331928D01*
X136185518Y-82344188D01*
X136065820Y-82380498D01*
X135955506Y-82439463D01*
X135858815Y-82518815D01*
X135779463Y-82615506D01*
X135720498Y-82725820D01*
X135684188Y-82845518D01*
X135671928Y-82970000D01*
X126160000Y-82970000D01*
X126160000Y-78950000D01*
X130611928Y-78950000D01*
X130624188Y-79074482D01*
X130660498Y-79194180D01*
X130719463Y-79304494D01*
X130798815Y-79401185D01*
X130895506Y-79480537D01*
X131005820Y-79539502D01*
X131125518Y-79575812D01*
X131250000Y-79588072D01*
X132714250Y-79585000D01*
X132873000Y-79426250D01*
X132873000Y-77327000D01*
X133127000Y-77327000D01*
X133127000Y-79426250D01*
X133285750Y-79585000D01*
X134750000Y-79588072D01*
X134874482Y-79575812D01*
X134994180Y-79539502D01*
X135104494Y-79480537D01*
X135201185Y-79401185D01*
X135280537Y-79304494D01*
X135339502Y-79194180D01*
X135375812Y-79074482D01*
X135388072Y-78950000D01*
X135385000Y-77485750D01*
X135226250Y-77327000D01*
X133127000Y-77327000D01*
X132873000Y-77327000D01*
X130773750Y-77327000D01*
X130615000Y-77485750D01*
X130611928Y-78950000D01*
X126160000Y-78950000D01*
X126160000Y-77279872D01*
X137265000Y-77279872D01*
X137265000Y-77720128D01*
X137350890Y-78151925D01*
X137519369Y-78558669D01*
X137763962Y-78924729D01*
X138075271Y-79236038D01*
X138441331Y-79480631D01*
X138848075Y-79649110D01*
X139279872Y-79735000D01*
X139720128Y-79735000D01*
X140151925Y-79649110D01*
X140558669Y-79480631D01*
X140924729Y-79236038D01*
X141236038Y-78924729D01*
X141480631Y-78558669D01*
X141649110Y-78151925D01*
X141735000Y-77720128D01*
X141735000Y-77279872D01*
X141649110Y-76848075D01*
X141480631Y-76441331D01*
X141236038Y-76075271D01*
X140924729Y-75763962D01*
X140558669Y-75519369D01*
X140151925Y-75350890D01*
X139720128Y-75265000D01*
X139279872Y-75265000D01*
X138848075Y-75350890D01*
X138441331Y-75519369D01*
X138075271Y-75763962D01*
X137763962Y-76075271D01*
X137519369Y-76441331D01*
X137350890Y-76848075D01*
X137265000Y-77279872D01*
X126160000Y-77279872D01*
X126160000Y-74250000D01*
X127861928Y-74250000D01*
X127874188Y-74374482D01*
X127910498Y-74494180D01*
X127969463Y-74604494D01*
X128048815Y-74701185D01*
X128145506Y-74780537D01*
X128255820Y-74839502D01*
X128375518Y-74875812D01*
X128500000Y-74888072D01*
X129714250Y-74885000D01*
X129873000Y-74726250D01*
X129873000Y-72627000D01*
X130127000Y-72627000D01*
X130127000Y-74726250D01*
X130285750Y-74885000D01*
X130956805Y-74886698D01*
X130895506Y-74919463D01*
X130798815Y-74998815D01*
X130719463Y-75095506D01*
X130660498Y-75205820D01*
X130624188Y-75325518D01*
X130611928Y-75450000D01*
X130615000Y-76914250D01*
X130773750Y-77073000D01*
X132873000Y-77073000D01*
X132873000Y-74973750D01*
X132714250Y-74815000D01*
X131793633Y-74813069D01*
X131854494Y-74780537D01*
X131951185Y-74701185D01*
X132030537Y-74604494D01*
X132089502Y-74494180D01*
X132125812Y-74374482D01*
X132138072Y-74250000D01*
X132135000Y-72785750D01*
X131976250Y-72627000D01*
X130127000Y-72627000D01*
X129873000Y-72627000D01*
X128023750Y-72627000D01*
X127865000Y-72785750D01*
X127861928Y-74250000D01*
X126160000Y-74250000D01*
X126160000Y-70750000D01*
X127861928Y-70750000D01*
X127865000Y-72214250D01*
X128023750Y-72373000D01*
X129873000Y-72373000D01*
X129873000Y-70273750D01*
X130127000Y-70273750D01*
X130127000Y-72373000D01*
X131976250Y-72373000D01*
X132135000Y-72214250D01*
X132138072Y-70750000D01*
X132125812Y-70625518D01*
X132089502Y-70505820D01*
X132030537Y-70395506D01*
X131951185Y-70298815D01*
X131854494Y-70219463D01*
X131744180Y-70160498D01*
X131624482Y-70124188D01*
X131500000Y-70111928D01*
X130285750Y-70115000D01*
X130127000Y-70273750D01*
X129873000Y-70273750D01*
X129714250Y-70115000D01*
X128500000Y-70111928D01*
X128375518Y-70124188D01*
X128255820Y-70160498D01*
X128145506Y-70219463D01*
X128048815Y-70298815D01*
X127969463Y-70395506D01*
X127910498Y-70505820D01*
X127874188Y-70625518D01*
X127861928Y-70750000D01*
X126160000Y-70750000D01*
X126160000Y-66255000D01*
X126781928Y-66255000D01*
X126794188Y-66379482D01*
X126830498Y-66499180D01*
X126889463Y-66609494D01*
X126968815Y-66706185D01*
X127065506Y-66785537D01*
X127175820Y-66844502D01*
X127295518Y-66880812D01*
X127420000Y-66893072D01*
X127984250Y-66890000D01*
X128143000Y-66731250D01*
X128143000Y-65532000D01*
X126943750Y-65532000D01*
X126785000Y-65690750D01*
X126781928Y-66255000D01*
X126160000Y-66255000D01*
X126160000Y-64555000D01*
X126781928Y-64555000D01*
X126785000Y-65119250D01*
X126943750Y-65278000D01*
X128143000Y-65278000D01*
X128143000Y-64078750D01*
X127984250Y-63920000D01*
X127420000Y-63916928D01*
X127295518Y-63929188D01*
X127175820Y-63965498D01*
X127065506Y-64024463D01*
X126968815Y-64103815D01*
X126889463Y-64200506D01*
X126830498Y-64310820D01*
X126794188Y-64430518D01*
X126781928Y-64555000D01*
X126160000Y-64555000D01*
X126160000Y-62700000D01*
X132786928Y-62700000D01*
X132790000Y-63214250D01*
X132948750Y-63373000D01*
X134598000Y-63373000D01*
X134598000Y-62223750D01*
X134439250Y-62065000D01*
X133425000Y-62061928D01*
X133300518Y-62074188D01*
X133180820Y-62110498D01*
X133070506Y-62169463D01*
X132973815Y-62248815D01*
X132894463Y-62345506D01*
X132835498Y-62455820D01*
X132799188Y-62575518D01*
X132786928Y-62700000D01*
X126160000Y-62700000D01*
X126160000Y-60031409D01*
X126232221Y-59274445D01*
X126437398Y-58575060D01*
X126771120Y-57927096D01*
X127004493Y-57630000D01*
X134551928Y-57630000D01*
X134555000Y-57831750D01*
X134713750Y-57990500D01*
X135763000Y-57990500D01*
X135763000Y-57153750D01*
X136017000Y-57153750D01*
X136017000Y-57990500D01*
X137066250Y-57990500D01*
X137225000Y-57831750D01*
X137228072Y-57630000D01*
X137215812Y-57505518D01*
X137179502Y-57385820D01*
X137120537Y-57275506D01*
X137041185Y-57178815D01*
X136944494Y-57099463D01*
X136834180Y-57040498D01*
X136714482Y-57004188D01*
X136590000Y-56991928D01*
X136175750Y-56995000D01*
X136017000Y-57153750D01*
X135763000Y-57153750D01*
X135604250Y-56995000D01*
X135190000Y-56991928D01*
X135065518Y-57004188D01*
X134945820Y-57040498D01*
X134835506Y-57099463D01*
X134738815Y-57178815D01*
X134659463Y-57275506D01*
X134600498Y-57385820D01*
X134564188Y-57505518D01*
X134551928Y-57630000D01*
X127004493Y-57630000D01*
X127221353Y-57353926D01*
X127771839Y-56876238D01*
X128402730Y-56511258D01*
X129091248Y-56272164D01*
X129835790Y-56164210D01*
X130008063Y-56160000D01*
X144311662Y-56160000D01*
X144200811Y-56219251D01*
G36*
X151561510Y-81383404D02*
G01*
X151685991Y-81395664D01*
X151710550Y-81395664D01*
X151735000Y-81398072D01*
X152225000Y-81398072D01*
X152225000Y-81605211D01*
X152221081Y-81645000D01*
X152225000Y-81684788D01*
X152225000Y-81684790D01*
X152236720Y-81803787D01*
X152283037Y-81956472D01*
X152292659Y-81974473D01*
X152358251Y-82097189D01*
X152381670Y-82125725D01*
X152459472Y-82220528D01*
X152490387Y-82245899D01*
X152669488Y-82425000D01*
X151802322Y-82425000D01*
X151764999Y-82421324D01*
X151727676Y-82425000D01*
X151727667Y-82425000D01*
X151616014Y-82435997D01*
X151474912Y-82478799D01*
X151472753Y-82479454D01*
X151340723Y-82550026D01*
X151260936Y-82615506D01*
X151224999Y-82644999D01*
X151201201Y-82673997D01*
X149159055Y-84716144D01*
X149144458Y-84688836D01*
X149034792Y-84555208D01*
X148901164Y-84445542D01*
X148760587Y-84370402D01*
X148753280Y-84296212D01*
X148706963Y-84143527D01*
X148643712Y-84025192D01*
X148631749Y-84002810D01*
X148559582Y-83914875D01*
X148530528Y-83879472D01*
X148499618Y-83854105D01*
X147495000Y-82849488D01*
X147495000Y-81837888D01*
X147503387Y-81833405D01*
X147637962Y-81722962D01*
X147748405Y-81588387D01*
X147819702Y-81455000D01*
X151060212Y-81455000D01*
X151100000Y-81458919D01*
X151139788Y-81455000D01*
X151139791Y-81455000D01*
X151258788Y-81443280D01*
X151411473Y-81396963D01*
X151470652Y-81365331D01*
X151561510Y-81383404D01*
G37*
X151561510Y-81383404D02*
X151685991Y-81395664D01*
X151710550Y-81395664D01*
X151735000Y-81398072D01*
X152225000Y-81398072D01*
X152225000Y-81605211D01*
X152221081Y-81645000D01*
X152225000Y-81684788D01*
X152225000Y-81684790D01*
X152236720Y-81803787D01*
X152283037Y-81956472D01*
X152292659Y-81974473D01*
X152358251Y-82097189D01*
X152381670Y-82125725D01*
X152459472Y-82220528D01*
X152490387Y-82245899D01*
X152669488Y-82425000D01*
X151802322Y-82425000D01*
X151764999Y-82421324D01*
X151727676Y-82425000D01*
X151727667Y-82425000D01*
X151616014Y-82435997D01*
X151474912Y-82478799D01*
X151472753Y-82479454D01*
X151340723Y-82550026D01*
X151260936Y-82615506D01*
X151224999Y-82644999D01*
X151201201Y-82673997D01*
X149159055Y-84716144D01*
X149144458Y-84688836D01*
X149034792Y-84555208D01*
X148901164Y-84445542D01*
X148760587Y-84370402D01*
X148753280Y-84296212D01*
X148706963Y-84143527D01*
X148643712Y-84025192D01*
X148631749Y-84002810D01*
X148559582Y-83914875D01*
X148530528Y-83879472D01*
X148499618Y-83854105D01*
X147495000Y-82849488D01*
X147495000Y-81837888D01*
X147503387Y-81833405D01*
X147637962Y-81722962D01*
X147748405Y-81588387D01*
X147819702Y-81455000D01*
X151060212Y-81455000D01*
X151100000Y-81458919D01*
X151139788Y-81455000D01*
X151139791Y-81455000D01*
X151258788Y-81443280D01*
X151411473Y-81396963D01*
X151470652Y-81365331D01*
X151561510Y-81383404D01*
G36*
X152592038Y-61032962D02*
G01*
X152726613Y-61143405D01*
X152880149Y-61225472D01*
X153046745Y-61276008D01*
X153219999Y-61293072D01*
X153873560Y-61293072D01*
X156752105Y-64171618D01*
X156777472Y-64202528D01*
X156852997Y-64264509D01*
X156900811Y-64303749D01*
X157041526Y-64378963D01*
X157194212Y-64425280D01*
X157353000Y-64440919D01*
X157392791Y-64437000D01*
X167431488Y-64437000D01*
X168367488Y-65373000D01*
X167368837Y-65373000D01*
X167064405Y-65343150D01*
X167064402Y-65343150D01*
X167032419Y-65340000D01*
X158467581Y-65340000D01*
X158438627Y-65342852D01*
X158426219Y-65342765D01*
X158417047Y-65343665D01*
X158137946Y-65373000D01*
X158000000Y-65373000D01*
X157975224Y-65375440D01*
X157951399Y-65382667D01*
X157929443Y-65394403D01*
X157913764Y-65407270D01*
X157911498Y-65407702D01*
X157902677Y-65410366D01*
X157529802Y-65525790D01*
X157474647Y-65548975D01*
X157419194Y-65571379D01*
X157411062Y-65575704D01*
X157411057Y-65575706D01*
X157411053Y-65575709D01*
X157067702Y-65761357D01*
X157018101Y-65794813D01*
X156968054Y-65827563D01*
X156960913Y-65833387D01*
X156660158Y-66082194D01*
X156618019Y-66124629D01*
X156575269Y-66166492D01*
X156569396Y-66173593D01*
X156322695Y-66476077D01*
X156289598Y-66525893D01*
X156255795Y-66575259D01*
X156251413Y-66583365D01*
X156068163Y-66928007D01*
X156045368Y-66983313D01*
X156021802Y-67038296D01*
X156019077Y-67047099D01*
X155906259Y-67420770D01*
X155894639Y-67479458D01*
X155882203Y-67537961D01*
X155881240Y-67547126D01*
X155843150Y-67935595D01*
X155843150Y-67935608D01*
X155840001Y-67967581D01*
X155840000Y-72850199D01*
X155376804Y-72387002D01*
X155353001Y-72357999D01*
X155237276Y-72263026D01*
X155105247Y-72192454D01*
X154961986Y-72148997D01*
X154850333Y-72138000D01*
X154850322Y-72138000D01*
X154813000Y-72134324D01*
X154775678Y-72138000D01*
X153469325Y-72138000D01*
X153432000Y-72134324D01*
X153394675Y-72138000D01*
X153394667Y-72138000D01*
X153283014Y-72148997D01*
X153139753Y-72192454D01*
X153007724Y-72263026D01*
X152891999Y-72357999D01*
X152868196Y-72387003D01*
X152545000Y-72710199D01*
X152545000Y-60975646D01*
X152592038Y-61032962D01*
G37*
X152592038Y-61032962D02*
X152726613Y-61143405D01*
X152880149Y-61225472D01*
X153046745Y-61276008D01*
X153219999Y-61293072D01*
X153873560Y-61293072D01*
X156752105Y-64171618D01*
X156777472Y-64202528D01*
X156852997Y-64264509D01*
X156900811Y-64303749D01*
X157041526Y-64378963D01*
X157194212Y-64425280D01*
X157353000Y-64440919D01*
X157392791Y-64437000D01*
X167431488Y-64437000D01*
X168367488Y-65373000D01*
X167368837Y-65373000D01*
X167064405Y-65343150D01*
X167064402Y-65343150D01*
X167032419Y-65340000D01*
X158467581Y-65340000D01*
X158438627Y-65342852D01*
X158426219Y-65342765D01*
X158417047Y-65343665D01*
X158137946Y-65373000D01*
X158000000Y-65373000D01*
X157975224Y-65375440D01*
X157951399Y-65382667D01*
X157929443Y-65394403D01*
X157913764Y-65407270D01*
X157911498Y-65407702D01*
X157902677Y-65410366D01*
X157529802Y-65525790D01*
X157474647Y-65548975D01*
X157419194Y-65571379D01*
X157411062Y-65575704D01*
X157411057Y-65575706D01*
X157411053Y-65575709D01*
X157067702Y-65761357D01*
X157018101Y-65794813D01*
X156968054Y-65827563D01*
X156960913Y-65833387D01*
X156660158Y-66082194D01*
X156618019Y-66124629D01*
X156575269Y-66166492D01*
X156569396Y-66173593D01*
X156322695Y-66476077D01*
X156289598Y-66525893D01*
X156255795Y-66575259D01*
X156251413Y-66583365D01*
X156068163Y-66928007D01*
X156045368Y-66983313D01*
X156021802Y-67038296D01*
X156019077Y-67047099D01*
X155906259Y-67420770D01*
X155894639Y-67479458D01*
X155882203Y-67537961D01*
X155881240Y-67547126D01*
X155843150Y-67935595D01*
X155843150Y-67935608D01*
X155840001Y-67967581D01*
X155840000Y-72850199D01*
X155376804Y-72387002D01*
X155353001Y-72357999D01*
X155237276Y-72263026D01*
X155105247Y-72192454D01*
X154961986Y-72148997D01*
X154850333Y-72138000D01*
X154850322Y-72138000D01*
X154813000Y-72134324D01*
X154775678Y-72138000D01*
X153469325Y-72138000D01*
X153432000Y-72134324D01*
X153394675Y-72138000D01*
X153394667Y-72138000D01*
X153283014Y-72148997D01*
X153139753Y-72192454D01*
X153007724Y-72263026D01*
X152891999Y-72357999D01*
X152868196Y-72387003D01*
X152545000Y-72710199D01*
X152545000Y-60975646D01*
X152592038Y-61032962D01*
G36*
X142866928Y-59625000D02*
G01*
X142870000Y-59869250D01*
X143028750Y-60028000D01*
X143703000Y-60028000D01*
X143703000Y-60008000D01*
X143816928Y-60008000D01*
X143816928Y-60685000D01*
X143829188Y-60809482D01*
X143865498Y-60929180D01*
X143924463Y-61039494D01*
X143957000Y-61079141D01*
X143957000Y-61161250D01*
X143980867Y-61185117D01*
X143981721Y-61193787D01*
X144018000Y-61313382D01*
X144018000Y-62910250D01*
X143969500Y-62958750D01*
X143969500Y-64008000D01*
X143989500Y-64008000D01*
X143989500Y-64262000D01*
X143969500Y-64262000D01*
X143969500Y-64282000D01*
X143715500Y-64282000D01*
X143715500Y-64262000D01*
X142878750Y-64262000D01*
X142720000Y-64420750D01*
X142718352Y-64643000D01*
X140161681Y-64643000D01*
X140214502Y-64544180D01*
X140250812Y-64424482D01*
X140263072Y-64300000D01*
X140260000Y-63785750D01*
X140101250Y-63627000D01*
X138452000Y-63627000D01*
X138452000Y-63647000D01*
X138198000Y-63647000D01*
X138198000Y-63627000D01*
X138178000Y-63627000D01*
X138178000Y-63435000D01*
X142716928Y-63435000D01*
X142720000Y-63849250D01*
X142878750Y-64008000D01*
X143715500Y-64008000D01*
X143715500Y-62958750D01*
X143556750Y-62800000D01*
X143355000Y-62796928D01*
X143230518Y-62809188D01*
X143110820Y-62845498D01*
X143000506Y-62904463D01*
X142903815Y-62983815D01*
X142824463Y-63080506D01*
X142765498Y-63190820D01*
X142729188Y-63310518D01*
X142716928Y-63435000D01*
X138178000Y-63435000D01*
X138178000Y-63373000D01*
X138198000Y-63373000D01*
X138198000Y-62223750D01*
X138452000Y-62223750D01*
X138452000Y-63373000D01*
X140101250Y-63373000D01*
X140260000Y-63214250D01*
X140263072Y-62700000D01*
X140250812Y-62575518D01*
X140214502Y-62455820D01*
X140155537Y-62345506D01*
X140076185Y-62248815D01*
X139979494Y-62169463D01*
X139869180Y-62110498D01*
X139749482Y-62074188D01*
X139625000Y-62061928D01*
X138610750Y-62065000D01*
X138452000Y-62223750D01*
X138198000Y-62223750D01*
X138039250Y-62065000D01*
X137287000Y-62062722D01*
X137287000Y-61009401D01*
X137522493Y-60752500D01*
X137700178Y-60752500D01*
X137737500Y-60756176D01*
X137774822Y-60752500D01*
X137774833Y-60752500D01*
X137886486Y-60741503D01*
X138029747Y-60698046D01*
X138161776Y-60627474D01*
X138277501Y-60532501D01*
X138301304Y-60503497D01*
X138364205Y-60440596D01*
X138361928Y-60655000D01*
X138374188Y-60779482D01*
X138410498Y-60899180D01*
X138469463Y-61009494D01*
X138548815Y-61106185D01*
X138645506Y-61185537D01*
X138755820Y-61244502D01*
X138875518Y-61280812D01*
X139000000Y-61293072D01*
X139414250Y-61290000D01*
X139573000Y-61131250D01*
X139573000Y-60207000D01*
X139827000Y-60207000D01*
X139827000Y-61131250D01*
X139985750Y-61290000D01*
X140400000Y-61293072D01*
X140524482Y-61280812D01*
X140644180Y-61244502D01*
X140754494Y-61185537D01*
X140851185Y-61106185D01*
X140930537Y-61009494D01*
X140989502Y-60899180D01*
X141025812Y-60779482D01*
X141035117Y-60685000D01*
X142866928Y-60685000D01*
X142879188Y-60809482D01*
X142915498Y-60929180D01*
X142974463Y-61039494D01*
X143053815Y-61136185D01*
X143150506Y-61215537D01*
X143260820Y-61274502D01*
X143380518Y-61310812D01*
X143505000Y-61323072D01*
X143544250Y-61320000D01*
X143703000Y-61161250D01*
X143703000Y-60282000D01*
X143028750Y-60282000D01*
X142870000Y-60440750D01*
X142866928Y-60685000D01*
X141035117Y-60685000D01*
X141038072Y-60655000D01*
X141035000Y-60365750D01*
X140876250Y-60207000D01*
X139827000Y-60207000D01*
X139573000Y-60207000D01*
X139553000Y-60207000D01*
X139553000Y-59953000D01*
X139573000Y-59953000D01*
X139573000Y-59933000D01*
X139827000Y-59933000D01*
X139827000Y-59953000D01*
X140876250Y-59953000D01*
X141035000Y-59794250D01*
X141037456Y-59563000D01*
X142873034Y-59563000D01*
X142866928Y-59625000D01*
G37*
X142866928Y-59625000D02*
X142870000Y-59869250D01*
X143028750Y-60028000D01*
X143703000Y-60028000D01*
X143703000Y-60008000D01*
X143816928Y-60008000D01*
X143816928Y-60685000D01*
X143829188Y-60809482D01*
X143865498Y-60929180D01*
X143924463Y-61039494D01*
X143957000Y-61079141D01*
X143957000Y-61161250D01*
X143980867Y-61185117D01*
X143981721Y-61193787D01*
X144018000Y-61313382D01*
X144018000Y-62910250D01*
X143969500Y-62958750D01*
X143969500Y-64008000D01*
X143989500Y-64008000D01*
X143989500Y-64262000D01*
X143969500Y-64262000D01*
X143969500Y-64282000D01*
X143715500Y-64282000D01*
X143715500Y-64262000D01*
X142878750Y-64262000D01*
X142720000Y-64420750D01*
X142718352Y-64643000D01*
X140161681Y-64643000D01*
X140214502Y-64544180D01*
X140250812Y-64424482D01*
X140263072Y-64300000D01*
X140260000Y-63785750D01*
X140101250Y-63627000D01*
X138452000Y-63627000D01*
X138452000Y-63647000D01*
X138198000Y-63647000D01*
X138198000Y-63627000D01*
X138178000Y-63627000D01*
X138178000Y-63435000D01*
X142716928Y-63435000D01*
X142720000Y-63849250D01*
X142878750Y-64008000D01*
X143715500Y-64008000D01*
X143715500Y-62958750D01*
X143556750Y-62800000D01*
X143355000Y-62796928D01*
X143230518Y-62809188D01*
X143110820Y-62845498D01*
X143000506Y-62904463D01*
X142903815Y-62983815D01*
X142824463Y-63080506D01*
X142765498Y-63190820D01*
X142729188Y-63310518D01*
X142716928Y-63435000D01*
X138178000Y-63435000D01*
X138178000Y-63373000D01*
X138198000Y-63373000D01*
X138198000Y-62223750D01*
X138452000Y-62223750D01*
X138452000Y-63373000D01*
X140101250Y-63373000D01*
X140260000Y-63214250D01*
X140263072Y-62700000D01*
X140250812Y-62575518D01*
X140214502Y-62455820D01*
X140155537Y-62345506D01*
X140076185Y-62248815D01*
X139979494Y-62169463D01*
X139869180Y-62110498D01*
X139749482Y-62074188D01*
X139625000Y-62061928D01*
X138610750Y-62065000D01*
X138452000Y-62223750D01*
X138198000Y-62223750D01*
X138039250Y-62065000D01*
X137287000Y-62062722D01*
X137287000Y-61009401D01*
X137522493Y-60752500D01*
X137700178Y-60752500D01*
X137737500Y-60756176D01*
X137774822Y-60752500D01*
X137774833Y-60752500D01*
X137886486Y-60741503D01*
X138029747Y-60698046D01*
X138161776Y-60627474D01*
X138277501Y-60532501D01*
X138301304Y-60503497D01*
X138364205Y-60440596D01*
X138361928Y-60655000D01*
X138374188Y-60779482D01*
X138410498Y-60899180D01*
X138469463Y-61009494D01*
X138548815Y-61106185D01*
X138645506Y-61185537D01*
X138755820Y-61244502D01*
X138875518Y-61280812D01*
X139000000Y-61293072D01*
X139414250Y-61290000D01*
X139573000Y-61131250D01*
X139573000Y-60207000D01*
X139827000Y-60207000D01*
X139827000Y-61131250D01*
X139985750Y-61290000D01*
X140400000Y-61293072D01*
X140524482Y-61280812D01*
X140644180Y-61244502D01*
X140754494Y-61185537D01*
X140851185Y-61106185D01*
X140930537Y-61009494D01*
X140989502Y-60899180D01*
X141025812Y-60779482D01*
X141035117Y-60685000D01*
X142866928Y-60685000D01*
X142879188Y-60809482D01*
X142915498Y-60929180D01*
X142974463Y-61039494D01*
X143053815Y-61136185D01*
X143150506Y-61215537D01*
X143260820Y-61274502D01*
X143380518Y-61310812D01*
X143505000Y-61323072D01*
X143544250Y-61320000D01*
X143703000Y-61161250D01*
X143703000Y-60282000D01*
X143028750Y-60282000D01*
X142870000Y-60440750D01*
X142866928Y-60685000D01*
X141035117Y-60685000D01*
X141038072Y-60655000D01*
X141035000Y-60365750D01*
X140876250Y-60207000D01*
X139827000Y-60207000D01*
X139573000Y-60207000D01*
X139553000Y-60207000D01*
X139553000Y-59953000D01*
X139573000Y-59953000D01*
X139573000Y-59933000D01*
X139827000Y-59933000D01*
X139827000Y-59953000D01*
X140876250Y-59953000D01*
X141035000Y-59794250D01*
X141037456Y-59563000D01*
X142873034Y-59563000D01*
X142866928Y-59625000D01*
M02*
