G04 #@! TF.GenerationSoftware,KiCad,Pcbnew,(5.1.6-0-10_14)*
G04 #@! TF.CreationDate,2020-11-11T00:58:41-06:00*
G04 #@! TF.ProjectId,TempHumSensWithESP01,54656d70-4875-46d5-9365-6e7357697468,rev?*
G04 #@! TF.SameCoordinates,Original*
G04 #@! TF.FileFunction,Paste,Bot*
G04 #@! TF.FilePolarity,Positive*
%FSLAX46Y46*%
G04 Gerber Fmt 4.6, Leading zero omitted, Abs format (unit mm)*
G04 Created by KiCad (PCBNEW (5.1.6-0-10_14)) date 2020-11-11 00:58:41*
%MOMM*%
%LPD*%
G01*
G04 APERTURE LIST*
%ADD10R,0.350000X0.800000*%
%ADD11R,0.500000X0.300000*%
%ADD12R,0.350000X0.500000*%
G04 APERTURE END LIST*
D10*
X160000000Y-72500000D03*
D11*
X160950000Y-72975000D03*
X159050000Y-72025000D03*
X159050000Y-72975000D03*
X160950000Y-72025000D03*
G36*
G01*
X158575000Y-76456250D02*
X158575000Y-75543750D01*
G75*
G02*
X158818750Y-75300000I243750J0D01*
G01*
X159306250Y-75300000D01*
G75*
G02*
X159550000Y-75543750I0J-243750D01*
G01*
X159550000Y-76456250D01*
G75*
G02*
X159306250Y-76700000I-243750J0D01*
G01*
X158818750Y-76700000D01*
G75*
G02*
X158575000Y-76456250I0J243750D01*
G01*
G37*
G36*
G01*
X160450000Y-76456250D02*
X160450000Y-75543750D01*
G75*
G02*
X160693750Y-75300000I243750J0D01*
G01*
X161181250Y-75300000D01*
G75*
G02*
X161425000Y-75543750I0J-243750D01*
G01*
X161425000Y-76456250D01*
G75*
G02*
X161181250Y-76700000I-243750J0D01*
G01*
X160693750Y-76700000D01*
G75*
G02*
X160450000Y-76456250I0J243750D01*
G01*
G37*
D12*
X164025000Y-71475000D03*
X164675000Y-71475000D03*
X165325000Y-71475000D03*
X165975000Y-71475000D03*
X165975000Y-73525000D03*
X165325000Y-73525000D03*
X164675000Y-73525000D03*
X164025000Y-73525000D03*
G36*
G01*
X166425000Y-75543750D02*
X166425000Y-76456250D01*
G75*
G02*
X166181250Y-76700000I-243750J0D01*
G01*
X165693750Y-76700000D01*
G75*
G02*
X165450000Y-76456250I0J243750D01*
G01*
X165450000Y-75543750D01*
G75*
G02*
X165693750Y-75300000I243750J0D01*
G01*
X166181250Y-75300000D01*
G75*
G02*
X166425000Y-75543750I0J-243750D01*
G01*
G37*
G36*
G01*
X164550000Y-75543750D02*
X164550000Y-76456250D01*
G75*
G02*
X164306250Y-76700000I-243750J0D01*
G01*
X163818750Y-76700000D01*
G75*
G02*
X163575000Y-76456250I0J243750D01*
G01*
X163575000Y-75543750D01*
G75*
G02*
X163818750Y-75300000I243750J0D01*
G01*
X164306250Y-75300000D01*
G75*
G02*
X164550000Y-75543750I0J-243750D01*
G01*
G37*
G36*
G01*
X163575000Y-69456250D02*
X163575000Y-68543750D01*
G75*
G02*
X163818750Y-68300000I243750J0D01*
G01*
X164306250Y-68300000D01*
G75*
G02*
X164550000Y-68543750I0J-243750D01*
G01*
X164550000Y-69456250D01*
G75*
G02*
X164306250Y-69700000I-243750J0D01*
G01*
X163818750Y-69700000D01*
G75*
G02*
X163575000Y-69456250I0J243750D01*
G01*
G37*
G36*
G01*
X165450000Y-69456250D02*
X165450000Y-68543750D01*
G75*
G02*
X165693750Y-68300000I243750J0D01*
G01*
X166181250Y-68300000D01*
G75*
G02*
X166425000Y-68543750I0J-243750D01*
G01*
X166425000Y-69456250D01*
G75*
G02*
X166181250Y-69700000I-243750J0D01*
G01*
X165693750Y-69700000D01*
G75*
G02*
X165450000Y-69456250I0J243750D01*
G01*
G37*
M02*
