M48
; DRILL file {KiCad (5.1.6-0-10_14)} date Wednesday, November 11, 2020 at 12:58:40 AM
; FORMAT={-:-/ absolute / inch / decimal}
; #@! TF.CreationDate,2020-11-11T00:58:40-06:00
; #@! TF.GenerationSoftware,Kicad,Pcbnew,(5.1.6-0-10_14)
; #@! TF.FileFunction,Plated,1,2,PTH
FMAT,2
INCH
T1C0.0157
T2C0.0177
T3C0.0197
T4C0.0394
T5C0.1260
%
G90
G05
T1
X5.875Y-3.1
X5.925Y-2.475
X5.925Y-2.75
X6.075Y-2.45
X6.075Y-2.775
X6.075Y-2.925
X6.3435Y-2.4065
X6.42Y-2.935
X6.455Y-2.855
X6.4575Y-2.775
T2
X5.6Y-2.525
X6.0762Y-3.15
X6.42Y-2.74
X6.485Y-2.935
X6.635Y-2.935
T3
X5.0236Y-3.3465
X5.0513Y-3.2796
X5.0513Y-3.4133
X5.1181Y-3.252
X5.1181Y-3.4409
X5.1849Y-3.2796
X5.1849Y-3.4133
X5.2126Y-3.3465
X6.7165Y-3.3465
X6.7442Y-3.2796
X6.7442Y-3.4133
X6.811Y-3.252
X6.811Y-3.4409
X6.8778Y-3.2796
X6.8778Y-3.4133
X6.9055Y-3.3465
X6.7165Y-2.3622
X6.7442Y-2.2954
X6.7442Y-2.429
X6.811Y-2.2677
X6.811Y-2.4567
X6.8778Y-2.2954
X6.8778Y-2.429
X6.9055Y-2.3622
X5.0236Y-2.3622
X5.0513Y-2.2954
X5.0513Y-2.429
X5.1181Y-2.2677
X5.1181Y-2.4567
X5.1849Y-2.2954
X5.1849Y-2.429
X5.2126Y-2.3622
T4
X6.05Y-3.4
X6.15Y-3.4
X6.25Y-3.4
X6.35Y-3.4
X6.45Y-3.4
X6.55Y-3.4
X5.05Y-2.575
X5.15Y-2.575
X5.4Y-3.3
X5.4Y-3.4
X5.5Y-3.3
X5.5Y-3.4
X5.6Y-3.3
X5.6Y-3.4
X5.7Y-3.3
X5.7Y-3.4
X6.8701Y-2.7118
X6.8701Y-2.8118
X6.8701Y-2.9118
X6.8701Y-3.0118
T5
X6.811Y-3.3465
X6.811Y-2.3622
X5.1181Y-2.3622
X5.1181Y-3.3465
T4
G00X5.1181Y-2.815
M15
G01X5.1181Y-2.8937
M16
G05
G00X5.1969Y-3.0394
M15
G01X5.2756Y-3.0394
M16
G05
G00X5.3543Y-2.815
M15
G01X5.3543Y-2.8937
M16
G05
T0
M30
