G04 #@! TF.GenerationSoftware,KiCad,Pcbnew,(5.1.6-0-10_14)*
G04 #@! TF.CreationDate,2020-11-11T00:58:41-06:00*
G04 #@! TF.ProjectId,TempHumSensWithESP01,54656d70-4875-46d5-9365-6e7357697468,rev?*
G04 #@! TF.SameCoordinates,Original*
G04 #@! TF.FileFunction,Soldermask,Bot*
G04 #@! TF.FilePolarity,Negative*
%FSLAX46Y46*%
G04 Gerber Fmt 4.6, Leading zero omitted, Abs format (unit mm)*
G04 Created by KiCad (PCBNEW (5.1.6-0-10_14)) date 2020-11-11 00:58:41*
%MOMM*%
%LPD*%
G01*
G04 APERTURE LIST*
%ADD10C,0.100000*%
G04 APERTURE END LIST*
D10*
G36*
X173634239Y-81811467D02*
G01*
X173948282Y-81873934D01*
X174539926Y-82119001D01*
X174829523Y-82312504D01*
X175072391Y-82474783D01*
X175525217Y-82927609D01*
X175542600Y-82953625D01*
X175880999Y-83460074D01*
X176066843Y-83908742D01*
X176126066Y-84051719D01*
X176251000Y-84679803D01*
X176251000Y-85320197D01*
X176223390Y-85459000D01*
X176126066Y-85948282D01*
X175880999Y-86539926D01*
X175633265Y-86910685D01*
X175533595Y-87059853D01*
X175525216Y-87072392D01*
X175072392Y-87525216D01*
X174539926Y-87880999D01*
X173948282Y-88126066D01*
X173634239Y-88188533D01*
X173320197Y-88251000D01*
X172679803Y-88251000D01*
X172365761Y-88188533D01*
X172051718Y-88126066D01*
X171460074Y-87880999D01*
X170927608Y-87525216D01*
X170474784Y-87072392D01*
X170466406Y-87059853D01*
X170366735Y-86910685D01*
X170119001Y-86539926D01*
X169873934Y-85948282D01*
X169776610Y-85459000D01*
X169749000Y-85320197D01*
X169749000Y-84679803D01*
X169873934Y-84051719D01*
X169933157Y-83908742D01*
X170119001Y-83460074D01*
X170457400Y-82953625D01*
X170474783Y-82927609D01*
X170927609Y-82474783D01*
X171170477Y-82312504D01*
X171460074Y-82119001D01*
X172051718Y-81873934D01*
X172365761Y-81811467D01*
X172679803Y-81749000D01*
X173320197Y-81749000D01*
X173634239Y-81811467D01*
G37*
G36*
X130634239Y-81811467D02*
G01*
X130948282Y-81873934D01*
X131539926Y-82119001D01*
X131829523Y-82312504D01*
X132072391Y-82474783D01*
X132525217Y-82927609D01*
X132542600Y-82953625D01*
X132880999Y-83460074D01*
X133066843Y-83908742D01*
X133126066Y-84051719D01*
X133251000Y-84679803D01*
X133251000Y-85320197D01*
X133223390Y-85459000D01*
X133126066Y-85948282D01*
X132880999Y-86539926D01*
X132633265Y-86910685D01*
X132533595Y-87059853D01*
X132525216Y-87072392D01*
X132072392Y-87525216D01*
X131539926Y-87880999D01*
X130948282Y-88126066D01*
X130634239Y-88188533D01*
X130320197Y-88251000D01*
X129679803Y-88251000D01*
X129365761Y-88188533D01*
X129051718Y-88126066D01*
X128460074Y-87880999D01*
X127927608Y-87525216D01*
X127474784Y-87072392D01*
X127466406Y-87059853D01*
X127366735Y-86910685D01*
X127119001Y-86539926D01*
X126873934Y-85948282D01*
X126776610Y-85459000D01*
X126749000Y-85320197D01*
X126749000Y-84679803D01*
X126873934Y-84051719D01*
X126933157Y-83908742D01*
X127119001Y-83460074D01*
X127457400Y-82953625D01*
X127474783Y-82927609D01*
X127927609Y-82474783D01*
X128170477Y-82312504D01*
X128460074Y-82119001D01*
X129051718Y-81873934D01*
X129365761Y-81811467D01*
X129679803Y-81749000D01*
X130320197Y-81749000D01*
X130634239Y-81811467D01*
G37*
G36*
X161403512Y-85463927D02*
G01*
X161552812Y-85493624D01*
X161716784Y-85561544D01*
X161864354Y-85660147D01*
X161989853Y-85785646D01*
X162088456Y-85933216D01*
X162156376Y-86097188D01*
X162185987Y-86246056D01*
X162189435Y-86263388D01*
X162191000Y-86271259D01*
X162191000Y-86448741D01*
X162156376Y-86622812D01*
X162088456Y-86786784D01*
X161989853Y-86934354D01*
X161864354Y-87059853D01*
X161716784Y-87158456D01*
X161552812Y-87226376D01*
X161403512Y-87256073D01*
X161378742Y-87261000D01*
X161201258Y-87261000D01*
X161176488Y-87256073D01*
X161027188Y-87226376D01*
X160863216Y-87158456D01*
X160715646Y-87059853D01*
X160590147Y-86934354D01*
X160491544Y-86786784D01*
X160423624Y-86622812D01*
X160389000Y-86448741D01*
X160389000Y-86271259D01*
X160390566Y-86263388D01*
X160394013Y-86246056D01*
X160423624Y-86097188D01*
X160491544Y-85933216D01*
X160590147Y-85785646D01*
X160715646Y-85660147D01*
X160863216Y-85561544D01*
X161027188Y-85493624D01*
X161176488Y-85463927D01*
X161201258Y-85459000D01*
X161378742Y-85459000D01*
X161403512Y-85463927D01*
G37*
G36*
X158863512Y-85463927D02*
G01*
X159012812Y-85493624D01*
X159176784Y-85561544D01*
X159324354Y-85660147D01*
X159449853Y-85785646D01*
X159548456Y-85933216D01*
X159616376Y-86097188D01*
X159645987Y-86246056D01*
X159649435Y-86263388D01*
X159651000Y-86271259D01*
X159651000Y-86448741D01*
X159616376Y-86622812D01*
X159548456Y-86786784D01*
X159449853Y-86934354D01*
X159324354Y-87059853D01*
X159176784Y-87158456D01*
X159012812Y-87226376D01*
X158863512Y-87256073D01*
X158838742Y-87261000D01*
X158661258Y-87261000D01*
X158636488Y-87256073D01*
X158487188Y-87226376D01*
X158323216Y-87158456D01*
X158175646Y-87059853D01*
X158050147Y-86934354D01*
X157951544Y-86786784D01*
X157883624Y-86622812D01*
X157849000Y-86448741D01*
X157849000Y-86271259D01*
X157850566Y-86263388D01*
X157854013Y-86246056D01*
X157883624Y-86097188D01*
X157951544Y-85933216D01*
X158050147Y-85785646D01*
X158175646Y-85660147D01*
X158323216Y-85561544D01*
X158487188Y-85493624D01*
X158636488Y-85463927D01*
X158661258Y-85459000D01*
X158838742Y-85459000D01*
X158863512Y-85463927D01*
G37*
G36*
X156323512Y-85463927D02*
G01*
X156472812Y-85493624D01*
X156636784Y-85561544D01*
X156784354Y-85660147D01*
X156909853Y-85785646D01*
X157008456Y-85933216D01*
X157076376Y-86097188D01*
X157105987Y-86246056D01*
X157109435Y-86263388D01*
X157111000Y-86271259D01*
X157111000Y-86448741D01*
X157076376Y-86622812D01*
X157008456Y-86786784D01*
X156909853Y-86934354D01*
X156784354Y-87059853D01*
X156636784Y-87158456D01*
X156472812Y-87226376D01*
X156323512Y-87256073D01*
X156298742Y-87261000D01*
X156121258Y-87261000D01*
X156096488Y-87256073D01*
X155947188Y-87226376D01*
X155783216Y-87158456D01*
X155635646Y-87059853D01*
X155510147Y-86934354D01*
X155411544Y-86786784D01*
X155343624Y-86622812D01*
X155309000Y-86448741D01*
X155309000Y-86271259D01*
X155310566Y-86263388D01*
X155314013Y-86246056D01*
X155343624Y-86097188D01*
X155411544Y-85933216D01*
X155510147Y-85785646D01*
X155635646Y-85660147D01*
X155783216Y-85561544D01*
X155947188Y-85493624D01*
X156096488Y-85463927D01*
X156121258Y-85459000D01*
X156298742Y-85459000D01*
X156323512Y-85463927D01*
G37*
G36*
X154571000Y-87261000D02*
G01*
X152769000Y-87261000D01*
X152769000Y-85459000D01*
X154571000Y-85459000D01*
X154571000Y-87261000D01*
G37*
G36*
X144893512Y-85463927D02*
G01*
X145042812Y-85493624D01*
X145206784Y-85561544D01*
X145354354Y-85660147D01*
X145479853Y-85785646D01*
X145578456Y-85933216D01*
X145646376Y-86097188D01*
X145675987Y-86246056D01*
X145679435Y-86263388D01*
X145681000Y-86271259D01*
X145681000Y-86448741D01*
X145646376Y-86622812D01*
X145578456Y-86786784D01*
X145479853Y-86934354D01*
X145354354Y-87059853D01*
X145206784Y-87158456D01*
X145042812Y-87226376D01*
X144893512Y-87256073D01*
X144868742Y-87261000D01*
X144691258Y-87261000D01*
X144666488Y-87256073D01*
X144517188Y-87226376D01*
X144353216Y-87158456D01*
X144205646Y-87059853D01*
X144080147Y-86934354D01*
X143981544Y-86786784D01*
X143913624Y-86622812D01*
X143879000Y-86448741D01*
X143879000Y-86271259D01*
X143880566Y-86263388D01*
X143884013Y-86246056D01*
X143913624Y-86097188D01*
X143981544Y-85933216D01*
X144080147Y-85785646D01*
X144205646Y-85660147D01*
X144353216Y-85561544D01*
X144517188Y-85493624D01*
X144666488Y-85463927D01*
X144691258Y-85459000D01*
X144868742Y-85459000D01*
X144893512Y-85463927D01*
G37*
G36*
X142353512Y-85463927D02*
G01*
X142502812Y-85493624D01*
X142666784Y-85561544D01*
X142814354Y-85660147D01*
X142939853Y-85785646D01*
X143038456Y-85933216D01*
X143106376Y-86097188D01*
X143135987Y-86246056D01*
X143139435Y-86263388D01*
X143141000Y-86271259D01*
X143141000Y-86448741D01*
X143106376Y-86622812D01*
X143038456Y-86786784D01*
X142939853Y-86934354D01*
X142814354Y-87059853D01*
X142666784Y-87158456D01*
X142502812Y-87226376D01*
X142353512Y-87256073D01*
X142328742Y-87261000D01*
X142151258Y-87261000D01*
X142126488Y-87256073D01*
X141977188Y-87226376D01*
X141813216Y-87158456D01*
X141665646Y-87059853D01*
X141540147Y-86934354D01*
X141441544Y-86786784D01*
X141373624Y-86622812D01*
X141339000Y-86448741D01*
X141339000Y-86271259D01*
X141340566Y-86263388D01*
X141344013Y-86246056D01*
X141373624Y-86097188D01*
X141441544Y-85933216D01*
X141540147Y-85785646D01*
X141665646Y-85660147D01*
X141813216Y-85561544D01*
X141977188Y-85493624D01*
X142126488Y-85463927D01*
X142151258Y-85459000D01*
X142328742Y-85459000D01*
X142353512Y-85463927D01*
G37*
G36*
X139813512Y-85463927D02*
G01*
X139962812Y-85493624D01*
X140126784Y-85561544D01*
X140274354Y-85660147D01*
X140399853Y-85785646D01*
X140498456Y-85933216D01*
X140566376Y-86097188D01*
X140595987Y-86246056D01*
X140599435Y-86263388D01*
X140601000Y-86271259D01*
X140601000Y-86448741D01*
X140566376Y-86622812D01*
X140498456Y-86786784D01*
X140399853Y-86934354D01*
X140274354Y-87059853D01*
X140126784Y-87158456D01*
X139962812Y-87226376D01*
X139813512Y-87256073D01*
X139788742Y-87261000D01*
X139611258Y-87261000D01*
X139586488Y-87256073D01*
X139437188Y-87226376D01*
X139273216Y-87158456D01*
X139125646Y-87059853D01*
X139000147Y-86934354D01*
X138901544Y-86786784D01*
X138833624Y-86622812D01*
X138799000Y-86448741D01*
X138799000Y-86271259D01*
X138800566Y-86263388D01*
X138804013Y-86246056D01*
X138833624Y-86097188D01*
X138901544Y-85933216D01*
X139000147Y-85785646D01*
X139125646Y-85660147D01*
X139273216Y-85561544D01*
X139437188Y-85493624D01*
X139586488Y-85463927D01*
X139611258Y-85459000D01*
X139788742Y-85459000D01*
X139813512Y-85463927D01*
G37*
G36*
X137273512Y-85463927D02*
G01*
X137422812Y-85493624D01*
X137586784Y-85561544D01*
X137734354Y-85660147D01*
X137859853Y-85785646D01*
X137958456Y-85933216D01*
X138026376Y-86097188D01*
X138055987Y-86246056D01*
X138059435Y-86263388D01*
X138061000Y-86271259D01*
X138061000Y-86448741D01*
X138026376Y-86622812D01*
X137958456Y-86786784D01*
X137859853Y-86934354D01*
X137734354Y-87059853D01*
X137586784Y-87158456D01*
X137422812Y-87226376D01*
X137273512Y-87256073D01*
X137248742Y-87261000D01*
X137071258Y-87261000D01*
X137046488Y-87256073D01*
X136897188Y-87226376D01*
X136733216Y-87158456D01*
X136585646Y-87059853D01*
X136460147Y-86934354D01*
X136361544Y-86786784D01*
X136293624Y-86622812D01*
X136259000Y-86448741D01*
X136259000Y-86271259D01*
X136260566Y-86263388D01*
X136264013Y-86246056D01*
X136293624Y-86097188D01*
X136361544Y-85933216D01*
X136460147Y-85785646D01*
X136585646Y-85660147D01*
X136733216Y-85561544D01*
X136897188Y-85493624D01*
X137046488Y-85463927D01*
X137071258Y-85459000D01*
X137248742Y-85459000D01*
X137273512Y-85463927D01*
G37*
G36*
X166483512Y-85463927D02*
G01*
X166632812Y-85493624D01*
X166796784Y-85561544D01*
X166944354Y-85660147D01*
X167069853Y-85785646D01*
X167168456Y-85933216D01*
X167236376Y-86097188D01*
X167265987Y-86246056D01*
X167269435Y-86263388D01*
X167271000Y-86271259D01*
X167271000Y-86448741D01*
X167236376Y-86622812D01*
X167168456Y-86786784D01*
X167069853Y-86934354D01*
X166944354Y-87059853D01*
X166796784Y-87158456D01*
X166632812Y-87226376D01*
X166483512Y-87256073D01*
X166458742Y-87261000D01*
X166281258Y-87261000D01*
X166256488Y-87256073D01*
X166107188Y-87226376D01*
X165943216Y-87158456D01*
X165795646Y-87059853D01*
X165670147Y-86934354D01*
X165571544Y-86786784D01*
X165503624Y-86622812D01*
X165469000Y-86448741D01*
X165469000Y-86271259D01*
X165470566Y-86263388D01*
X165474013Y-86246056D01*
X165503624Y-86097188D01*
X165571544Y-85933216D01*
X165670147Y-85785646D01*
X165795646Y-85660147D01*
X165943216Y-85561544D01*
X166107188Y-85493624D01*
X166256488Y-85463927D01*
X166281258Y-85459000D01*
X166458742Y-85459000D01*
X166483512Y-85463927D01*
G37*
G36*
X163943512Y-85463927D02*
G01*
X164092812Y-85493624D01*
X164256784Y-85561544D01*
X164404354Y-85660147D01*
X164529853Y-85785646D01*
X164628456Y-85933216D01*
X164696376Y-86097188D01*
X164725987Y-86246056D01*
X164729435Y-86263388D01*
X164731000Y-86271259D01*
X164731000Y-86448741D01*
X164696376Y-86622812D01*
X164628456Y-86786784D01*
X164529853Y-86934354D01*
X164404354Y-87059853D01*
X164256784Y-87158456D01*
X164092812Y-87226376D01*
X163943512Y-87256073D01*
X163918742Y-87261000D01*
X163741258Y-87261000D01*
X163716488Y-87256073D01*
X163567188Y-87226376D01*
X163403216Y-87158456D01*
X163255646Y-87059853D01*
X163130147Y-86934354D01*
X163031544Y-86786784D01*
X162963624Y-86622812D01*
X162929000Y-86448741D01*
X162929000Y-86271259D01*
X162930566Y-86263388D01*
X162934013Y-86246056D01*
X162963624Y-86097188D01*
X163031544Y-85933216D01*
X163130147Y-85785646D01*
X163255646Y-85660147D01*
X163403216Y-85561544D01*
X163567188Y-85493624D01*
X163716488Y-85463927D01*
X163741258Y-85459000D01*
X163918742Y-85459000D01*
X163943512Y-85463927D01*
G37*
G36*
X144893512Y-82923927D02*
G01*
X145042812Y-82953624D01*
X145206784Y-83021544D01*
X145354354Y-83120147D01*
X145479853Y-83245646D01*
X145578456Y-83393216D01*
X145646376Y-83557188D01*
X145681000Y-83731259D01*
X145681000Y-83908741D01*
X145646376Y-84082812D01*
X145578456Y-84246784D01*
X145479853Y-84394354D01*
X145354354Y-84519853D01*
X145206784Y-84618456D01*
X145042812Y-84686376D01*
X144911454Y-84712504D01*
X144868742Y-84721000D01*
X144691258Y-84721000D01*
X144648546Y-84712504D01*
X144517188Y-84686376D01*
X144353216Y-84618456D01*
X144205646Y-84519853D01*
X144080147Y-84394354D01*
X143981544Y-84246784D01*
X143913624Y-84082812D01*
X143879000Y-83908741D01*
X143879000Y-83731259D01*
X143913624Y-83557188D01*
X143981544Y-83393216D01*
X144080147Y-83245646D01*
X144205646Y-83120147D01*
X144353216Y-83021544D01*
X144517188Y-82953624D01*
X144666488Y-82923927D01*
X144691258Y-82919000D01*
X144868742Y-82919000D01*
X144893512Y-82923927D01*
G37*
G36*
X142353512Y-82923927D02*
G01*
X142502812Y-82953624D01*
X142666784Y-83021544D01*
X142814354Y-83120147D01*
X142939853Y-83245646D01*
X143038456Y-83393216D01*
X143106376Y-83557188D01*
X143141000Y-83731259D01*
X143141000Y-83908741D01*
X143106376Y-84082812D01*
X143038456Y-84246784D01*
X142939853Y-84394354D01*
X142814354Y-84519853D01*
X142666784Y-84618456D01*
X142502812Y-84686376D01*
X142371454Y-84712504D01*
X142328742Y-84721000D01*
X142151258Y-84721000D01*
X142108546Y-84712504D01*
X141977188Y-84686376D01*
X141813216Y-84618456D01*
X141665646Y-84519853D01*
X141540147Y-84394354D01*
X141441544Y-84246784D01*
X141373624Y-84082812D01*
X141339000Y-83908741D01*
X141339000Y-83731259D01*
X141373624Y-83557188D01*
X141441544Y-83393216D01*
X141540147Y-83245646D01*
X141665646Y-83120147D01*
X141813216Y-83021544D01*
X141977188Y-82953624D01*
X142126488Y-82923927D01*
X142151258Y-82919000D01*
X142328742Y-82919000D01*
X142353512Y-82923927D01*
G37*
G36*
X139813512Y-82923927D02*
G01*
X139962812Y-82953624D01*
X140126784Y-83021544D01*
X140274354Y-83120147D01*
X140399853Y-83245646D01*
X140498456Y-83393216D01*
X140566376Y-83557188D01*
X140601000Y-83731259D01*
X140601000Y-83908741D01*
X140566376Y-84082812D01*
X140498456Y-84246784D01*
X140399853Y-84394354D01*
X140274354Y-84519853D01*
X140126784Y-84618456D01*
X139962812Y-84686376D01*
X139831454Y-84712504D01*
X139788742Y-84721000D01*
X139611258Y-84721000D01*
X139568546Y-84712504D01*
X139437188Y-84686376D01*
X139273216Y-84618456D01*
X139125646Y-84519853D01*
X139000147Y-84394354D01*
X138901544Y-84246784D01*
X138833624Y-84082812D01*
X138799000Y-83908741D01*
X138799000Y-83731259D01*
X138833624Y-83557188D01*
X138901544Y-83393216D01*
X139000147Y-83245646D01*
X139125646Y-83120147D01*
X139273216Y-83021544D01*
X139437188Y-82953624D01*
X139586488Y-82923927D01*
X139611258Y-82919000D01*
X139788742Y-82919000D01*
X139813512Y-82923927D01*
G37*
G36*
X138061000Y-84721000D02*
G01*
X136259000Y-84721000D01*
X136259000Y-82919000D01*
X138061000Y-82919000D01*
X138061000Y-84721000D01*
G37*
G36*
X139875256Y-75891298D02*
G01*
X139981579Y-75912447D01*
X140282042Y-76036903D01*
X140552451Y-76217585D01*
X140782415Y-76447549D01*
X140963097Y-76717958D01*
X140963098Y-76717960D01*
X140999550Y-76805963D01*
X141087553Y-77018421D01*
X141151000Y-77337391D01*
X141151000Y-77662609D01*
X141087553Y-77981579D01*
X140963097Y-78282042D01*
X140782415Y-78552451D01*
X140552451Y-78782415D01*
X140282042Y-78963097D01*
X140282041Y-78963098D01*
X140282040Y-78963098D01*
X140194037Y-78999550D01*
X139981579Y-79087553D01*
X139875256Y-79108702D01*
X139662611Y-79151000D01*
X139337389Y-79151000D01*
X139124744Y-79108702D01*
X139018421Y-79087553D01*
X138805963Y-78999550D01*
X138717960Y-78963098D01*
X138717959Y-78963098D01*
X138717958Y-78963097D01*
X138447549Y-78782415D01*
X138217585Y-78552451D01*
X138036903Y-78282042D01*
X137912447Y-77981579D01*
X137849000Y-77662609D01*
X137849000Y-77337391D01*
X137912447Y-77018421D01*
X138000450Y-76805963D01*
X138036902Y-76717960D01*
X138036903Y-76717958D01*
X138217585Y-76447549D01*
X138447549Y-76217585D01*
X138717958Y-76036903D01*
X139018421Y-75912447D01*
X139124744Y-75891298D01*
X139337389Y-75849000D01*
X139662611Y-75849000D01*
X139875256Y-75891298D01*
G37*
G36*
X134126366Y-75415695D02*
G01*
X134283460Y-75463349D01*
X134428231Y-75540731D01*
X134555128Y-75644872D01*
X134659269Y-75771769D01*
X134736651Y-75916540D01*
X134784305Y-76073634D01*
X134801000Y-76243140D01*
X134801000Y-78156860D01*
X134784305Y-78326366D01*
X134736651Y-78483460D01*
X134659269Y-78628231D01*
X134555128Y-78755128D01*
X134428231Y-78859269D01*
X134283460Y-78936651D01*
X134126366Y-78984305D01*
X133956860Y-79001000D01*
X132043140Y-79001000D01*
X131873634Y-78984305D01*
X131716540Y-78936651D01*
X131571769Y-78859269D01*
X131444872Y-78755128D01*
X131340731Y-78628231D01*
X131263349Y-78483460D01*
X131215695Y-78326366D01*
X131199000Y-78156860D01*
X131199000Y-76243140D01*
X131215695Y-76073634D01*
X131263349Y-75916540D01*
X131340731Y-75771769D01*
X131444872Y-75644872D01*
X131571769Y-75540731D01*
X131716540Y-75463349D01*
X131873634Y-75415695D01*
X132043140Y-75399000D01*
X133956860Y-75399000D01*
X134126366Y-75415695D01*
G37*
G36*
X175401000Y-77401000D02*
G01*
X173599000Y-77401000D01*
X173599000Y-75599000D01*
X175401000Y-75599000D01*
X175401000Y-77401000D01*
G37*
G36*
X161309468Y-75253565D02*
G01*
X161348138Y-75265296D01*
X161383777Y-75284346D01*
X161415017Y-75309983D01*
X161440654Y-75341223D01*
X161459704Y-75376862D01*
X161471435Y-75415532D01*
X161476000Y-75461888D01*
X161476000Y-76538112D01*
X161471435Y-76584468D01*
X161459704Y-76623138D01*
X161440654Y-76658777D01*
X161415017Y-76690017D01*
X161383777Y-76715654D01*
X161348138Y-76734704D01*
X161309468Y-76746435D01*
X161263112Y-76751000D01*
X160611888Y-76751000D01*
X160565532Y-76746435D01*
X160526862Y-76734704D01*
X160491223Y-76715654D01*
X160459983Y-76690017D01*
X160434346Y-76658777D01*
X160415296Y-76623138D01*
X160403565Y-76584468D01*
X160399000Y-76538112D01*
X160399000Y-75461888D01*
X160403565Y-75415532D01*
X160415296Y-75376862D01*
X160434346Y-75341223D01*
X160459983Y-75309983D01*
X160491223Y-75284346D01*
X160526862Y-75265296D01*
X160565532Y-75253565D01*
X160611888Y-75249000D01*
X161263112Y-75249000D01*
X161309468Y-75253565D01*
G37*
G36*
X164434468Y-75253565D02*
G01*
X164473138Y-75265296D01*
X164508777Y-75284346D01*
X164540017Y-75309983D01*
X164565654Y-75341223D01*
X164584704Y-75376862D01*
X164596435Y-75415532D01*
X164601000Y-75461888D01*
X164601000Y-76538112D01*
X164596435Y-76584468D01*
X164584704Y-76623138D01*
X164565654Y-76658777D01*
X164540017Y-76690017D01*
X164508777Y-76715654D01*
X164473138Y-76734704D01*
X164434468Y-76746435D01*
X164388112Y-76751000D01*
X163736888Y-76751000D01*
X163690532Y-76746435D01*
X163651862Y-76734704D01*
X163616223Y-76715654D01*
X163584983Y-76690017D01*
X163559346Y-76658777D01*
X163540296Y-76623138D01*
X163528565Y-76584468D01*
X163524000Y-76538112D01*
X163524000Y-75461888D01*
X163528565Y-75415532D01*
X163540296Y-75376862D01*
X163559346Y-75341223D01*
X163584983Y-75309983D01*
X163616223Y-75284346D01*
X163651862Y-75265296D01*
X163690532Y-75253565D01*
X163736888Y-75249000D01*
X164388112Y-75249000D01*
X164434468Y-75253565D01*
G37*
G36*
X166309468Y-75253565D02*
G01*
X166348138Y-75265296D01*
X166383777Y-75284346D01*
X166415017Y-75309983D01*
X166440654Y-75341223D01*
X166459704Y-75376862D01*
X166471435Y-75415532D01*
X166476000Y-75461888D01*
X166476000Y-76538112D01*
X166471435Y-76584468D01*
X166459704Y-76623138D01*
X166440654Y-76658777D01*
X166415017Y-76690017D01*
X166383777Y-76715654D01*
X166348138Y-76734704D01*
X166309468Y-76746435D01*
X166263112Y-76751000D01*
X165611888Y-76751000D01*
X165565532Y-76746435D01*
X165526862Y-76734704D01*
X165491223Y-76715654D01*
X165459983Y-76690017D01*
X165434346Y-76658777D01*
X165415296Y-76623138D01*
X165403565Y-76584468D01*
X165399000Y-76538112D01*
X165399000Y-75461888D01*
X165403565Y-75415532D01*
X165415296Y-75376862D01*
X165434346Y-75341223D01*
X165459983Y-75309983D01*
X165491223Y-75284346D01*
X165526862Y-75265296D01*
X165565532Y-75253565D01*
X165611888Y-75249000D01*
X166263112Y-75249000D01*
X166309468Y-75253565D01*
G37*
G36*
X159434468Y-75253565D02*
G01*
X159473138Y-75265296D01*
X159508777Y-75284346D01*
X159540017Y-75309983D01*
X159565654Y-75341223D01*
X159584704Y-75376862D01*
X159596435Y-75415532D01*
X159601000Y-75461888D01*
X159601000Y-76538112D01*
X159596435Y-76584468D01*
X159584704Y-76623138D01*
X159565654Y-76658777D01*
X159540017Y-76690017D01*
X159508777Y-76715654D01*
X159473138Y-76734704D01*
X159434468Y-76746435D01*
X159388112Y-76751000D01*
X158736888Y-76751000D01*
X158690532Y-76746435D01*
X158651862Y-76734704D01*
X158616223Y-76715654D01*
X158584983Y-76690017D01*
X158559346Y-76658777D01*
X158540296Y-76623138D01*
X158528565Y-76584468D01*
X158524000Y-76538112D01*
X158524000Y-75461888D01*
X158528565Y-75415532D01*
X158540296Y-75376862D01*
X158559346Y-75341223D01*
X158584983Y-75309983D01*
X158616223Y-75284346D01*
X158651862Y-75265296D01*
X158690532Y-75253565D01*
X158736888Y-75249000D01*
X159388112Y-75249000D01*
X159434468Y-75253565D01*
G37*
G36*
X174613512Y-73063927D02*
G01*
X174762812Y-73093624D01*
X174926784Y-73161544D01*
X175074354Y-73260147D01*
X175199853Y-73385646D01*
X175298456Y-73533216D01*
X175366376Y-73697188D01*
X175401000Y-73871259D01*
X175401000Y-74048741D01*
X175366376Y-74222812D01*
X175298456Y-74386784D01*
X175199853Y-74534354D01*
X175074354Y-74659853D01*
X174926784Y-74758456D01*
X174762812Y-74826376D01*
X174613512Y-74856073D01*
X174588742Y-74861000D01*
X174411258Y-74861000D01*
X174386488Y-74856073D01*
X174237188Y-74826376D01*
X174073216Y-74758456D01*
X173925646Y-74659853D01*
X173800147Y-74534354D01*
X173701544Y-74386784D01*
X173633624Y-74222812D01*
X173599000Y-74048741D01*
X173599000Y-73871259D01*
X173633624Y-73697188D01*
X173701544Y-73533216D01*
X173800147Y-73385646D01*
X173925646Y-73260147D01*
X174073216Y-73161544D01*
X174237188Y-73093624D01*
X174386488Y-73063927D01*
X174411258Y-73059000D01*
X174588742Y-73059000D01*
X174613512Y-73063927D01*
G37*
G36*
X137801000Y-74301000D02*
G01*
X134199000Y-74301000D01*
X134199000Y-70699000D01*
X137801000Y-70699000D01*
X137801000Y-74301000D01*
G37*
G36*
X130976979Y-70713293D02*
G01*
X131110625Y-70753834D01*
X131233784Y-70819664D01*
X131341740Y-70908260D01*
X131430336Y-71016216D01*
X131496166Y-71139375D01*
X131536707Y-71273021D01*
X131551000Y-71418140D01*
X131551000Y-73581860D01*
X131536707Y-73726979D01*
X131496166Y-73860625D01*
X131430336Y-73983784D01*
X131341740Y-74091740D01*
X131233784Y-74180336D01*
X131110625Y-74246166D01*
X130976979Y-74286707D01*
X130831860Y-74301000D01*
X129168140Y-74301000D01*
X129023021Y-74286707D01*
X128889375Y-74246166D01*
X128766216Y-74180336D01*
X128658260Y-74091740D01*
X128569664Y-73983784D01*
X128503834Y-73860625D01*
X128463293Y-73726979D01*
X128449000Y-73581860D01*
X128449000Y-71418140D01*
X128463293Y-71273021D01*
X128503834Y-71139375D01*
X128569664Y-71016216D01*
X128658260Y-70908260D01*
X128766216Y-70819664D01*
X128889375Y-70753834D01*
X129023021Y-70713293D01*
X129168140Y-70699000D01*
X130831860Y-70699000D01*
X130976979Y-70713293D01*
G37*
G36*
X166201000Y-73826000D02*
G01*
X163799000Y-73826000D01*
X163799000Y-73224000D01*
X166201000Y-73224000D01*
X166201000Y-73826000D01*
G37*
G36*
X160401000Y-71649001D02*
G01*
X160403402Y-71673387D01*
X160410515Y-71696836D01*
X160422066Y-71718447D01*
X160437611Y-71737389D01*
X160456553Y-71752934D01*
X160478164Y-71764485D01*
X160501613Y-71771598D01*
X160525999Y-71774000D01*
X161301000Y-71774000D01*
X161301000Y-72276000D01*
X160525999Y-72276000D01*
X160501613Y-72278402D01*
X160478164Y-72285515D01*
X160456553Y-72297066D01*
X160437611Y-72312611D01*
X160422066Y-72331553D01*
X160410515Y-72353164D01*
X160403402Y-72376613D01*
X160401000Y-72400999D01*
X160401000Y-72599001D01*
X160403402Y-72623387D01*
X160410515Y-72646836D01*
X160422066Y-72668447D01*
X160437611Y-72687389D01*
X160456553Y-72702934D01*
X160478164Y-72714485D01*
X160501613Y-72721598D01*
X160525999Y-72724000D01*
X161301000Y-72724000D01*
X161301000Y-73226000D01*
X160525999Y-73226000D01*
X160501613Y-73228402D01*
X160478164Y-73235515D01*
X160456553Y-73247066D01*
X160437611Y-73262611D01*
X160422066Y-73281553D01*
X160410515Y-73303164D01*
X160403402Y-73326613D01*
X160401000Y-73350999D01*
X160401000Y-73351000D01*
X159599000Y-73351000D01*
X159599000Y-73350999D01*
X159596598Y-73326613D01*
X159589485Y-73303164D01*
X159577934Y-73281553D01*
X159562389Y-73262611D01*
X159543447Y-73247066D01*
X159521836Y-73235515D01*
X159498387Y-73228402D01*
X159474001Y-73226000D01*
X158699000Y-73226000D01*
X158699000Y-72724000D01*
X159474001Y-72724000D01*
X159498387Y-72721598D01*
X159521836Y-72714485D01*
X159543447Y-72702934D01*
X159562389Y-72687389D01*
X159577934Y-72668447D01*
X159589485Y-72646836D01*
X159596598Y-72623387D01*
X159599000Y-72599001D01*
X159599000Y-72400999D01*
X159596598Y-72376613D01*
X159589485Y-72353164D01*
X159577934Y-72331553D01*
X159562389Y-72312611D01*
X159543447Y-72297066D01*
X159521836Y-72285515D01*
X159498387Y-72278402D01*
X159474001Y-72276000D01*
X158699000Y-72276000D01*
X158699000Y-71774000D01*
X159474001Y-71774000D01*
X159498387Y-71771598D01*
X159521836Y-71764485D01*
X159543447Y-71752934D01*
X159562389Y-71737389D01*
X159577934Y-71718447D01*
X159589485Y-71696836D01*
X159596598Y-71673387D01*
X159599000Y-71649001D01*
X159599000Y-71649000D01*
X160401000Y-71649000D01*
X160401000Y-71649001D01*
G37*
G36*
X174613512Y-70523927D02*
G01*
X174762812Y-70553624D01*
X174926784Y-70621544D01*
X175074354Y-70720147D01*
X175199853Y-70845646D01*
X175298456Y-70993216D01*
X175366376Y-71157188D01*
X175389416Y-71273021D01*
X175399399Y-71323207D01*
X175401000Y-71331259D01*
X175401000Y-71508741D01*
X175366376Y-71682812D01*
X175298456Y-71846784D01*
X175199853Y-71994354D01*
X175074354Y-72119853D01*
X174926784Y-72218456D01*
X174762812Y-72286376D01*
X174630916Y-72312611D01*
X174588742Y-72321000D01*
X174411258Y-72321000D01*
X174369084Y-72312611D01*
X174237188Y-72286376D01*
X174073216Y-72218456D01*
X173925646Y-72119853D01*
X173800147Y-71994354D01*
X173701544Y-71846784D01*
X173633624Y-71682812D01*
X173599000Y-71508741D01*
X173599000Y-71331259D01*
X173600602Y-71323207D01*
X173610584Y-71273021D01*
X173633624Y-71157188D01*
X173701544Y-70993216D01*
X173800147Y-70845646D01*
X173925646Y-70720147D01*
X174073216Y-70621544D01*
X174237188Y-70553624D01*
X174386488Y-70523927D01*
X174411258Y-70519000D01*
X174588742Y-70519000D01*
X174613512Y-70523927D01*
G37*
G36*
X166201000Y-71776000D02*
G01*
X163799000Y-71776000D01*
X163799000Y-71174000D01*
X166201000Y-71174000D01*
X166201000Y-71776000D01*
G37*
G36*
X174601702Y-67981578D02*
G01*
X174762812Y-68013624D01*
X174926784Y-68081544D01*
X175074354Y-68180147D01*
X175199853Y-68305646D01*
X175298456Y-68453216D01*
X175366376Y-68617188D01*
X175401000Y-68791259D01*
X175401000Y-68968741D01*
X175366376Y-69142812D01*
X175298456Y-69306784D01*
X175199853Y-69454354D01*
X175074354Y-69579853D01*
X174926784Y-69678456D01*
X174762812Y-69746376D01*
X174613512Y-69776073D01*
X174588742Y-69781000D01*
X174411258Y-69781000D01*
X174386488Y-69776073D01*
X174237188Y-69746376D01*
X174073216Y-69678456D01*
X173925646Y-69579853D01*
X173800147Y-69454354D01*
X173701544Y-69306784D01*
X173633624Y-69142812D01*
X173599000Y-68968741D01*
X173599000Y-68791259D01*
X173633624Y-68617188D01*
X173701544Y-68453216D01*
X173800147Y-68305646D01*
X173925646Y-68180147D01*
X174073216Y-68081544D01*
X174237188Y-68013624D01*
X174398298Y-67981578D01*
X174411258Y-67979000D01*
X174588742Y-67979000D01*
X174601702Y-67981578D01*
G37*
G36*
X166309468Y-68253565D02*
G01*
X166348138Y-68265296D01*
X166383777Y-68284346D01*
X166415017Y-68309983D01*
X166440654Y-68341223D01*
X166459704Y-68376862D01*
X166471435Y-68415532D01*
X166476000Y-68461888D01*
X166476000Y-69538112D01*
X166471435Y-69584468D01*
X166459704Y-69623138D01*
X166440654Y-69658777D01*
X166415017Y-69690017D01*
X166383777Y-69715654D01*
X166348138Y-69734704D01*
X166309468Y-69746435D01*
X166263112Y-69751000D01*
X165611888Y-69751000D01*
X165565532Y-69746435D01*
X165526862Y-69734704D01*
X165491223Y-69715654D01*
X165459983Y-69690017D01*
X165434346Y-69658777D01*
X165415296Y-69623138D01*
X165403565Y-69584468D01*
X165399000Y-69538112D01*
X165399000Y-68461888D01*
X165403565Y-68415532D01*
X165415296Y-68376862D01*
X165434346Y-68341223D01*
X165459983Y-68309983D01*
X165491223Y-68284346D01*
X165526862Y-68265296D01*
X165565532Y-68253565D01*
X165611888Y-68249000D01*
X166263112Y-68249000D01*
X166309468Y-68253565D01*
G37*
G36*
X164434468Y-68253565D02*
G01*
X164473138Y-68265296D01*
X164508777Y-68284346D01*
X164540017Y-68309983D01*
X164565654Y-68341223D01*
X164584704Y-68376862D01*
X164596435Y-68415532D01*
X164601000Y-68461888D01*
X164601000Y-69538112D01*
X164596435Y-69584468D01*
X164584704Y-69623138D01*
X164565654Y-69658777D01*
X164540017Y-69690017D01*
X164508777Y-69715654D01*
X164473138Y-69734704D01*
X164434468Y-69746435D01*
X164388112Y-69751000D01*
X163736888Y-69751000D01*
X163690532Y-69746435D01*
X163651862Y-69734704D01*
X163616223Y-69715654D01*
X163584983Y-69690017D01*
X163559346Y-69658777D01*
X163540296Y-69623138D01*
X163528565Y-69584468D01*
X163524000Y-69538112D01*
X163524000Y-68461888D01*
X163528565Y-68415532D01*
X163540296Y-68376862D01*
X163559346Y-68341223D01*
X163584983Y-68309983D01*
X163616223Y-68284346D01*
X163651862Y-68265296D01*
X163690532Y-68253565D01*
X163736888Y-68249000D01*
X164388112Y-68249000D01*
X164434468Y-68253565D01*
G37*
G36*
X139875256Y-65891298D02*
G01*
X139981579Y-65912447D01*
X140282042Y-66036903D01*
X140552451Y-66217585D01*
X140782415Y-66447549D01*
X140963097Y-66717958D01*
X141087553Y-67018421D01*
X141151000Y-67337391D01*
X141151000Y-67662609D01*
X141087553Y-67981579D01*
X141074279Y-68013625D01*
X140970034Y-68265296D01*
X140963097Y-68282042D01*
X140782415Y-68552451D01*
X140552451Y-68782415D01*
X140282042Y-68963097D01*
X140282041Y-68963098D01*
X140282040Y-68963098D01*
X140268414Y-68968742D01*
X139981579Y-69087553D01*
X139875256Y-69108702D01*
X139662611Y-69151000D01*
X139337389Y-69151000D01*
X139124744Y-69108702D01*
X139018421Y-69087553D01*
X138731586Y-68968742D01*
X138717960Y-68963098D01*
X138717959Y-68963098D01*
X138717958Y-68963097D01*
X138447549Y-68782415D01*
X138217585Y-68552451D01*
X138036903Y-68282042D01*
X138029967Y-68265296D01*
X137925721Y-68013625D01*
X137912447Y-67981579D01*
X137849000Y-67662609D01*
X137849000Y-67337391D01*
X137912447Y-67018421D01*
X138036903Y-66717958D01*
X138217585Y-66447549D01*
X138447549Y-66217585D01*
X138717958Y-66036903D01*
X139018421Y-65912447D01*
X139124744Y-65891298D01*
X139337389Y-65849000D01*
X139662611Y-65849000D01*
X139875256Y-65891298D01*
G37*
G36*
X129171000Y-66306000D02*
G01*
X127369000Y-66306000D01*
X127369000Y-64504000D01*
X129171000Y-64504000D01*
X129171000Y-66306000D01*
G37*
G36*
X130923512Y-64508927D02*
G01*
X131072812Y-64538624D01*
X131236784Y-64606544D01*
X131384354Y-64705147D01*
X131509853Y-64830646D01*
X131608456Y-64978216D01*
X131676376Y-65142188D01*
X131711000Y-65316259D01*
X131711000Y-65493741D01*
X131676376Y-65667812D01*
X131608456Y-65831784D01*
X131509853Y-65979354D01*
X131384354Y-66104853D01*
X131236784Y-66203456D01*
X131072812Y-66271376D01*
X130923512Y-66301073D01*
X130898742Y-66306000D01*
X130721258Y-66306000D01*
X130696488Y-66301073D01*
X130547188Y-66271376D01*
X130383216Y-66203456D01*
X130235646Y-66104853D01*
X130110147Y-65979354D01*
X130011544Y-65831784D01*
X129943624Y-65667812D01*
X129909000Y-65493741D01*
X129909000Y-65316259D01*
X129943624Y-65142188D01*
X130011544Y-64978216D01*
X130110147Y-64830646D01*
X130235646Y-64705147D01*
X130383216Y-64606544D01*
X130547188Y-64538624D01*
X130696488Y-64508927D01*
X130721258Y-64504000D01*
X130898742Y-64504000D01*
X130923512Y-64508927D01*
G37*
G36*
X173634239Y-56811467D02*
G01*
X173948282Y-56873934D01*
X174539926Y-57119001D01*
X175072392Y-57474784D01*
X175525216Y-57927608D01*
X175880999Y-58460074D01*
X176126066Y-59051718D01*
X176126066Y-59051719D01*
X176251000Y-59679803D01*
X176251000Y-60320197D01*
X176188533Y-60634239D01*
X176126066Y-60948282D01*
X175880999Y-61539926D01*
X175525216Y-62072392D01*
X175072392Y-62525216D01*
X174539926Y-62880999D01*
X173948282Y-63126066D01*
X173634239Y-63188533D01*
X173320197Y-63251000D01*
X172679803Y-63251000D01*
X172365761Y-63188533D01*
X172051718Y-63126066D01*
X171460074Y-62880999D01*
X170927608Y-62525216D01*
X170474784Y-62072392D01*
X170119001Y-61539926D01*
X169873934Y-60948282D01*
X169811467Y-60634239D01*
X169749000Y-60320197D01*
X169749000Y-59679803D01*
X169873934Y-59051719D01*
X169873934Y-59051718D01*
X170119001Y-58460074D01*
X170474784Y-57927608D01*
X170927608Y-57474784D01*
X171460074Y-57119001D01*
X172051718Y-56873934D01*
X172365761Y-56811467D01*
X172679803Y-56749000D01*
X173320197Y-56749000D01*
X173634239Y-56811467D01*
G37*
G36*
X130634239Y-56811467D02*
G01*
X130948282Y-56873934D01*
X131539926Y-57119001D01*
X132072392Y-57474784D01*
X132525216Y-57927608D01*
X132880999Y-58460074D01*
X133126066Y-59051718D01*
X133126066Y-59051719D01*
X133251000Y-59679803D01*
X133251000Y-60320197D01*
X133188533Y-60634239D01*
X133126066Y-60948282D01*
X132880999Y-61539926D01*
X132525216Y-62072392D01*
X132072392Y-62525216D01*
X131539926Y-62880999D01*
X130948282Y-63126066D01*
X130634239Y-63188533D01*
X130320197Y-63251000D01*
X129679803Y-63251000D01*
X129365761Y-63188533D01*
X129051718Y-63126066D01*
X128460074Y-62880999D01*
X127927608Y-62525216D01*
X127474784Y-62072392D01*
X127119001Y-61539926D01*
X126873934Y-60948282D01*
X126811467Y-60634239D01*
X126749000Y-60320197D01*
X126749000Y-59679803D01*
X126873934Y-59051719D01*
X126873934Y-59051718D01*
X127119001Y-58460074D01*
X127474784Y-57927608D01*
X127927608Y-57474784D01*
X128460074Y-57119001D01*
X129051718Y-56873934D01*
X129365761Y-56811467D01*
X129679803Y-56749000D01*
X130320197Y-56749000D01*
X130634239Y-56811467D01*
G37*
M02*
